%TF.GenerationSoftware,KiCad,Pcbnew,7.0.10*%
%TF.CreationDate,2024-01-15T21:07:05-07:00*%
%TF.ProjectId,RPI 5 PCIE,52504920-3520-4504-9349-452e6b696361,rev?*%
%TF.SameCoordinates,Original*%
%TF.FileFunction,Drillmap*%
%TF.FilePolarity,Positive*%
%FSLAX45Y45*%
G04 Gerber Fmt 4.5, Leading zero omitted, Abs format (unit mm)*
G04 Created by KiCad (PCBNEW 7.0.10) date 2024-01-15 21:07:05*
%MOMM*%
%LPD*%
G01*
G04 APERTURE LIST*
%ADD10C,0.100000*%
%ADD11C,0.200000*%
%ADD12C,0.140000*%
G04 APERTURE END LIST*
D10*
X9996937Y-8500000D02*
X19996937Y-8500000D01*
X19996937Y-12500000D01*
X9996937Y-12500000D01*
X9996937Y-8500000D01*
D11*
D10*
X11030000Y-10805000D02*
X11070000Y-10845000D01*
X11070000Y-10805000D02*
X11030000Y-10845000D01*
X11030000Y-10930000D02*
X11070000Y-10970000D01*
X11070000Y-10930000D02*
X11030000Y-10970000D01*
X11180000Y-10805000D02*
X11220000Y-10845000D01*
X11220000Y-10805000D02*
X11180000Y-10845000D01*
X11180000Y-10930000D02*
X11220000Y-10970000D01*
X11220000Y-10930000D02*
X11180000Y-10970000D01*
X11330000Y-10805000D02*
X11370000Y-10845000D01*
X11370000Y-10805000D02*
X11330000Y-10845000D01*
X11330000Y-10930000D02*
X11370000Y-10970000D01*
X11370000Y-10930000D02*
X11330000Y-10970000D01*
X12251936Y-12130000D02*
X12291936Y-12170000D01*
X12291936Y-12130000D02*
X12251936Y-12170000D01*
X12651936Y-12130000D02*
X12691936Y-12170000D01*
X12691936Y-12130000D02*
X12651936Y-12170000D01*
X13051936Y-12130000D02*
X13091936Y-12170000D01*
X13091936Y-12130000D02*
X13051936Y-12170000D01*
X13651936Y-12130000D02*
X13691936Y-12170000D01*
X13691936Y-12130000D02*
X13651936Y-12170000D01*
X14051936Y-12130000D02*
X14091936Y-12170000D01*
X14091936Y-12130000D02*
X14051936Y-12170000D01*
X14451936Y-12130000D02*
X14491936Y-12170000D01*
X14491936Y-12130000D02*
X14451936Y-12170000D01*
X14851936Y-12130000D02*
X14891936Y-12170000D01*
X14891936Y-12130000D02*
X14851936Y-12170000D01*
X15651936Y-12130000D02*
X15691936Y-12170000D01*
X15691936Y-12130000D02*
X15651936Y-12170000D01*
X16051936Y-12130000D02*
X16091936Y-12170000D01*
X16091936Y-12130000D02*
X16051936Y-12170000D01*
X16451936Y-12130000D02*
X16491936Y-12170000D01*
X16491936Y-12130000D02*
X16451936Y-12170000D01*
X16851937Y-12130000D02*
X16891937Y-12170000D01*
X16891937Y-12130000D02*
X16851937Y-12170000D01*
X17251937Y-12130000D02*
X17291937Y-12170000D01*
X17291937Y-12130000D02*
X17251937Y-12170000D01*
X17651937Y-12130000D02*
X17691937Y-12170000D01*
X17691937Y-12130000D02*
X17651937Y-12170000D01*
X18051937Y-12130000D02*
X18091937Y-12170000D01*
X18091937Y-12130000D02*
X18051937Y-12170000D01*
X18440000Y-10280000D02*
X18480000Y-10320000D01*
X18480000Y-10280000D02*
X18440000Y-10320000D01*
X18440000Y-10400000D02*
X18480000Y-10440000D01*
X18480000Y-10400000D02*
X18440000Y-10440000D01*
X18440000Y-10540000D02*
X18480000Y-10580000D01*
X18480000Y-10540000D02*
X18440000Y-10580000D01*
X18476937Y-12130000D02*
X18516937Y-12170000D01*
X18516937Y-12130000D02*
X18476937Y-12170000D01*
X18600000Y-10760000D02*
X18640000Y-10800000D01*
X18640000Y-10760000D02*
X18600000Y-10800000D01*
X18700000Y-9940000D02*
X18740000Y-9980000D01*
X18740000Y-9940000D02*
X18700000Y-9980000D01*
X19220000Y-9320000D02*
X19260000Y-9360000D01*
X19260000Y-9320000D02*
X19220000Y-9360000D01*
X10406937Y-11450000D02*
G75*
G03*
X10336937Y-11450000I-35000J0D01*
G01*
X10336937Y-11450000D02*
G75*
G03*
X10406937Y-11450000I35000J0D01*
G01*
X10406937Y-11700000D02*
G75*
G03*
X10336937Y-11700000I-35000J0D01*
G01*
X10336937Y-11700000D02*
G75*
G03*
X10406937Y-11700000I35000J0D01*
G01*
X10506937Y-11250000D02*
G75*
G03*
X10436937Y-11250000I-35000J0D01*
G01*
X10436937Y-11250000D02*
G75*
G03*
X10506937Y-11250000I35000J0D01*
G01*
X10506937Y-11900000D02*
G75*
G03*
X10436937Y-11900000I-35000J0D01*
G01*
X10436937Y-11900000D02*
G75*
G03*
X10506937Y-11900000I35000J0D01*
G01*
X10606937Y-11450000D02*
G75*
G03*
X10536937Y-11450000I-35000J0D01*
G01*
X10536937Y-11450000D02*
G75*
G03*
X10606937Y-11450000I35000J0D01*
G01*
X10606937Y-11700000D02*
G75*
G03*
X10536937Y-11700000I-35000J0D01*
G01*
X10536937Y-11700000D02*
G75*
G03*
X10606937Y-11700000I35000J0D01*
G01*
X10706937Y-11250000D02*
G75*
G03*
X10636937Y-11250000I-35000J0D01*
G01*
X10636937Y-11250000D02*
G75*
G03*
X10706937Y-11250000I35000J0D01*
G01*
X10706937Y-11900000D02*
G75*
G03*
X10636937Y-11900000I-35000J0D01*
G01*
X10636937Y-11900000D02*
G75*
G03*
X10706937Y-11900000I35000J0D01*
G01*
X10806937Y-11450000D02*
G75*
G03*
X10736937Y-11450000I-35000J0D01*
G01*
X10736937Y-11450000D02*
G75*
G03*
X10806937Y-11450000I35000J0D01*
G01*
X10806937Y-11700000D02*
G75*
G03*
X10736937Y-11700000I-35000J0D01*
G01*
X10736937Y-11700000D02*
G75*
G03*
X10806937Y-11700000I35000J0D01*
G01*
X10906937Y-11250000D02*
G75*
G03*
X10836937Y-11250000I-35000J0D01*
G01*
X10836937Y-11250000D02*
G75*
G03*
X10906937Y-11250000I35000J0D01*
G01*
X10906937Y-11900000D02*
G75*
G03*
X10836937Y-11900000I-35000J0D01*
G01*
X10836937Y-11900000D02*
G75*
G03*
X10906937Y-11900000I35000J0D01*
G01*
X11006937Y-11450000D02*
G75*
G03*
X10936937Y-11450000I-35000J0D01*
G01*
X10936937Y-11450000D02*
G75*
G03*
X11006937Y-11450000I35000J0D01*
G01*
X11006937Y-11700000D02*
G75*
G03*
X10936937Y-11700000I-35000J0D01*
G01*
X10936937Y-11700000D02*
G75*
G03*
X11006937Y-11700000I35000J0D01*
G01*
X11106937Y-11250000D02*
G75*
G03*
X11036937Y-11250000I-35000J0D01*
G01*
X11036937Y-11250000D02*
G75*
G03*
X11106937Y-11250000I35000J0D01*
G01*
X11106937Y-11900000D02*
G75*
G03*
X11036937Y-11900000I-35000J0D01*
G01*
X11036937Y-11900000D02*
G75*
G03*
X11106937Y-11900000I35000J0D01*
G01*
X11206936Y-11450000D02*
G75*
G03*
X11136937Y-11450000I-35000J0D01*
G01*
X11136937Y-11450000D02*
G75*
G03*
X11206936Y-11450000I35000J0D01*
G01*
X11206936Y-11700000D02*
G75*
G03*
X11136937Y-11700000I-35000J0D01*
G01*
X11136937Y-11700000D02*
G75*
G03*
X11206936Y-11700000I35000J0D01*
G01*
X11306936Y-11250000D02*
G75*
G03*
X11236936Y-11250000I-35000J0D01*
G01*
X11236936Y-11250000D02*
G75*
G03*
X11306936Y-11250000I35000J0D01*
G01*
X11306936Y-11900000D02*
G75*
G03*
X11236936Y-11900000I-35000J0D01*
G01*
X11236936Y-11900000D02*
G75*
G03*
X11306936Y-11900000I35000J0D01*
G01*
X11406936Y-11450000D02*
G75*
G03*
X11336936Y-11450000I-35000J0D01*
G01*
X11336936Y-11450000D02*
G75*
G03*
X11406936Y-11450000I35000J0D01*
G01*
X11406936Y-11700000D02*
G75*
G03*
X11336936Y-11700000I-35000J0D01*
G01*
X11336936Y-11700000D02*
G75*
G03*
X11406936Y-11700000I35000J0D01*
G01*
X11706936Y-11250000D02*
G75*
G03*
X11636936Y-11250000I-35000J0D01*
G01*
X11636936Y-11250000D02*
G75*
G03*
X11706936Y-11250000I35000J0D01*
G01*
X11706936Y-11900000D02*
G75*
G03*
X11636936Y-11900000I-35000J0D01*
G01*
X11636936Y-11900000D02*
G75*
G03*
X11706936Y-11900000I35000J0D01*
G01*
X11806936Y-11450000D02*
G75*
G03*
X11736936Y-11450000I-35000J0D01*
G01*
X11736936Y-11450000D02*
G75*
G03*
X11806936Y-11450000I35000J0D01*
G01*
X11806936Y-11700000D02*
G75*
G03*
X11736936Y-11700000I-35000J0D01*
G01*
X11736936Y-11700000D02*
G75*
G03*
X11806936Y-11700000I35000J0D01*
G01*
X11906936Y-11250000D02*
G75*
G03*
X11836936Y-11250000I-35000J0D01*
G01*
X11836936Y-11250000D02*
G75*
G03*
X11906936Y-11250000I35000J0D01*
G01*
X11906936Y-11900000D02*
G75*
G03*
X11836936Y-11900000I-35000J0D01*
G01*
X11836936Y-11900000D02*
G75*
G03*
X11906936Y-11900000I35000J0D01*
G01*
X12006936Y-11450000D02*
G75*
G03*
X11936936Y-11450000I-35000J0D01*
G01*
X11936936Y-11450000D02*
G75*
G03*
X12006936Y-11450000I35000J0D01*
G01*
X12006936Y-11700000D02*
G75*
G03*
X11936936Y-11700000I-35000J0D01*
G01*
X11936936Y-11700000D02*
G75*
G03*
X12006936Y-11700000I35000J0D01*
G01*
X12106936Y-11250000D02*
G75*
G03*
X12036936Y-11250000I-35000J0D01*
G01*
X12036936Y-11250000D02*
G75*
G03*
X12106936Y-11250000I35000J0D01*
G01*
X12106936Y-11900000D02*
G75*
G03*
X12036936Y-11900000I-35000J0D01*
G01*
X12036936Y-11900000D02*
G75*
G03*
X12106936Y-11900000I35000J0D01*
G01*
X12206936Y-11450000D02*
G75*
G03*
X12136936Y-11450000I-35000J0D01*
G01*
X12136936Y-11450000D02*
G75*
G03*
X12206936Y-11450000I35000J0D01*
G01*
X12206936Y-11700000D02*
G75*
G03*
X12136936Y-11700000I-35000J0D01*
G01*
X12136936Y-11700000D02*
G75*
G03*
X12206936Y-11700000I35000J0D01*
G01*
X12306936Y-11250000D02*
G75*
G03*
X12236936Y-11250000I-35000J0D01*
G01*
X12236936Y-11250000D02*
G75*
G03*
X12306936Y-11250000I35000J0D01*
G01*
X12306936Y-11900000D02*
G75*
G03*
X12236936Y-11900000I-35000J0D01*
G01*
X12236936Y-11900000D02*
G75*
G03*
X12306936Y-11900000I35000J0D01*
G01*
X12406936Y-11450000D02*
G75*
G03*
X12336936Y-11450000I-35000J0D01*
G01*
X12336936Y-11450000D02*
G75*
G03*
X12406936Y-11450000I35000J0D01*
G01*
X12406936Y-11700000D02*
G75*
G03*
X12336936Y-11700000I-35000J0D01*
G01*
X12336936Y-11700000D02*
G75*
G03*
X12406936Y-11700000I35000J0D01*
G01*
X12506936Y-11250000D02*
G75*
G03*
X12436936Y-11250000I-35000J0D01*
G01*
X12436936Y-11250000D02*
G75*
G03*
X12506936Y-11250000I35000J0D01*
G01*
X12506936Y-11900000D02*
G75*
G03*
X12436936Y-11900000I-35000J0D01*
G01*
X12436936Y-11900000D02*
G75*
G03*
X12506936Y-11900000I35000J0D01*
G01*
X12606936Y-11450000D02*
G75*
G03*
X12536936Y-11450000I-35000J0D01*
G01*
X12536936Y-11450000D02*
G75*
G03*
X12606936Y-11450000I35000J0D01*
G01*
X12606936Y-11700000D02*
G75*
G03*
X12536936Y-11700000I-35000J0D01*
G01*
X12536936Y-11700000D02*
G75*
G03*
X12606936Y-11700000I35000J0D01*
G01*
X12706936Y-11250000D02*
G75*
G03*
X12636936Y-11250000I-35000J0D01*
G01*
X12636936Y-11250000D02*
G75*
G03*
X12706936Y-11250000I35000J0D01*
G01*
X12706936Y-11900000D02*
G75*
G03*
X12636936Y-11900000I-35000J0D01*
G01*
X12636936Y-11900000D02*
G75*
G03*
X12706936Y-11900000I35000J0D01*
G01*
X12806936Y-11450000D02*
G75*
G03*
X12736936Y-11450000I-35000J0D01*
G01*
X12736936Y-11450000D02*
G75*
G03*
X12806936Y-11450000I35000J0D01*
G01*
X12806936Y-11700000D02*
G75*
G03*
X12736936Y-11700000I-35000J0D01*
G01*
X12736936Y-11700000D02*
G75*
G03*
X12806936Y-11700000I35000J0D01*
G01*
X12906936Y-11250000D02*
G75*
G03*
X12836936Y-11250000I-35000J0D01*
G01*
X12836936Y-11250000D02*
G75*
G03*
X12906936Y-11250000I35000J0D01*
G01*
X12906936Y-11900000D02*
G75*
G03*
X12836936Y-11900000I-35000J0D01*
G01*
X12836936Y-11900000D02*
G75*
G03*
X12906936Y-11900000I35000J0D01*
G01*
X13006936Y-11450000D02*
G75*
G03*
X12936936Y-11450000I-35000J0D01*
G01*
X12936936Y-11450000D02*
G75*
G03*
X13006936Y-11450000I35000J0D01*
G01*
X13006936Y-11700000D02*
G75*
G03*
X12936936Y-11700000I-35000J0D01*
G01*
X12936936Y-11700000D02*
G75*
G03*
X13006936Y-11700000I35000J0D01*
G01*
X13106936Y-11250000D02*
G75*
G03*
X13036936Y-11250000I-35000J0D01*
G01*
X13036936Y-11250000D02*
G75*
G03*
X13106936Y-11250000I35000J0D01*
G01*
X13106936Y-11900000D02*
G75*
G03*
X13036936Y-11900000I-35000J0D01*
G01*
X13036936Y-11900000D02*
G75*
G03*
X13106936Y-11900000I35000J0D01*
G01*
X13206936Y-11450000D02*
G75*
G03*
X13136936Y-11450000I-35000J0D01*
G01*
X13136936Y-11450000D02*
G75*
G03*
X13206936Y-11450000I35000J0D01*
G01*
X13206936Y-11700000D02*
G75*
G03*
X13136936Y-11700000I-35000J0D01*
G01*
X13136936Y-11700000D02*
G75*
G03*
X13206936Y-11700000I35000J0D01*
G01*
X13306936Y-11250000D02*
G75*
G03*
X13236936Y-11250000I-35000J0D01*
G01*
X13236936Y-11250000D02*
G75*
G03*
X13306936Y-11250000I35000J0D01*
G01*
X13306936Y-11900000D02*
G75*
G03*
X13236936Y-11900000I-35000J0D01*
G01*
X13236936Y-11900000D02*
G75*
G03*
X13306936Y-11900000I35000J0D01*
G01*
X13406936Y-11450000D02*
G75*
G03*
X13336936Y-11450000I-35000J0D01*
G01*
X13336936Y-11450000D02*
G75*
G03*
X13406936Y-11450000I35000J0D01*
G01*
X13406936Y-11700000D02*
G75*
G03*
X13336936Y-11700000I-35000J0D01*
G01*
X13336936Y-11700000D02*
G75*
G03*
X13406936Y-11700000I35000J0D01*
G01*
X13506936Y-11250000D02*
G75*
G03*
X13436936Y-11250000I-35000J0D01*
G01*
X13436936Y-11250000D02*
G75*
G03*
X13506936Y-11250000I35000J0D01*
G01*
X13506936Y-11900000D02*
G75*
G03*
X13436936Y-11900000I-35000J0D01*
G01*
X13436936Y-11900000D02*
G75*
G03*
X13506936Y-11900000I35000J0D01*
G01*
X13606936Y-11450000D02*
G75*
G03*
X13536936Y-11450000I-35000J0D01*
G01*
X13536936Y-11450000D02*
G75*
G03*
X13606936Y-11450000I35000J0D01*
G01*
X13606936Y-11700000D02*
G75*
G03*
X13536936Y-11700000I-35000J0D01*
G01*
X13536936Y-11700000D02*
G75*
G03*
X13606936Y-11700000I35000J0D01*
G01*
X13706936Y-11250000D02*
G75*
G03*
X13636936Y-11250000I-35000J0D01*
G01*
X13636936Y-11250000D02*
G75*
G03*
X13706936Y-11250000I35000J0D01*
G01*
X13706936Y-11900000D02*
G75*
G03*
X13636936Y-11900000I-35000J0D01*
G01*
X13636936Y-11900000D02*
G75*
G03*
X13706936Y-11900000I35000J0D01*
G01*
X13806936Y-11450000D02*
G75*
G03*
X13736936Y-11450000I-35000J0D01*
G01*
X13736936Y-11450000D02*
G75*
G03*
X13806936Y-11450000I35000J0D01*
G01*
X13806936Y-11700000D02*
G75*
G03*
X13736936Y-11700000I-35000J0D01*
G01*
X13736936Y-11700000D02*
G75*
G03*
X13806936Y-11700000I35000J0D01*
G01*
X13906936Y-11250000D02*
G75*
G03*
X13836936Y-11250000I-35000J0D01*
G01*
X13836936Y-11250000D02*
G75*
G03*
X13906936Y-11250000I35000J0D01*
G01*
X13906936Y-11900000D02*
G75*
G03*
X13836936Y-11900000I-35000J0D01*
G01*
X13836936Y-11900000D02*
G75*
G03*
X13906936Y-11900000I35000J0D01*
G01*
X14006936Y-11450000D02*
G75*
G03*
X13936936Y-11450000I-35000J0D01*
G01*
X13936936Y-11450000D02*
G75*
G03*
X14006936Y-11450000I35000J0D01*
G01*
X14006936Y-11700000D02*
G75*
G03*
X13936936Y-11700000I-35000J0D01*
G01*
X13936936Y-11700000D02*
G75*
G03*
X14006936Y-11700000I35000J0D01*
G01*
X14106936Y-11250000D02*
G75*
G03*
X14036936Y-11250000I-35000J0D01*
G01*
X14036936Y-11250000D02*
G75*
G03*
X14106936Y-11250000I35000J0D01*
G01*
X14106936Y-11900000D02*
G75*
G03*
X14036936Y-11900000I-35000J0D01*
G01*
X14036936Y-11900000D02*
G75*
G03*
X14106936Y-11900000I35000J0D01*
G01*
X14206936Y-11450000D02*
G75*
G03*
X14136936Y-11450000I-35000J0D01*
G01*
X14136936Y-11450000D02*
G75*
G03*
X14206936Y-11450000I35000J0D01*
G01*
X14206936Y-11700000D02*
G75*
G03*
X14136936Y-11700000I-35000J0D01*
G01*
X14136936Y-11700000D02*
G75*
G03*
X14206936Y-11700000I35000J0D01*
G01*
X14306936Y-11250000D02*
G75*
G03*
X14236936Y-11250000I-35000J0D01*
G01*
X14236936Y-11250000D02*
G75*
G03*
X14306936Y-11250000I35000J0D01*
G01*
X14306936Y-11900000D02*
G75*
G03*
X14236936Y-11900000I-35000J0D01*
G01*
X14236936Y-11900000D02*
G75*
G03*
X14306936Y-11900000I35000J0D01*
G01*
X14406936Y-11450000D02*
G75*
G03*
X14336936Y-11450000I-35000J0D01*
G01*
X14336936Y-11450000D02*
G75*
G03*
X14406936Y-11450000I35000J0D01*
G01*
X14406936Y-11700000D02*
G75*
G03*
X14336936Y-11700000I-35000J0D01*
G01*
X14336936Y-11700000D02*
G75*
G03*
X14406936Y-11700000I35000J0D01*
G01*
X14506936Y-11250000D02*
G75*
G03*
X14436936Y-11250000I-35000J0D01*
G01*
X14436936Y-11250000D02*
G75*
G03*
X14506936Y-11250000I35000J0D01*
G01*
X14506936Y-11900000D02*
G75*
G03*
X14436936Y-11900000I-35000J0D01*
G01*
X14436936Y-11900000D02*
G75*
G03*
X14506936Y-11900000I35000J0D01*
G01*
X14606936Y-11450000D02*
G75*
G03*
X14536936Y-11450000I-35000J0D01*
G01*
X14536936Y-11450000D02*
G75*
G03*
X14606936Y-11450000I35000J0D01*
G01*
X14606936Y-11700000D02*
G75*
G03*
X14536936Y-11700000I-35000J0D01*
G01*
X14536936Y-11700000D02*
G75*
G03*
X14606936Y-11700000I35000J0D01*
G01*
X14706936Y-11250000D02*
G75*
G03*
X14636936Y-11250000I-35000J0D01*
G01*
X14636936Y-11250000D02*
G75*
G03*
X14706936Y-11250000I35000J0D01*
G01*
X14706936Y-11900000D02*
G75*
G03*
X14636936Y-11900000I-35000J0D01*
G01*
X14636936Y-11900000D02*
G75*
G03*
X14706936Y-11900000I35000J0D01*
G01*
X14806936Y-11450000D02*
G75*
G03*
X14736936Y-11450000I-35000J0D01*
G01*
X14736936Y-11450000D02*
G75*
G03*
X14806936Y-11450000I35000J0D01*
G01*
X14806936Y-11700000D02*
G75*
G03*
X14736936Y-11700000I-35000J0D01*
G01*
X14736936Y-11700000D02*
G75*
G03*
X14806936Y-11700000I35000J0D01*
G01*
X14906936Y-11250000D02*
G75*
G03*
X14836936Y-11250000I-35000J0D01*
G01*
X14836936Y-11250000D02*
G75*
G03*
X14906936Y-11250000I35000J0D01*
G01*
X14906936Y-11900000D02*
G75*
G03*
X14836936Y-11900000I-35000J0D01*
G01*
X14836936Y-11900000D02*
G75*
G03*
X14906936Y-11900000I35000J0D01*
G01*
X15006936Y-11450000D02*
G75*
G03*
X14936936Y-11450000I-35000J0D01*
G01*
X14936936Y-11450000D02*
G75*
G03*
X15006936Y-11450000I35000J0D01*
G01*
X15006936Y-11700000D02*
G75*
G03*
X14936936Y-11700000I-35000J0D01*
G01*
X14936936Y-11700000D02*
G75*
G03*
X15006936Y-11700000I35000J0D01*
G01*
X15106936Y-11250000D02*
G75*
G03*
X15036936Y-11250000I-35000J0D01*
G01*
X15036936Y-11250000D02*
G75*
G03*
X15106936Y-11250000I35000J0D01*
G01*
X15106936Y-11900000D02*
G75*
G03*
X15036936Y-11900000I-35000J0D01*
G01*
X15036936Y-11900000D02*
G75*
G03*
X15106936Y-11900000I35000J0D01*
G01*
X15206936Y-11450000D02*
G75*
G03*
X15136936Y-11450000I-35000J0D01*
G01*
X15136936Y-11450000D02*
G75*
G03*
X15206936Y-11450000I35000J0D01*
G01*
X15206936Y-11700000D02*
G75*
G03*
X15136936Y-11700000I-35000J0D01*
G01*
X15136936Y-11700000D02*
G75*
G03*
X15206936Y-11700000I35000J0D01*
G01*
X15306936Y-11250000D02*
G75*
G03*
X15236936Y-11250000I-35000J0D01*
G01*
X15236936Y-11250000D02*
G75*
G03*
X15306936Y-11250000I35000J0D01*
G01*
X15306936Y-11900000D02*
G75*
G03*
X15236936Y-11900000I-35000J0D01*
G01*
X15236936Y-11900000D02*
G75*
G03*
X15306936Y-11900000I35000J0D01*
G01*
X15406936Y-11450000D02*
G75*
G03*
X15336936Y-11450000I-35000J0D01*
G01*
X15336936Y-11450000D02*
G75*
G03*
X15406936Y-11450000I35000J0D01*
G01*
X15406936Y-11700000D02*
G75*
G03*
X15336936Y-11700000I-35000J0D01*
G01*
X15336936Y-11700000D02*
G75*
G03*
X15406936Y-11700000I35000J0D01*
G01*
X15506936Y-11250000D02*
G75*
G03*
X15436936Y-11250000I-35000J0D01*
G01*
X15436936Y-11250000D02*
G75*
G03*
X15506936Y-11250000I35000J0D01*
G01*
X15506936Y-11900000D02*
G75*
G03*
X15436936Y-11900000I-35000J0D01*
G01*
X15436936Y-11900000D02*
G75*
G03*
X15506936Y-11900000I35000J0D01*
G01*
X15606936Y-11450000D02*
G75*
G03*
X15536936Y-11450000I-35000J0D01*
G01*
X15536936Y-11450000D02*
G75*
G03*
X15606936Y-11450000I35000J0D01*
G01*
X15606936Y-11700000D02*
G75*
G03*
X15536936Y-11700000I-35000J0D01*
G01*
X15536936Y-11700000D02*
G75*
G03*
X15606936Y-11700000I35000J0D01*
G01*
X15706936Y-11250000D02*
G75*
G03*
X15636936Y-11250000I-35000J0D01*
G01*
X15636936Y-11250000D02*
G75*
G03*
X15706936Y-11250000I35000J0D01*
G01*
X15706936Y-11900000D02*
G75*
G03*
X15636936Y-11900000I-35000J0D01*
G01*
X15636936Y-11900000D02*
G75*
G03*
X15706936Y-11900000I35000J0D01*
G01*
X15806936Y-11450000D02*
G75*
G03*
X15736936Y-11450000I-35000J0D01*
G01*
X15736936Y-11450000D02*
G75*
G03*
X15806936Y-11450000I35000J0D01*
G01*
X15806936Y-11700000D02*
G75*
G03*
X15736936Y-11700000I-35000J0D01*
G01*
X15736936Y-11700000D02*
G75*
G03*
X15806936Y-11700000I35000J0D01*
G01*
X15906936Y-11250000D02*
G75*
G03*
X15836936Y-11250000I-35000J0D01*
G01*
X15836936Y-11250000D02*
G75*
G03*
X15906936Y-11250000I35000J0D01*
G01*
X15906936Y-11900000D02*
G75*
G03*
X15836936Y-11900000I-35000J0D01*
G01*
X15836936Y-11900000D02*
G75*
G03*
X15906936Y-11900000I35000J0D01*
G01*
X16006936Y-11450000D02*
G75*
G03*
X15936936Y-11450000I-35000J0D01*
G01*
X15936936Y-11450000D02*
G75*
G03*
X16006936Y-11450000I35000J0D01*
G01*
X16006936Y-11700000D02*
G75*
G03*
X15936936Y-11700000I-35000J0D01*
G01*
X15936936Y-11700000D02*
G75*
G03*
X16006936Y-11700000I35000J0D01*
G01*
X16106936Y-11250000D02*
G75*
G03*
X16036936Y-11250000I-35000J0D01*
G01*
X16036936Y-11250000D02*
G75*
G03*
X16106936Y-11250000I35000J0D01*
G01*
X16106936Y-11900000D02*
G75*
G03*
X16036936Y-11900000I-35000J0D01*
G01*
X16036936Y-11900000D02*
G75*
G03*
X16106936Y-11900000I35000J0D01*
G01*
X16206936Y-11450000D02*
G75*
G03*
X16136936Y-11450000I-35000J0D01*
G01*
X16136936Y-11450000D02*
G75*
G03*
X16206936Y-11450000I35000J0D01*
G01*
X16206936Y-11700000D02*
G75*
G03*
X16136936Y-11700000I-35000J0D01*
G01*
X16136936Y-11700000D02*
G75*
G03*
X16206936Y-11700000I35000J0D01*
G01*
X16306936Y-11250000D02*
G75*
G03*
X16236936Y-11250000I-35000J0D01*
G01*
X16236936Y-11250000D02*
G75*
G03*
X16306936Y-11250000I35000J0D01*
G01*
X16306936Y-11900000D02*
G75*
G03*
X16236936Y-11900000I-35000J0D01*
G01*
X16236936Y-11900000D02*
G75*
G03*
X16306936Y-11900000I35000J0D01*
G01*
X16406936Y-11450000D02*
G75*
G03*
X16336936Y-11450000I-35000J0D01*
G01*
X16336936Y-11450000D02*
G75*
G03*
X16406936Y-11450000I35000J0D01*
G01*
X16406936Y-11700000D02*
G75*
G03*
X16336936Y-11700000I-35000J0D01*
G01*
X16336936Y-11700000D02*
G75*
G03*
X16406936Y-11700000I35000J0D01*
G01*
X16506936Y-11250000D02*
G75*
G03*
X16436936Y-11250000I-35000J0D01*
G01*
X16436936Y-11250000D02*
G75*
G03*
X16506936Y-11250000I35000J0D01*
G01*
X16506936Y-11900000D02*
G75*
G03*
X16436936Y-11900000I-35000J0D01*
G01*
X16436936Y-11900000D02*
G75*
G03*
X16506936Y-11900000I35000J0D01*
G01*
X16606936Y-11450000D02*
G75*
G03*
X16536936Y-11450000I-35000J0D01*
G01*
X16536936Y-11450000D02*
G75*
G03*
X16606936Y-11450000I35000J0D01*
G01*
X16606936Y-11700000D02*
G75*
G03*
X16536936Y-11700000I-35000J0D01*
G01*
X16536936Y-11700000D02*
G75*
G03*
X16606936Y-11700000I35000J0D01*
G01*
X16706936Y-11250000D02*
G75*
G03*
X16636936Y-11250000I-35000J0D01*
G01*
X16636936Y-11250000D02*
G75*
G03*
X16706936Y-11250000I35000J0D01*
G01*
X16706936Y-11900000D02*
G75*
G03*
X16636936Y-11900000I-35000J0D01*
G01*
X16636936Y-11900000D02*
G75*
G03*
X16706936Y-11900000I35000J0D01*
G01*
X16806937Y-11450000D02*
G75*
G03*
X16736936Y-11450000I-35000J0D01*
G01*
X16736936Y-11450000D02*
G75*
G03*
X16806937Y-11450000I35000J0D01*
G01*
X16806937Y-11700000D02*
G75*
G03*
X16736936Y-11700000I-35000J0D01*
G01*
X16736936Y-11700000D02*
G75*
G03*
X16806937Y-11700000I35000J0D01*
G01*
X16906937Y-11250000D02*
G75*
G03*
X16836937Y-11250000I-35000J0D01*
G01*
X16836937Y-11250000D02*
G75*
G03*
X16906937Y-11250000I35000J0D01*
G01*
X16906937Y-11900000D02*
G75*
G03*
X16836937Y-11900000I-35000J0D01*
G01*
X16836937Y-11900000D02*
G75*
G03*
X16906937Y-11900000I35000J0D01*
G01*
X17006937Y-11450000D02*
G75*
G03*
X16936937Y-11450000I-35000J0D01*
G01*
X16936937Y-11450000D02*
G75*
G03*
X17006937Y-11450000I35000J0D01*
G01*
X17006937Y-11700000D02*
G75*
G03*
X16936937Y-11700000I-35000J0D01*
G01*
X16936937Y-11700000D02*
G75*
G03*
X17006937Y-11700000I35000J0D01*
G01*
X17106937Y-11250000D02*
G75*
G03*
X17036937Y-11250000I-35000J0D01*
G01*
X17036937Y-11250000D02*
G75*
G03*
X17106937Y-11250000I35000J0D01*
G01*
X17106937Y-11900000D02*
G75*
G03*
X17036937Y-11900000I-35000J0D01*
G01*
X17036937Y-11900000D02*
G75*
G03*
X17106937Y-11900000I35000J0D01*
G01*
X17206937Y-11450000D02*
G75*
G03*
X17136937Y-11450000I-35000J0D01*
G01*
X17136937Y-11450000D02*
G75*
G03*
X17206937Y-11450000I35000J0D01*
G01*
X17206937Y-11700000D02*
G75*
G03*
X17136937Y-11700000I-35000J0D01*
G01*
X17136937Y-11700000D02*
G75*
G03*
X17206937Y-11700000I35000J0D01*
G01*
X17306937Y-11250000D02*
G75*
G03*
X17236937Y-11250000I-35000J0D01*
G01*
X17236937Y-11250000D02*
G75*
G03*
X17306937Y-11250000I35000J0D01*
G01*
X17306937Y-11900000D02*
G75*
G03*
X17236937Y-11900000I-35000J0D01*
G01*
X17236937Y-11900000D02*
G75*
G03*
X17306937Y-11900000I35000J0D01*
G01*
X17406937Y-11450000D02*
G75*
G03*
X17336937Y-11450000I-35000J0D01*
G01*
X17336937Y-11450000D02*
G75*
G03*
X17406937Y-11450000I35000J0D01*
G01*
X17406937Y-11700000D02*
G75*
G03*
X17336937Y-11700000I-35000J0D01*
G01*
X17336937Y-11700000D02*
G75*
G03*
X17406937Y-11700000I35000J0D01*
G01*
X17506937Y-11250000D02*
G75*
G03*
X17436937Y-11250000I-35000J0D01*
G01*
X17436937Y-11250000D02*
G75*
G03*
X17506937Y-11250000I35000J0D01*
G01*
X17506937Y-11900000D02*
G75*
G03*
X17436937Y-11900000I-35000J0D01*
G01*
X17436937Y-11900000D02*
G75*
G03*
X17506937Y-11900000I35000J0D01*
G01*
X17606937Y-11450000D02*
G75*
G03*
X17536937Y-11450000I-35000J0D01*
G01*
X17536937Y-11450000D02*
G75*
G03*
X17606937Y-11450000I35000J0D01*
G01*
X17606937Y-11700000D02*
G75*
G03*
X17536937Y-11700000I-35000J0D01*
G01*
X17536937Y-11700000D02*
G75*
G03*
X17606937Y-11700000I35000J0D01*
G01*
X17706937Y-11250000D02*
G75*
G03*
X17636937Y-11250000I-35000J0D01*
G01*
X17636937Y-11250000D02*
G75*
G03*
X17706937Y-11250000I35000J0D01*
G01*
X17706937Y-11900000D02*
G75*
G03*
X17636937Y-11900000I-35000J0D01*
G01*
X17636937Y-11900000D02*
G75*
G03*
X17706937Y-11900000I35000J0D01*
G01*
X17806937Y-11450000D02*
G75*
G03*
X17736937Y-11450000I-35000J0D01*
G01*
X17736937Y-11450000D02*
G75*
G03*
X17806937Y-11450000I35000J0D01*
G01*
X17806937Y-11700000D02*
G75*
G03*
X17736937Y-11700000I-35000J0D01*
G01*
X17736937Y-11700000D02*
G75*
G03*
X17806937Y-11700000I35000J0D01*
G01*
X17906937Y-11250000D02*
G75*
G03*
X17836937Y-11250000I-35000J0D01*
G01*
X17836937Y-11250000D02*
G75*
G03*
X17906937Y-11250000I35000J0D01*
G01*
X17906937Y-11900000D02*
G75*
G03*
X17836937Y-11900000I-35000J0D01*
G01*
X17836937Y-11900000D02*
G75*
G03*
X17906937Y-11900000I35000J0D01*
G01*
X18006937Y-11450000D02*
G75*
G03*
X17936937Y-11450000I-35000J0D01*
G01*
X17936937Y-11450000D02*
G75*
G03*
X18006937Y-11450000I35000J0D01*
G01*
X18006937Y-11700000D02*
G75*
G03*
X17936937Y-11700000I-35000J0D01*
G01*
X17936937Y-11700000D02*
G75*
G03*
X18006937Y-11700000I35000J0D01*
G01*
X18106937Y-11250000D02*
G75*
G03*
X18036937Y-11250000I-35000J0D01*
G01*
X18036937Y-11250000D02*
G75*
G03*
X18106937Y-11250000I35000J0D01*
G01*
X18106937Y-11900000D02*
G75*
G03*
X18036937Y-11900000I-35000J0D01*
G01*
X18036937Y-11900000D02*
G75*
G03*
X18106937Y-11900000I35000J0D01*
G01*
X18206937Y-11450000D02*
G75*
G03*
X18136937Y-11450000I-35000J0D01*
G01*
X18136937Y-11450000D02*
G75*
G03*
X18206937Y-11450000I35000J0D01*
G01*
X18206937Y-11700000D02*
G75*
G03*
X18136937Y-11700000I-35000J0D01*
G01*
X18136937Y-11700000D02*
G75*
G03*
X18206937Y-11700000I35000J0D01*
G01*
X18306937Y-11250000D02*
G75*
G03*
X18236937Y-11250000I-35000J0D01*
G01*
X18236937Y-11250000D02*
G75*
G03*
X18306937Y-11250000I35000J0D01*
G01*
X18306937Y-11900000D02*
G75*
G03*
X18236937Y-11900000I-35000J0D01*
G01*
X18236937Y-11900000D02*
G75*
G03*
X18306937Y-11900000I35000J0D01*
G01*
X18406937Y-11450000D02*
G75*
G03*
X18336937Y-11450000I-35000J0D01*
G01*
X18336937Y-11450000D02*
G75*
G03*
X18406937Y-11450000I35000J0D01*
G01*
X18406937Y-11700000D02*
G75*
G03*
X18336937Y-11700000I-35000J0D01*
G01*
X18336937Y-11700000D02*
G75*
G03*
X18406937Y-11700000I35000J0D01*
G01*
X18506937Y-11250000D02*
G75*
G03*
X18436937Y-11250000I-35000J0D01*
G01*
X18436937Y-11250000D02*
G75*
G03*
X18506937Y-11250000I35000J0D01*
G01*
X18506937Y-11900000D02*
G75*
G03*
X18436937Y-11900000I-35000J0D01*
G01*
X18436937Y-11900000D02*
G75*
G03*
X18506937Y-11900000I35000J0D01*
G01*
X18606937Y-11450000D02*
G75*
G03*
X18536937Y-11450000I-35000J0D01*
G01*
X18536937Y-11450000D02*
G75*
G03*
X18606937Y-11450000I35000J0D01*
G01*
X18606937Y-11700000D02*
G75*
G03*
X18536937Y-11700000I-35000J0D01*
G01*
X18536937Y-11700000D02*
G75*
G03*
X18606937Y-11700000I35000J0D01*
G01*
X18706937Y-11250000D02*
G75*
G03*
X18636937Y-11250000I-35000J0D01*
G01*
X18636937Y-11250000D02*
G75*
G03*
X18706937Y-11250000I35000J0D01*
G01*
X18706937Y-11900000D02*
G75*
G03*
X18636937Y-11900000I-35000J0D01*
G01*
X18636937Y-11900000D02*
G75*
G03*
X18706937Y-11900000I35000J0D01*
G01*
D12*
X10940000Y-9200000D02*
X10940000Y-9340000D01*
X10870000Y-9270000D02*
X11010000Y-9270000D01*
X10940000Y-9750000D02*
X10940000Y-9890000D01*
X10870000Y-9820000D02*
X11010000Y-9820000D01*
X11360000Y-9200000D02*
X11360000Y-9340000D01*
X11290000Y-9270000D02*
X11430000Y-9270000D01*
X11360000Y-9750000D02*
X11360000Y-9890000D01*
X11290000Y-9820000D02*
X11430000Y-9820000D01*
X11780000Y-9200000D02*
X11780000Y-9340000D01*
X11710000Y-9270000D02*
X11850000Y-9270000D01*
X11780000Y-9750000D02*
X11780000Y-9890000D01*
X11710000Y-9820000D02*
X11850000Y-9820000D01*
X12200000Y-9200000D02*
X12200000Y-9340000D01*
X12130000Y-9270000D02*
X12270000Y-9270000D01*
X12200000Y-9750000D02*
X12200000Y-9890000D01*
X12130000Y-9820000D02*
X12270000Y-9820000D01*
X12620000Y-9200000D02*
X12620000Y-9340000D01*
X12550000Y-9270000D02*
X12690000Y-9270000D01*
X12620000Y-9750000D02*
X12620000Y-9890000D01*
X12550000Y-9820000D02*
X12690000Y-9820000D01*
X13040000Y-9200000D02*
X13040000Y-9340000D01*
X12970000Y-9270000D02*
X13110000Y-9270000D01*
X13040000Y-9750000D02*
X13040000Y-9890000D01*
X12970000Y-9820000D02*
X13110000Y-9820000D01*
X13460000Y-9200000D02*
X13460000Y-9340000D01*
X13390000Y-9270000D02*
X13530000Y-9270000D01*
X13460000Y-9750000D02*
X13460000Y-9890000D01*
X13390000Y-9820000D02*
X13530000Y-9820000D01*
X13880000Y-9200000D02*
X13880000Y-9340000D01*
X13810000Y-9270000D02*
X13950000Y-9270000D01*
X13880000Y-9750000D02*
X13880000Y-9890000D01*
X13810000Y-9820000D02*
X13950000Y-9820000D01*
X14300000Y-9200000D02*
X14300000Y-9340000D01*
X14230000Y-9270000D02*
X14370000Y-9270000D01*
X14300000Y-9750000D02*
X14300000Y-9890000D01*
X14230000Y-9820000D02*
X14370000Y-9820000D01*
X14720000Y-9200000D02*
X14720000Y-9340000D01*
X14650000Y-9270000D02*
X14790000Y-9270000D01*
X14720000Y-9750000D02*
X14720000Y-9890000D01*
X14650000Y-9820000D02*
X14790000Y-9820000D01*
X15140000Y-9200000D02*
X15140000Y-9340000D01*
X15070000Y-9270000D02*
X15210000Y-9270000D01*
X15140000Y-9750000D02*
X15140000Y-9890000D01*
X15070000Y-9820000D02*
X15210000Y-9820000D01*
X15560000Y-9200000D02*
X15560000Y-9340000D01*
X15490000Y-9270000D02*
X15630000Y-9270000D01*
X15560000Y-9750000D02*
X15560000Y-9890000D01*
X15490000Y-9820000D02*
X15630000Y-9820000D01*
D11*
X10252713Y-12816484D02*
X10252713Y-12616484D01*
X10252713Y-12616484D02*
X10300332Y-12616484D01*
X10300332Y-12616484D02*
X10328904Y-12626008D01*
X10328904Y-12626008D02*
X10347951Y-12645055D01*
X10347951Y-12645055D02*
X10357475Y-12664103D01*
X10357475Y-12664103D02*
X10366999Y-12702198D01*
X10366999Y-12702198D02*
X10366999Y-12730769D01*
X10366999Y-12730769D02*
X10357475Y-12768865D01*
X10357475Y-12768865D02*
X10347951Y-12787912D01*
X10347951Y-12787912D02*
X10328904Y-12806960D01*
X10328904Y-12806960D02*
X10300332Y-12816484D01*
X10300332Y-12816484D02*
X10252713Y-12816484D01*
X10452713Y-12816484D02*
X10452713Y-12683150D01*
X10452713Y-12721246D02*
X10462237Y-12702198D01*
X10462237Y-12702198D02*
X10471761Y-12692674D01*
X10471761Y-12692674D02*
X10490809Y-12683150D01*
X10490809Y-12683150D02*
X10509856Y-12683150D01*
X10576523Y-12816484D02*
X10576523Y-12683150D01*
X10576523Y-12616484D02*
X10566999Y-12626008D01*
X10566999Y-12626008D02*
X10576523Y-12635531D01*
X10576523Y-12635531D02*
X10586047Y-12626008D01*
X10586047Y-12626008D02*
X10576523Y-12616484D01*
X10576523Y-12616484D02*
X10576523Y-12635531D01*
X10700332Y-12816484D02*
X10681285Y-12806960D01*
X10681285Y-12806960D02*
X10671761Y-12787912D01*
X10671761Y-12787912D02*
X10671761Y-12616484D01*
X10805094Y-12816484D02*
X10786047Y-12806960D01*
X10786047Y-12806960D02*
X10776523Y-12787912D01*
X10776523Y-12787912D02*
X10776523Y-12616484D01*
X11033666Y-12816484D02*
X11033666Y-12616484D01*
X11033666Y-12616484D02*
X11100332Y-12759341D01*
X11100332Y-12759341D02*
X11166999Y-12616484D01*
X11166999Y-12616484D02*
X11166999Y-12816484D01*
X11347951Y-12816484D02*
X11347951Y-12711722D01*
X11347951Y-12711722D02*
X11338428Y-12692674D01*
X11338428Y-12692674D02*
X11319380Y-12683150D01*
X11319380Y-12683150D02*
X11281285Y-12683150D01*
X11281285Y-12683150D02*
X11262237Y-12692674D01*
X11347951Y-12806960D02*
X11328904Y-12816484D01*
X11328904Y-12816484D02*
X11281285Y-12816484D01*
X11281285Y-12816484D02*
X11262237Y-12806960D01*
X11262237Y-12806960D02*
X11252713Y-12787912D01*
X11252713Y-12787912D02*
X11252713Y-12768865D01*
X11252713Y-12768865D02*
X11262237Y-12749817D01*
X11262237Y-12749817D02*
X11281285Y-12740293D01*
X11281285Y-12740293D02*
X11328904Y-12740293D01*
X11328904Y-12740293D02*
X11347951Y-12730769D01*
X11443189Y-12683150D02*
X11443189Y-12883150D01*
X11443189Y-12692674D02*
X11462237Y-12683150D01*
X11462237Y-12683150D02*
X11500332Y-12683150D01*
X11500332Y-12683150D02*
X11519380Y-12692674D01*
X11519380Y-12692674D02*
X11528904Y-12702198D01*
X11528904Y-12702198D02*
X11538428Y-12721246D01*
X11538428Y-12721246D02*
X11538428Y-12778388D01*
X11538428Y-12778388D02*
X11528904Y-12797436D01*
X11528904Y-12797436D02*
X11519380Y-12806960D01*
X11519380Y-12806960D02*
X11500332Y-12816484D01*
X11500332Y-12816484D02*
X11462237Y-12816484D01*
X11462237Y-12816484D02*
X11443189Y-12806960D01*
X11624142Y-12797436D02*
X11633666Y-12806960D01*
X11633666Y-12806960D02*
X11624142Y-12816484D01*
X11624142Y-12816484D02*
X11614618Y-12806960D01*
X11614618Y-12806960D02*
X11624142Y-12797436D01*
X11624142Y-12797436D02*
X11624142Y-12816484D01*
X11624142Y-12692674D02*
X11633666Y-12702198D01*
X11633666Y-12702198D02*
X11624142Y-12711722D01*
X11624142Y-12711722D02*
X11614618Y-12702198D01*
X11614618Y-12702198D02*
X11624142Y-12692674D01*
X11624142Y-12692674D02*
X11624142Y-12711722D01*
D10*
X9951937Y-13125000D02*
X9991937Y-13165000D01*
X9991937Y-13125000D02*
X9951937Y-13165000D01*
D11*
X10290809Y-13036484D02*
X10309856Y-13036484D01*
X10309856Y-13036484D02*
X10328904Y-13046008D01*
X10328904Y-13046008D02*
X10338428Y-13055531D01*
X10338428Y-13055531D02*
X10347951Y-13074579D01*
X10347951Y-13074579D02*
X10357475Y-13112674D01*
X10357475Y-13112674D02*
X10357475Y-13160293D01*
X10357475Y-13160293D02*
X10347951Y-13198388D01*
X10347951Y-13198388D02*
X10338428Y-13217436D01*
X10338428Y-13217436D02*
X10328904Y-13226960D01*
X10328904Y-13226960D02*
X10309856Y-13236484D01*
X10309856Y-13236484D02*
X10290809Y-13236484D01*
X10290809Y-13236484D02*
X10271761Y-13226960D01*
X10271761Y-13226960D02*
X10262237Y-13217436D01*
X10262237Y-13217436D02*
X10252713Y-13198388D01*
X10252713Y-13198388D02*
X10243190Y-13160293D01*
X10243190Y-13160293D02*
X10243190Y-13112674D01*
X10243190Y-13112674D02*
X10252713Y-13074579D01*
X10252713Y-13074579D02*
X10262237Y-13055531D01*
X10262237Y-13055531D02*
X10271761Y-13046008D01*
X10271761Y-13046008D02*
X10290809Y-13036484D01*
X10443190Y-13217436D02*
X10452713Y-13226960D01*
X10452713Y-13226960D02*
X10443190Y-13236484D01*
X10443190Y-13236484D02*
X10433666Y-13226960D01*
X10433666Y-13226960D02*
X10443190Y-13217436D01*
X10443190Y-13217436D02*
X10443190Y-13236484D01*
X10624142Y-13103150D02*
X10624142Y-13236484D01*
X10576523Y-13026960D02*
X10528904Y-13169817D01*
X10528904Y-13169817D02*
X10652713Y-13169817D01*
X10766999Y-13036484D02*
X10786047Y-13036484D01*
X10786047Y-13036484D02*
X10805094Y-13046008D01*
X10805094Y-13046008D02*
X10814618Y-13055531D01*
X10814618Y-13055531D02*
X10824142Y-13074579D01*
X10824142Y-13074579D02*
X10833666Y-13112674D01*
X10833666Y-13112674D02*
X10833666Y-13160293D01*
X10833666Y-13160293D02*
X10824142Y-13198388D01*
X10824142Y-13198388D02*
X10814618Y-13217436D01*
X10814618Y-13217436D02*
X10805094Y-13226960D01*
X10805094Y-13226960D02*
X10786047Y-13236484D01*
X10786047Y-13236484D02*
X10766999Y-13236484D01*
X10766999Y-13236484D02*
X10747951Y-13226960D01*
X10747951Y-13226960D02*
X10738428Y-13217436D01*
X10738428Y-13217436D02*
X10728904Y-13198388D01*
X10728904Y-13198388D02*
X10719380Y-13160293D01*
X10719380Y-13160293D02*
X10719380Y-13112674D01*
X10719380Y-13112674D02*
X10728904Y-13074579D01*
X10728904Y-13074579D02*
X10738428Y-13055531D01*
X10738428Y-13055531D02*
X10747951Y-13046008D01*
X10747951Y-13046008D02*
X10766999Y-13036484D01*
X10957475Y-13036484D02*
X10976523Y-13036484D01*
X10976523Y-13036484D02*
X10995571Y-13046008D01*
X10995571Y-13046008D02*
X11005094Y-13055531D01*
X11005094Y-13055531D02*
X11014618Y-13074579D01*
X11014618Y-13074579D02*
X11024142Y-13112674D01*
X11024142Y-13112674D02*
X11024142Y-13160293D01*
X11024142Y-13160293D02*
X11014618Y-13198388D01*
X11014618Y-13198388D02*
X11005094Y-13217436D01*
X11005094Y-13217436D02*
X10995571Y-13226960D01*
X10995571Y-13226960D02*
X10976523Y-13236484D01*
X10976523Y-13236484D02*
X10957475Y-13236484D01*
X10957475Y-13236484D02*
X10938428Y-13226960D01*
X10938428Y-13226960D02*
X10928904Y-13217436D01*
X10928904Y-13217436D02*
X10919380Y-13198388D01*
X10919380Y-13198388D02*
X10909856Y-13160293D01*
X10909856Y-13160293D02*
X10909856Y-13112674D01*
X10909856Y-13112674D02*
X10919380Y-13074579D01*
X10919380Y-13074579D02*
X10928904Y-13055531D01*
X10928904Y-13055531D02*
X10938428Y-13046008D01*
X10938428Y-13046008D02*
X10957475Y-13036484D01*
X11109856Y-13236484D02*
X11109856Y-13103150D01*
X11109856Y-13122198D02*
X11119380Y-13112674D01*
X11119380Y-13112674D02*
X11138428Y-13103150D01*
X11138428Y-13103150D02*
X11166999Y-13103150D01*
X11166999Y-13103150D02*
X11186047Y-13112674D01*
X11186047Y-13112674D02*
X11195570Y-13131722D01*
X11195570Y-13131722D02*
X11195570Y-13236484D01*
X11195570Y-13131722D02*
X11205094Y-13112674D01*
X11205094Y-13112674D02*
X11224142Y-13103150D01*
X11224142Y-13103150D02*
X11252713Y-13103150D01*
X11252713Y-13103150D02*
X11271761Y-13112674D01*
X11271761Y-13112674D02*
X11281285Y-13131722D01*
X11281285Y-13131722D02*
X11281285Y-13236484D01*
X11376523Y-13236484D02*
X11376523Y-13103150D01*
X11376523Y-13122198D02*
X11386047Y-13112674D01*
X11386047Y-13112674D02*
X11405094Y-13103150D01*
X11405094Y-13103150D02*
X11433666Y-13103150D01*
X11433666Y-13103150D02*
X11452713Y-13112674D01*
X11452713Y-13112674D02*
X11462237Y-13131722D01*
X11462237Y-13131722D02*
X11462237Y-13236484D01*
X11462237Y-13131722D02*
X11471761Y-13112674D01*
X11471761Y-13112674D02*
X11490809Y-13103150D01*
X11490809Y-13103150D02*
X11519380Y-13103150D01*
X11519380Y-13103150D02*
X11538428Y-13112674D01*
X11538428Y-13112674D02*
X11547951Y-13131722D01*
X11547951Y-13131722D02*
X11547951Y-13236484D01*
X11938428Y-13026960D02*
X11766999Y-13284103D01*
X12195571Y-13036484D02*
X12214618Y-13036484D01*
X12214618Y-13036484D02*
X12233666Y-13046008D01*
X12233666Y-13046008D02*
X12243190Y-13055531D01*
X12243190Y-13055531D02*
X12252713Y-13074579D01*
X12252713Y-13074579D02*
X12262237Y-13112674D01*
X12262237Y-13112674D02*
X12262237Y-13160293D01*
X12262237Y-13160293D02*
X12252713Y-13198388D01*
X12252713Y-13198388D02*
X12243190Y-13217436D01*
X12243190Y-13217436D02*
X12233666Y-13226960D01*
X12233666Y-13226960D02*
X12214618Y-13236484D01*
X12214618Y-13236484D02*
X12195571Y-13236484D01*
X12195571Y-13236484D02*
X12176523Y-13226960D01*
X12176523Y-13226960D02*
X12166999Y-13217436D01*
X12166999Y-13217436D02*
X12157475Y-13198388D01*
X12157475Y-13198388D02*
X12147952Y-13160293D01*
X12147952Y-13160293D02*
X12147952Y-13112674D01*
X12147952Y-13112674D02*
X12157475Y-13074579D01*
X12157475Y-13074579D02*
X12166999Y-13055531D01*
X12166999Y-13055531D02*
X12176523Y-13046008D01*
X12176523Y-13046008D02*
X12195571Y-13036484D01*
X12347952Y-13217436D02*
X12357475Y-13226960D01*
X12357475Y-13226960D02*
X12347952Y-13236484D01*
X12347952Y-13236484D02*
X12338428Y-13226960D01*
X12338428Y-13226960D02*
X12347952Y-13217436D01*
X12347952Y-13217436D02*
X12347952Y-13236484D01*
X12481285Y-13036484D02*
X12500333Y-13036484D01*
X12500333Y-13036484D02*
X12519380Y-13046008D01*
X12519380Y-13046008D02*
X12528904Y-13055531D01*
X12528904Y-13055531D02*
X12538428Y-13074579D01*
X12538428Y-13074579D02*
X12547952Y-13112674D01*
X12547952Y-13112674D02*
X12547952Y-13160293D01*
X12547952Y-13160293D02*
X12538428Y-13198388D01*
X12538428Y-13198388D02*
X12528904Y-13217436D01*
X12528904Y-13217436D02*
X12519380Y-13226960D01*
X12519380Y-13226960D02*
X12500333Y-13236484D01*
X12500333Y-13236484D02*
X12481285Y-13236484D01*
X12481285Y-13236484D02*
X12462237Y-13226960D01*
X12462237Y-13226960D02*
X12452713Y-13217436D01*
X12452713Y-13217436D02*
X12443190Y-13198388D01*
X12443190Y-13198388D02*
X12433666Y-13160293D01*
X12433666Y-13160293D02*
X12433666Y-13112674D01*
X12433666Y-13112674D02*
X12443190Y-13074579D01*
X12443190Y-13074579D02*
X12452713Y-13055531D01*
X12452713Y-13055531D02*
X12462237Y-13046008D01*
X12462237Y-13046008D02*
X12481285Y-13036484D01*
X12738428Y-13236484D02*
X12624142Y-13236484D01*
X12681285Y-13236484D02*
X12681285Y-13036484D01*
X12681285Y-13036484D02*
X12662237Y-13065055D01*
X12662237Y-13065055D02*
X12643190Y-13084103D01*
X12643190Y-13084103D02*
X12624142Y-13093627D01*
X12919380Y-13036484D02*
X12824142Y-13036484D01*
X12824142Y-13036484D02*
X12814618Y-13131722D01*
X12814618Y-13131722D02*
X12824142Y-13122198D01*
X12824142Y-13122198D02*
X12843190Y-13112674D01*
X12843190Y-13112674D02*
X12890809Y-13112674D01*
X12890809Y-13112674D02*
X12909856Y-13122198D01*
X12909856Y-13122198D02*
X12919380Y-13131722D01*
X12919380Y-13131722D02*
X12928904Y-13150769D01*
X12928904Y-13150769D02*
X12928904Y-13198388D01*
X12928904Y-13198388D02*
X12919380Y-13217436D01*
X12919380Y-13217436D02*
X12909856Y-13226960D01*
X12909856Y-13226960D02*
X12890809Y-13236484D01*
X12890809Y-13236484D02*
X12843190Y-13236484D01*
X12843190Y-13236484D02*
X12824142Y-13226960D01*
X12824142Y-13226960D02*
X12814618Y-13217436D01*
X12995571Y-13036484D02*
X13128904Y-13036484D01*
X13128904Y-13036484D02*
X13043190Y-13236484D01*
X13195571Y-13036484D02*
X13195571Y-13074579D01*
X13271761Y-13036484D02*
X13271761Y-13074579D01*
X13566999Y-13312674D02*
X13557475Y-13303150D01*
X13557475Y-13303150D02*
X13538428Y-13274579D01*
X13538428Y-13274579D02*
X13528904Y-13255531D01*
X13528904Y-13255531D02*
X13519380Y-13226960D01*
X13519380Y-13226960D02*
X13509856Y-13179341D01*
X13509856Y-13179341D02*
X13509856Y-13141246D01*
X13509856Y-13141246D02*
X13519380Y-13093627D01*
X13519380Y-13093627D02*
X13528904Y-13065055D01*
X13528904Y-13065055D02*
X13538428Y-13046008D01*
X13538428Y-13046008D02*
X13557475Y-13017436D01*
X13557475Y-13017436D02*
X13566999Y-13007912D01*
X13633666Y-13055531D02*
X13643190Y-13046008D01*
X13643190Y-13046008D02*
X13662237Y-13036484D01*
X13662237Y-13036484D02*
X13709856Y-13036484D01*
X13709856Y-13036484D02*
X13728904Y-13046008D01*
X13728904Y-13046008D02*
X13738428Y-13055531D01*
X13738428Y-13055531D02*
X13747952Y-13074579D01*
X13747952Y-13074579D02*
X13747952Y-13093627D01*
X13747952Y-13093627D02*
X13738428Y-13122198D01*
X13738428Y-13122198D02*
X13624142Y-13236484D01*
X13624142Y-13236484D02*
X13747952Y-13236484D01*
X13814618Y-13036484D02*
X13947952Y-13036484D01*
X13947952Y-13036484D02*
X13862237Y-13236484D01*
X14176523Y-13236484D02*
X14176523Y-13036484D01*
X14262237Y-13236484D02*
X14262237Y-13131722D01*
X14262237Y-13131722D02*
X14252714Y-13112674D01*
X14252714Y-13112674D02*
X14233666Y-13103150D01*
X14233666Y-13103150D02*
X14205095Y-13103150D01*
X14205095Y-13103150D02*
X14186047Y-13112674D01*
X14186047Y-13112674D02*
X14176523Y-13122198D01*
X14386047Y-13236484D02*
X14366999Y-13226960D01*
X14366999Y-13226960D02*
X14357476Y-13217436D01*
X14357476Y-13217436D02*
X14347952Y-13198388D01*
X14347952Y-13198388D02*
X14347952Y-13141246D01*
X14347952Y-13141246D02*
X14357476Y-13122198D01*
X14357476Y-13122198D02*
X14366999Y-13112674D01*
X14366999Y-13112674D02*
X14386047Y-13103150D01*
X14386047Y-13103150D02*
X14414618Y-13103150D01*
X14414618Y-13103150D02*
X14433666Y-13112674D01*
X14433666Y-13112674D02*
X14443190Y-13122198D01*
X14443190Y-13122198D02*
X14452714Y-13141246D01*
X14452714Y-13141246D02*
X14452714Y-13198388D01*
X14452714Y-13198388D02*
X14443190Y-13217436D01*
X14443190Y-13217436D02*
X14433666Y-13226960D01*
X14433666Y-13226960D02*
X14414618Y-13236484D01*
X14414618Y-13236484D02*
X14386047Y-13236484D01*
X14566999Y-13236484D02*
X14547952Y-13226960D01*
X14547952Y-13226960D02*
X14538428Y-13207912D01*
X14538428Y-13207912D02*
X14538428Y-13036484D01*
X14719380Y-13226960D02*
X14700333Y-13236484D01*
X14700333Y-13236484D02*
X14662237Y-13236484D01*
X14662237Y-13236484D02*
X14643190Y-13226960D01*
X14643190Y-13226960D02*
X14633666Y-13207912D01*
X14633666Y-13207912D02*
X14633666Y-13131722D01*
X14633666Y-13131722D02*
X14643190Y-13112674D01*
X14643190Y-13112674D02*
X14662237Y-13103150D01*
X14662237Y-13103150D02*
X14700333Y-13103150D01*
X14700333Y-13103150D02*
X14719380Y-13112674D01*
X14719380Y-13112674D02*
X14728904Y-13131722D01*
X14728904Y-13131722D02*
X14728904Y-13150769D01*
X14728904Y-13150769D02*
X14633666Y-13169817D01*
X14805095Y-13226960D02*
X14824142Y-13236484D01*
X14824142Y-13236484D02*
X14862237Y-13236484D01*
X14862237Y-13236484D02*
X14881285Y-13226960D01*
X14881285Y-13226960D02*
X14890809Y-13207912D01*
X14890809Y-13207912D02*
X14890809Y-13198388D01*
X14890809Y-13198388D02*
X14881285Y-13179341D01*
X14881285Y-13179341D02*
X14862237Y-13169817D01*
X14862237Y-13169817D02*
X14833666Y-13169817D01*
X14833666Y-13169817D02*
X14814618Y-13160293D01*
X14814618Y-13160293D02*
X14805095Y-13141246D01*
X14805095Y-13141246D02*
X14805095Y-13131722D01*
X14805095Y-13131722D02*
X14814618Y-13112674D01*
X14814618Y-13112674D02*
X14833666Y-13103150D01*
X14833666Y-13103150D02*
X14862237Y-13103150D01*
X14862237Y-13103150D02*
X14881285Y-13112674D01*
X14957476Y-13312674D02*
X14966999Y-13303150D01*
X14966999Y-13303150D02*
X14986047Y-13274579D01*
X14986047Y-13274579D02*
X14995571Y-13255531D01*
X14995571Y-13255531D02*
X15005095Y-13226960D01*
X15005095Y-13226960D02*
X15014618Y-13179341D01*
X15014618Y-13179341D02*
X15014618Y-13141246D01*
X15014618Y-13141246D02*
X15005095Y-13093627D01*
X15005095Y-13093627D02*
X14995571Y-13065055D01*
X14995571Y-13065055D02*
X14986047Y-13046008D01*
X14986047Y-13046008D02*
X14966999Y-13017436D01*
X14966999Y-13017436D02*
X14957476Y-13007912D01*
D10*
X9991937Y-13409000D02*
G75*
G03*
X9921937Y-13409000I-35000J0D01*
G01*
X9921937Y-13409000D02*
G75*
G03*
X9991937Y-13409000I35000J0D01*
G01*
D11*
X10290809Y-13300484D02*
X10309856Y-13300484D01*
X10309856Y-13300484D02*
X10328904Y-13310008D01*
X10328904Y-13310008D02*
X10338428Y-13319531D01*
X10338428Y-13319531D02*
X10347951Y-13338579D01*
X10347951Y-13338579D02*
X10357475Y-13376674D01*
X10357475Y-13376674D02*
X10357475Y-13424293D01*
X10357475Y-13424293D02*
X10347951Y-13462388D01*
X10347951Y-13462388D02*
X10338428Y-13481436D01*
X10338428Y-13481436D02*
X10328904Y-13490960D01*
X10328904Y-13490960D02*
X10309856Y-13500484D01*
X10309856Y-13500484D02*
X10290809Y-13500484D01*
X10290809Y-13500484D02*
X10271761Y-13490960D01*
X10271761Y-13490960D02*
X10262237Y-13481436D01*
X10262237Y-13481436D02*
X10252713Y-13462388D01*
X10252713Y-13462388D02*
X10243190Y-13424293D01*
X10243190Y-13424293D02*
X10243190Y-13376674D01*
X10243190Y-13376674D02*
X10252713Y-13338579D01*
X10252713Y-13338579D02*
X10262237Y-13319531D01*
X10262237Y-13319531D02*
X10271761Y-13310008D01*
X10271761Y-13310008D02*
X10290809Y-13300484D01*
X10443190Y-13481436D02*
X10452713Y-13490960D01*
X10452713Y-13490960D02*
X10443190Y-13500484D01*
X10443190Y-13500484D02*
X10433666Y-13490960D01*
X10433666Y-13490960D02*
X10443190Y-13481436D01*
X10443190Y-13481436D02*
X10443190Y-13500484D01*
X10519380Y-13300484D02*
X10652713Y-13300484D01*
X10652713Y-13300484D02*
X10566999Y-13500484D01*
X10766999Y-13300484D02*
X10786047Y-13300484D01*
X10786047Y-13300484D02*
X10805094Y-13310008D01*
X10805094Y-13310008D02*
X10814618Y-13319531D01*
X10814618Y-13319531D02*
X10824142Y-13338579D01*
X10824142Y-13338579D02*
X10833666Y-13376674D01*
X10833666Y-13376674D02*
X10833666Y-13424293D01*
X10833666Y-13424293D02*
X10824142Y-13462388D01*
X10824142Y-13462388D02*
X10814618Y-13481436D01*
X10814618Y-13481436D02*
X10805094Y-13490960D01*
X10805094Y-13490960D02*
X10786047Y-13500484D01*
X10786047Y-13500484D02*
X10766999Y-13500484D01*
X10766999Y-13500484D02*
X10747951Y-13490960D01*
X10747951Y-13490960D02*
X10738428Y-13481436D01*
X10738428Y-13481436D02*
X10728904Y-13462388D01*
X10728904Y-13462388D02*
X10719380Y-13424293D01*
X10719380Y-13424293D02*
X10719380Y-13376674D01*
X10719380Y-13376674D02*
X10728904Y-13338579D01*
X10728904Y-13338579D02*
X10738428Y-13319531D01*
X10738428Y-13319531D02*
X10747951Y-13310008D01*
X10747951Y-13310008D02*
X10766999Y-13300484D01*
X10957475Y-13300484D02*
X10976523Y-13300484D01*
X10976523Y-13300484D02*
X10995571Y-13310008D01*
X10995571Y-13310008D02*
X11005094Y-13319531D01*
X11005094Y-13319531D02*
X11014618Y-13338579D01*
X11014618Y-13338579D02*
X11024142Y-13376674D01*
X11024142Y-13376674D02*
X11024142Y-13424293D01*
X11024142Y-13424293D02*
X11014618Y-13462388D01*
X11014618Y-13462388D02*
X11005094Y-13481436D01*
X11005094Y-13481436D02*
X10995571Y-13490960D01*
X10995571Y-13490960D02*
X10976523Y-13500484D01*
X10976523Y-13500484D02*
X10957475Y-13500484D01*
X10957475Y-13500484D02*
X10938428Y-13490960D01*
X10938428Y-13490960D02*
X10928904Y-13481436D01*
X10928904Y-13481436D02*
X10919380Y-13462388D01*
X10919380Y-13462388D02*
X10909856Y-13424293D01*
X10909856Y-13424293D02*
X10909856Y-13376674D01*
X10909856Y-13376674D02*
X10919380Y-13338579D01*
X10919380Y-13338579D02*
X10928904Y-13319531D01*
X10928904Y-13319531D02*
X10938428Y-13310008D01*
X10938428Y-13310008D02*
X10957475Y-13300484D01*
X11109856Y-13500484D02*
X11109856Y-13367150D01*
X11109856Y-13386198D02*
X11119380Y-13376674D01*
X11119380Y-13376674D02*
X11138428Y-13367150D01*
X11138428Y-13367150D02*
X11166999Y-13367150D01*
X11166999Y-13367150D02*
X11186047Y-13376674D01*
X11186047Y-13376674D02*
X11195570Y-13395722D01*
X11195570Y-13395722D02*
X11195570Y-13500484D01*
X11195570Y-13395722D02*
X11205094Y-13376674D01*
X11205094Y-13376674D02*
X11224142Y-13367150D01*
X11224142Y-13367150D02*
X11252713Y-13367150D01*
X11252713Y-13367150D02*
X11271761Y-13376674D01*
X11271761Y-13376674D02*
X11281285Y-13395722D01*
X11281285Y-13395722D02*
X11281285Y-13500484D01*
X11376523Y-13500484D02*
X11376523Y-13367150D01*
X11376523Y-13386198D02*
X11386047Y-13376674D01*
X11386047Y-13376674D02*
X11405094Y-13367150D01*
X11405094Y-13367150D02*
X11433666Y-13367150D01*
X11433666Y-13367150D02*
X11452713Y-13376674D01*
X11452713Y-13376674D02*
X11462237Y-13395722D01*
X11462237Y-13395722D02*
X11462237Y-13500484D01*
X11462237Y-13395722D02*
X11471761Y-13376674D01*
X11471761Y-13376674D02*
X11490809Y-13367150D01*
X11490809Y-13367150D02*
X11519380Y-13367150D01*
X11519380Y-13367150D02*
X11538428Y-13376674D01*
X11538428Y-13376674D02*
X11547951Y-13395722D01*
X11547951Y-13395722D02*
X11547951Y-13500484D01*
X11938428Y-13290960D02*
X11766999Y-13548103D01*
X12195571Y-13300484D02*
X12214618Y-13300484D01*
X12214618Y-13300484D02*
X12233666Y-13310008D01*
X12233666Y-13310008D02*
X12243190Y-13319531D01*
X12243190Y-13319531D02*
X12252713Y-13338579D01*
X12252713Y-13338579D02*
X12262237Y-13376674D01*
X12262237Y-13376674D02*
X12262237Y-13424293D01*
X12262237Y-13424293D02*
X12252713Y-13462388D01*
X12252713Y-13462388D02*
X12243190Y-13481436D01*
X12243190Y-13481436D02*
X12233666Y-13490960D01*
X12233666Y-13490960D02*
X12214618Y-13500484D01*
X12214618Y-13500484D02*
X12195571Y-13500484D01*
X12195571Y-13500484D02*
X12176523Y-13490960D01*
X12176523Y-13490960D02*
X12166999Y-13481436D01*
X12166999Y-13481436D02*
X12157475Y-13462388D01*
X12157475Y-13462388D02*
X12147952Y-13424293D01*
X12147952Y-13424293D02*
X12147952Y-13376674D01*
X12147952Y-13376674D02*
X12157475Y-13338579D01*
X12157475Y-13338579D02*
X12166999Y-13319531D01*
X12166999Y-13319531D02*
X12176523Y-13310008D01*
X12176523Y-13310008D02*
X12195571Y-13300484D01*
X12347952Y-13481436D02*
X12357475Y-13490960D01*
X12357475Y-13490960D02*
X12347952Y-13500484D01*
X12347952Y-13500484D02*
X12338428Y-13490960D01*
X12338428Y-13490960D02*
X12347952Y-13481436D01*
X12347952Y-13481436D02*
X12347952Y-13500484D01*
X12481285Y-13300484D02*
X12500333Y-13300484D01*
X12500333Y-13300484D02*
X12519380Y-13310008D01*
X12519380Y-13310008D02*
X12528904Y-13319531D01*
X12528904Y-13319531D02*
X12538428Y-13338579D01*
X12538428Y-13338579D02*
X12547952Y-13376674D01*
X12547952Y-13376674D02*
X12547952Y-13424293D01*
X12547952Y-13424293D02*
X12538428Y-13462388D01*
X12538428Y-13462388D02*
X12528904Y-13481436D01*
X12528904Y-13481436D02*
X12519380Y-13490960D01*
X12519380Y-13490960D02*
X12500333Y-13500484D01*
X12500333Y-13500484D02*
X12481285Y-13500484D01*
X12481285Y-13500484D02*
X12462237Y-13490960D01*
X12462237Y-13490960D02*
X12452713Y-13481436D01*
X12452713Y-13481436D02*
X12443190Y-13462388D01*
X12443190Y-13462388D02*
X12433666Y-13424293D01*
X12433666Y-13424293D02*
X12433666Y-13376674D01*
X12433666Y-13376674D02*
X12443190Y-13338579D01*
X12443190Y-13338579D02*
X12452713Y-13319531D01*
X12452713Y-13319531D02*
X12462237Y-13310008D01*
X12462237Y-13310008D02*
X12481285Y-13300484D01*
X12624142Y-13319531D02*
X12633666Y-13310008D01*
X12633666Y-13310008D02*
X12652713Y-13300484D01*
X12652713Y-13300484D02*
X12700333Y-13300484D01*
X12700333Y-13300484D02*
X12719380Y-13310008D01*
X12719380Y-13310008D02*
X12728904Y-13319531D01*
X12728904Y-13319531D02*
X12738428Y-13338579D01*
X12738428Y-13338579D02*
X12738428Y-13357627D01*
X12738428Y-13357627D02*
X12728904Y-13386198D01*
X12728904Y-13386198D02*
X12614618Y-13500484D01*
X12614618Y-13500484D02*
X12738428Y-13500484D01*
X12805094Y-13300484D02*
X12938428Y-13300484D01*
X12938428Y-13300484D02*
X12852713Y-13500484D01*
X13100333Y-13300484D02*
X13062237Y-13300484D01*
X13062237Y-13300484D02*
X13043190Y-13310008D01*
X13043190Y-13310008D02*
X13033666Y-13319531D01*
X13033666Y-13319531D02*
X13014618Y-13348103D01*
X13014618Y-13348103D02*
X13005094Y-13386198D01*
X13005094Y-13386198D02*
X13005094Y-13462388D01*
X13005094Y-13462388D02*
X13014618Y-13481436D01*
X13014618Y-13481436D02*
X13024142Y-13490960D01*
X13024142Y-13490960D02*
X13043190Y-13500484D01*
X13043190Y-13500484D02*
X13081285Y-13500484D01*
X13081285Y-13500484D02*
X13100333Y-13490960D01*
X13100333Y-13490960D02*
X13109856Y-13481436D01*
X13109856Y-13481436D02*
X13119380Y-13462388D01*
X13119380Y-13462388D02*
X13119380Y-13414769D01*
X13119380Y-13414769D02*
X13109856Y-13395722D01*
X13109856Y-13395722D02*
X13100333Y-13386198D01*
X13100333Y-13386198D02*
X13081285Y-13376674D01*
X13081285Y-13376674D02*
X13043190Y-13376674D01*
X13043190Y-13376674D02*
X13024142Y-13386198D01*
X13024142Y-13386198D02*
X13014618Y-13395722D01*
X13014618Y-13395722D02*
X13005094Y-13414769D01*
X13195571Y-13300484D02*
X13195571Y-13338579D01*
X13271761Y-13300484D02*
X13271761Y-13338579D01*
X13566999Y-13576674D02*
X13557475Y-13567150D01*
X13557475Y-13567150D02*
X13538428Y-13538579D01*
X13538428Y-13538579D02*
X13528904Y-13519531D01*
X13528904Y-13519531D02*
X13519380Y-13490960D01*
X13519380Y-13490960D02*
X13509856Y-13443341D01*
X13509856Y-13443341D02*
X13509856Y-13405246D01*
X13509856Y-13405246D02*
X13519380Y-13357627D01*
X13519380Y-13357627D02*
X13528904Y-13329055D01*
X13528904Y-13329055D02*
X13538428Y-13310008D01*
X13538428Y-13310008D02*
X13557475Y-13281436D01*
X13557475Y-13281436D02*
X13566999Y-13271912D01*
X13747952Y-13500484D02*
X13633666Y-13500484D01*
X13690809Y-13500484D02*
X13690809Y-13300484D01*
X13690809Y-13300484D02*
X13671761Y-13329055D01*
X13671761Y-13329055D02*
X13652714Y-13348103D01*
X13652714Y-13348103D02*
X13633666Y-13357627D01*
X13919380Y-13300484D02*
X13881285Y-13300484D01*
X13881285Y-13300484D02*
X13862237Y-13310008D01*
X13862237Y-13310008D02*
X13852714Y-13319531D01*
X13852714Y-13319531D02*
X13833666Y-13348103D01*
X13833666Y-13348103D02*
X13824142Y-13386198D01*
X13824142Y-13386198D02*
X13824142Y-13462388D01*
X13824142Y-13462388D02*
X13833666Y-13481436D01*
X13833666Y-13481436D02*
X13843190Y-13490960D01*
X13843190Y-13490960D02*
X13862237Y-13500484D01*
X13862237Y-13500484D02*
X13900333Y-13500484D01*
X13900333Y-13500484D02*
X13919380Y-13490960D01*
X13919380Y-13490960D02*
X13928904Y-13481436D01*
X13928904Y-13481436D02*
X13938428Y-13462388D01*
X13938428Y-13462388D02*
X13938428Y-13414769D01*
X13938428Y-13414769D02*
X13928904Y-13395722D01*
X13928904Y-13395722D02*
X13919380Y-13386198D01*
X13919380Y-13386198D02*
X13900333Y-13376674D01*
X13900333Y-13376674D02*
X13862237Y-13376674D01*
X13862237Y-13376674D02*
X13843190Y-13386198D01*
X13843190Y-13386198D02*
X13833666Y-13395722D01*
X13833666Y-13395722D02*
X13824142Y-13414769D01*
X14109856Y-13367150D02*
X14109856Y-13500484D01*
X14062237Y-13290960D02*
X14014618Y-13433817D01*
X14014618Y-13433817D02*
X14138428Y-13433817D01*
X14366999Y-13500484D02*
X14366999Y-13300484D01*
X14452714Y-13500484D02*
X14452714Y-13395722D01*
X14452714Y-13395722D02*
X14443190Y-13376674D01*
X14443190Y-13376674D02*
X14424142Y-13367150D01*
X14424142Y-13367150D02*
X14395571Y-13367150D01*
X14395571Y-13367150D02*
X14376523Y-13376674D01*
X14376523Y-13376674D02*
X14366999Y-13386198D01*
X14576523Y-13500484D02*
X14557476Y-13490960D01*
X14557476Y-13490960D02*
X14547952Y-13481436D01*
X14547952Y-13481436D02*
X14538428Y-13462388D01*
X14538428Y-13462388D02*
X14538428Y-13405246D01*
X14538428Y-13405246D02*
X14547952Y-13386198D01*
X14547952Y-13386198D02*
X14557476Y-13376674D01*
X14557476Y-13376674D02*
X14576523Y-13367150D01*
X14576523Y-13367150D02*
X14605095Y-13367150D01*
X14605095Y-13367150D02*
X14624142Y-13376674D01*
X14624142Y-13376674D02*
X14633666Y-13386198D01*
X14633666Y-13386198D02*
X14643190Y-13405246D01*
X14643190Y-13405246D02*
X14643190Y-13462388D01*
X14643190Y-13462388D02*
X14633666Y-13481436D01*
X14633666Y-13481436D02*
X14624142Y-13490960D01*
X14624142Y-13490960D02*
X14605095Y-13500484D01*
X14605095Y-13500484D02*
X14576523Y-13500484D01*
X14757476Y-13500484D02*
X14738428Y-13490960D01*
X14738428Y-13490960D02*
X14728904Y-13471912D01*
X14728904Y-13471912D02*
X14728904Y-13300484D01*
X14909857Y-13490960D02*
X14890809Y-13500484D01*
X14890809Y-13500484D02*
X14852714Y-13500484D01*
X14852714Y-13500484D02*
X14833666Y-13490960D01*
X14833666Y-13490960D02*
X14824142Y-13471912D01*
X14824142Y-13471912D02*
X14824142Y-13395722D01*
X14824142Y-13395722D02*
X14833666Y-13376674D01*
X14833666Y-13376674D02*
X14852714Y-13367150D01*
X14852714Y-13367150D02*
X14890809Y-13367150D01*
X14890809Y-13367150D02*
X14909857Y-13376674D01*
X14909857Y-13376674D02*
X14919380Y-13395722D01*
X14919380Y-13395722D02*
X14919380Y-13414769D01*
X14919380Y-13414769D02*
X14824142Y-13433817D01*
X14995571Y-13490960D02*
X15014618Y-13500484D01*
X15014618Y-13500484D02*
X15052714Y-13500484D01*
X15052714Y-13500484D02*
X15071761Y-13490960D01*
X15071761Y-13490960D02*
X15081285Y-13471912D01*
X15081285Y-13471912D02*
X15081285Y-13462388D01*
X15081285Y-13462388D02*
X15071761Y-13443341D01*
X15071761Y-13443341D02*
X15052714Y-13433817D01*
X15052714Y-13433817D02*
X15024142Y-13433817D01*
X15024142Y-13433817D02*
X15005095Y-13424293D01*
X15005095Y-13424293D02*
X14995571Y-13405246D01*
X14995571Y-13405246D02*
X14995571Y-13395722D01*
X14995571Y-13395722D02*
X15005095Y-13376674D01*
X15005095Y-13376674D02*
X15024142Y-13367150D01*
X15024142Y-13367150D02*
X15052714Y-13367150D01*
X15052714Y-13367150D02*
X15071761Y-13376674D01*
X15147952Y-13576674D02*
X15157476Y-13567150D01*
X15157476Y-13567150D02*
X15176523Y-13538579D01*
X15176523Y-13538579D02*
X15186047Y-13519531D01*
X15186047Y-13519531D02*
X15195571Y-13490960D01*
X15195571Y-13490960D02*
X15205095Y-13443341D01*
X15205095Y-13443341D02*
X15205095Y-13405246D01*
X15205095Y-13405246D02*
X15195571Y-13357627D01*
X15195571Y-13357627D02*
X15186047Y-13329055D01*
X15186047Y-13329055D02*
X15176523Y-13310008D01*
X15176523Y-13310008D02*
X15157476Y-13281436D01*
X15157476Y-13281436D02*
X15147952Y-13271912D01*
D12*
X9921937Y-13603000D02*
X9921937Y-13743000D01*
X9851937Y-13673000D02*
X9991937Y-13673000D01*
D11*
X10357475Y-13764484D02*
X10243190Y-13764484D01*
X10300332Y-13764484D02*
X10300332Y-13564484D01*
X10300332Y-13564484D02*
X10281285Y-13593055D01*
X10281285Y-13593055D02*
X10262237Y-13612103D01*
X10262237Y-13612103D02*
X10243190Y-13621627D01*
X10443190Y-13745436D02*
X10452713Y-13754960D01*
X10452713Y-13754960D02*
X10443190Y-13764484D01*
X10443190Y-13764484D02*
X10433666Y-13754960D01*
X10433666Y-13754960D02*
X10443190Y-13745436D01*
X10443190Y-13745436D02*
X10443190Y-13764484D01*
X10624142Y-13631150D02*
X10624142Y-13764484D01*
X10576523Y-13554960D02*
X10528904Y-13697817D01*
X10528904Y-13697817D02*
X10652713Y-13697817D01*
X10766999Y-13564484D02*
X10786047Y-13564484D01*
X10786047Y-13564484D02*
X10805094Y-13574008D01*
X10805094Y-13574008D02*
X10814618Y-13583531D01*
X10814618Y-13583531D02*
X10824142Y-13602579D01*
X10824142Y-13602579D02*
X10833666Y-13640674D01*
X10833666Y-13640674D02*
X10833666Y-13688293D01*
X10833666Y-13688293D02*
X10824142Y-13726388D01*
X10824142Y-13726388D02*
X10814618Y-13745436D01*
X10814618Y-13745436D02*
X10805094Y-13754960D01*
X10805094Y-13754960D02*
X10786047Y-13764484D01*
X10786047Y-13764484D02*
X10766999Y-13764484D01*
X10766999Y-13764484D02*
X10747951Y-13754960D01*
X10747951Y-13754960D02*
X10738428Y-13745436D01*
X10738428Y-13745436D02*
X10728904Y-13726388D01*
X10728904Y-13726388D02*
X10719380Y-13688293D01*
X10719380Y-13688293D02*
X10719380Y-13640674D01*
X10719380Y-13640674D02*
X10728904Y-13602579D01*
X10728904Y-13602579D02*
X10738428Y-13583531D01*
X10738428Y-13583531D02*
X10747951Y-13574008D01*
X10747951Y-13574008D02*
X10766999Y-13564484D01*
X10957475Y-13564484D02*
X10976523Y-13564484D01*
X10976523Y-13564484D02*
X10995571Y-13574008D01*
X10995571Y-13574008D02*
X11005094Y-13583531D01*
X11005094Y-13583531D02*
X11014618Y-13602579D01*
X11014618Y-13602579D02*
X11024142Y-13640674D01*
X11024142Y-13640674D02*
X11024142Y-13688293D01*
X11024142Y-13688293D02*
X11014618Y-13726388D01*
X11014618Y-13726388D02*
X11005094Y-13745436D01*
X11005094Y-13745436D02*
X10995571Y-13754960D01*
X10995571Y-13754960D02*
X10976523Y-13764484D01*
X10976523Y-13764484D02*
X10957475Y-13764484D01*
X10957475Y-13764484D02*
X10938428Y-13754960D01*
X10938428Y-13754960D02*
X10928904Y-13745436D01*
X10928904Y-13745436D02*
X10919380Y-13726388D01*
X10919380Y-13726388D02*
X10909856Y-13688293D01*
X10909856Y-13688293D02*
X10909856Y-13640674D01*
X10909856Y-13640674D02*
X10919380Y-13602579D01*
X10919380Y-13602579D02*
X10928904Y-13583531D01*
X10928904Y-13583531D02*
X10938428Y-13574008D01*
X10938428Y-13574008D02*
X10957475Y-13564484D01*
X11109856Y-13764484D02*
X11109856Y-13631150D01*
X11109856Y-13650198D02*
X11119380Y-13640674D01*
X11119380Y-13640674D02*
X11138428Y-13631150D01*
X11138428Y-13631150D02*
X11166999Y-13631150D01*
X11166999Y-13631150D02*
X11186047Y-13640674D01*
X11186047Y-13640674D02*
X11195570Y-13659722D01*
X11195570Y-13659722D02*
X11195570Y-13764484D01*
X11195570Y-13659722D02*
X11205094Y-13640674D01*
X11205094Y-13640674D02*
X11224142Y-13631150D01*
X11224142Y-13631150D02*
X11252713Y-13631150D01*
X11252713Y-13631150D02*
X11271761Y-13640674D01*
X11271761Y-13640674D02*
X11281285Y-13659722D01*
X11281285Y-13659722D02*
X11281285Y-13764484D01*
X11376523Y-13764484D02*
X11376523Y-13631150D01*
X11376523Y-13650198D02*
X11386047Y-13640674D01*
X11386047Y-13640674D02*
X11405094Y-13631150D01*
X11405094Y-13631150D02*
X11433666Y-13631150D01*
X11433666Y-13631150D02*
X11452713Y-13640674D01*
X11452713Y-13640674D02*
X11462237Y-13659722D01*
X11462237Y-13659722D02*
X11462237Y-13764484D01*
X11462237Y-13659722D02*
X11471761Y-13640674D01*
X11471761Y-13640674D02*
X11490809Y-13631150D01*
X11490809Y-13631150D02*
X11519380Y-13631150D01*
X11519380Y-13631150D02*
X11538428Y-13640674D01*
X11538428Y-13640674D02*
X11547951Y-13659722D01*
X11547951Y-13659722D02*
X11547951Y-13764484D01*
X11938428Y-13554960D02*
X11766999Y-13812103D01*
X12195571Y-13564484D02*
X12214618Y-13564484D01*
X12214618Y-13564484D02*
X12233666Y-13574008D01*
X12233666Y-13574008D02*
X12243190Y-13583531D01*
X12243190Y-13583531D02*
X12252713Y-13602579D01*
X12252713Y-13602579D02*
X12262237Y-13640674D01*
X12262237Y-13640674D02*
X12262237Y-13688293D01*
X12262237Y-13688293D02*
X12252713Y-13726388D01*
X12252713Y-13726388D02*
X12243190Y-13745436D01*
X12243190Y-13745436D02*
X12233666Y-13754960D01*
X12233666Y-13754960D02*
X12214618Y-13764484D01*
X12214618Y-13764484D02*
X12195571Y-13764484D01*
X12195571Y-13764484D02*
X12176523Y-13754960D01*
X12176523Y-13754960D02*
X12166999Y-13745436D01*
X12166999Y-13745436D02*
X12157475Y-13726388D01*
X12157475Y-13726388D02*
X12147952Y-13688293D01*
X12147952Y-13688293D02*
X12147952Y-13640674D01*
X12147952Y-13640674D02*
X12157475Y-13602579D01*
X12157475Y-13602579D02*
X12166999Y-13583531D01*
X12166999Y-13583531D02*
X12176523Y-13574008D01*
X12176523Y-13574008D02*
X12195571Y-13564484D01*
X12347952Y-13745436D02*
X12357475Y-13754960D01*
X12357475Y-13754960D02*
X12347952Y-13764484D01*
X12347952Y-13764484D02*
X12338428Y-13754960D01*
X12338428Y-13754960D02*
X12347952Y-13745436D01*
X12347952Y-13745436D02*
X12347952Y-13764484D01*
X12481285Y-13564484D02*
X12500333Y-13564484D01*
X12500333Y-13564484D02*
X12519380Y-13574008D01*
X12519380Y-13574008D02*
X12528904Y-13583531D01*
X12528904Y-13583531D02*
X12538428Y-13602579D01*
X12538428Y-13602579D02*
X12547952Y-13640674D01*
X12547952Y-13640674D02*
X12547952Y-13688293D01*
X12547952Y-13688293D02*
X12538428Y-13726388D01*
X12538428Y-13726388D02*
X12528904Y-13745436D01*
X12528904Y-13745436D02*
X12519380Y-13754960D01*
X12519380Y-13754960D02*
X12500333Y-13764484D01*
X12500333Y-13764484D02*
X12481285Y-13764484D01*
X12481285Y-13764484D02*
X12462237Y-13754960D01*
X12462237Y-13754960D02*
X12452713Y-13745436D01*
X12452713Y-13745436D02*
X12443190Y-13726388D01*
X12443190Y-13726388D02*
X12433666Y-13688293D01*
X12433666Y-13688293D02*
X12433666Y-13640674D01*
X12433666Y-13640674D02*
X12443190Y-13602579D01*
X12443190Y-13602579D02*
X12452713Y-13583531D01*
X12452713Y-13583531D02*
X12462237Y-13574008D01*
X12462237Y-13574008D02*
X12481285Y-13564484D01*
X12728904Y-13564484D02*
X12633666Y-13564484D01*
X12633666Y-13564484D02*
X12624142Y-13659722D01*
X12624142Y-13659722D02*
X12633666Y-13650198D01*
X12633666Y-13650198D02*
X12652713Y-13640674D01*
X12652713Y-13640674D02*
X12700333Y-13640674D01*
X12700333Y-13640674D02*
X12719380Y-13650198D01*
X12719380Y-13650198D02*
X12728904Y-13659722D01*
X12728904Y-13659722D02*
X12738428Y-13678769D01*
X12738428Y-13678769D02*
X12738428Y-13726388D01*
X12738428Y-13726388D02*
X12728904Y-13745436D01*
X12728904Y-13745436D02*
X12719380Y-13754960D01*
X12719380Y-13754960D02*
X12700333Y-13764484D01*
X12700333Y-13764484D02*
X12652713Y-13764484D01*
X12652713Y-13764484D02*
X12633666Y-13754960D01*
X12633666Y-13754960D02*
X12624142Y-13745436D01*
X12919380Y-13564484D02*
X12824142Y-13564484D01*
X12824142Y-13564484D02*
X12814618Y-13659722D01*
X12814618Y-13659722D02*
X12824142Y-13650198D01*
X12824142Y-13650198D02*
X12843190Y-13640674D01*
X12843190Y-13640674D02*
X12890809Y-13640674D01*
X12890809Y-13640674D02*
X12909856Y-13650198D01*
X12909856Y-13650198D02*
X12919380Y-13659722D01*
X12919380Y-13659722D02*
X12928904Y-13678769D01*
X12928904Y-13678769D02*
X12928904Y-13726388D01*
X12928904Y-13726388D02*
X12919380Y-13745436D01*
X12919380Y-13745436D02*
X12909856Y-13754960D01*
X12909856Y-13754960D02*
X12890809Y-13764484D01*
X12890809Y-13764484D02*
X12843190Y-13764484D01*
X12843190Y-13764484D02*
X12824142Y-13754960D01*
X12824142Y-13754960D02*
X12814618Y-13745436D01*
X13119380Y-13764484D02*
X13005094Y-13764484D01*
X13062237Y-13764484D02*
X13062237Y-13564484D01*
X13062237Y-13564484D02*
X13043190Y-13593055D01*
X13043190Y-13593055D02*
X13024142Y-13612103D01*
X13024142Y-13612103D02*
X13005094Y-13621627D01*
X13195571Y-13564484D02*
X13195571Y-13602579D01*
X13271761Y-13564484D02*
X13271761Y-13602579D01*
X13566999Y-13840674D02*
X13557475Y-13831150D01*
X13557475Y-13831150D02*
X13538428Y-13802579D01*
X13538428Y-13802579D02*
X13528904Y-13783531D01*
X13528904Y-13783531D02*
X13519380Y-13754960D01*
X13519380Y-13754960D02*
X13509856Y-13707341D01*
X13509856Y-13707341D02*
X13509856Y-13669246D01*
X13509856Y-13669246D02*
X13519380Y-13621627D01*
X13519380Y-13621627D02*
X13528904Y-13593055D01*
X13528904Y-13593055D02*
X13538428Y-13574008D01*
X13538428Y-13574008D02*
X13557475Y-13545436D01*
X13557475Y-13545436D02*
X13566999Y-13535912D01*
X13633666Y-13583531D02*
X13643190Y-13574008D01*
X13643190Y-13574008D02*
X13662237Y-13564484D01*
X13662237Y-13564484D02*
X13709856Y-13564484D01*
X13709856Y-13564484D02*
X13728904Y-13574008D01*
X13728904Y-13574008D02*
X13738428Y-13583531D01*
X13738428Y-13583531D02*
X13747952Y-13602579D01*
X13747952Y-13602579D02*
X13747952Y-13621627D01*
X13747952Y-13621627D02*
X13738428Y-13650198D01*
X13738428Y-13650198D02*
X13624142Y-13764484D01*
X13624142Y-13764484D02*
X13747952Y-13764484D01*
X13919380Y-13631150D02*
X13919380Y-13764484D01*
X13871761Y-13554960D02*
X13824142Y-13697817D01*
X13824142Y-13697817D02*
X13947952Y-13697817D01*
X14176523Y-13764484D02*
X14176523Y-13564484D01*
X14262237Y-13764484D02*
X14262237Y-13659722D01*
X14262237Y-13659722D02*
X14252714Y-13640674D01*
X14252714Y-13640674D02*
X14233666Y-13631150D01*
X14233666Y-13631150D02*
X14205095Y-13631150D01*
X14205095Y-13631150D02*
X14186047Y-13640674D01*
X14186047Y-13640674D02*
X14176523Y-13650198D01*
X14386047Y-13764484D02*
X14366999Y-13754960D01*
X14366999Y-13754960D02*
X14357476Y-13745436D01*
X14357476Y-13745436D02*
X14347952Y-13726388D01*
X14347952Y-13726388D02*
X14347952Y-13669246D01*
X14347952Y-13669246D02*
X14357476Y-13650198D01*
X14357476Y-13650198D02*
X14366999Y-13640674D01*
X14366999Y-13640674D02*
X14386047Y-13631150D01*
X14386047Y-13631150D02*
X14414618Y-13631150D01*
X14414618Y-13631150D02*
X14433666Y-13640674D01*
X14433666Y-13640674D02*
X14443190Y-13650198D01*
X14443190Y-13650198D02*
X14452714Y-13669246D01*
X14452714Y-13669246D02*
X14452714Y-13726388D01*
X14452714Y-13726388D02*
X14443190Y-13745436D01*
X14443190Y-13745436D02*
X14433666Y-13754960D01*
X14433666Y-13754960D02*
X14414618Y-13764484D01*
X14414618Y-13764484D02*
X14386047Y-13764484D01*
X14566999Y-13764484D02*
X14547952Y-13754960D01*
X14547952Y-13754960D02*
X14538428Y-13735912D01*
X14538428Y-13735912D02*
X14538428Y-13564484D01*
X14719380Y-13754960D02*
X14700333Y-13764484D01*
X14700333Y-13764484D02*
X14662237Y-13764484D01*
X14662237Y-13764484D02*
X14643190Y-13754960D01*
X14643190Y-13754960D02*
X14633666Y-13735912D01*
X14633666Y-13735912D02*
X14633666Y-13659722D01*
X14633666Y-13659722D02*
X14643190Y-13640674D01*
X14643190Y-13640674D02*
X14662237Y-13631150D01*
X14662237Y-13631150D02*
X14700333Y-13631150D01*
X14700333Y-13631150D02*
X14719380Y-13640674D01*
X14719380Y-13640674D02*
X14728904Y-13659722D01*
X14728904Y-13659722D02*
X14728904Y-13678769D01*
X14728904Y-13678769D02*
X14633666Y-13697817D01*
X14805095Y-13754960D02*
X14824142Y-13764484D01*
X14824142Y-13764484D02*
X14862237Y-13764484D01*
X14862237Y-13764484D02*
X14881285Y-13754960D01*
X14881285Y-13754960D02*
X14890809Y-13735912D01*
X14890809Y-13735912D02*
X14890809Y-13726388D01*
X14890809Y-13726388D02*
X14881285Y-13707341D01*
X14881285Y-13707341D02*
X14862237Y-13697817D01*
X14862237Y-13697817D02*
X14833666Y-13697817D01*
X14833666Y-13697817D02*
X14814618Y-13688293D01*
X14814618Y-13688293D02*
X14805095Y-13669246D01*
X14805095Y-13669246D02*
X14805095Y-13659722D01*
X14805095Y-13659722D02*
X14814618Y-13640674D01*
X14814618Y-13640674D02*
X14833666Y-13631150D01*
X14833666Y-13631150D02*
X14862237Y-13631150D01*
X14862237Y-13631150D02*
X14881285Y-13640674D01*
X14957476Y-13840674D02*
X14966999Y-13831150D01*
X14966999Y-13831150D02*
X14986047Y-13802579D01*
X14986047Y-13802579D02*
X14995571Y-13783531D01*
X14995571Y-13783531D02*
X15005095Y-13754960D01*
X15005095Y-13754960D02*
X15014618Y-13707341D01*
X15014618Y-13707341D02*
X15014618Y-13669246D01*
X15014618Y-13669246D02*
X15005095Y-13621627D01*
X15005095Y-13621627D02*
X14995571Y-13593055D01*
X14995571Y-13593055D02*
X14986047Y-13574008D01*
X14986047Y-13574008D02*
X14966999Y-13545436D01*
X14966999Y-13545436D02*
X14957476Y-13535912D01*
M02*
