G04 #@! TF.GenerationSoftware,KiCad,Pcbnew,7.0.10*
G04 #@! TF.CreationDate,2024-01-15T21:05:21-07:00*
G04 #@! TF.ProjectId,RPI 5 PCIE,52504920-3520-4504-9349-452e6b696361,rev?*
G04 #@! TF.SameCoordinates,Original*
G04 #@! TF.FileFunction,Copper,L1,Top*
G04 #@! TF.FilePolarity,Positive*
%FSLAX46Y46*%
G04 Gerber Fmt 4.6, Leading zero omitted, Abs format (unit mm)*
G04 Created by KiCad (PCBNEW 7.0.10) date 2024-01-15 21:05:21*
%MOMM*%
%LPD*%
G01*
G04 APERTURE LIST*
G04 Aperture macros list*
%AMRoundRect*
0 Rectangle with rounded corners*
0 $1 Rounding radius*
0 $2 $3 $4 $5 $6 $7 $8 $9 X,Y pos of 4 corners*
0 Add a 4 corners polygon primitive as box body*
4,1,4,$2,$3,$4,$5,$6,$7,$8,$9,$2,$3,0*
0 Add four circle primitives for the rounded corners*
1,1,$1+$1,$2,$3*
1,1,$1+$1,$4,$5*
1,1,$1+$1,$6,$7*
1,1,$1+$1,$8,$9*
0 Add four rect primitives between the rounded corners*
20,1,$1+$1,$2,$3,$4,$5,0*
20,1,$1+$1,$4,$5,$6,$7,0*
20,1,$1+$1,$6,$7,$8,$9,0*
20,1,$1+$1,$8,$9,$2,$3,0*%
G04 Aperture macros list end*
G04 #@! TA.AperFunction,ComponentPad*
%ADD10O,2.700000X3.300000*%
G04 #@! TD*
G04 #@! TA.AperFunction,ComponentPad*
%ADD11RoundRect,0.250001X1.099999X1.399999X-1.099999X1.399999X-1.099999X-1.399999X1.099999X-1.399999X0*%
G04 #@! TD*
G04 #@! TA.AperFunction,ComponentPad*
%ADD12C,1.200000*%
G04 #@! TD*
G04 #@! TA.AperFunction,ComponentPad*
%ADD13R,1.200000X1.200000*%
G04 #@! TD*
G04 #@! TA.AperFunction,SMDPad,CuDef*
%ADD14RoundRect,0.450000X0.450000X0.800000X-0.450000X0.800000X-0.450000X-0.800000X0.450000X-0.800000X0*%
G04 #@! TD*
G04 #@! TA.AperFunction,SMDPad,CuDef*
%ADD15RoundRect,0.087500X0.562500X0.087500X-0.562500X0.087500X-0.562500X-0.087500X0.562500X-0.087500X0*%
G04 #@! TD*
G04 #@! TA.AperFunction,SMDPad,CuDef*
%ADD16RoundRect,0.250000X-0.312500X-0.625000X0.312500X-0.625000X0.312500X0.625000X-0.312500X0.625000X0*%
G04 #@! TD*
G04 #@! TA.AperFunction,SMDPad,CuDef*
%ADD17RoundRect,0.150000X0.150000X-0.587500X0.150000X0.587500X-0.150000X0.587500X-0.150000X-0.587500X0*%
G04 #@! TD*
G04 #@! TA.AperFunction,ViaPad*
%ADD18C,0.800000*%
G04 #@! TD*
G04 #@! TA.AperFunction,Conductor*
%ADD19C,0.155400*%
G04 #@! TD*
G04 #@! TA.AperFunction,Conductor*
%ADD20C,0.200000*%
G04 #@! TD*
G04 #@! TA.AperFunction,Conductor*
%ADD21C,0.300000*%
G04 #@! TD*
G04 #@! TA.AperFunction,Conductor*
%ADD22C,0.127000*%
G04 #@! TD*
G04 #@! TA.AperFunction,Conductor*
%ADD23C,0.190000*%
G04 #@! TD*
G04 APERTURE END LIST*
D10*
X109400000Y-92700000D03*
X113600000Y-92700000D03*
X117800000Y-92700000D03*
X122000000Y-92700000D03*
X126200000Y-92700000D03*
X130400000Y-92700000D03*
X134600000Y-92700000D03*
X138800000Y-92700000D03*
X143000000Y-92700000D03*
X147200000Y-92700000D03*
X151400000Y-92700000D03*
X155600000Y-92700000D03*
X109400000Y-98200000D03*
X113600000Y-98200000D03*
X117800000Y-98200000D03*
X122000000Y-98200000D03*
X126200000Y-98200000D03*
X130400000Y-98200000D03*
X134600000Y-98200000D03*
X138800000Y-98200000D03*
X143000000Y-98200000D03*
X147200000Y-98200000D03*
X151400000Y-98200000D03*
D11*
X155600000Y-98200000D03*
D12*
X186719365Y-119000000D03*
X185719365Y-117000000D03*
X184719365Y-119000000D03*
X183719365Y-117000000D03*
X182719365Y-119000000D03*
X181719365Y-117000000D03*
X180719365Y-119000000D03*
X179719365Y-117000000D03*
X178719365Y-119000000D03*
X177719365Y-117000000D03*
X176719365Y-119000000D03*
X175719365Y-117000000D03*
X174719365Y-119000000D03*
X173719365Y-117000000D03*
X172719365Y-119000000D03*
X171719365Y-117000000D03*
X170719365Y-119000000D03*
X169719365Y-117000000D03*
X168719365Y-119000000D03*
X167719365Y-117000000D03*
X166719365Y-119000000D03*
X165719365Y-117000000D03*
X164719365Y-119000000D03*
X163719365Y-117000000D03*
X162719365Y-119000000D03*
X161719365Y-117000000D03*
X160719365Y-119000000D03*
X159719365Y-117000000D03*
X158719365Y-119000000D03*
X157719365Y-117000000D03*
X156719365Y-119000000D03*
X155719365Y-117000000D03*
X154719365Y-119000000D03*
X153719365Y-117000000D03*
X152719365Y-119000000D03*
X151719365Y-117000000D03*
X150719365Y-119000000D03*
X149719365Y-117000000D03*
X148719365Y-119000000D03*
X147719365Y-117000000D03*
X146719365Y-119000000D03*
X145719365Y-117000000D03*
X144719365Y-119000000D03*
X143719365Y-117000000D03*
X142719365Y-119000000D03*
X141719365Y-117000000D03*
X140719365Y-119000000D03*
X139719365Y-117000000D03*
X138719365Y-119000000D03*
X137719365Y-117000000D03*
X136719365Y-119000000D03*
X135719365Y-117000000D03*
X134719365Y-119000000D03*
X133719365Y-117000000D03*
X132719365Y-119000000D03*
X131719365Y-117000000D03*
X130719365Y-119000000D03*
X129719365Y-117000000D03*
X128719365Y-119000000D03*
X127719365Y-117000000D03*
X126719365Y-119000000D03*
X125719365Y-117000000D03*
X124719365Y-119000000D03*
X123719365Y-117000000D03*
X122719365Y-119000000D03*
X121719365Y-117000000D03*
X120719365Y-119000000D03*
X119719365Y-117000000D03*
X118719365Y-119000000D03*
X117719365Y-117000000D03*
X116719365Y-119000000D03*
X113719365Y-117000000D03*
X112719365Y-119000000D03*
X111719365Y-117000000D03*
X110719365Y-119000000D03*
X109719365Y-117000000D03*
X108719365Y-119000000D03*
X107719365Y-117000000D03*
X106719365Y-119000000D03*
X105719365Y-117000000D03*
X104719365Y-119000000D03*
X103719365Y-117000000D03*
X186719365Y-112500000D03*
X185719365Y-114500000D03*
X184719365Y-112500000D03*
X183719365Y-114500000D03*
X182719365Y-112500000D03*
X181719365Y-114500000D03*
X180719365Y-112500000D03*
X179719365Y-114500000D03*
X178719365Y-112500000D03*
X177719365Y-114500000D03*
X176719365Y-112500000D03*
X175719365Y-114500000D03*
X174719365Y-112500000D03*
X173719365Y-114500000D03*
X172719365Y-112500000D03*
X171719365Y-114500000D03*
X170719365Y-112500000D03*
X169719365Y-114500000D03*
X168719365Y-112500000D03*
X167719365Y-114500000D03*
X166719365Y-112500000D03*
X165719365Y-114500000D03*
X164719365Y-112500000D03*
X163719365Y-114500000D03*
X162719365Y-112500000D03*
X161719365Y-114500000D03*
X160719365Y-112500000D03*
X159719365Y-114500000D03*
X158719365Y-112500000D03*
X157719365Y-114500000D03*
X156719365Y-112500000D03*
X155719365Y-114500000D03*
X154719365Y-112500000D03*
X153719365Y-114500000D03*
X152719365Y-112500000D03*
X151719365Y-114500000D03*
X150719365Y-112500000D03*
X149719365Y-114500000D03*
X148719365Y-112500000D03*
X147719365Y-114500000D03*
X146719365Y-112500000D03*
X145719365Y-114500000D03*
X144719365Y-112500000D03*
X143719365Y-114500000D03*
X142719365Y-112500000D03*
X141719365Y-114500000D03*
X140719365Y-112500000D03*
X139719365Y-114500000D03*
X138719365Y-112500000D03*
X137719365Y-114500000D03*
X136719365Y-112500000D03*
X135719365Y-114500000D03*
X134719365Y-112500000D03*
X133719365Y-114500000D03*
X132719365Y-112500000D03*
X131719365Y-114500000D03*
X130719365Y-112500000D03*
X129719365Y-114500000D03*
X128719365Y-112500000D03*
X127719365Y-114500000D03*
X126719365Y-112500000D03*
X125719365Y-114500000D03*
X124719365Y-112500000D03*
X123719365Y-114500000D03*
X122719365Y-112500000D03*
X121719365Y-114500000D03*
X120719365Y-112500000D03*
X119719365Y-114500000D03*
X118719365Y-112500000D03*
X117719365Y-114500000D03*
X116719365Y-112500000D03*
X113719365Y-114500000D03*
X112719365Y-112500000D03*
X111719365Y-114500000D03*
X110719365Y-112500000D03*
X109719365Y-114500000D03*
X108719365Y-112500000D03*
X107719365Y-114500000D03*
X106719365Y-112500000D03*
X105719365Y-114500000D03*
X104719365Y-112500000D03*
D13*
X103719365Y-114500000D03*
D14*
X190781865Y-110400000D03*
X190781865Y-98600000D03*
D15*
X187406865Y-108250000D03*
X187406865Y-107750000D03*
X187406865Y-107250000D03*
X187406865Y-106750000D03*
X187406865Y-106250000D03*
X187406865Y-105750000D03*
X187406865Y-105250000D03*
X187406865Y-104750000D03*
X187406865Y-104250000D03*
X187406865Y-103750000D03*
X187406865Y-103250000D03*
X187406865Y-102750000D03*
X187406865Y-102250000D03*
X187406865Y-101750000D03*
X187406865Y-101250000D03*
X187406865Y-100750000D03*
D16*
X187462500Y-91250000D03*
X184537500Y-91250000D03*
D17*
X190519365Y-91437500D03*
X192419365Y-91437500D03*
X191469365Y-89562500D03*
D16*
X187000000Y-95500000D03*
X184075000Y-95500000D03*
D18*
X186200000Y-107800000D03*
X184600000Y-105600000D03*
X184600000Y-104200000D03*
X184600000Y-103000000D03*
X192400000Y-93400000D03*
X187200000Y-99600000D03*
X113500000Y-109500000D03*
X112000000Y-109500000D03*
X110500000Y-109500000D03*
X113500000Y-108250000D03*
X112000000Y-108250000D03*
X110500000Y-108250000D03*
X176719365Y-121500000D03*
X172719365Y-121500000D03*
X126719365Y-121500000D03*
X156719365Y-121500000D03*
X168719365Y-121500000D03*
X184969365Y-121500000D03*
X140719365Y-121500000D03*
X164719365Y-121500000D03*
X144719365Y-121500000D03*
X180719365Y-121500000D03*
X136719365Y-121500000D03*
X122719365Y-121500000D03*
X130719365Y-121500000D03*
X148719365Y-121500000D03*
X160719365Y-121500000D03*
D19*
X188381866Y-105250000D02*
X187406865Y-105250000D01*
X188452566Y-105179300D02*
X188381866Y-105250000D01*
X188645095Y-105179300D02*
X188452566Y-105179300D01*
X189040065Y-105574270D02*
X188645095Y-105179300D01*
X189040065Y-108675730D02*
X189040065Y-105574270D01*
X187145095Y-110570700D02*
X189040065Y-108675730D01*
X140309950Y-110570700D02*
X140400000Y-110570700D01*
X139709950Y-110060749D02*
X139800000Y-110060749D01*
X139454975Y-110315725D02*
X139454975Y-110315724D01*
X139109950Y-110570700D02*
X139200000Y-110570700D01*
X138254975Y-110315725D02*
X138254975Y-110315724D01*
X137909950Y-110570700D02*
X138000000Y-110570700D01*
X140400000Y-110570700D02*
X187145095Y-110570700D01*
X137654975Y-110315724D02*
X137654975Y-110315725D01*
X137309950Y-110060749D02*
X137400000Y-110060749D01*
X137054975Y-110315725D02*
X137054975Y-110315724D01*
X136454975Y-110315724D02*
X136454975Y-110315725D01*
X136109950Y-110060749D02*
X136200000Y-110060749D01*
X138509950Y-110060749D02*
X138600000Y-110060749D01*
X135854975Y-110315725D02*
X135854975Y-110315724D01*
X122648665Y-110570700D02*
X135600000Y-110570700D01*
X136709950Y-110570700D02*
X136800000Y-110570700D01*
X140054900Y-110315725D02*
G75*
G03*
X140309950Y-110570700I255000J25D01*
G01*
X140054951Y-110315724D02*
G75*
G03*
X139800000Y-110060749I-254951J24D01*
G01*
X139200000Y-110570675D02*
G75*
G03*
X139454975Y-110315725I0J254975D01*
G01*
X138854900Y-110315725D02*
G75*
G03*
X139109950Y-110570700I255000J25D01*
G01*
X138854951Y-110315724D02*
G75*
G03*
X138600000Y-110060749I-254951J24D01*
G01*
X138509950Y-110060775D02*
G75*
G03*
X138254975Y-110315724I-50J-254925D01*
G01*
X139709950Y-110060775D02*
G75*
G03*
X139454975Y-110315724I-50J-254925D01*
G01*
X138000000Y-110570675D02*
G75*
G03*
X138254975Y-110315725I0J254975D01*
G01*
X137654900Y-110315725D02*
G75*
G03*
X137909950Y-110570700I255000J25D01*
G01*
X136800000Y-110570675D02*
G75*
G03*
X137054975Y-110315725I0J254975D01*
G01*
X120719365Y-112500000D02*
X122648665Y-110570700D01*
X137309950Y-110060775D02*
G75*
G03*
X137054975Y-110315724I-50J-254925D01*
G01*
X138854975Y-110315724D02*
X138854975Y-110315725D01*
X136454951Y-110315724D02*
G75*
G03*
X136200000Y-110060749I-254951J24D01*
G01*
X137654951Y-110315724D02*
G75*
G03*
X137400000Y-110060749I-254951J24D01*
G01*
X136109950Y-110060775D02*
G75*
G03*
X135854975Y-110315724I-50J-254925D01*
G01*
X140054975Y-110315724D02*
X140054975Y-110315725D01*
X136454900Y-110315725D02*
G75*
G03*
X136709950Y-110570700I255000J25D01*
G01*
X135600000Y-110570675D02*
G75*
G03*
X135854975Y-110315725I0J254975D01*
G01*
X186431864Y-106250000D02*
X187406865Y-106250000D01*
X186361164Y-106320700D02*
X186431864Y-106250000D01*
X183145095Y-109320700D02*
X186145095Y-106320700D01*
X129363132Y-109320700D02*
X183145095Y-109320700D01*
X125400000Y-109320700D02*
X129363132Y-109320700D01*
X125100000Y-108915080D02*
X125100000Y-109020700D01*
X124500000Y-109020700D02*
X124500000Y-108915080D01*
X123900000Y-108915080D02*
X123900000Y-109020700D01*
X186145095Y-106320700D02*
X186361164Y-106320700D01*
X123300000Y-109020700D02*
X123300000Y-108915080D01*
X121395095Y-109320700D02*
X123000000Y-109320700D01*
X119540065Y-112172163D02*
X119540065Y-111175730D01*
X119212228Y-112500000D02*
X119540065Y-112172163D01*
X118719365Y-112500000D02*
X119212228Y-112500000D01*
X125100020Y-108915080D02*
G75*
G03*
X124800000Y-108615080I-300020J-20D01*
G01*
X125100000Y-109020700D02*
G75*
G03*
X125400000Y-109320700I300000J0D01*
G01*
X119540065Y-111175730D02*
X121395095Y-109320700D01*
X124800000Y-108615100D02*
G75*
G03*
X124500000Y-108915080I0J-300000D01*
G01*
X124200000Y-109320700D02*
G75*
G03*
X124500000Y-109020700I0J300000D01*
G01*
X123900020Y-108915080D02*
G75*
G03*
X123600000Y-108615080I-300020J-20D01*
G01*
X123900000Y-109020700D02*
G75*
G03*
X124200000Y-109320700I300000J0D01*
G01*
X123600000Y-108615100D02*
G75*
G03*
X123300000Y-108915080I0J-300000D01*
G01*
X123000000Y-109320700D02*
G75*
G03*
X123300000Y-109020700I0J300000D01*
G01*
D20*
X108719365Y-112500000D02*
X110719365Y-112500000D01*
X107719365Y-113500000D02*
X108719365Y-112500000D01*
X107719365Y-114500000D02*
X107719365Y-113500000D01*
X186200000Y-107800000D02*
X186400000Y-107600000D01*
X184600000Y-105600000D02*
X184550000Y-105750000D01*
X184600000Y-104200000D02*
X184650000Y-104250000D01*
X184850000Y-102750000D02*
X184600000Y-103000000D01*
X187406865Y-102750000D02*
X184850000Y-102750000D01*
X187406865Y-104250000D02*
X184600000Y-104200000D01*
X187406865Y-105750000D02*
X184600000Y-105600000D01*
X187406865Y-107250000D02*
X186750000Y-107250000D01*
X186750000Y-107250000D02*
X186200000Y-107800000D01*
X192419365Y-93380635D02*
X192400000Y-93400000D01*
X192419365Y-91437500D02*
X192419365Y-93380635D01*
X185054506Y-90148000D02*
X166052000Y-90148000D01*
X158000000Y-98200000D02*
X155600000Y-98200000D01*
X185327000Y-90420494D02*
X185054506Y-90148000D01*
X166052000Y-90148000D02*
X158000000Y-98200000D01*
X185327000Y-94248000D02*
X185327000Y-90420494D01*
X184075000Y-95500000D02*
X185327000Y-94248000D01*
X146137500Y-89562500D02*
X143000000Y-92700000D01*
X191469365Y-89562500D02*
X146137500Y-89562500D01*
X187650000Y-91437500D02*
X187462500Y-91250000D01*
X190519365Y-91437500D02*
X187650000Y-91437500D01*
X186529865Y-95970135D02*
X187000000Y-95500000D01*
X186756866Y-101750000D02*
X186529865Y-101522999D01*
X187406865Y-101750000D02*
X186756866Y-101750000D01*
X186529865Y-101522999D02*
X186529865Y-95970135D01*
X183285500Y-92502000D02*
X184537500Y-91250000D01*
X183285500Y-100485500D02*
X183285500Y-92502000D01*
X185050000Y-102250000D02*
X183285500Y-100485500D01*
X187406865Y-102250000D02*
X185050000Y-102250000D01*
X187200000Y-100543135D02*
X187200000Y-99600000D01*
X187406865Y-100750000D02*
X187200000Y-100543135D01*
D21*
X107596365Y-118123000D02*
X108596365Y-118123000D01*
X106719365Y-119000000D02*
X107596365Y-118123000D01*
X108596365Y-118123000D02*
X109719365Y-117000000D01*
D22*
X187406865Y-102250000D02*
X186756866Y-102250000D01*
X121219365Y-123500000D02*
X116719365Y-119000000D01*
X193469365Y-123500000D02*
X121219365Y-123500000D01*
X195469365Y-121500000D02*
X193469365Y-123500000D01*
X195469365Y-106500000D02*
X195469365Y-121500000D01*
X190219365Y-101250000D02*
X195469365Y-106500000D01*
X187406865Y-101250000D02*
X190219365Y-101250000D01*
D19*
X119719365Y-120496430D02*
X119719365Y-117000000D01*
X192395095Y-122320700D02*
X121543635Y-122320700D01*
X193290065Y-121425730D02*
X192395095Y-122320700D01*
X193290065Y-107574270D02*
X193290065Y-121425730D01*
X189395095Y-103679300D02*
X193290065Y-107574270D01*
X188452566Y-103679300D02*
X189395095Y-103679300D01*
X188381866Y-103750000D02*
X188452566Y-103679300D01*
X187406865Y-103750000D02*
X188381866Y-103750000D01*
X119360765Y-120644970D02*
X119360765Y-119641400D01*
X121395095Y-122679300D02*
X119360765Y-120644970D01*
X192543635Y-122679300D02*
X121395095Y-122679300D01*
X193648665Y-121574270D02*
X192543635Y-122679300D01*
X121543635Y-122320700D02*
X119719365Y-120496430D01*
X193648665Y-107425730D02*
X193648665Y-121574270D01*
X188381866Y-103250000D02*
X188452566Y-103320700D01*
X188452566Y-103320700D02*
X189543635Y-103320700D01*
X187406865Y-103250000D02*
X188381866Y-103250000D01*
X119360765Y-119641400D02*
X118719365Y-119000000D01*
X189543635Y-103320700D02*
X193648665Y-107425730D01*
D23*
X117219365Y-114500000D02*
X117719365Y-114500000D01*
D20*
X118461271Y-119258094D02*
X118719365Y-119000000D01*
D19*
X119524065Y-112833318D02*
X119052683Y-113304700D01*
X119898665Y-111324270D02*
X119898665Y-112320700D01*
X119052683Y-113304700D02*
X118914665Y-113304700D01*
X119898665Y-112320700D02*
X119524065Y-112695300D01*
X119524065Y-112695300D02*
X119524065Y-112833318D01*
X118914665Y-113304700D02*
X117719365Y-114500000D01*
X122797202Y-110929300D02*
X121719365Y-112007137D01*
X121719365Y-112007137D02*
X121719365Y-114500000D01*
X186361164Y-106679300D02*
X186293635Y-106679300D01*
X186431864Y-106750000D02*
X186361164Y-106679300D01*
X186293635Y-106679300D02*
X183293635Y-109679300D01*
X121543635Y-109679300D02*
X119898665Y-111324270D01*
X183293635Y-109679300D02*
X121543635Y-109679300D01*
X187406865Y-106750000D02*
X186431864Y-106750000D01*
X187293635Y-110929300D02*
X122797202Y-110929300D01*
X189398665Y-108824270D02*
X187293635Y-110929300D01*
X189398665Y-105425730D02*
X189398665Y-108824270D01*
X188793635Y-104820700D02*
X189398665Y-105425730D01*
X188452566Y-104820700D02*
X188793635Y-104820700D01*
X188381866Y-104750000D02*
X188452566Y-104820700D01*
X187406865Y-104750000D02*
X188381866Y-104750000D01*
G04 #@! TA.AperFunction,Conductor*
G36*
X189324404Y-110519685D02*
G01*
X189370159Y-110572489D01*
X189381365Y-110624000D01*
X189381365Y-111255136D01*
X189391447Y-111368548D01*
X189444627Y-111554405D01*
X189494116Y-111649147D01*
X189534131Y-111725751D01*
X189558324Y-111755421D01*
X189656293Y-111875571D01*
X189696879Y-111908664D01*
X189806114Y-111997734D01*
X189977459Y-112087237D01*
X190163313Y-112140417D01*
X190276727Y-112150500D01*
X190276735Y-112150500D01*
X191095365Y-112150500D01*
X191162404Y-112170185D01*
X191208159Y-112222989D01*
X191219365Y-112274500D01*
X191219365Y-121618500D01*
X191199680Y-121685539D01*
X191146876Y-121731294D01*
X191095365Y-121742500D01*
X121834496Y-121742500D01*
X121767457Y-121722815D01*
X121746815Y-121706181D01*
X120333884Y-120293250D01*
X120300399Y-120231927D01*
X120297565Y-120205569D01*
X120297565Y-118005436D01*
X120317250Y-117938397D01*
X120356288Y-117900009D01*
X120385406Y-117881981D01*
X120536129Y-117744579D01*
X120620411Y-117632970D01*
X120676520Y-117591335D01*
X120746232Y-117586644D01*
X120807414Y-117620386D01*
X120818319Y-117632971D01*
X120902602Y-117744581D01*
X121053323Y-117881980D01*
X121053325Y-117881982D01*
X121141164Y-117936369D01*
X121226728Y-117989348D01*
X121416909Y-118063024D01*
X121617389Y-118100500D01*
X121617391Y-118100500D01*
X121821339Y-118100500D01*
X121821341Y-118100500D01*
X122021821Y-118063024D01*
X122212002Y-117989348D01*
X122385406Y-117881981D01*
X122536129Y-117744579D01*
X122620411Y-117632970D01*
X122676520Y-117591335D01*
X122746232Y-117586644D01*
X122807414Y-117620386D01*
X122818319Y-117632971D01*
X122902602Y-117744581D01*
X123053323Y-117881980D01*
X123053325Y-117881982D01*
X123141164Y-117936369D01*
X123226728Y-117989348D01*
X123416909Y-118063024D01*
X123617389Y-118100500D01*
X123617391Y-118100500D01*
X123770566Y-118100500D01*
X123837605Y-118120185D01*
X123883360Y-118172989D01*
X123893304Y-118242147D01*
X123869520Y-118299227D01*
X123779692Y-118418178D01*
X123688787Y-118600739D01*
X123688782Y-118600752D01*
X123632967Y-118796917D01*
X123614150Y-118999999D01*
X123614150Y-119000000D01*
X123632967Y-119203082D01*
X123688782Y-119399247D01*
X123688787Y-119399260D01*
X123779692Y-119581821D01*
X123902602Y-119744581D01*
X124053323Y-119881980D01*
X124053325Y-119881982D01*
X124152506Y-119943392D01*
X124226728Y-119989348D01*
X124416909Y-120063024D01*
X124617389Y-120100500D01*
X124617391Y-120100500D01*
X124821339Y-120100500D01*
X124821341Y-120100500D01*
X125021821Y-120063024D01*
X125212002Y-119989348D01*
X125385406Y-119881981D01*
X125536129Y-119744579D01*
X125659038Y-119581821D01*
X125749947Y-119399250D01*
X125805762Y-119203083D01*
X125824580Y-119000000D01*
X125805762Y-118796917D01*
X125749947Y-118600750D01*
X125659038Y-118418179D01*
X125536129Y-118255421D01*
X125536127Y-118255418D01*
X125385406Y-118118019D01*
X125385404Y-118118017D01*
X125212007Y-118010655D01*
X125212000Y-118010651D01*
X125116911Y-117973814D01*
X125021821Y-117936976D01*
X124821341Y-117899500D01*
X124668164Y-117899500D01*
X124601125Y-117879815D01*
X124555370Y-117827011D01*
X124545426Y-117757853D01*
X124569210Y-117700773D01*
X124629915Y-117620386D01*
X124659038Y-117581821D01*
X124749947Y-117399250D01*
X124805762Y-117203083D01*
X124824580Y-117000000D01*
X126614150Y-117000000D01*
X126632967Y-117203082D01*
X126688782Y-117399247D01*
X126688787Y-117399260D01*
X126779692Y-117581821D01*
X126902602Y-117744581D01*
X127053323Y-117881980D01*
X127053325Y-117881982D01*
X127141164Y-117936369D01*
X127226728Y-117989348D01*
X127416909Y-118063024D01*
X127617389Y-118100500D01*
X127617391Y-118100500D01*
X127770566Y-118100500D01*
X127837605Y-118120185D01*
X127883360Y-118172989D01*
X127893304Y-118242147D01*
X127869520Y-118299227D01*
X127779692Y-118418178D01*
X127688787Y-118600739D01*
X127688782Y-118600752D01*
X127632967Y-118796917D01*
X127614150Y-118999999D01*
X127614150Y-119000000D01*
X127632967Y-119203082D01*
X127688782Y-119399247D01*
X127688787Y-119399260D01*
X127779692Y-119581821D01*
X127902602Y-119744581D01*
X128053323Y-119881980D01*
X128053325Y-119881982D01*
X128152506Y-119943392D01*
X128226728Y-119989348D01*
X128416909Y-120063024D01*
X128617389Y-120100500D01*
X128617391Y-120100500D01*
X128821339Y-120100500D01*
X128821341Y-120100500D01*
X129021821Y-120063024D01*
X129212002Y-119989348D01*
X129385406Y-119881981D01*
X129536129Y-119744579D01*
X129659038Y-119581821D01*
X129749947Y-119399250D01*
X129805762Y-119203083D01*
X129824580Y-119000000D01*
X129805762Y-118796917D01*
X129749947Y-118600750D01*
X129659038Y-118418179D01*
X129536129Y-118255421D01*
X129536127Y-118255418D01*
X129385406Y-118118019D01*
X129385404Y-118118017D01*
X129212007Y-118010655D01*
X129212000Y-118010651D01*
X129116911Y-117973814D01*
X129021821Y-117936976D01*
X128821341Y-117899500D01*
X128668164Y-117899500D01*
X128601125Y-117879815D01*
X128555370Y-117827011D01*
X128545426Y-117757853D01*
X128569210Y-117700773D01*
X128629915Y-117620386D01*
X128659038Y-117581821D01*
X128749947Y-117399250D01*
X128805762Y-117203083D01*
X128824580Y-117000000D01*
X130614150Y-117000000D01*
X130632967Y-117203082D01*
X130688782Y-117399247D01*
X130688787Y-117399260D01*
X130779692Y-117581821D01*
X130902602Y-117744581D01*
X131053323Y-117881980D01*
X131053325Y-117881982D01*
X131141164Y-117936369D01*
X131226728Y-117989348D01*
X131416909Y-118063024D01*
X131617389Y-118100500D01*
X131617391Y-118100500D01*
X131770566Y-118100500D01*
X131837605Y-118120185D01*
X131883360Y-118172989D01*
X131893304Y-118242147D01*
X131869520Y-118299227D01*
X131779692Y-118418178D01*
X131688787Y-118600739D01*
X131688782Y-118600752D01*
X131632967Y-118796917D01*
X131614150Y-118999999D01*
X131614150Y-119000000D01*
X131632967Y-119203082D01*
X131688782Y-119399247D01*
X131688787Y-119399260D01*
X131779692Y-119581821D01*
X131902602Y-119744581D01*
X132053323Y-119881980D01*
X132053325Y-119881982D01*
X132152506Y-119943392D01*
X132226728Y-119989348D01*
X132416909Y-120063024D01*
X132617389Y-120100500D01*
X132617391Y-120100500D01*
X132821339Y-120100500D01*
X132821341Y-120100500D01*
X133021821Y-120063024D01*
X133212002Y-119989348D01*
X133385406Y-119881981D01*
X133536129Y-119744579D01*
X133620411Y-119632970D01*
X133676520Y-119591335D01*
X133746232Y-119586644D01*
X133807414Y-119620386D01*
X133818319Y-119632971D01*
X133902602Y-119744581D01*
X134053323Y-119881980D01*
X134053325Y-119881982D01*
X134152506Y-119943392D01*
X134226728Y-119989348D01*
X134416909Y-120063024D01*
X134617389Y-120100500D01*
X134617391Y-120100500D01*
X134821339Y-120100500D01*
X134821341Y-120100500D01*
X135021821Y-120063024D01*
X135212002Y-119989348D01*
X135385406Y-119881981D01*
X135536129Y-119744579D01*
X135659038Y-119581821D01*
X135749947Y-119399250D01*
X135805762Y-119203083D01*
X135824580Y-119000000D01*
X135805762Y-118796917D01*
X135749947Y-118600750D01*
X135659038Y-118418179D01*
X135569210Y-118299227D01*
X135544518Y-118233865D01*
X135559083Y-118165531D01*
X135608281Y-118115918D01*
X135668164Y-118100500D01*
X135821339Y-118100500D01*
X135821341Y-118100500D01*
X136021821Y-118063024D01*
X136212002Y-117989348D01*
X136385406Y-117881981D01*
X136536129Y-117744579D01*
X136620411Y-117632970D01*
X136676520Y-117591335D01*
X136746232Y-117586644D01*
X136807414Y-117620386D01*
X136818319Y-117632971D01*
X136902602Y-117744581D01*
X137053323Y-117881980D01*
X137053325Y-117881982D01*
X137141164Y-117936369D01*
X137226728Y-117989348D01*
X137416909Y-118063024D01*
X137617389Y-118100500D01*
X137617391Y-118100500D01*
X137770566Y-118100500D01*
X137837605Y-118120185D01*
X137883360Y-118172989D01*
X137893304Y-118242147D01*
X137869520Y-118299227D01*
X137779692Y-118418178D01*
X137688787Y-118600739D01*
X137688782Y-118600752D01*
X137632967Y-118796917D01*
X137614150Y-118999999D01*
X137614150Y-119000000D01*
X137632967Y-119203082D01*
X137688782Y-119399247D01*
X137688787Y-119399260D01*
X137779692Y-119581821D01*
X137902602Y-119744581D01*
X138053323Y-119881980D01*
X138053325Y-119881982D01*
X138152506Y-119943392D01*
X138226728Y-119989348D01*
X138416909Y-120063024D01*
X138617389Y-120100500D01*
X138617391Y-120100500D01*
X138821339Y-120100500D01*
X138821341Y-120100500D01*
X139021821Y-120063024D01*
X139212002Y-119989348D01*
X139385406Y-119881981D01*
X139536129Y-119744579D01*
X139659038Y-119581821D01*
X139749947Y-119399250D01*
X139805762Y-119203083D01*
X139824580Y-119000000D01*
X139805762Y-118796917D01*
X139749947Y-118600750D01*
X139659038Y-118418179D01*
X139536129Y-118255421D01*
X139536127Y-118255418D01*
X139385406Y-118118019D01*
X139385404Y-118118017D01*
X139212007Y-118010655D01*
X139212000Y-118010651D01*
X139116911Y-117973814D01*
X139021821Y-117936976D01*
X138821341Y-117899500D01*
X138668164Y-117899500D01*
X138601125Y-117879815D01*
X138555370Y-117827011D01*
X138545426Y-117757853D01*
X138569210Y-117700773D01*
X138629915Y-117620386D01*
X138659038Y-117581821D01*
X138749947Y-117399250D01*
X138805762Y-117203083D01*
X138824580Y-117000000D01*
X140614150Y-117000000D01*
X140632967Y-117203082D01*
X140688782Y-117399247D01*
X140688787Y-117399260D01*
X140779692Y-117581821D01*
X140902602Y-117744581D01*
X141053323Y-117881980D01*
X141053325Y-117881982D01*
X141141164Y-117936369D01*
X141226728Y-117989348D01*
X141416909Y-118063024D01*
X141617389Y-118100500D01*
X141617391Y-118100500D01*
X141770566Y-118100500D01*
X141837605Y-118120185D01*
X141883360Y-118172989D01*
X141893304Y-118242147D01*
X141869520Y-118299227D01*
X141779692Y-118418178D01*
X141688787Y-118600739D01*
X141688782Y-118600752D01*
X141632967Y-118796917D01*
X141614150Y-118999999D01*
X141614150Y-119000000D01*
X141632967Y-119203082D01*
X141688782Y-119399247D01*
X141688787Y-119399260D01*
X141779692Y-119581821D01*
X141902602Y-119744581D01*
X142053323Y-119881980D01*
X142053325Y-119881982D01*
X142152506Y-119943392D01*
X142226728Y-119989348D01*
X142416909Y-120063024D01*
X142617389Y-120100500D01*
X142617391Y-120100500D01*
X142821339Y-120100500D01*
X142821341Y-120100500D01*
X143021821Y-120063024D01*
X143212002Y-119989348D01*
X143385406Y-119881981D01*
X143536129Y-119744579D01*
X143659038Y-119581821D01*
X143749947Y-119399250D01*
X143805762Y-119203083D01*
X143824580Y-119000000D01*
X143805762Y-118796917D01*
X143749947Y-118600750D01*
X143659038Y-118418179D01*
X143536129Y-118255421D01*
X143536127Y-118255418D01*
X143385406Y-118118019D01*
X143385404Y-118118017D01*
X143212007Y-118010655D01*
X143212000Y-118010651D01*
X143116911Y-117973814D01*
X143021821Y-117936976D01*
X142821341Y-117899500D01*
X142668164Y-117899500D01*
X142601125Y-117879815D01*
X142555370Y-117827011D01*
X142545426Y-117757853D01*
X142569210Y-117700773D01*
X142629915Y-117620386D01*
X142659038Y-117581821D01*
X142749947Y-117399250D01*
X142805762Y-117203083D01*
X142824580Y-117000000D01*
X144614150Y-117000000D01*
X144632967Y-117203082D01*
X144688782Y-117399247D01*
X144688787Y-117399260D01*
X144779692Y-117581821D01*
X144902602Y-117744581D01*
X145053323Y-117881980D01*
X145053325Y-117881982D01*
X145141164Y-117936369D01*
X145226728Y-117989348D01*
X145416909Y-118063024D01*
X145617389Y-118100500D01*
X145617391Y-118100500D01*
X145770566Y-118100500D01*
X145837605Y-118120185D01*
X145883360Y-118172989D01*
X145893304Y-118242147D01*
X145869520Y-118299227D01*
X145779692Y-118418178D01*
X145688787Y-118600739D01*
X145688782Y-118600752D01*
X145632967Y-118796917D01*
X145614150Y-118999999D01*
X145614150Y-119000000D01*
X145632967Y-119203082D01*
X145688782Y-119399247D01*
X145688787Y-119399260D01*
X145779692Y-119581821D01*
X145902602Y-119744581D01*
X146053323Y-119881980D01*
X146053325Y-119881982D01*
X146152506Y-119943392D01*
X146226728Y-119989348D01*
X146416909Y-120063024D01*
X146617389Y-120100500D01*
X146617391Y-120100500D01*
X146821339Y-120100500D01*
X146821341Y-120100500D01*
X147021821Y-120063024D01*
X147212002Y-119989348D01*
X147385406Y-119881981D01*
X147536129Y-119744579D01*
X147659038Y-119581821D01*
X147749947Y-119399250D01*
X147805762Y-119203083D01*
X147824580Y-119000000D01*
X147805762Y-118796917D01*
X147749947Y-118600750D01*
X147659038Y-118418179D01*
X147536129Y-118255421D01*
X147536127Y-118255418D01*
X147385406Y-118118019D01*
X147385404Y-118118017D01*
X147212007Y-118010655D01*
X147212000Y-118010651D01*
X147116911Y-117973814D01*
X147021821Y-117936976D01*
X146821341Y-117899500D01*
X146668164Y-117899500D01*
X146601125Y-117879815D01*
X146555370Y-117827011D01*
X146545426Y-117757853D01*
X146569210Y-117700773D01*
X146629915Y-117620386D01*
X146659038Y-117581821D01*
X146749947Y-117399250D01*
X146805762Y-117203083D01*
X146824580Y-117000000D01*
X148614150Y-117000000D01*
X148632967Y-117203082D01*
X148688782Y-117399247D01*
X148688787Y-117399260D01*
X148779692Y-117581821D01*
X148902602Y-117744581D01*
X149053323Y-117881980D01*
X149053325Y-117881982D01*
X149141164Y-117936369D01*
X149226728Y-117989348D01*
X149416909Y-118063024D01*
X149617389Y-118100500D01*
X149617391Y-118100500D01*
X149770566Y-118100500D01*
X149837605Y-118120185D01*
X149883360Y-118172989D01*
X149893304Y-118242147D01*
X149869520Y-118299227D01*
X149779692Y-118418178D01*
X149688787Y-118600739D01*
X149688782Y-118600752D01*
X149632967Y-118796917D01*
X149614150Y-118999999D01*
X149614150Y-119000000D01*
X149632967Y-119203082D01*
X149688782Y-119399247D01*
X149688787Y-119399260D01*
X149779692Y-119581821D01*
X149902602Y-119744581D01*
X150053323Y-119881980D01*
X150053325Y-119881982D01*
X150152506Y-119943392D01*
X150226728Y-119989348D01*
X150416909Y-120063024D01*
X150617389Y-120100500D01*
X150617391Y-120100500D01*
X150821339Y-120100500D01*
X150821341Y-120100500D01*
X151021821Y-120063024D01*
X151212002Y-119989348D01*
X151385406Y-119881981D01*
X151536129Y-119744579D01*
X151620411Y-119632970D01*
X151676520Y-119591335D01*
X151746232Y-119586644D01*
X151807414Y-119620386D01*
X151818319Y-119632971D01*
X151902602Y-119744581D01*
X152053323Y-119881980D01*
X152053325Y-119881982D01*
X152152506Y-119943392D01*
X152226728Y-119989348D01*
X152416909Y-120063024D01*
X152617389Y-120100500D01*
X152617391Y-120100500D01*
X152821339Y-120100500D01*
X152821341Y-120100500D01*
X153021821Y-120063024D01*
X153212002Y-119989348D01*
X153385406Y-119881981D01*
X153536129Y-119744579D01*
X153620411Y-119632970D01*
X153676520Y-119591335D01*
X153746232Y-119586644D01*
X153807414Y-119620386D01*
X153818319Y-119632971D01*
X153902602Y-119744581D01*
X154053323Y-119881980D01*
X154053325Y-119881982D01*
X154152506Y-119943392D01*
X154226728Y-119989348D01*
X154416909Y-120063024D01*
X154617389Y-120100500D01*
X154617391Y-120100500D01*
X154821339Y-120100500D01*
X154821341Y-120100500D01*
X155021821Y-120063024D01*
X155212002Y-119989348D01*
X155385406Y-119881981D01*
X155536129Y-119744579D01*
X155659038Y-119581821D01*
X155749947Y-119399250D01*
X155805762Y-119203083D01*
X155824580Y-119000000D01*
X157614150Y-119000000D01*
X157632967Y-119203082D01*
X157688782Y-119399247D01*
X157688787Y-119399260D01*
X157779692Y-119581821D01*
X157902602Y-119744581D01*
X158053323Y-119881980D01*
X158053325Y-119881982D01*
X158152506Y-119943392D01*
X158226728Y-119989348D01*
X158416909Y-120063024D01*
X158617389Y-120100500D01*
X158617391Y-120100500D01*
X158821339Y-120100500D01*
X158821341Y-120100500D01*
X159021821Y-120063024D01*
X159212002Y-119989348D01*
X159385406Y-119881981D01*
X159536129Y-119744579D01*
X159659038Y-119581821D01*
X159749947Y-119399250D01*
X159805762Y-119203083D01*
X159824580Y-119000000D01*
X161614150Y-119000000D01*
X161632967Y-119203082D01*
X161688782Y-119399247D01*
X161688787Y-119399260D01*
X161779692Y-119581821D01*
X161902602Y-119744581D01*
X162053323Y-119881980D01*
X162053325Y-119881982D01*
X162152506Y-119943392D01*
X162226728Y-119989348D01*
X162416909Y-120063024D01*
X162617389Y-120100500D01*
X162617391Y-120100500D01*
X162821339Y-120100500D01*
X162821341Y-120100500D01*
X163021821Y-120063024D01*
X163212002Y-119989348D01*
X163385406Y-119881981D01*
X163536129Y-119744579D01*
X163659038Y-119581821D01*
X163749947Y-119399250D01*
X163805762Y-119203083D01*
X163824580Y-119000000D01*
X165614150Y-119000000D01*
X165632967Y-119203082D01*
X165688782Y-119399247D01*
X165688787Y-119399260D01*
X165779692Y-119581821D01*
X165902602Y-119744581D01*
X166053323Y-119881980D01*
X166053325Y-119881982D01*
X166152506Y-119943392D01*
X166226728Y-119989348D01*
X166416909Y-120063024D01*
X166617389Y-120100500D01*
X166617391Y-120100500D01*
X166821339Y-120100500D01*
X166821341Y-120100500D01*
X167021821Y-120063024D01*
X167212002Y-119989348D01*
X167385406Y-119881981D01*
X167536129Y-119744579D01*
X167659038Y-119581821D01*
X167749947Y-119399250D01*
X167805762Y-119203083D01*
X167824580Y-119000000D01*
X169614150Y-119000000D01*
X169632967Y-119203082D01*
X169688782Y-119399247D01*
X169688787Y-119399260D01*
X169779692Y-119581821D01*
X169902602Y-119744581D01*
X170053323Y-119881980D01*
X170053325Y-119881982D01*
X170152506Y-119943392D01*
X170226728Y-119989348D01*
X170416909Y-120063024D01*
X170617389Y-120100500D01*
X170617391Y-120100500D01*
X170821339Y-120100500D01*
X170821341Y-120100500D01*
X171021821Y-120063024D01*
X171212002Y-119989348D01*
X171385406Y-119881981D01*
X171536129Y-119744579D01*
X171659038Y-119581821D01*
X171749947Y-119399250D01*
X171805762Y-119203083D01*
X171824580Y-119000000D01*
X173614150Y-119000000D01*
X173632967Y-119203082D01*
X173688782Y-119399247D01*
X173688787Y-119399260D01*
X173779692Y-119581821D01*
X173902602Y-119744581D01*
X174053323Y-119881980D01*
X174053325Y-119881982D01*
X174152506Y-119943392D01*
X174226728Y-119989348D01*
X174416909Y-120063024D01*
X174617389Y-120100500D01*
X174617391Y-120100500D01*
X174821339Y-120100500D01*
X174821341Y-120100500D01*
X175021821Y-120063024D01*
X175212002Y-119989348D01*
X175385406Y-119881981D01*
X175536129Y-119744579D01*
X175659038Y-119581821D01*
X175749947Y-119399250D01*
X175805762Y-119203083D01*
X175824580Y-119000000D01*
X177614150Y-119000000D01*
X177632967Y-119203082D01*
X177688782Y-119399247D01*
X177688787Y-119399260D01*
X177779692Y-119581821D01*
X177902602Y-119744581D01*
X178053323Y-119881980D01*
X178053325Y-119881982D01*
X178152506Y-119943392D01*
X178226728Y-119989348D01*
X178416909Y-120063024D01*
X178617389Y-120100500D01*
X178617391Y-120100500D01*
X178821339Y-120100500D01*
X178821341Y-120100500D01*
X179021821Y-120063024D01*
X179212002Y-119989348D01*
X179385406Y-119881981D01*
X179536129Y-119744579D01*
X179659038Y-119581821D01*
X179749947Y-119399250D01*
X179805762Y-119203083D01*
X179824580Y-119000000D01*
X181614150Y-119000000D01*
X181632967Y-119203082D01*
X181688782Y-119399247D01*
X181688787Y-119399260D01*
X181779692Y-119581821D01*
X181902602Y-119744581D01*
X182053323Y-119881980D01*
X182053325Y-119881982D01*
X182152506Y-119943392D01*
X182226728Y-119989348D01*
X182416909Y-120063024D01*
X182617389Y-120100500D01*
X182617391Y-120100500D01*
X182821339Y-120100500D01*
X182821341Y-120100500D01*
X183021821Y-120063024D01*
X183212002Y-119989348D01*
X183385406Y-119881981D01*
X183536129Y-119744579D01*
X183659038Y-119581821D01*
X183749947Y-119399250D01*
X183805762Y-119203083D01*
X183824580Y-119000000D01*
X183805762Y-118796917D01*
X183749947Y-118600750D01*
X183659038Y-118418179D01*
X183569210Y-118299227D01*
X183544518Y-118233865D01*
X183559083Y-118165531D01*
X183608281Y-118115918D01*
X183668164Y-118100500D01*
X183821339Y-118100500D01*
X183821341Y-118100500D01*
X184021821Y-118063024D01*
X184212002Y-117989348D01*
X184385406Y-117881981D01*
X184536129Y-117744579D01*
X184620411Y-117632970D01*
X184676520Y-117591335D01*
X184746232Y-117586644D01*
X184807414Y-117620386D01*
X184818319Y-117632971D01*
X184902602Y-117744581D01*
X185053323Y-117881980D01*
X185053325Y-117881982D01*
X185141164Y-117936369D01*
X185226728Y-117989348D01*
X185416909Y-118063024D01*
X185617389Y-118100500D01*
X185617391Y-118100500D01*
X185770566Y-118100500D01*
X185837605Y-118120185D01*
X185883360Y-118172989D01*
X185893304Y-118242147D01*
X185869520Y-118299227D01*
X185779692Y-118418178D01*
X185688787Y-118600739D01*
X185688782Y-118600752D01*
X185632967Y-118796917D01*
X185614150Y-118999999D01*
X185614150Y-119000000D01*
X185632967Y-119203082D01*
X185688782Y-119399247D01*
X185688787Y-119399260D01*
X185779692Y-119581821D01*
X185902602Y-119744581D01*
X186053323Y-119881980D01*
X186053325Y-119881982D01*
X186152506Y-119943392D01*
X186226728Y-119989348D01*
X186416909Y-120063024D01*
X186617389Y-120100500D01*
X186617391Y-120100500D01*
X186821339Y-120100500D01*
X186821341Y-120100500D01*
X187021821Y-120063024D01*
X187212002Y-119989348D01*
X187385406Y-119881981D01*
X187536129Y-119744579D01*
X187659038Y-119581821D01*
X187749947Y-119399250D01*
X187805762Y-119203083D01*
X187824580Y-119000000D01*
X187805762Y-118796917D01*
X187749947Y-118600750D01*
X187659038Y-118418179D01*
X187536129Y-118255421D01*
X187536127Y-118255418D01*
X187385406Y-118118019D01*
X187385404Y-118118017D01*
X187212007Y-118010655D01*
X187212000Y-118010651D01*
X187116911Y-117973814D01*
X187021821Y-117936976D01*
X186821341Y-117899500D01*
X186668164Y-117899500D01*
X186601125Y-117879815D01*
X186555370Y-117827011D01*
X186545426Y-117757853D01*
X186569210Y-117700773D01*
X186629915Y-117620386D01*
X186659038Y-117581821D01*
X186749947Y-117399250D01*
X186805762Y-117203083D01*
X186824580Y-117000000D01*
X186805762Y-116796917D01*
X186749947Y-116600750D01*
X186749929Y-116600714D01*
X186705637Y-116511764D01*
X186659038Y-116418179D01*
X186600069Y-116340091D01*
X186536127Y-116255418D01*
X186385406Y-116118019D01*
X186385404Y-116118017D01*
X186212007Y-116010655D01*
X186212000Y-116010651D01*
X186116911Y-115973814D01*
X186021821Y-115936976D01*
X185821341Y-115899500D01*
X185617389Y-115899500D01*
X185416909Y-115936976D01*
X185416906Y-115936976D01*
X185416906Y-115936977D01*
X185226729Y-116010651D01*
X185226722Y-116010655D01*
X185053325Y-116118017D01*
X185053323Y-116118019D01*
X184902602Y-116255419D01*
X184818319Y-116367028D01*
X184762210Y-116408664D01*
X184692498Y-116413355D01*
X184631316Y-116379613D01*
X184620411Y-116367028D01*
X184557283Y-116283434D01*
X184536129Y-116255421D01*
X184385406Y-116118019D01*
X184385404Y-116118017D01*
X184212007Y-116010655D01*
X184212000Y-116010651D01*
X184116911Y-115973814D01*
X184021821Y-115936976D01*
X183821341Y-115899500D01*
X183617389Y-115899500D01*
X183416909Y-115936976D01*
X183416906Y-115936976D01*
X183416906Y-115936977D01*
X183226729Y-116010651D01*
X183226722Y-116010655D01*
X183053325Y-116118017D01*
X183053323Y-116118019D01*
X182902602Y-116255418D01*
X182779692Y-116418178D01*
X182688787Y-116600739D01*
X182688782Y-116600752D01*
X182632967Y-116796917D01*
X182614150Y-116999999D01*
X182614150Y-117000000D01*
X182632967Y-117203082D01*
X182688782Y-117399247D01*
X182688787Y-117399260D01*
X182779692Y-117581821D01*
X182869520Y-117700773D01*
X182894212Y-117766135D01*
X182879647Y-117834469D01*
X182830449Y-117884082D01*
X182770566Y-117899500D01*
X182617389Y-117899500D01*
X182416909Y-117936976D01*
X182416906Y-117936976D01*
X182416906Y-117936977D01*
X182226729Y-118010651D01*
X182226722Y-118010655D01*
X182053325Y-118118017D01*
X182053323Y-118118019D01*
X181902602Y-118255418D01*
X181779692Y-118418178D01*
X181688787Y-118600739D01*
X181688782Y-118600752D01*
X181632967Y-118796917D01*
X181614150Y-118999999D01*
X181614150Y-119000000D01*
X179824580Y-119000000D01*
X179805762Y-118796917D01*
X179749947Y-118600750D01*
X179659038Y-118418179D01*
X179569210Y-118299227D01*
X179544518Y-118233865D01*
X179559083Y-118165531D01*
X179608281Y-118115918D01*
X179668164Y-118100500D01*
X179821339Y-118100500D01*
X179821341Y-118100500D01*
X180021821Y-118063024D01*
X180212002Y-117989348D01*
X180385406Y-117881981D01*
X180536129Y-117744579D01*
X180659038Y-117581821D01*
X180749947Y-117399250D01*
X180805762Y-117203083D01*
X180824580Y-117000000D01*
X180805762Y-116796917D01*
X180749947Y-116600750D01*
X180749929Y-116600714D01*
X180705637Y-116511764D01*
X180659038Y-116418179D01*
X180600069Y-116340091D01*
X180536127Y-116255418D01*
X180385406Y-116118019D01*
X180385404Y-116118017D01*
X180212007Y-116010655D01*
X180212000Y-116010651D01*
X180116911Y-115973814D01*
X180021821Y-115936976D01*
X179821341Y-115899500D01*
X179617389Y-115899500D01*
X179416909Y-115936976D01*
X179416906Y-115936976D01*
X179416906Y-115936977D01*
X179226729Y-116010651D01*
X179226722Y-116010655D01*
X179053325Y-116118017D01*
X179053323Y-116118019D01*
X178902602Y-116255418D01*
X178779692Y-116418178D01*
X178688787Y-116600739D01*
X178688782Y-116600752D01*
X178632967Y-116796917D01*
X178614150Y-116999999D01*
X178614150Y-117000000D01*
X178632967Y-117203082D01*
X178688782Y-117399247D01*
X178688787Y-117399260D01*
X178779692Y-117581821D01*
X178869520Y-117700773D01*
X178894212Y-117766135D01*
X178879647Y-117834469D01*
X178830449Y-117884082D01*
X178770566Y-117899500D01*
X178617389Y-117899500D01*
X178416909Y-117936976D01*
X178416906Y-117936976D01*
X178416906Y-117936977D01*
X178226729Y-118010651D01*
X178226722Y-118010655D01*
X178053325Y-118118017D01*
X178053323Y-118118019D01*
X177902602Y-118255418D01*
X177779692Y-118418178D01*
X177688787Y-118600739D01*
X177688782Y-118600752D01*
X177632967Y-118796917D01*
X177614150Y-118999999D01*
X177614150Y-119000000D01*
X175824580Y-119000000D01*
X175805762Y-118796917D01*
X175749947Y-118600750D01*
X175659038Y-118418179D01*
X175569210Y-118299227D01*
X175544518Y-118233865D01*
X175559083Y-118165531D01*
X175608281Y-118115918D01*
X175668164Y-118100500D01*
X175821339Y-118100500D01*
X175821341Y-118100500D01*
X176021821Y-118063024D01*
X176212002Y-117989348D01*
X176385406Y-117881981D01*
X176536129Y-117744579D01*
X176659038Y-117581821D01*
X176749947Y-117399250D01*
X176805762Y-117203083D01*
X176824580Y-117000000D01*
X176805762Y-116796917D01*
X176749947Y-116600750D01*
X176749929Y-116600714D01*
X176705637Y-116511764D01*
X176659038Y-116418179D01*
X176600069Y-116340091D01*
X176536127Y-116255418D01*
X176385406Y-116118019D01*
X176385404Y-116118017D01*
X176212007Y-116010655D01*
X176212000Y-116010651D01*
X176116911Y-115973814D01*
X176021821Y-115936976D01*
X175821341Y-115899500D01*
X175617389Y-115899500D01*
X175416909Y-115936976D01*
X175416906Y-115936976D01*
X175416906Y-115936977D01*
X175226729Y-116010651D01*
X175226722Y-116010655D01*
X175053325Y-116118017D01*
X175053323Y-116118019D01*
X174902602Y-116255418D01*
X174779692Y-116418178D01*
X174688787Y-116600739D01*
X174688782Y-116600752D01*
X174632967Y-116796917D01*
X174614150Y-116999999D01*
X174614150Y-117000000D01*
X174632967Y-117203082D01*
X174688782Y-117399247D01*
X174688787Y-117399260D01*
X174779692Y-117581821D01*
X174869520Y-117700773D01*
X174894212Y-117766135D01*
X174879647Y-117834469D01*
X174830449Y-117884082D01*
X174770566Y-117899500D01*
X174617389Y-117899500D01*
X174416909Y-117936976D01*
X174416906Y-117936976D01*
X174416906Y-117936977D01*
X174226729Y-118010651D01*
X174226722Y-118010655D01*
X174053325Y-118118017D01*
X174053323Y-118118019D01*
X173902602Y-118255418D01*
X173779692Y-118418178D01*
X173688787Y-118600739D01*
X173688782Y-118600752D01*
X173632967Y-118796917D01*
X173614150Y-118999999D01*
X173614150Y-119000000D01*
X171824580Y-119000000D01*
X171805762Y-118796917D01*
X171749947Y-118600750D01*
X171659038Y-118418179D01*
X171569210Y-118299227D01*
X171544518Y-118233865D01*
X171559083Y-118165531D01*
X171608281Y-118115918D01*
X171668164Y-118100500D01*
X171821339Y-118100500D01*
X171821341Y-118100500D01*
X172021821Y-118063024D01*
X172212002Y-117989348D01*
X172385406Y-117881981D01*
X172536129Y-117744579D01*
X172659038Y-117581821D01*
X172749947Y-117399250D01*
X172805762Y-117203083D01*
X172824580Y-117000000D01*
X172805762Y-116796917D01*
X172749947Y-116600750D01*
X172749929Y-116600714D01*
X172705637Y-116511764D01*
X172659038Y-116418179D01*
X172600069Y-116340091D01*
X172536127Y-116255418D01*
X172385406Y-116118019D01*
X172385404Y-116118017D01*
X172212007Y-116010655D01*
X172212000Y-116010651D01*
X172116911Y-115973814D01*
X172021821Y-115936976D01*
X171821341Y-115899500D01*
X171617389Y-115899500D01*
X171416909Y-115936976D01*
X171416906Y-115936976D01*
X171416906Y-115936977D01*
X171226729Y-116010651D01*
X171226722Y-116010655D01*
X171053325Y-116118017D01*
X171053323Y-116118019D01*
X170902602Y-116255418D01*
X170779692Y-116418178D01*
X170688787Y-116600739D01*
X170688782Y-116600752D01*
X170632967Y-116796917D01*
X170614150Y-116999999D01*
X170614150Y-117000000D01*
X170632967Y-117203082D01*
X170688782Y-117399247D01*
X170688787Y-117399260D01*
X170779692Y-117581821D01*
X170869520Y-117700773D01*
X170894212Y-117766135D01*
X170879647Y-117834469D01*
X170830449Y-117884082D01*
X170770566Y-117899500D01*
X170617389Y-117899500D01*
X170416909Y-117936976D01*
X170416906Y-117936976D01*
X170416906Y-117936977D01*
X170226729Y-118010651D01*
X170226722Y-118010655D01*
X170053325Y-118118017D01*
X170053323Y-118118019D01*
X169902602Y-118255418D01*
X169779692Y-118418178D01*
X169688787Y-118600739D01*
X169688782Y-118600752D01*
X169632967Y-118796917D01*
X169614150Y-118999999D01*
X169614150Y-119000000D01*
X167824580Y-119000000D01*
X167805762Y-118796917D01*
X167749947Y-118600750D01*
X167659038Y-118418179D01*
X167569210Y-118299227D01*
X167544518Y-118233865D01*
X167559083Y-118165531D01*
X167608281Y-118115918D01*
X167668164Y-118100500D01*
X167821339Y-118100500D01*
X167821341Y-118100500D01*
X168021821Y-118063024D01*
X168212002Y-117989348D01*
X168385406Y-117881981D01*
X168536129Y-117744579D01*
X168659038Y-117581821D01*
X168749947Y-117399250D01*
X168805762Y-117203083D01*
X168824580Y-117000000D01*
X168805762Y-116796917D01*
X168749947Y-116600750D01*
X168749929Y-116600714D01*
X168705637Y-116511764D01*
X168659038Y-116418179D01*
X168600069Y-116340091D01*
X168536127Y-116255418D01*
X168385406Y-116118019D01*
X168385404Y-116118017D01*
X168212007Y-116010655D01*
X168212000Y-116010651D01*
X168116911Y-115973814D01*
X168021821Y-115936976D01*
X167821341Y-115899500D01*
X167617389Y-115899500D01*
X167416909Y-115936976D01*
X167416906Y-115936976D01*
X167416906Y-115936977D01*
X167226729Y-116010651D01*
X167226722Y-116010655D01*
X167053325Y-116118017D01*
X167053323Y-116118019D01*
X166902602Y-116255418D01*
X166779692Y-116418178D01*
X166688787Y-116600739D01*
X166688782Y-116600752D01*
X166632967Y-116796917D01*
X166614150Y-116999999D01*
X166614150Y-117000000D01*
X166632967Y-117203082D01*
X166688782Y-117399247D01*
X166688787Y-117399260D01*
X166779692Y-117581821D01*
X166869520Y-117700773D01*
X166894212Y-117766135D01*
X166879647Y-117834469D01*
X166830449Y-117884082D01*
X166770566Y-117899500D01*
X166617389Y-117899500D01*
X166416909Y-117936976D01*
X166416906Y-117936976D01*
X166416906Y-117936977D01*
X166226729Y-118010651D01*
X166226722Y-118010655D01*
X166053325Y-118118017D01*
X166053323Y-118118019D01*
X165902602Y-118255418D01*
X165779692Y-118418178D01*
X165688787Y-118600739D01*
X165688782Y-118600752D01*
X165632967Y-118796917D01*
X165614150Y-118999999D01*
X165614150Y-119000000D01*
X163824580Y-119000000D01*
X163805762Y-118796917D01*
X163749947Y-118600750D01*
X163659038Y-118418179D01*
X163569210Y-118299227D01*
X163544518Y-118233865D01*
X163559083Y-118165531D01*
X163608281Y-118115918D01*
X163668164Y-118100500D01*
X163821339Y-118100500D01*
X163821341Y-118100500D01*
X164021821Y-118063024D01*
X164212002Y-117989348D01*
X164385406Y-117881981D01*
X164536129Y-117744579D01*
X164659038Y-117581821D01*
X164749947Y-117399250D01*
X164805762Y-117203083D01*
X164824580Y-117000000D01*
X164805762Y-116796917D01*
X164749947Y-116600750D01*
X164749929Y-116600714D01*
X164705637Y-116511764D01*
X164659038Y-116418179D01*
X164600069Y-116340091D01*
X164536127Y-116255418D01*
X164385406Y-116118019D01*
X164385404Y-116118017D01*
X164212007Y-116010655D01*
X164212000Y-116010651D01*
X164116911Y-115973814D01*
X164021821Y-115936976D01*
X163821341Y-115899500D01*
X163617389Y-115899500D01*
X163416909Y-115936976D01*
X163416906Y-115936976D01*
X163416906Y-115936977D01*
X163226729Y-116010651D01*
X163226722Y-116010655D01*
X163053325Y-116118017D01*
X163053323Y-116118019D01*
X162902602Y-116255418D01*
X162779692Y-116418178D01*
X162688787Y-116600739D01*
X162688782Y-116600752D01*
X162632967Y-116796917D01*
X162614150Y-116999999D01*
X162614150Y-117000000D01*
X162632967Y-117203082D01*
X162688782Y-117399247D01*
X162688787Y-117399260D01*
X162779692Y-117581821D01*
X162869520Y-117700773D01*
X162894212Y-117766135D01*
X162879647Y-117834469D01*
X162830449Y-117884082D01*
X162770566Y-117899500D01*
X162617389Y-117899500D01*
X162416909Y-117936976D01*
X162416906Y-117936976D01*
X162416906Y-117936977D01*
X162226729Y-118010651D01*
X162226722Y-118010655D01*
X162053325Y-118118017D01*
X162053323Y-118118019D01*
X161902602Y-118255418D01*
X161779692Y-118418178D01*
X161688787Y-118600739D01*
X161688782Y-118600752D01*
X161632967Y-118796917D01*
X161614150Y-118999999D01*
X161614150Y-119000000D01*
X159824580Y-119000000D01*
X159805762Y-118796917D01*
X159749947Y-118600750D01*
X159659038Y-118418179D01*
X159569210Y-118299227D01*
X159544518Y-118233865D01*
X159559083Y-118165531D01*
X159608281Y-118115918D01*
X159668164Y-118100500D01*
X159821339Y-118100500D01*
X159821341Y-118100500D01*
X160021821Y-118063024D01*
X160212002Y-117989348D01*
X160385406Y-117881981D01*
X160536129Y-117744579D01*
X160659038Y-117581821D01*
X160749947Y-117399250D01*
X160805762Y-117203083D01*
X160824580Y-117000000D01*
X160805762Y-116796917D01*
X160749947Y-116600750D01*
X160749929Y-116600714D01*
X160705637Y-116511764D01*
X160659038Y-116418179D01*
X160600069Y-116340091D01*
X160536127Y-116255418D01*
X160385406Y-116118019D01*
X160385404Y-116118017D01*
X160212007Y-116010655D01*
X160212000Y-116010651D01*
X160116911Y-115973814D01*
X160021821Y-115936976D01*
X159821341Y-115899500D01*
X159617389Y-115899500D01*
X159416909Y-115936976D01*
X159416906Y-115936976D01*
X159416906Y-115936977D01*
X159226729Y-116010651D01*
X159226722Y-116010655D01*
X159053325Y-116118017D01*
X159053323Y-116118019D01*
X158902602Y-116255418D01*
X158779692Y-116418178D01*
X158688787Y-116600739D01*
X158688782Y-116600752D01*
X158632967Y-116796917D01*
X158614150Y-116999999D01*
X158614150Y-117000000D01*
X158632967Y-117203082D01*
X158688782Y-117399247D01*
X158688787Y-117399260D01*
X158779692Y-117581821D01*
X158869520Y-117700773D01*
X158894212Y-117766135D01*
X158879647Y-117834469D01*
X158830449Y-117884082D01*
X158770566Y-117899500D01*
X158617389Y-117899500D01*
X158416909Y-117936976D01*
X158416906Y-117936976D01*
X158416906Y-117936977D01*
X158226729Y-118010651D01*
X158226722Y-118010655D01*
X158053325Y-118118017D01*
X158053323Y-118118019D01*
X157902602Y-118255418D01*
X157779692Y-118418178D01*
X157688787Y-118600739D01*
X157688782Y-118600752D01*
X157632967Y-118796917D01*
X157614150Y-118999999D01*
X157614150Y-119000000D01*
X155824580Y-119000000D01*
X155805762Y-118796917D01*
X155749947Y-118600750D01*
X155659038Y-118418179D01*
X155569210Y-118299227D01*
X155544518Y-118233865D01*
X155559083Y-118165531D01*
X155608281Y-118115918D01*
X155668164Y-118100500D01*
X155821339Y-118100500D01*
X155821341Y-118100500D01*
X156021821Y-118063024D01*
X156212002Y-117989348D01*
X156385406Y-117881981D01*
X156536129Y-117744579D01*
X156659038Y-117581821D01*
X156749947Y-117399250D01*
X156805762Y-117203083D01*
X156824580Y-117000000D01*
X156805762Y-116796917D01*
X156749947Y-116600750D01*
X156749929Y-116600714D01*
X156705637Y-116511764D01*
X156659038Y-116418179D01*
X156600069Y-116340091D01*
X156536127Y-116255418D01*
X156385406Y-116118019D01*
X156385404Y-116118017D01*
X156212007Y-116010655D01*
X156212000Y-116010651D01*
X156116911Y-115973814D01*
X156021821Y-115936976D01*
X155821341Y-115899500D01*
X155617389Y-115899500D01*
X155416909Y-115936976D01*
X155416906Y-115936976D01*
X155416906Y-115936977D01*
X155226729Y-116010651D01*
X155226722Y-116010655D01*
X155053325Y-116118017D01*
X155053323Y-116118019D01*
X154902602Y-116255418D01*
X154779692Y-116418178D01*
X154688787Y-116600739D01*
X154688782Y-116600752D01*
X154632967Y-116796917D01*
X154614150Y-116999999D01*
X154614150Y-117000000D01*
X154632967Y-117203082D01*
X154688782Y-117399247D01*
X154688787Y-117399260D01*
X154779692Y-117581821D01*
X154869520Y-117700773D01*
X154894212Y-117766135D01*
X154879647Y-117834469D01*
X154830449Y-117884082D01*
X154770566Y-117899500D01*
X154617389Y-117899500D01*
X154416909Y-117936976D01*
X154416906Y-117936976D01*
X154416906Y-117936977D01*
X154226729Y-118010651D01*
X154226722Y-118010655D01*
X154053325Y-118118017D01*
X154053323Y-118118019D01*
X153902602Y-118255419D01*
X153818319Y-118367028D01*
X153762210Y-118408664D01*
X153692498Y-118413355D01*
X153631316Y-118379613D01*
X153620411Y-118367028D01*
X153536127Y-118255419D01*
X153385406Y-118118019D01*
X153385404Y-118118017D01*
X153212007Y-118010655D01*
X153212000Y-118010651D01*
X153116911Y-117973814D01*
X153021821Y-117936976D01*
X152821341Y-117899500D01*
X152617389Y-117899500D01*
X152416909Y-117936976D01*
X152416906Y-117936976D01*
X152416906Y-117936977D01*
X152226729Y-118010651D01*
X152226722Y-118010655D01*
X152053325Y-118118017D01*
X152053323Y-118118019D01*
X151902602Y-118255419D01*
X151818319Y-118367028D01*
X151762210Y-118408664D01*
X151692498Y-118413355D01*
X151631316Y-118379613D01*
X151620411Y-118367028D01*
X151536127Y-118255419D01*
X151385406Y-118118019D01*
X151385404Y-118118017D01*
X151212007Y-118010655D01*
X151212000Y-118010651D01*
X151116911Y-117973814D01*
X151021821Y-117936976D01*
X150821341Y-117899500D01*
X150668164Y-117899500D01*
X150601125Y-117879815D01*
X150555370Y-117827011D01*
X150545426Y-117757853D01*
X150569210Y-117700773D01*
X150629915Y-117620386D01*
X150659038Y-117581821D01*
X150749947Y-117399250D01*
X150805762Y-117203083D01*
X150824580Y-117000000D01*
X150805762Y-116796917D01*
X150749947Y-116600750D01*
X150749929Y-116600714D01*
X150705637Y-116511764D01*
X150659038Y-116418179D01*
X150600069Y-116340091D01*
X150536127Y-116255418D01*
X150385406Y-116118019D01*
X150385404Y-116118017D01*
X150212007Y-116010655D01*
X150212000Y-116010651D01*
X150116911Y-115973814D01*
X150021821Y-115936976D01*
X149821341Y-115899500D01*
X149617389Y-115899500D01*
X149416909Y-115936976D01*
X149416906Y-115936976D01*
X149416906Y-115936977D01*
X149226729Y-116010651D01*
X149226722Y-116010655D01*
X149053325Y-116118017D01*
X149053323Y-116118019D01*
X148902602Y-116255418D01*
X148779692Y-116418178D01*
X148688787Y-116600739D01*
X148688782Y-116600752D01*
X148632967Y-116796917D01*
X148614150Y-116999999D01*
X148614150Y-117000000D01*
X146824580Y-117000000D01*
X146805762Y-116796917D01*
X146749947Y-116600750D01*
X146749929Y-116600714D01*
X146705637Y-116511764D01*
X146659038Y-116418179D01*
X146600069Y-116340091D01*
X146536127Y-116255418D01*
X146385406Y-116118019D01*
X146385404Y-116118017D01*
X146212007Y-116010655D01*
X146212000Y-116010651D01*
X146116911Y-115973814D01*
X146021821Y-115936976D01*
X145821341Y-115899500D01*
X145617389Y-115899500D01*
X145416909Y-115936976D01*
X145416906Y-115936976D01*
X145416906Y-115936977D01*
X145226729Y-116010651D01*
X145226722Y-116010655D01*
X145053325Y-116118017D01*
X145053323Y-116118019D01*
X144902602Y-116255418D01*
X144779692Y-116418178D01*
X144688787Y-116600739D01*
X144688782Y-116600752D01*
X144632967Y-116796917D01*
X144614150Y-116999999D01*
X144614150Y-117000000D01*
X142824580Y-117000000D01*
X142805762Y-116796917D01*
X142749947Y-116600750D01*
X142749929Y-116600714D01*
X142705637Y-116511764D01*
X142659038Y-116418179D01*
X142600069Y-116340091D01*
X142536127Y-116255418D01*
X142385406Y-116118019D01*
X142385404Y-116118017D01*
X142212007Y-116010655D01*
X142212000Y-116010651D01*
X142116911Y-115973814D01*
X142021821Y-115936976D01*
X141821341Y-115899500D01*
X141617389Y-115899500D01*
X141416909Y-115936976D01*
X141416906Y-115936976D01*
X141416906Y-115936977D01*
X141226729Y-116010651D01*
X141226722Y-116010655D01*
X141053325Y-116118017D01*
X141053323Y-116118019D01*
X140902602Y-116255418D01*
X140779692Y-116418178D01*
X140688787Y-116600739D01*
X140688782Y-116600752D01*
X140632967Y-116796917D01*
X140614150Y-116999999D01*
X140614150Y-117000000D01*
X138824580Y-117000000D01*
X138805762Y-116796917D01*
X138749947Y-116600750D01*
X138749929Y-116600714D01*
X138705637Y-116511764D01*
X138659038Y-116418179D01*
X138600069Y-116340091D01*
X138536127Y-116255418D01*
X138385406Y-116118019D01*
X138385404Y-116118017D01*
X138212007Y-116010655D01*
X138212000Y-116010651D01*
X138116911Y-115973814D01*
X138021821Y-115936976D01*
X137821341Y-115899500D01*
X137617389Y-115899500D01*
X137416909Y-115936976D01*
X137416906Y-115936976D01*
X137416906Y-115936977D01*
X137226729Y-116010651D01*
X137226722Y-116010655D01*
X137053325Y-116118017D01*
X137053323Y-116118019D01*
X136902602Y-116255419D01*
X136818319Y-116367028D01*
X136762210Y-116408664D01*
X136692498Y-116413355D01*
X136631316Y-116379613D01*
X136620411Y-116367028D01*
X136557283Y-116283434D01*
X136536129Y-116255421D01*
X136385406Y-116118019D01*
X136385404Y-116118017D01*
X136212007Y-116010655D01*
X136212000Y-116010651D01*
X136116911Y-115973814D01*
X136021821Y-115936976D01*
X135821341Y-115899500D01*
X135617389Y-115899500D01*
X135416909Y-115936976D01*
X135416906Y-115936976D01*
X135416906Y-115936977D01*
X135226729Y-116010651D01*
X135226722Y-116010655D01*
X135053325Y-116118017D01*
X135053323Y-116118019D01*
X134902602Y-116255418D01*
X134779692Y-116418178D01*
X134688787Y-116600739D01*
X134688782Y-116600752D01*
X134632967Y-116796917D01*
X134614150Y-116999999D01*
X134614150Y-117000000D01*
X134632967Y-117203082D01*
X134688782Y-117399247D01*
X134688787Y-117399260D01*
X134779692Y-117581821D01*
X134869520Y-117700773D01*
X134894212Y-117766135D01*
X134879647Y-117834469D01*
X134830449Y-117884082D01*
X134770566Y-117899500D01*
X134617389Y-117899500D01*
X134416909Y-117936976D01*
X134416906Y-117936976D01*
X134416906Y-117936977D01*
X134226729Y-118010651D01*
X134226722Y-118010655D01*
X134053325Y-118118017D01*
X134053323Y-118118019D01*
X133902602Y-118255419D01*
X133818319Y-118367028D01*
X133762210Y-118408664D01*
X133692498Y-118413355D01*
X133631316Y-118379613D01*
X133620411Y-118367028D01*
X133536127Y-118255419D01*
X133385406Y-118118019D01*
X133385404Y-118118017D01*
X133212007Y-118010655D01*
X133212000Y-118010651D01*
X133116911Y-117973814D01*
X133021821Y-117936976D01*
X132821341Y-117899500D01*
X132668164Y-117899500D01*
X132601125Y-117879815D01*
X132555370Y-117827011D01*
X132545426Y-117757853D01*
X132569210Y-117700773D01*
X132629915Y-117620386D01*
X132659038Y-117581821D01*
X132749947Y-117399250D01*
X132805762Y-117203083D01*
X132824580Y-117000000D01*
X132805762Y-116796917D01*
X132749947Y-116600750D01*
X132749929Y-116600714D01*
X132705637Y-116511764D01*
X132659038Y-116418179D01*
X132600069Y-116340091D01*
X132536127Y-116255418D01*
X132385406Y-116118019D01*
X132385404Y-116118017D01*
X132212007Y-116010655D01*
X132212000Y-116010651D01*
X132116911Y-115973814D01*
X132021821Y-115936976D01*
X131821341Y-115899500D01*
X131617389Y-115899500D01*
X131416909Y-115936976D01*
X131416906Y-115936976D01*
X131416906Y-115936977D01*
X131226729Y-116010651D01*
X131226722Y-116010655D01*
X131053325Y-116118017D01*
X131053323Y-116118019D01*
X130902602Y-116255418D01*
X130779692Y-116418178D01*
X130688787Y-116600739D01*
X130688782Y-116600752D01*
X130632967Y-116796917D01*
X130614150Y-116999999D01*
X130614150Y-117000000D01*
X128824580Y-117000000D01*
X128805762Y-116796917D01*
X128749947Y-116600750D01*
X128749929Y-116600714D01*
X128705637Y-116511764D01*
X128659038Y-116418179D01*
X128600069Y-116340091D01*
X128536127Y-116255418D01*
X128385406Y-116118019D01*
X128385404Y-116118017D01*
X128212007Y-116010655D01*
X128212000Y-116010651D01*
X128116911Y-115973814D01*
X128021821Y-115936976D01*
X127821341Y-115899500D01*
X127617389Y-115899500D01*
X127416909Y-115936976D01*
X127416906Y-115936976D01*
X127416906Y-115936977D01*
X127226729Y-116010651D01*
X127226722Y-116010655D01*
X127053325Y-116118017D01*
X127053323Y-116118019D01*
X126902602Y-116255418D01*
X126779692Y-116418178D01*
X126688787Y-116600739D01*
X126688782Y-116600752D01*
X126632967Y-116796917D01*
X126614150Y-116999999D01*
X126614150Y-117000000D01*
X124824580Y-117000000D01*
X124805762Y-116796917D01*
X124749947Y-116600750D01*
X124749929Y-116600714D01*
X124705637Y-116511764D01*
X124659038Y-116418179D01*
X124600069Y-116340091D01*
X124536127Y-116255418D01*
X124385406Y-116118019D01*
X124385404Y-116118017D01*
X124212007Y-116010655D01*
X124212000Y-116010651D01*
X124116911Y-115973814D01*
X124021821Y-115936976D01*
X123821341Y-115899500D01*
X123617389Y-115899500D01*
X123416909Y-115936976D01*
X123416906Y-115936976D01*
X123416906Y-115936977D01*
X123226729Y-116010651D01*
X123226722Y-116010655D01*
X123053325Y-116118017D01*
X123053323Y-116118019D01*
X122902602Y-116255419D01*
X122818319Y-116367028D01*
X122762210Y-116408664D01*
X122692498Y-116413355D01*
X122631316Y-116379613D01*
X122620411Y-116367028D01*
X122557283Y-116283434D01*
X122536129Y-116255421D01*
X122385406Y-116118019D01*
X122385404Y-116118017D01*
X122212007Y-116010655D01*
X122212000Y-116010651D01*
X122116911Y-115973814D01*
X122021821Y-115936976D01*
X121821341Y-115899500D01*
X121617389Y-115899500D01*
X121416909Y-115936976D01*
X121416906Y-115936976D01*
X121416906Y-115936977D01*
X121226729Y-116010651D01*
X121226722Y-116010655D01*
X121053325Y-116118017D01*
X121053323Y-116118019D01*
X120902602Y-116255419D01*
X120818319Y-116367028D01*
X120762210Y-116408664D01*
X120692498Y-116413355D01*
X120631316Y-116379613D01*
X120620411Y-116367028D01*
X120557283Y-116283434D01*
X120536129Y-116255421D01*
X120385406Y-116118019D01*
X120385404Y-116118017D01*
X120212007Y-116010655D01*
X120212000Y-116010651D01*
X120116911Y-115973814D01*
X120021821Y-115936976D01*
X119821341Y-115899500D01*
X119617389Y-115899500D01*
X119416909Y-115936976D01*
X119416906Y-115936976D01*
X119416906Y-115936977D01*
X119226729Y-116010651D01*
X119226722Y-116010655D01*
X119053325Y-116118017D01*
X119053323Y-116118019D01*
X118902602Y-116255418D01*
X118779692Y-116418178D01*
X118688787Y-116600739D01*
X118688782Y-116600752D01*
X118632967Y-116796917D01*
X118614150Y-116999999D01*
X118614150Y-117000000D01*
X118632967Y-117203082D01*
X118688782Y-117399247D01*
X118688787Y-117399260D01*
X118779692Y-117581821D01*
X118869520Y-117700773D01*
X118894212Y-117766135D01*
X118879647Y-117834469D01*
X118830449Y-117884082D01*
X118770566Y-117899500D01*
X118617389Y-117899500D01*
X118416909Y-117936976D01*
X118416906Y-117936976D01*
X118416906Y-117936977D01*
X118226729Y-118010651D01*
X118226722Y-118010655D01*
X118053325Y-118118017D01*
X118053323Y-118118019D01*
X117902602Y-118255419D01*
X117818319Y-118367028D01*
X117762210Y-118408664D01*
X117692498Y-118413355D01*
X117631316Y-118379613D01*
X117620411Y-118367028D01*
X117536127Y-118255419D01*
X117385406Y-118118019D01*
X117385404Y-118118017D01*
X117212007Y-118010655D01*
X117212000Y-118010651D01*
X117116911Y-117973814D01*
X117021821Y-117936976D01*
X116821341Y-117899500D01*
X116617389Y-117899500D01*
X116416909Y-117936976D01*
X116416906Y-117936976D01*
X116416906Y-117936977D01*
X116226729Y-118010651D01*
X116226722Y-118010655D01*
X116053325Y-118118017D01*
X116053323Y-118118019D01*
X115902602Y-118255418D01*
X115779692Y-118418178D01*
X115688787Y-118600739D01*
X115688782Y-118600752D01*
X115632967Y-118796917D01*
X115614150Y-118999999D01*
X115614150Y-119000000D01*
X115632967Y-119203082D01*
X115688782Y-119399247D01*
X115688787Y-119399260D01*
X115779692Y-119581821D01*
X115902602Y-119744581D01*
X116053323Y-119881980D01*
X116053325Y-119881982D01*
X116152506Y-119943392D01*
X116226728Y-119989348D01*
X116416909Y-120063024D01*
X116617389Y-120100500D01*
X116617391Y-120100500D01*
X116821338Y-120100500D01*
X116821341Y-120100500D01*
X116926358Y-120080868D01*
X116995873Y-120087899D01*
X117036824Y-120115076D01*
X118948089Y-122026341D01*
X118981574Y-122087664D01*
X118976590Y-122157356D01*
X118934718Y-122213289D01*
X118869254Y-122237706D01*
X118860816Y-122238021D01*
X115343773Y-122249590D01*
X115276669Y-122230126D01*
X115230741Y-122177473D01*
X115219365Y-122125591D01*
X115219365Y-117299500D01*
X115239050Y-117232461D01*
X115291854Y-117186706D01*
X115343365Y-117175500D01*
X115429918Y-117175500D01*
X115429919Y-117175500D01*
X115429920Y-117175499D01*
X115429937Y-117175499D01*
X115611140Y-117160076D01*
X115611140Y-117160075D01*
X115611147Y-117160075D01*
X115845973Y-117098931D01*
X115845976Y-117098930D01*
X116067078Y-116998986D01*
X116067081Y-116998983D01*
X116067088Y-116998981D01*
X116268130Y-116863100D01*
X116443317Y-116695197D01*
X116587609Y-116500102D01*
X116696853Y-116283429D01*
X116767908Y-116051409D01*
X116798730Y-115810719D01*
X116793571Y-115689281D01*
X187090000Y-115689281D01*
X187100298Y-115931715D01*
X187100298Y-115931719D01*
X187151421Y-116168929D01*
X187151422Y-116168932D01*
X187197431Y-116283429D01*
X187241897Y-116394086D01*
X187256731Y-116418178D01*
X187369122Y-116600713D01*
X187529440Y-116782869D01*
X187529444Y-116782873D01*
X187718235Y-116935311D01*
X187930074Y-117053652D01*
X187930077Y-117053653D01*
X188158872Y-117134491D01*
X188158878Y-117134492D01*
X188398027Y-117175499D01*
X188398035Y-117175499D01*
X188398037Y-117175500D01*
X188398038Y-117175500D01*
X188579918Y-117175500D01*
X188579919Y-117175500D01*
X188579920Y-117175499D01*
X188579937Y-117175499D01*
X188761140Y-117160076D01*
X188761140Y-117160075D01*
X188761147Y-117160075D01*
X188995973Y-117098931D01*
X188995976Y-117098930D01*
X189217078Y-116998986D01*
X189217081Y-116998983D01*
X189217088Y-116998981D01*
X189418130Y-116863100D01*
X189593317Y-116695197D01*
X189737609Y-116500102D01*
X189846853Y-116283429D01*
X189917908Y-116051409D01*
X189948730Y-115810719D01*
X189938431Y-115568281D01*
X189887309Y-115331072D01*
X189796833Y-115105914D01*
X189669607Y-114899286D01*
X189509290Y-114717131D01*
X189509289Y-114717130D01*
X189509285Y-114717126D01*
X189320494Y-114564688D01*
X189108655Y-114446347D01*
X188879865Y-114365511D01*
X188879851Y-114365507D01*
X188640702Y-114324500D01*
X188640693Y-114324500D01*
X188458811Y-114324500D01*
X188458792Y-114324500D01*
X188277589Y-114339923D01*
X188277587Y-114339924D01*
X188042756Y-114401068D01*
X188042753Y-114401069D01*
X187821651Y-114501013D01*
X187821639Y-114501020D01*
X187620599Y-114636900D01*
X187620597Y-114636902D01*
X187445412Y-114804803D01*
X187445411Y-114804804D01*
X187301123Y-114999893D01*
X187191880Y-115216565D01*
X187191877Y-115216571D01*
X187120821Y-115448594D01*
X187090000Y-115689281D01*
X116793571Y-115689281D01*
X116788431Y-115568281D01*
X116755344Y-115414755D01*
X116760463Y-115345074D01*
X116802442Y-115289222D01*
X116867954Y-115264931D01*
X116936198Y-115279915D01*
X116960093Y-115296990D01*
X117053324Y-115381981D01*
X117226728Y-115489348D01*
X117416909Y-115563024D01*
X117617389Y-115600500D01*
X117617391Y-115600500D01*
X117821339Y-115600500D01*
X117821341Y-115600500D01*
X118021821Y-115563024D01*
X118212002Y-115489348D01*
X118385406Y-115381981D01*
X118536129Y-115244579D01*
X118659038Y-115081821D01*
X118749947Y-114899250D01*
X118805762Y-114703083D01*
X118824580Y-114500000D01*
X118805762Y-114296917D01*
X118805761Y-114296916D01*
X118805568Y-114294825D01*
X118818983Y-114226255D01*
X118841354Y-114195707D01*
X119134042Y-113903020D01*
X119195363Y-113869537D01*
X119202757Y-113868248D01*
X119203615Y-113868017D01*
X119203623Y-113868017D01*
X119344278Y-113809756D01*
X119434736Y-113740345D01*
X119473227Y-113710810D01*
X119478902Y-113699036D01*
X119483388Y-113693190D01*
X119494068Y-113681011D01*
X119833476Y-113341603D01*
X119894797Y-113308120D01*
X119964489Y-113313104D01*
X120004692Y-113337647D01*
X120053324Y-113381981D01*
X120226728Y-113489348D01*
X120416909Y-113563024D01*
X120617389Y-113600500D01*
X120617391Y-113600500D01*
X120770566Y-113600500D01*
X120837605Y-113620185D01*
X120883360Y-113672989D01*
X120893304Y-113742147D01*
X120869520Y-113799227D01*
X120779692Y-113918178D01*
X120688787Y-114100739D01*
X120688782Y-114100752D01*
X120632967Y-114296917D01*
X120614150Y-114499999D01*
X120614150Y-114500000D01*
X120632967Y-114703082D01*
X120688782Y-114899247D01*
X120688787Y-114899260D01*
X120779692Y-115081821D01*
X120902602Y-115244581D01*
X121053323Y-115381980D01*
X121053325Y-115381982D01*
X121152506Y-115443392D01*
X121226728Y-115489348D01*
X121416909Y-115563024D01*
X121617389Y-115600500D01*
X121617391Y-115600500D01*
X121821339Y-115600500D01*
X121821341Y-115600500D01*
X122021821Y-115563024D01*
X122212002Y-115489348D01*
X122385406Y-115381981D01*
X122536129Y-115244579D01*
X122620411Y-115132970D01*
X122676520Y-115091335D01*
X122746232Y-115086644D01*
X122807414Y-115120386D01*
X122818319Y-115132971D01*
X122902602Y-115244581D01*
X123053323Y-115381980D01*
X123053325Y-115381982D01*
X123152506Y-115443392D01*
X123226728Y-115489348D01*
X123416909Y-115563024D01*
X123617389Y-115600500D01*
X123617391Y-115600500D01*
X123821339Y-115600500D01*
X123821341Y-115600500D01*
X124021821Y-115563024D01*
X124212002Y-115489348D01*
X124385406Y-115381981D01*
X124536129Y-115244579D01*
X124620411Y-115132970D01*
X124676520Y-115091335D01*
X124746232Y-115086644D01*
X124807414Y-115120386D01*
X124818319Y-115132971D01*
X124902602Y-115244581D01*
X125053323Y-115381980D01*
X125053325Y-115381982D01*
X125152506Y-115443392D01*
X125226728Y-115489348D01*
X125416909Y-115563024D01*
X125617389Y-115600500D01*
X125617391Y-115600500D01*
X125821339Y-115600500D01*
X125821341Y-115600500D01*
X126021821Y-115563024D01*
X126212002Y-115489348D01*
X126385406Y-115381981D01*
X126536129Y-115244579D01*
X126659038Y-115081821D01*
X126749947Y-114899250D01*
X126805762Y-114703083D01*
X126824580Y-114500000D01*
X126805762Y-114296917D01*
X126749947Y-114100750D01*
X126659038Y-113918179D01*
X126569210Y-113799227D01*
X126544518Y-113733865D01*
X126559083Y-113665531D01*
X126608281Y-113615918D01*
X126668164Y-113600500D01*
X126821339Y-113600500D01*
X126821341Y-113600500D01*
X127021821Y-113563024D01*
X127212002Y-113489348D01*
X127385406Y-113381981D01*
X127536129Y-113244579D01*
X127659038Y-113081821D01*
X127749947Y-112899250D01*
X127805762Y-112703083D01*
X127824580Y-112500000D01*
X127805762Y-112296917D01*
X127749947Y-112100750D01*
X127743218Y-112087237D01*
X127698651Y-111997734D01*
X127659038Y-111918179D01*
X127536129Y-111755421D01*
X127500714Y-111723136D01*
X127464434Y-111663425D01*
X127466195Y-111593578D01*
X127505439Y-111535770D01*
X127569706Y-111508356D01*
X127584254Y-111507500D01*
X129854476Y-111507500D01*
X129921515Y-111527185D01*
X129967270Y-111579989D01*
X129977214Y-111649147D01*
X129948189Y-111712703D01*
X129938015Y-111723137D01*
X129902600Y-111755421D01*
X129779692Y-111918178D01*
X129688787Y-112100739D01*
X129688782Y-112100752D01*
X129632967Y-112296917D01*
X129614150Y-112499999D01*
X129614150Y-112500000D01*
X129632967Y-112703082D01*
X129688782Y-112899247D01*
X129688787Y-112899260D01*
X129779692Y-113081821D01*
X129869520Y-113200773D01*
X129894212Y-113266135D01*
X129879647Y-113334469D01*
X129830449Y-113384082D01*
X129770566Y-113399500D01*
X129617389Y-113399500D01*
X129416909Y-113436976D01*
X129416906Y-113436976D01*
X129416906Y-113436977D01*
X129226729Y-113510651D01*
X129226722Y-113510655D01*
X129053325Y-113618017D01*
X129053323Y-113618019D01*
X128902602Y-113755418D01*
X128779692Y-113918178D01*
X128688787Y-114100739D01*
X128688782Y-114100752D01*
X128632967Y-114296917D01*
X128614150Y-114499999D01*
X128614150Y-114500000D01*
X128632967Y-114703082D01*
X128688782Y-114899247D01*
X128688787Y-114899260D01*
X128779692Y-115081821D01*
X128902602Y-115244581D01*
X129053323Y-115381980D01*
X129053325Y-115381982D01*
X129152506Y-115443392D01*
X129226728Y-115489348D01*
X129416909Y-115563024D01*
X129617389Y-115600500D01*
X129617391Y-115600500D01*
X129821339Y-115600500D01*
X129821341Y-115600500D01*
X130021821Y-115563024D01*
X130212002Y-115489348D01*
X130385406Y-115381981D01*
X130536129Y-115244579D01*
X130659038Y-115081821D01*
X130749947Y-114899250D01*
X130805762Y-114703083D01*
X130824580Y-114500000D01*
X130805762Y-114296917D01*
X130749947Y-114100750D01*
X130659038Y-113918179D01*
X130569210Y-113799227D01*
X130544518Y-113733865D01*
X130559083Y-113665531D01*
X130608281Y-113615918D01*
X130668164Y-113600500D01*
X130821339Y-113600500D01*
X130821341Y-113600500D01*
X131021821Y-113563024D01*
X131212002Y-113489348D01*
X131385406Y-113381981D01*
X131536129Y-113244579D01*
X131659038Y-113081821D01*
X131749947Y-112899250D01*
X131805762Y-112703083D01*
X131824580Y-112500000D01*
X131805762Y-112296917D01*
X131749947Y-112100750D01*
X131743218Y-112087237D01*
X131698651Y-111997734D01*
X131659038Y-111918179D01*
X131536129Y-111755421D01*
X131500714Y-111723136D01*
X131464434Y-111663425D01*
X131466195Y-111593578D01*
X131505439Y-111535770D01*
X131569706Y-111508356D01*
X131584254Y-111507500D01*
X133854476Y-111507500D01*
X133921515Y-111527185D01*
X133967270Y-111579989D01*
X133977214Y-111649147D01*
X133948189Y-111712703D01*
X133938015Y-111723137D01*
X133902600Y-111755421D01*
X133779692Y-111918178D01*
X133688787Y-112100739D01*
X133688782Y-112100752D01*
X133632967Y-112296917D01*
X133614150Y-112499999D01*
X133614150Y-112500000D01*
X133632967Y-112703082D01*
X133688782Y-112899247D01*
X133688787Y-112899260D01*
X133779692Y-113081821D01*
X133869520Y-113200773D01*
X133894212Y-113266135D01*
X133879647Y-113334469D01*
X133830449Y-113384082D01*
X133770566Y-113399500D01*
X133617389Y-113399500D01*
X133416909Y-113436976D01*
X133416906Y-113436976D01*
X133416906Y-113436977D01*
X133226729Y-113510651D01*
X133226722Y-113510655D01*
X133053325Y-113618017D01*
X133053323Y-113618019D01*
X132902602Y-113755418D01*
X132779692Y-113918178D01*
X132688787Y-114100739D01*
X132688782Y-114100752D01*
X132632967Y-114296917D01*
X132614150Y-114499999D01*
X132614150Y-114500000D01*
X132632967Y-114703082D01*
X132688782Y-114899247D01*
X132688787Y-114899260D01*
X132779692Y-115081821D01*
X132902602Y-115244581D01*
X133053323Y-115381980D01*
X133053325Y-115381982D01*
X133152506Y-115443392D01*
X133226728Y-115489348D01*
X133416909Y-115563024D01*
X133617389Y-115600500D01*
X133617391Y-115600500D01*
X133821339Y-115600500D01*
X133821341Y-115600500D01*
X134021821Y-115563024D01*
X134212002Y-115489348D01*
X134385406Y-115381981D01*
X134536129Y-115244579D01*
X134659038Y-115081821D01*
X134749947Y-114899250D01*
X134805762Y-114703083D01*
X134824580Y-114500000D01*
X134805762Y-114296917D01*
X134749947Y-114100750D01*
X134659038Y-113918179D01*
X134569210Y-113799227D01*
X134544518Y-113733865D01*
X134559083Y-113665531D01*
X134608281Y-113615918D01*
X134668164Y-113600500D01*
X134821339Y-113600500D01*
X134821341Y-113600500D01*
X135021821Y-113563024D01*
X135212002Y-113489348D01*
X135385406Y-113381981D01*
X135536129Y-113244579D01*
X135620411Y-113132970D01*
X135676520Y-113091335D01*
X135746232Y-113086644D01*
X135807414Y-113120386D01*
X135818319Y-113132971D01*
X135902602Y-113244581D01*
X136053323Y-113381980D01*
X136053325Y-113381982D01*
X136053327Y-113381983D01*
X136226728Y-113489348D01*
X136416909Y-113563024D01*
X136617389Y-113600500D01*
X136617391Y-113600500D01*
X136770566Y-113600500D01*
X136837605Y-113620185D01*
X136883360Y-113672989D01*
X136893304Y-113742147D01*
X136869520Y-113799227D01*
X136779692Y-113918178D01*
X136688787Y-114100739D01*
X136688782Y-114100752D01*
X136632967Y-114296917D01*
X136614150Y-114499999D01*
X136614150Y-114500000D01*
X136632967Y-114703082D01*
X136688782Y-114899247D01*
X136688787Y-114899260D01*
X136779692Y-115081821D01*
X136902602Y-115244581D01*
X137053323Y-115381980D01*
X137053325Y-115381982D01*
X137152506Y-115443392D01*
X137226728Y-115489348D01*
X137416909Y-115563024D01*
X137617389Y-115600500D01*
X137617391Y-115600500D01*
X137821339Y-115600500D01*
X137821341Y-115600500D01*
X138021821Y-115563024D01*
X138212002Y-115489348D01*
X138385406Y-115381981D01*
X138536129Y-115244579D01*
X138620411Y-115132970D01*
X138676520Y-115091335D01*
X138746232Y-115086644D01*
X138807414Y-115120386D01*
X138818319Y-115132971D01*
X138902602Y-115244581D01*
X139053323Y-115381980D01*
X139053325Y-115381982D01*
X139152506Y-115443392D01*
X139226728Y-115489348D01*
X139416909Y-115563024D01*
X139617389Y-115600500D01*
X139617391Y-115600500D01*
X139821339Y-115600500D01*
X139821341Y-115600500D01*
X140021821Y-115563024D01*
X140212002Y-115489348D01*
X140385406Y-115381981D01*
X140536129Y-115244579D01*
X140659038Y-115081821D01*
X140749947Y-114899250D01*
X140805762Y-114703083D01*
X140824580Y-114500000D01*
X140805762Y-114296917D01*
X140749947Y-114100750D01*
X140659038Y-113918179D01*
X140569210Y-113799227D01*
X140544518Y-113733865D01*
X140559083Y-113665531D01*
X140608281Y-113615918D01*
X140668164Y-113600500D01*
X140821339Y-113600500D01*
X140821341Y-113600500D01*
X141021821Y-113563024D01*
X141212002Y-113489348D01*
X141385406Y-113381981D01*
X141536129Y-113244579D01*
X141659038Y-113081821D01*
X141749947Y-112899250D01*
X141805762Y-112703083D01*
X141824580Y-112500000D01*
X141805762Y-112296917D01*
X141749947Y-112100750D01*
X141743218Y-112087237D01*
X141698651Y-111997734D01*
X141659038Y-111918179D01*
X141536129Y-111755421D01*
X141500714Y-111723136D01*
X141464434Y-111663425D01*
X141466195Y-111593578D01*
X141505439Y-111535770D01*
X141569706Y-111508356D01*
X141584254Y-111507500D01*
X143854476Y-111507500D01*
X143921515Y-111527185D01*
X143967270Y-111579989D01*
X143977214Y-111649147D01*
X143948189Y-111712703D01*
X143938015Y-111723137D01*
X143902600Y-111755421D01*
X143779692Y-111918178D01*
X143688787Y-112100739D01*
X143688782Y-112100752D01*
X143632967Y-112296917D01*
X143614150Y-112499999D01*
X143614150Y-112500000D01*
X143632967Y-112703082D01*
X143688782Y-112899247D01*
X143688787Y-112899260D01*
X143779692Y-113081821D01*
X143869520Y-113200773D01*
X143894212Y-113266135D01*
X143879647Y-113334469D01*
X143830449Y-113384082D01*
X143770566Y-113399500D01*
X143617389Y-113399500D01*
X143416909Y-113436976D01*
X143416906Y-113436976D01*
X143416906Y-113436977D01*
X143226729Y-113510651D01*
X143226722Y-113510655D01*
X143053325Y-113618017D01*
X143053323Y-113618019D01*
X142902602Y-113755418D01*
X142779692Y-113918178D01*
X142688787Y-114100739D01*
X142688782Y-114100752D01*
X142632967Y-114296917D01*
X142614150Y-114499999D01*
X142614150Y-114500000D01*
X142632967Y-114703082D01*
X142688782Y-114899247D01*
X142688787Y-114899260D01*
X142779692Y-115081821D01*
X142902602Y-115244581D01*
X143053323Y-115381980D01*
X143053325Y-115381982D01*
X143152506Y-115443392D01*
X143226728Y-115489348D01*
X143416909Y-115563024D01*
X143617389Y-115600500D01*
X143617391Y-115600500D01*
X143821339Y-115600500D01*
X143821341Y-115600500D01*
X144021821Y-115563024D01*
X144212002Y-115489348D01*
X144385406Y-115381981D01*
X144536129Y-115244579D01*
X144659038Y-115081821D01*
X144749947Y-114899250D01*
X144805762Y-114703083D01*
X144824580Y-114500000D01*
X144805762Y-114296917D01*
X144749947Y-114100750D01*
X144659038Y-113918179D01*
X144569210Y-113799227D01*
X144544518Y-113733865D01*
X144559083Y-113665531D01*
X144608281Y-113615918D01*
X144668164Y-113600500D01*
X144821339Y-113600500D01*
X144821341Y-113600500D01*
X145021821Y-113563024D01*
X145212002Y-113489348D01*
X145385406Y-113381981D01*
X145536129Y-113244579D01*
X145659038Y-113081821D01*
X145749947Y-112899250D01*
X145805762Y-112703083D01*
X145824580Y-112500000D01*
X145805762Y-112296917D01*
X145749947Y-112100750D01*
X145743218Y-112087237D01*
X145698651Y-111997734D01*
X145659038Y-111918179D01*
X145536129Y-111755421D01*
X145500714Y-111723136D01*
X145464434Y-111663425D01*
X145466195Y-111593578D01*
X145505439Y-111535770D01*
X145569706Y-111508356D01*
X145584254Y-111507500D01*
X147854476Y-111507500D01*
X147921515Y-111527185D01*
X147967270Y-111579989D01*
X147977214Y-111649147D01*
X147948189Y-111712703D01*
X147938015Y-111723137D01*
X147902600Y-111755421D01*
X147779692Y-111918178D01*
X147688787Y-112100739D01*
X147688782Y-112100752D01*
X147632967Y-112296917D01*
X147614150Y-112499999D01*
X147614150Y-112500000D01*
X147632967Y-112703082D01*
X147688782Y-112899247D01*
X147688787Y-112899260D01*
X147779692Y-113081821D01*
X147869520Y-113200773D01*
X147894212Y-113266135D01*
X147879647Y-113334469D01*
X147830449Y-113384082D01*
X147770566Y-113399500D01*
X147617389Y-113399500D01*
X147416909Y-113436976D01*
X147416906Y-113436976D01*
X147416906Y-113436977D01*
X147226729Y-113510651D01*
X147226722Y-113510655D01*
X147053325Y-113618017D01*
X147053323Y-113618019D01*
X146902602Y-113755418D01*
X146779692Y-113918178D01*
X146688787Y-114100739D01*
X146688782Y-114100752D01*
X146632967Y-114296917D01*
X146614150Y-114499999D01*
X146614150Y-114500000D01*
X146632967Y-114703082D01*
X146688782Y-114899247D01*
X146688787Y-114899260D01*
X146779692Y-115081821D01*
X146902602Y-115244581D01*
X147053323Y-115381980D01*
X147053325Y-115381982D01*
X147152506Y-115443392D01*
X147226728Y-115489348D01*
X147416909Y-115563024D01*
X147617389Y-115600500D01*
X147617391Y-115600500D01*
X147821339Y-115600500D01*
X147821341Y-115600500D01*
X148021821Y-115563024D01*
X148212002Y-115489348D01*
X148385406Y-115381981D01*
X148536129Y-115244579D01*
X148659038Y-115081821D01*
X148749947Y-114899250D01*
X148805762Y-114703083D01*
X148824580Y-114500000D01*
X148805762Y-114296917D01*
X148749947Y-114100750D01*
X148659038Y-113918179D01*
X148569210Y-113799227D01*
X148544518Y-113733865D01*
X148559083Y-113665531D01*
X148608281Y-113615918D01*
X148668164Y-113600500D01*
X148821339Y-113600500D01*
X148821341Y-113600500D01*
X149021821Y-113563024D01*
X149212002Y-113489348D01*
X149385406Y-113381981D01*
X149536129Y-113244579D01*
X149659038Y-113081821D01*
X149749947Y-112899250D01*
X149805762Y-112703083D01*
X149824580Y-112500000D01*
X149805762Y-112296917D01*
X149749947Y-112100750D01*
X149743218Y-112087237D01*
X149698651Y-111997734D01*
X149659038Y-111918179D01*
X149536129Y-111755421D01*
X149500714Y-111723136D01*
X149464434Y-111663425D01*
X149466195Y-111593578D01*
X149505439Y-111535770D01*
X149569706Y-111508356D01*
X149584254Y-111507500D01*
X151854476Y-111507500D01*
X151921515Y-111527185D01*
X151967270Y-111579989D01*
X151977214Y-111649147D01*
X151948189Y-111712703D01*
X151938015Y-111723137D01*
X151902600Y-111755421D01*
X151779692Y-111918178D01*
X151688787Y-112100739D01*
X151688782Y-112100752D01*
X151632967Y-112296917D01*
X151614150Y-112499999D01*
X151614150Y-112500000D01*
X151632967Y-112703082D01*
X151688782Y-112899247D01*
X151688787Y-112899260D01*
X151779692Y-113081821D01*
X151869520Y-113200773D01*
X151894212Y-113266135D01*
X151879647Y-113334469D01*
X151830449Y-113384082D01*
X151770566Y-113399500D01*
X151617389Y-113399500D01*
X151416909Y-113436976D01*
X151416906Y-113436976D01*
X151416906Y-113436977D01*
X151226729Y-113510651D01*
X151226722Y-113510655D01*
X151053325Y-113618017D01*
X151053323Y-113618019D01*
X150902602Y-113755418D01*
X150779692Y-113918178D01*
X150688787Y-114100739D01*
X150688782Y-114100752D01*
X150632967Y-114296917D01*
X150614150Y-114499999D01*
X150614150Y-114500000D01*
X150632967Y-114703082D01*
X150688782Y-114899247D01*
X150688787Y-114899260D01*
X150779692Y-115081821D01*
X150902602Y-115244581D01*
X151053323Y-115381980D01*
X151053325Y-115381982D01*
X151152506Y-115443392D01*
X151226728Y-115489348D01*
X151416909Y-115563024D01*
X151617389Y-115600500D01*
X151617391Y-115600500D01*
X151821339Y-115600500D01*
X151821341Y-115600500D01*
X152021821Y-115563024D01*
X152212002Y-115489348D01*
X152385406Y-115381981D01*
X152536129Y-115244579D01*
X152659038Y-115081821D01*
X152749947Y-114899250D01*
X152805762Y-114703083D01*
X152824580Y-114500000D01*
X152805762Y-114296917D01*
X152749947Y-114100750D01*
X152659038Y-113918179D01*
X152569210Y-113799227D01*
X152544518Y-113733865D01*
X152559083Y-113665531D01*
X152608281Y-113615918D01*
X152668164Y-113600500D01*
X152821339Y-113600500D01*
X152821341Y-113600500D01*
X153021821Y-113563024D01*
X153212002Y-113489348D01*
X153385406Y-113381981D01*
X153536129Y-113244579D01*
X153620411Y-113132970D01*
X153676520Y-113091335D01*
X153746232Y-113086644D01*
X153807414Y-113120386D01*
X153818319Y-113132971D01*
X153902602Y-113244581D01*
X154053323Y-113381980D01*
X154053325Y-113381982D01*
X154053327Y-113381983D01*
X154226728Y-113489348D01*
X154416909Y-113563024D01*
X154617389Y-113600500D01*
X154617391Y-113600500D01*
X154821339Y-113600500D01*
X154821341Y-113600500D01*
X155021821Y-113563024D01*
X155212002Y-113489348D01*
X155385406Y-113381981D01*
X155536129Y-113244579D01*
X155620411Y-113132970D01*
X155676520Y-113091335D01*
X155746232Y-113086644D01*
X155807414Y-113120386D01*
X155818319Y-113132971D01*
X155902602Y-113244581D01*
X156053323Y-113381980D01*
X156053325Y-113381982D01*
X156053327Y-113381983D01*
X156226728Y-113489348D01*
X156416909Y-113563024D01*
X156617389Y-113600500D01*
X156617391Y-113600500D01*
X156770566Y-113600500D01*
X156837605Y-113620185D01*
X156883360Y-113672989D01*
X156893304Y-113742147D01*
X156869520Y-113799227D01*
X156779692Y-113918178D01*
X156688787Y-114100739D01*
X156688782Y-114100752D01*
X156632967Y-114296917D01*
X156614150Y-114499999D01*
X156614150Y-114500000D01*
X156632967Y-114703082D01*
X156688782Y-114899247D01*
X156688787Y-114899260D01*
X156779692Y-115081821D01*
X156902602Y-115244581D01*
X157053323Y-115381980D01*
X157053325Y-115381982D01*
X157152506Y-115443392D01*
X157226728Y-115489348D01*
X157416909Y-115563024D01*
X157617389Y-115600500D01*
X157617391Y-115600500D01*
X157821339Y-115600500D01*
X157821341Y-115600500D01*
X158021821Y-115563024D01*
X158212002Y-115489348D01*
X158385406Y-115381981D01*
X158536129Y-115244579D01*
X158659038Y-115081821D01*
X158749947Y-114899250D01*
X158805762Y-114703083D01*
X158824580Y-114500000D01*
X158805762Y-114296917D01*
X158749947Y-114100750D01*
X158659038Y-113918179D01*
X158536129Y-113755421D01*
X158536127Y-113755418D01*
X158385406Y-113618019D01*
X158385404Y-113618017D01*
X158212007Y-113510655D01*
X158212000Y-113510651D01*
X158116911Y-113473814D01*
X158021821Y-113436976D01*
X157821341Y-113399500D01*
X157668164Y-113399500D01*
X157601125Y-113379815D01*
X157555370Y-113327011D01*
X157545426Y-113257853D01*
X157569210Y-113200773D01*
X157629915Y-113120386D01*
X157659038Y-113081821D01*
X157749947Y-112899250D01*
X157805762Y-112703083D01*
X157824580Y-112500000D01*
X157805762Y-112296917D01*
X157749947Y-112100750D01*
X157743218Y-112087237D01*
X157698651Y-111997734D01*
X157659038Y-111918179D01*
X157536129Y-111755421D01*
X157500714Y-111723136D01*
X157464434Y-111663425D01*
X157466195Y-111593578D01*
X157505439Y-111535770D01*
X157569706Y-111508356D01*
X157584254Y-111507500D01*
X159854476Y-111507500D01*
X159921515Y-111527185D01*
X159967270Y-111579989D01*
X159977214Y-111649147D01*
X159948189Y-111712703D01*
X159938015Y-111723137D01*
X159902600Y-111755421D01*
X159779692Y-111918178D01*
X159688787Y-112100739D01*
X159688782Y-112100752D01*
X159632967Y-112296917D01*
X159614150Y-112499999D01*
X159614150Y-112500000D01*
X159632967Y-112703082D01*
X159688782Y-112899247D01*
X159688787Y-112899260D01*
X159779692Y-113081821D01*
X159902602Y-113244581D01*
X160053323Y-113381980D01*
X160053325Y-113381982D01*
X160053327Y-113381983D01*
X160226728Y-113489348D01*
X160416909Y-113563024D01*
X160617389Y-113600500D01*
X160617391Y-113600500D01*
X160770566Y-113600500D01*
X160837605Y-113620185D01*
X160883360Y-113672989D01*
X160893304Y-113742147D01*
X160869520Y-113799227D01*
X160779692Y-113918178D01*
X160688787Y-114100739D01*
X160688782Y-114100752D01*
X160632967Y-114296917D01*
X160614150Y-114499999D01*
X160614150Y-114500000D01*
X160632967Y-114703082D01*
X160688782Y-114899247D01*
X160688787Y-114899260D01*
X160779692Y-115081821D01*
X160902602Y-115244581D01*
X161053323Y-115381980D01*
X161053325Y-115381982D01*
X161152506Y-115443392D01*
X161226728Y-115489348D01*
X161416909Y-115563024D01*
X161617389Y-115600500D01*
X161617391Y-115600500D01*
X161821339Y-115600500D01*
X161821341Y-115600500D01*
X162021821Y-115563024D01*
X162212002Y-115489348D01*
X162385406Y-115381981D01*
X162536129Y-115244579D01*
X162659038Y-115081821D01*
X162749947Y-114899250D01*
X162805762Y-114703083D01*
X162824580Y-114500000D01*
X162805762Y-114296917D01*
X162749947Y-114100750D01*
X162659038Y-113918179D01*
X162536129Y-113755421D01*
X162536127Y-113755418D01*
X162385406Y-113618019D01*
X162385404Y-113618017D01*
X162212007Y-113510655D01*
X162212000Y-113510651D01*
X162116911Y-113473814D01*
X162021821Y-113436976D01*
X161821341Y-113399500D01*
X161668164Y-113399500D01*
X161601125Y-113379815D01*
X161555370Y-113327011D01*
X161545426Y-113257853D01*
X161569210Y-113200773D01*
X161629915Y-113120386D01*
X161659038Y-113081821D01*
X161749947Y-112899250D01*
X161805762Y-112703083D01*
X161824580Y-112500000D01*
X161805762Y-112296917D01*
X161749947Y-112100750D01*
X161743218Y-112087237D01*
X161698651Y-111997734D01*
X161659038Y-111918179D01*
X161536129Y-111755421D01*
X161500714Y-111723136D01*
X161464434Y-111663425D01*
X161466195Y-111593578D01*
X161505439Y-111535770D01*
X161569706Y-111508356D01*
X161584254Y-111507500D01*
X163854476Y-111507500D01*
X163921515Y-111527185D01*
X163967270Y-111579989D01*
X163977214Y-111649147D01*
X163948189Y-111712703D01*
X163938015Y-111723137D01*
X163902600Y-111755421D01*
X163779692Y-111918178D01*
X163688787Y-112100739D01*
X163688782Y-112100752D01*
X163632967Y-112296917D01*
X163614150Y-112499999D01*
X163614150Y-112500000D01*
X163632967Y-112703082D01*
X163688782Y-112899247D01*
X163688787Y-112899260D01*
X163779692Y-113081821D01*
X163902602Y-113244581D01*
X164053323Y-113381980D01*
X164053325Y-113381982D01*
X164053327Y-113381983D01*
X164226728Y-113489348D01*
X164416909Y-113563024D01*
X164617389Y-113600500D01*
X164617391Y-113600500D01*
X164770566Y-113600500D01*
X164837605Y-113620185D01*
X164883360Y-113672989D01*
X164893304Y-113742147D01*
X164869520Y-113799227D01*
X164779692Y-113918178D01*
X164688787Y-114100739D01*
X164688782Y-114100752D01*
X164632967Y-114296917D01*
X164614150Y-114499999D01*
X164614150Y-114500000D01*
X164632967Y-114703082D01*
X164688782Y-114899247D01*
X164688787Y-114899260D01*
X164779692Y-115081821D01*
X164902602Y-115244581D01*
X165053323Y-115381980D01*
X165053325Y-115381982D01*
X165152506Y-115443392D01*
X165226728Y-115489348D01*
X165416909Y-115563024D01*
X165617389Y-115600500D01*
X165617391Y-115600500D01*
X165821339Y-115600500D01*
X165821341Y-115600500D01*
X166021821Y-115563024D01*
X166212002Y-115489348D01*
X166385406Y-115381981D01*
X166536129Y-115244579D01*
X166659038Y-115081821D01*
X166749947Y-114899250D01*
X166805762Y-114703083D01*
X166824580Y-114500000D01*
X166805762Y-114296917D01*
X166749947Y-114100750D01*
X166659038Y-113918179D01*
X166536129Y-113755421D01*
X166536127Y-113755418D01*
X166385406Y-113618019D01*
X166385404Y-113618017D01*
X166212007Y-113510655D01*
X166212000Y-113510651D01*
X166116911Y-113473814D01*
X166021821Y-113436976D01*
X165821341Y-113399500D01*
X165668164Y-113399500D01*
X165601125Y-113379815D01*
X165555370Y-113327011D01*
X165545426Y-113257853D01*
X165569210Y-113200773D01*
X165629915Y-113120386D01*
X165659038Y-113081821D01*
X165749947Y-112899250D01*
X165805762Y-112703083D01*
X165824580Y-112500000D01*
X165805762Y-112296917D01*
X165749947Y-112100750D01*
X165743218Y-112087237D01*
X165698651Y-111997734D01*
X165659038Y-111918179D01*
X165536129Y-111755421D01*
X165500714Y-111723136D01*
X165464434Y-111663425D01*
X165466195Y-111593578D01*
X165505439Y-111535770D01*
X165569706Y-111508356D01*
X165584254Y-111507500D01*
X167854476Y-111507500D01*
X167921515Y-111527185D01*
X167967270Y-111579989D01*
X167977214Y-111649147D01*
X167948189Y-111712703D01*
X167938015Y-111723137D01*
X167902600Y-111755421D01*
X167779692Y-111918178D01*
X167688787Y-112100739D01*
X167688782Y-112100752D01*
X167632967Y-112296917D01*
X167614150Y-112499999D01*
X167614150Y-112500000D01*
X167632967Y-112703082D01*
X167688782Y-112899247D01*
X167688787Y-112899260D01*
X167779692Y-113081821D01*
X167902602Y-113244581D01*
X168053323Y-113381980D01*
X168053325Y-113381982D01*
X168053327Y-113381983D01*
X168226728Y-113489348D01*
X168416909Y-113563024D01*
X168617389Y-113600500D01*
X168617391Y-113600500D01*
X168770566Y-113600500D01*
X168837605Y-113620185D01*
X168883360Y-113672989D01*
X168893304Y-113742147D01*
X168869520Y-113799227D01*
X168779692Y-113918178D01*
X168688787Y-114100739D01*
X168688782Y-114100752D01*
X168632967Y-114296917D01*
X168614150Y-114499999D01*
X168614150Y-114500000D01*
X168632967Y-114703082D01*
X168688782Y-114899247D01*
X168688787Y-114899260D01*
X168779692Y-115081821D01*
X168902602Y-115244581D01*
X169053323Y-115381980D01*
X169053325Y-115381982D01*
X169152506Y-115443392D01*
X169226728Y-115489348D01*
X169416909Y-115563024D01*
X169617389Y-115600500D01*
X169617391Y-115600500D01*
X169821339Y-115600500D01*
X169821341Y-115600500D01*
X170021821Y-115563024D01*
X170212002Y-115489348D01*
X170385406Y-115381981D01*
X170536129Y-115244579D01*
X170659038Y-115081821D01*
X170749947Y-114899250D01*
X170805762Y-114703083D01*
X170824580Y-114500000D01*
X170805762Y-114296917D01*
X170749947Y-114100750D01*
X170659038Y-113918179D01*
X170536129Y-113755421D01*
X170536127Y-113755418D01*
X170385406Y-113618019D01*
X170385404Y-113618017D01*
X170212007Y-113510655D01*
X170212000Y-113510651D01*
X170116911Y-113473814D01*
X170021821Y-113436976D01*
X169821341Y-113399500D01*
X169668164Y-113399500D01*
X169601125Y-113379815D01*
X169555370Y-113327011D01*
X169545426Y-113257853D01*
X169569210Y-113200773D01*
X169629915Y-113120386D01*
X169659038Y-113081821D01*
X169749947Y-112899250D01*
X169805762Y-112703083D01*
X169824580Y-112500000D01*
X169805762Y-112296917D01*
X169749947Y-112100750D01*
X169743218Y-112087237D01*
X169698651Y-111997734D01*
X169659038Y-111918179D01*
X169536129Y-111755421D01*
X169500714Y-111723136D01*
X169464434Y-111663425D01*
X169466195Y-111593578D01*
X169505439Y-111535770D01*
X169569706Y-111508356D01*
X169584254Y-111507500D01*
X171854476Y-111507500D01*
X171921515Y-111527185D01*
X171967270Y-111579989D01*
X171977214Y-111649147D01*
X171948189Y-111712703D01*
X171938015Y-111723137D01*
X171902600Y-111755421D01*
X171779692Y-111918178D01*
X171688787Y-112100739D01*
X171688782Y-112100752D01*
X171632967Y-112296917D01*
X171614150Y-112499999D01*
X171614150Y-112500000D01*
X171632967Y-112703082D01*
X171688782Y-112899247D01*
X171688787Y-112899260D01*
X171779692Y-113081821D01*
X171902602Y-113244581D01*
X172053323Y-113381980D01*
X172053325Y-113381982D01*
X172053327Y-113381983D01*
X172226728Y-113489348D01*
X172416909Y-113563024D01*
X172617389Y-113600500D01*
X172617391Y-113600500D01*
X172770566Y-113600500D01*
X172837605Y-113620185D01*
X172883360Y-113672989D01*
X172893304Y-113742147D01*
X172869520Y-113799227D01*
X172779692Y-113918178D01*
X172688787Y-114100739D01*
X172688782Y-114100752D01*
X172632967Y-114296917D01*
X172614150Y-114499999D01*
X172614150Y-114500000D01*
X172632967Y-114703082D01*
X172688782Y-114899247D01*
X172688787Y-114899260D01*
X172779692Y-115081821D01*
X172902602Y-115244581D01*
X173053323Y-115381980D01*
X173053325Y-115381982D01*
X173152506Y-115443392D01*
X173226728Y-115489348D01*
X173416909Y-115563024D01*
X173617389Y-115600500D01*
X173617391Y-115600500D01*
X173821339Y-115600500D01*
X173821341Y-115600500D01*
X174021821Y-115563024D01*
X174212002Y-115489348D01*
X174385406Y-115381981D01*
X174536129Y-115244579D01*
X174659038Y-115081821D01*
X174749947Y-114899250D01*
X174805762Y-114703083D01*
X174824580Y-114500000D01*
X174805762Y-114296917D01*
X174749947Y-114100750D01*
X174659038Y-113918179D01*
X174536129Y-113755421D01*
X174536127Y-113755418D01*
X174385406Y-113618019D01*
X174385404Y-113618017D01*
X174212007Y-113510655D01*
X174212000Y-113510651D01*
X174116911Y-113473814D01*
X174021821Y-113436976D01*
X173821341Y-113399500D01*
X173668164Y-113399500D01*
X173601125Y-113379815D01*
X173555370Y-113327011D01*
X173545426Y-113257853D01*
X173569210Y-113200773D01*
X173629915Y-113120386D01*
X173659038Y-113081821D01*
X173749947Y-112899250D01*
X173805762Y-112703083D01*
X173824580Y-112500000D01*
X173805762Y-112296917D01*
X173749947Y-112100750D01*
X173743218Y-112087237D01*
X173698651Y-111997734D01*
X173659038Y-111918179D01*
X173536129Y-111755421D01*
X173500714Y-111723136D01*
X173464434Y-111663425D01*
X173466195Y-111593578D01*
X173505439Y-111535770D01*
X173569706Y-111508356D01*
X173584254Y-111507500D01*
X175854476Y-111507500D01*
X175921515Y-111527185D01*
X175967270Y-111579989D01*
X175977214Y-111649147D01*
X175948189Y-111712703D01*
X175938015Y-111723137D01*
X175902600Y-111755421D01*
X175779692Y-111918178D01*
X175688787Y-112100739D01*
X175688782Y-112100752D01*
X175632967Y-112296917D01*
X175614150Y-112499999D01*
X175614150Y-112500000D01*
X175632967Y-112703082D01*
X175688782Y-112899247D01*
X175688787Y-112899260D01*
X175779692Y-113081821D01*
X175902602Y-113244581D01*
X176053323Y-113381980D01*
X176053325Y-113381982D01*
X176053327Y-113381983D01*
X176226728Y-113489348D01*
X176416909Y-113563024D01*
X176617389Y-113600500D01*
X176617391Y-113600500D01*
X176770566Y-113600500D01*
X176837605Y-113620185D01*
X176883360Y-113672989D01*
X176893304Y-113742147D01*
X176869520Y-113799227D01*
X176779692Y-113918178D01*
X176688787Y-114100739D01*
X176688782Y-114100752D01*
X176632967Y-114296917D01*
X176614150Y-114499999D01*
X176614150Y-114500000D01*
X176632967Y-114703082D01*
X176688782Y-114899247D01*
X176688787Y-114899260D01*
X176779692Y-115081821D01*
X176902602Y-115244581D01*
X177053323Y-115381980D01*
X177053325Y-115381982D01*
X177152506Y-115443392D01*
X177226728Y-115489348D01*
X177416909Y-115563024D01*
X177617389Y-115600500D01*
X177617391Y-115600500D01*
X177821339Y-115600500D01*
X177821341Y-115600500D01*
X178021821Y-115563024D01*
X178212002Y-115489348D01*
X178385406Y-115381981D01*
X178536129Y-115244579D01*
X178659038Y-115081821D01*
X178749947Y-114899250D01*
X178805762Y-114703083D01*
X178824580Y-114500000D01*
X178805762Y-114296917D01*
X178749947Y-114100750D01*
X178659038Y-113918179D01*
X178536129Y-113755421D01*
X178536127Y-113755418D01*
X178385406Y-113618019D01*
X178385404Y-113618017D01*
X178212007Y-113510655D01*
X178212000Y-113510651D01*
X178116911Y-113473814D01*
X178021821Y-113436976D01*
X177821341Y-113399500D01*
X177668164Y-113399500D01*
X177601125Y-113379815D01*
X177555370Y-113327011D01*
X177545426Y-113257853D01*
X177569210Y-113200773D01*
X177629915Y-113120386D01*
X177659038Y-113081821D01*
X177749947Y-112899250D01*
X177805762Y-112703083D01*
X177824580Y-112500000D01*
X177805762Y-112296917D01*
X177749947Y-112100750D01*
X177743218Y-112087237D01*
X177698651Y-111997734D01*
X177659038Y-111918179D01*
X177536129Y-111755421D01*
X177500714Y-111723136D01*
X177464434Y-111663425D01*
X177466195Y-111593578D01*
X177505439Y-111535770D01*
X177569706Y-111508356D01*
X177584254Y-111507500D01*
X179854476Y-111507500D01*
X179921515Y-111527185D01*
X179967270Y-111579989D01*
X179977214Y-111649147D01*
X179948189Y-111712703D01*
X179938015Y-111723137D01*
X179902600Y-111755421D01*
X179779692Y-111918178D01*
X179688787Y-112100739D01*
X179688782Y-112100752D01*
X179632967Y-112296917D01*
X179614150Y-112499999D01*
X179614150Y-112500000D01*
X179632967Y-112703082D01*
X179688782Y-112899247D01*
X179688787Y-112899260D01*
X179779692Y-113081821D01*
X179902602Y-113244581D01*
X180053323Y-113381980D01*
X180053325Y-113381982D01*
X180053327Y-113381983D01*
X180226728Y-113489348D01*
X180416909Y-113563024D01*
X180617389Y-113600500D01*
X180617391Y-113600500D01*
X180770566Y-113600500D01*
X180837605Y-113620185D01*
X180883360Y-113672989D01*
X180893304Y-113742147D01*
X180869520Y-113799227D01*
X180779692Y-113918178D01*
X180688787Y-114100739D01*
X180688782Y-114100752D01*
X180632967Y-114296917D01*
X180614150Y-114499999D01*
X180614150Y-114500000D01*
X180632967Y-114703082D01*
X180688782Y-114899247D01*
X180688787Y-114899260D01*
X180779692Y-115081821D01*
X180902602Y-115244581D01*
X181053323Y-115381980D01*
X181053325Y-115381982D01*
X181152506Y-115443392D01*
X181226728Y-115489348D01*
X181416909Y-115563024D01*
X181617389Y-115600500D01*
X181617391Y-115600500D01*
X181821339Y-115600500D01*
X181821341Y-115600500D01*
X182021821Y-115563024D01*
X182212002Y-115489348D01*
X182385406Y-115381981D01*
X182536129Y-115244579D01*
X182659038Y-115081821D01*
X182749947Y-114899250D01*
X182805762Y-114703083D01*
X182824580Y-114500000D01*
X182805762Y-114296917D01*
X182749947Y-114100750D01*
X182659038Y-113918179D01*
X182536129Y-113755421D01*
X182536127Y-113755418D01*
X182385406Y-113618019D01*
X182385404Y-113618017D01*
X182212007Y-113510655D01*
X182212000Y-113510651D01*
X182116911Y-113473814D01*
X182021821Y-113436976D01*
X181821341Y-113399500D01*
X181668164Y-113399500D01*
X181601125Y-113379815D01*
X181555370Y-113327011D01*
X181545426Y-113257853D01*
X181569210Y-113200773D01*
X181629915Y-113120386D01*
X181659038Y-113081821D01*
X181749947Y-112899250D01*
X181805762Y-112703083D01*
X181824580Y-112500000D01*
X181805762Y-112296917D01*
X181749947Y-112100750D01*
X181743218Y-112087237D01*
X181698651Y-111997734D01*
X181659038Y-111918179D01*
X181536129Y-111755421D01*
X181500714Y-111723136D01*
X181464434Y-111663425D01*
X181466195Y-111593578D01*
X181505439Y-111535770D01*
X181569706Y-111508356D01*
X181584254Y-111507500D01*
X183854476Y-111507500D01*
X183921515Y-111527185D01*
X183967270Y-111579989D01*
X183977214Y-111649147D01*
X183948189Y-111712703D01*
X183938015Y-111723137D01*
X183902600Y-111755421D01*
X183779692Y-111918178D01*
X183688787Y-112100739D01*
X183688782Y-112100752D01*
X183632967Y-112296917D01*
X183614150Y-112499999D01*
X183614150Y-112500000D01*
X183632967Y-112703082D01*
X183688782Y-112899247D01*
X183688787Y-112899260D01*
X183779692Y-113081821D01*
X183902602Y-113244581D01*
X184053323Y-113381980D01*
X184053325Y-113381982D01*
X184053327Y-113381983D01*
X184226728Y-113489348D01*
X184416909Y-113563024D01*
X184617389Y-113600500D01*
X184617391Y-113600500D01*
X184770566Y-113600500D01*
X184837605Y-113620185D01*
X184883360Y-113672989D01*
X184893304Y-113742147D01*
X184869520Y-113799227D01*
X184779692Y-113918178D01*
X184688787Y-114100739D01*
X184688782Y-114100752D01*
X184632967Y-114296917D01*
X184614150Y-114499999D01*
X184614150Y-114500000D01*
X184632967Y-114703082D01*
X184688782Y-114899247D01*
X184688787Y-114899260D01*
X184779692Y-115081821D01*
X184902602Y-115244581D01*
X185053323Y-115381980D01*
X185053325Y-115381982D01*
X185152506Y-115443392D01*
X185226728Y-115489348D01*
X185416909Y-115563024D01*
X185617389Y-115600500D01*
X185617391Y-115600500D01*
X185821339Y-115600500D01*
X185821341Y-115600500D01*
X186021821Y-115563024D01*
X186212002Y-115489348D01*
X186385406Y-115381981D01*
X186536129Y-115244579D01*
X186659038Y-115081821D01*
X186749947Y-114899250D01*
X186805762Y-114703083D01*
X186824580Y-114500000D01*
X186805762Y-114296917D01*
X186749947Y-114100750D01*
X186659038Y-113918179D01*
X186536129Y-113755421D01*
X186536127Y-113755418D01*
X186385406Y-113618019D01*
X186385404Y-113618017D01*
X186212007Y-113510655D01*
X186212000Y-113510651D01*
X186116911Y-113473814D01*
X186021821Y-113436976D01*
X185821341Y-113399500D01*
X185668164Y-113399500D01*
X185601125Y-113379815D01*
X185555370Y-113327011D01*
X185545426Y-113257853D01*
X185569210Y-113200773D01*
X185629915Y-113120386D01*
X185659038Y-113081821D01*
X185749947Y-112899250D01*
X185805762Y-112703083D01*
X185824580Y-112500000D01*
X185805762Y-112296917D01*
X185749947Y-112100750D01*
X185743218Y-112087237D01*
X185698651Y-111997734D01*
X185659038Y-111918179D01*
X185536129Y-111755421D01*
X185500714Y-111723136D01*
X185464434Y-111663425D01*
X185466195Y-111593578D01*
X185505439Y-111535770D01*
X185569706Y-111508356D01*
X185584254Y-111507500D01*
X187247614Y-111507500D01*
X187263798Y-111508560D01*
X187293635Y-111512489D01*
X187293636Y-111512489D01*
X187310004Y-111510334D01*
X187444575Y-111492617D01*
X187559249Y-111445117D01*
X187585228Y-111434357D01*
X187585228Y-111434356D01*
X187585230Y-111434356D01*
X187675688Y-111364945D01*
X187714179Y-111335410D01*
X187719854Y-111323636D01*
X187724340Y-111317790D01*
X187735020Y-111305611D01*
X188504314Y-110536318D01*
X188565636Y-110502834D01*
X188591994Y-110500000D01*
X189257365Y-110500000D01*
X189324404Y-110519685D01*
G37*
G04 #@! TD.AperFunction*
G04 #@! TA.AperFunction,Conductor*
G36*
X125921515Y-111527185D02*
G01*
X125967270Y-111579989D01*
X125977214Y-111649147D01*
X125948189Y-111712703D01*
X125938015Y-111723137D01*
X125902600Y-111755421D01*
X125779692Y-111918178D01*
X125688787Y-112100739D01*
X125688782Y-112100752D01*
X125632967Y-112296917D01*
X125614150Y-112499999D01*
X125614150Y-112500000D01*
X125632967Y-112703082D01*
X125688782Y-112899247D01*
X125688787Y-112899260D01*
X125779692Y-113081821D01*
X125869520Y-113200773D01*
X125894212Y-113266135D01*
X125879647Y-113334469D01*
X125830449Y-113384082D01*
X125770566Y-113399500D01*
X125617389Y-113399500D01*
X125416909Y-113436976D01*
X125416906Y-113436976D01*
X125416906Y-113436977D01*
X125226729Y-113510651D01*
X125226722Y-113510655D01*
X125053325Y-113618017D01*
X125053323Y-113618019D01*
X124902602Y-113755419D01*
X124818319Y-113867028D01*
X124762210Y-113908664D01*
X124692498Y-113913355D01*
X124631316Y-113879613D01*
X124620411Y-113867028D01*
X124536127Y-113755419D01*
X124385406Y-113618019D01*
X124385404Y-113618017D01*
X124212007Y-113510655D01*
X124212000Y-113510651D01*
X124116911Y-113473814D01*
X124021821Y-113436976D01*
X123821341Y-113399500D01*
X123617389Y-113399500D01*
X123416909Y-113436976D01*
X123416906Y-113436976D01*
X123416906Y-113436977D01*
X123226729Y-113510651D01*
X123226722Y-113510655D01*
X123053325Y-113618017D01*
X123053323Y-113618019D01*
X122902602Y-113755419D01*
X122818319Y-113867028D01*
X122762210Y-113908664D01*
X122692498Y-113913355D01*
X122631316Y-113879613D01*
X122620411Y-113867028D01*
X122536127Y-113755419D01*
X122385406Y-113618019D01*
X122385405Y-113618018D01*
X122356286Y-113599988D01*
X122309651Y-113547960D01*
X122297565Y-113494562D01*
X122297565Y-112297997D01*
X122317250Y-112230958D01*
X122333884Y-112210316D01*
X123000381Y-111543819D01*
X123061704Y-111510334D01*
X123088062Y-111507500D01*
X125854476Y-111507500D01*
X125921515Y-111527185D01*
G37*
G04 #@! TD.AperFunction*
G04 #@! TA.AperFunction,Conductor*
G36*
X139921515Y-111527185D02*
G01*
X139967270Y-111579989D01*
X139977214Y-111649147D01*
X139948189Y-111712703D01*
X139938015Y-111723137D01*
X139902600Y-111755421D01*
X139779692Y-111918178D01*
X139688787Y-112100739D01*
X139688782Y-112100752D01*
X139632967Y-112296917D01*
X139614150Y-112499999D01*
X139614150Y-112500000D01*
X139632967Y-112703082D01*
X139688782Y-112899247D01*
X139688787Y-112899260D01*
X139779692Y-113081821D01*
X139869520Y-113200773D01*
X139894212Y-113266135D01*
X139879647Y-113334469D01*
X139830449Y-113384082D01*
X139770566Y-113399500D01*
X139617389Y-113399500D01*
X139416909Y-113436976D01*
X139416906Y-113436976D01*
X139416906Y-113436977D01*
X139226729Y-113510651D01*
X139226722Y-113510655D01*
X139053325Y-113618017D01*
X139053323Y-113618019D01*
X138902602Y-113755419D01*
X138818319Y-113867028D01*
X138762210Y-113908664D01*
X138692498Y-113913355D01*
X138631316Y-113879613D01*
X138620411Y-113867028D01*
X138536127Y-113755419D01*
X138385406Y-113618019D01*
X138385404Y-113618017D01*
X138212007Y-113510655D01*
X138212000Y-113510651D01*
X138116911Y-113473814D01*
X138021821Y-113436976D01*
X137821341Y-113399500D01*
X137668164Y-113399500D01*
X137601125Y-113379815D01*
X137555370Y-113327011D01*
X137545426Y-113257853D01*
X137569210Y-113200773D01*
X137629915Y-113120386D01*
X137659038Y-113081821D01*
X137749947Y-112899250D01*
X137805762Y-112703083D01*
X137824580Y-112500000D01*
X137805762Y-112296917D01*
X137749947Y-112100750D01*
X137743218Y-112087237D01*
X137698651Y-111997734D01*
X137659038Y-111918179D01*
X137536129Y-111755421D01*
X137500714Y-111723136D01*
X137464434Y-111663425D01*
X137466195Y-111593578D01*
X137505439Y-111535770D01*
X137569706Y-111508356D01*
X137584254Y-111507500D01*
X139854476Y-111507500D01*
X139921515Y-111527185D01*
G37*
G04 #@! TD.AperFunction*
G04 #@! TA.AperFunction,Conductor*
G36*
X105750000Y-111948643D02*
G01*
X105737001Y-112003914D01*
X105688783Y-112100749D01*
X105632967Y-112296917D01*
X105614150Y-112499999D01*
X105614150Y-112500000D01*
X105632967Y-112703082D01*
X105688782Y-112899247D01*
X105688787Y-112899260D01*
X105717105Y-112956129D01*
X105737000Y-112996084D01*
X105750000Y-113051354D01*
X105750000Y-113500000D01*
X106231043Y-113500000D01*
X106275837Y-113508373D01*
X106281720Y-113510652D01*
X106416909Y-113563024D01*
X106617389Y-113600500D01*
X106617391Y-113600500D01*
X106626000Y-113600500D01*
X106693039Y-113620185D01*
X106738794Y-113672989D01*
X106750000Y-113724500D01*
X106750000Y-113948643D01*
X106737001Y-114003914D01*
X106688783Y-114100749D01*
X106632967Y-114296917D01*
X106614150Y-114499999D01*
X106614150Y-114500000D01*
X106632967Y-114703082D01*
X106688782Y-114899247D01*
X106688787Y-114899260D01*
X106717105Y-114956129D01*
X106737000Y-114996084D01*
X106750000Y-115051354D01*
X106750000Y-116448643D01*
X106737001Y-116503914D01*
X106688783Y-116600749D01*
X106632967Y-116796917D01*
X106614150Y-116999999D01*
X106614150Y-117000000D01*
X106632967Y-117203082D01*
X106688782Y-117399247D01*
X106688787Y-117399260D01*
X106717105Y-117456129D01*
X106737000Y-117496084D01*
X106750000Y-117551354D01*
X106750000Y-117775500D01*
X106730315Y-117842539D01*
X106677511Y-117888294D01*
X106626000Y-117899500D01*
X106617389Y-117899500D01*
X106416909Y-117936976D01*
X106416907Y-117936976D01*
X106416905Y-117936977D01*
X106275837Y-117991627D01*
X106231043Y-118000000D01*
X105750000Y-118000000D01*
X105750000Y-118448643D01*
X105737001Y-118503914D01*
X105688783Y-118600749D01*
X105632967Y-118796917D01*
X105614150Y-118999999D01*
X105614150Y-119000000D01*
X105632967Y-119203082D01*
X105688782Y-119399247D01*
X105688787Y-119399260D01*
X105717105Y-119456129D01*
X105737000Y-119496084D01*
X105750000Y-119551354D01*
X105750000Y-120376000D01*
X105730315Y-120443039D01*
X105677511Y-120488794D01*
X105626000Y-120500000D01*
X100624000Y-120500000D01*
X100556961Y-120480315D01*
X100511206Y-120427511D01*
X100500000Y-120376000D01*
X100500000Y-115147870D01*
X102618865Y-115147870D01*
X102618866Y-115147876D01*
X102625273Y-115207483D01*
X102675567Y-115342328D01*
X102675571Y-115342335D01*
X102761817Y-115457544D01*
X102761820Y-115457547D01*
X102877029Y-115543793D01*
X102877036Y-115543797D01*
X103011882Y-115594091D01*
X103011881Y-115594091D01*
X103018809Y-115594835D01*
X103071492Y-115600500D01*
X104367237Y-115600499D01*
X104426848Y-115594091D01*
X104561696Y-115543796D01*
X104676911Y-115457546D01*
X104763161Y-115342331D01*
X104813456Y-115207483D01*
X104819865Y-115147873D01*
X104819864Y-113852128D01*
X104813456Y-113792517D01*
X104788087Y-113724500D01*
X104763162Y-113657671D01*
X104763158Y-113657664D01*
X104676912Y-113542455D01*
X104676909Y-113542452D01*
X104561700Y-113456206D01*
X104561693Y-113456202D01*
X104426847Y-113405908D01*
X104426848Y-113405908D01*
X104367248Y-113399501D01*
X104367246Y-113399500D01*
X104367238Y-113399500D01*
X104367229Y-113399500D01*
X103071494Y-113399500D01*
X103071488Y-113399501D01*
X103011881Y-113405908D01*
X102877036Y-113456202D01*
X102877029Y-113456206D01*
X102761820Y-113542452D01*
X102761817Y-113542455D01*
X102675571Y-113657664D01*
X102675567Y-113657671D01*
X102625273Y-113792517D01*
X102618866Y-113852116D01*
X102618866Y-113852123D01*
X102618865Y-113852135D01*
X102618865Y-115147870D01*
X100500000Y-115147870D01*
X100500000Y-111750000D01*
X105750000Y-111750000D01*
X105750000Y-111948643D01*
G37*
G04 #@! TD.AperFunction*
G04 #@! TA.AperFunction,Conductor*
G36*
X119943039Y-95519685D02*
G01*
X119988794Y-95572489D01*
X120000000Y-95624000D01*
X120000000Y-106876000D01*
X119980315Y-106943039D01*
X119927511Y-106988794D01*
X119876000Y-107000000D01*
X114684856Y-107000000D01*
X114617817Y-106980315D01*
X114591144Y-106957204D01*
X114575070Y-106938653D01*
X114466336Y-106844433D01*
X114466333Y-106844431D01*
X114466331Y-106844430D01*
X114335465Y-106784664D01*
X114335460Y-106784662D01*
X114335459Y-106784662D01*
X114268420Y-106764977D01*
X114268422Y-106764977D01*
X114268417Y-106764976D01*
X114206347Y-106756052D01*
X114126000Y-106744500D01*
X109874000Y-106744500D01*
X109873991Y-106744500D01*
X109873990Y-106744501D01*
X109766549Y-106756052D01*
X109766537Y-106756054D01*
X109715027Y-106767260D01*
X109612502Y-106801383D01*
X109612496Y-106801386D01*
X109491462Y-106879171D01*
X109491458Y-106879173D01*
X109438653Y-106924930D01*
X109410687Y-106957204D01*
X109351908Y-106994978D01*
X109316975Y-107000000D01*
X105750000Y-107000000D01*
X105750000Y-111750000D01*
X100500000Y-111750000D01*
X100500000Y-101124000D01*
X100519685Y-101056961D01*
X100572489Y-101011206D01*
X100624000Y-101000000D01*
X111500000Y-101000000D01*
X111500000Y-95624000D01*
X111519685Y-95556961D01*
X111572489Y-95511206D01*
X111624000Y-95500000D01*
X119876000Y-95500000D01*
X119943039Y-95519685D01*
G37*
G04 #@! TD.AperFunction*
G04 #@! TA.AperFunction,Conductor*
G36*
X114193039Y-107269685D02*
G01*
X114238794Y-107322489D01*
X114250000Y-107374000D01*
X114250000Y-111250000D01*
X109750000Y-111250000D01*
X109750000Y-107374000D01*
X109769685Y-107306961D01*
X109822489Y-107261206D01*
X109874000Y-107250000D01*
X114126000Y-107250000D01*
X114193039Y-107269685D01*
G37*
G04 #@! TD.AperFunction*
G04 #@! TA.AperFunction,Conductor*
G36*
X114250000Y-112198638D02*
G01*
X114230315Y-112265677D01*
X114213681Y-112286319D01*
X112750000Y-113749999D01*
X112750000Y-113948643D01*
X112737001Y-114003914D01*
X112688783Y-114100749D01*
X112632967Y-114296917D01*
X112614150Y-114499999D01*
X112614150Y-114500000D01*
X112632967Y-114703082D01*
X112688782Y-114899247D01*
X112688787Y-114899260D01*
X112717105Y-114956129D01*
X112737000Y-114996084D01*
X112750000Y-115051354D01*
X112750000Y-116448643D01*
X112737001Y-116503914D01*
X112688783Y-116600749D01*
X112632967Y-116796917D01*
X112614150Y-116999999D01*
X112614150Y-117000000D01*
X112632967Y-117203082D01*
X112688782Y-117399247D01*
X112688787Y-117399260D01*
X112717105Y-117456129D01*
X112737000Y-117496084D01*
X112750000Y-117551354D01*
X112750000Y-118000000D01*
X113231043Y-118000000D01*
X113275837Y-118008373D01*
X113319847Y-118025422D01*
X113416909Y-118063024D01*
X113617389Y-118100500D01*
X113617391Y-118100500D01*
X113626000Y-118100500D01*
X113693039Y-118120185D01*
X113738794Y-118172989D01*
X113750000Y-118224500D01*
X113750000Y-119626000D01*
X113730315Y-119693039D01*
X113677511Y-119738794D01*
X113626000Y-119750000D01*
X109874000Y-119750000D01*
X109806961Y-119730315D01*
X109761206Y-119677511D01*
X109750000Y-119626000D01*
X109750000Y-119416360D01*
X109754734Y-119382425D01*
X109805762Y-119203083D01*
X109824580Y-119000000D01*
X109805762Y-118796917D01*
X109754734Y-118617573D01*
X109750000Y-118583639D01*
X109750000Y-118216804D01*
X109769685Y-118149765D01*
X109822489Y-118104010D01*
X109851210Y-118094916D01*
X110021821Y-118063024D01*
X110135244Y-118019083D01*
X110162893Y-118008373D01*
X110207687Y-118000000D01*
X110750000Y-118000000D01*
X110750000Y-117416360D01*
X110754734Y-117382425D01*
X110805762Y-117203083D01*
X110824580Y-117000000D01*
X110805762Y-116796917D01*
X110754734Y-116617573D01*
X110750000Y-116583639D01*
X110750000Y-114916360D01*
X110754734Y-114882425D01*
X110805762Y-114703083D01*
X110824580Y-114500000D01*
X110805762Y-114296917D01*
X110754734Y-114117573D01*
X110750000Y-114083639D01*
X110750000Y-113500000D01*
X110207687Y-113500000D01*
X110162893Y-113491627D01*
X110021824Y-113436977D01*
X110021823Y-113436976D01*
X110021821Y-113436976D01*
X109904716Y-113415085D01*
X109851214Y-113405084D01*
X109788934Y-113373415D01*
X109753661Y-113313103D01*
X109750000Y-113283195D01*
X109750000Y-111250000D01*
X114250000Y-111250000D01*
X114250000Y-112198638D01*
G37*
G04 #@! TD.AperFunction*
M02*
