G04 #@! TF.GenerationSoftware,KiCad,Pcbnew,7.0.10*
G04 #@! TF.CreationDate,2024-01-15T21:05:21-07:00*
G04 #@! TF.ProjectId,RPI 5 PCIE,52504920-3520-4504-9349-452e6b696361,rev?*
G04 #@! TF.SameCoordinates,Original*
G04 #@! TF.FileFunction,Legend,Bot*
G04 #@! TF.FilePolarity,Positive*
%FSLAX46Y46*%
G04 Gerber Fmt 4.6, Leading zero omitted, Abs format (unit mm)*
G04 Created by KiCad (PCBNEW 7.0.10) date 2024-01-15 21:05:21*
%MOMM*%
%LPD*%
G01*
G04 APERTURE LIST*
G04 Aperture macros list*
%AMRoundRect*
0 Rectangle with rounded corners*
0 $1 Rounding radius*
0 $2 $3 $4 $5 $6 $7 $8 $9 X,Y pos of 4 corners*
0 Add a 4 corners polygon primitive as box body*
4,1,4,$2,$3,$4,$5,$6,$7,$8,$9,$2,$3,0*
0 Add four circle primitives for the rounded corners*
1,1,$1+$1,$2,$3*
1,1,$1+$1,$4,$5*
1,1,$1+$1,$6,$7*
1,1,$1+$1,$8,$9*
0 Add four rect primitives between the rounded corners*
20,1,$1+$1,$2,$3,$4,$5,0*
20,1,$1+$1,$4,$5,$6,$7,0*
20,1,$1+$1,$6,$7,$8,$9,0*
20,1,$1+$1,$8,$9,$2,$3,0*%
G04 Aperture macros list end*
%ADD10O,2.700000X3.300000*%
%ADD11RoundRect,0.250001X1.099999X1.399999X-1.099999X1.399999X-1.099999X-1.399999X1.099999X-1.399999X0*%
%ADD12C,3.000000*%
%ADD13C,1.200000*%
%ADD14R,1.200000X1.200000*%
%ADD15C,2.350000*%
G04 APERTURE END LIST*
%LPC*%
D10*
X109400000Y-92700000D03*
X113600000Y-92700000D03*
X117800000Y-92700000D03*
X122000000Y-92700000D03*
X126200000Y-92700000D03*
X130400000Y-92700000D03*
X134600000Y-92700000D03*
X138800000Y-92700000D03*
X143000000Y-92700000D03*
X147200000Y-92700000D03*
X151400000Y-92700000D03*
X155600000Y-92700000D03*
X109400000Y-98200000D03*
X113600000Y-98200000D03*
X117800000Y-98200000D03*
X122000000Y-98200000D03*
X126200000Y-98200000D03*
X130400000Y-98200000D03*
X134600000Y-98200000D03*
X138800000Y-98200000D03*
X143000000Y-98200000D03*
X147200000Y-98200000D03*
X151400000Y-98200000D03*
D11*
X155600000Y-98200000D03*
D12*
X104700000Y-93160000D03*
X160300000Y-93160000D03*
D13*
X186719365Y-119000000D03*
X185719365Y-117000000D03*
X184719365Y-119000000D03*
X183719365Y-117000000D03*
X182719365Y-119000000D03*
X181719365Y-117000000D03*
X180719365Y-119000000D03*
X179719365Y-117000000D03*
X178719365Y-119000000D03*
X177719365Y-117000000D03*
X176719365Y-119000000D03*
X175719365Y-117000000D03*
X174719365Y-119000000D03*
X173719365Y-117000000D03*
X172719365Y-119000000D03*
X171719365Y-117000000D03*
X170719365Y-119000000D03*
X169719365Y-117000000D03*
X168719365Y-119000000D03*
X167719365Y-117000000D03*
X166719365Y-119000000D03*
X165719365Y-117000000D03*
X164719365Y-119000000D03*
X163719365Y-117000000D03*
X162719365Y-119000000D03*
X161719365Y-117000000D03*
X160719365Y-119000000D03*
X159719365Y-117000000D03*
X158719365Y-119000000D03*
X157719365Y-117000000D03*
X156719365Y-119000000D03*
X155719365Y-117000000D03*
X154719365Y-119000000D03*
X153719365Y-117000000D03*
X152719365Y-119000000D03*
X151719365Y-117000000D03*
X150719365Y-119000000D03*
X149719365Y-117000000D03*
X148719365Y-119000000D03*
X147719365Y-117000000D03*
X146719365Y-119000000D03*
X145719365Y-117000000D03*
X144719365Y-119000000D03*
X143719365Y-117000000D03*
X142719365Y-119000000D03*
X141719365Y-117000000D03*
X140719365Y-119000000D03*
X139719365Y-117000000D03*
X138719365Y-119000000D03*
X137719365Y-117000000D03*
X136719365Y-119000000D03*
X135719365Y-117000000D03*
X134719365Y-119000000D03*
X133719365Y-117000000D03*
X132719365Y-119000000D03*
X131719365Y-117000000D03*
X130719365Y-119000000D03*
X129719365Y-117000000D03*
X128719365Y-119000000D03*
X127719365Y-117000000D03*
X126719365Y-119000000D03*
X125719365Y-117000000D03*
X124719365Y-119000000D03*
X123719365Y-117000000D03*
X122719365Y-119000000D03*
X121719365Y-117000000D03*
X120719365Y-119000000D03*
X119719365Y-117000000D03*
X118719365Y-119000000D03*
X117719365Y-117000000D03*
X116719365Y-119000000D03*
X113719365Y-117000000D03*
X112719365Y-119000000D03*
X111719365Y-117000000D03*
X110719365Y-119000000D03*
X109719365Y-117000000D03*
X108719365Y-119000000D03*
X107719365Y-117000000D03*
X106719365Y-119000000D03*
X105719365Y-117000000D03*
X104719365Y-119000000D03*
X103719365Y-117000000D03*
X186719365Y-112500000D03*
X185719365Y-114500000D03*
X184719365Y-112500000D03*
X183719365Y-114500000D03*
X182719365Y-112500000D03*
X181719365Y-114500000D03*
X180719365Y-112500000D03*
X179719365Y-114500000D03*
X178719365Y-112500000D03*
X177719365Y-114500000D03*
X176719365Y-112500000D03*
X175719365Y-114500000D03*
X174719365Y-112500000D03*
X173719365Y-114500000D03*
X172719365Y-112500000D03*
X171719365Y-114500000D03*
X170719365Y-112500000D03*
X169719365Y-114500000D03*
X168719365Y-112500000D03*
X167719365Y-114500000D03*
X166719365Y-112500000D03*
X165719365Y-114500000D03*
X164719365Y-112500000D03*
X163719365Y-114500000D03*
X162719365Y-112500000D03*
X161719365Y-114500000D03*
X160719365Y-112500000D03*
X159719365Y-114500000D03*
X158719365Y-112500000D03*
X157719365Y-114500000D03*
X156719365Y-112500000D03*
X155719365Y-114500000D03*
X154719365Y-112500000D03*
X153719365Y-114500000D03*
X152719365Y-112500000D03*
X151719365Y-114500000D03*
X150719365Y-112500000D03*
X149719365Y-114500000D03*
X148719365Y-112500000D03*
X147719365Y-114500000D03*
X146719365Y-112500000D03*
X145719365Y-114500000D03*
X144719365Y-112500000D03*
X143719365Y-114500000D03*
X142719365Y-112500000D03*
X141719365Y-114500000D03*
X140719365Y-112500000D03*
X139719365Y-114500000D03*
X138719365Y-112500000D03*
X137719365Y-114500000D03*
X136719365Y-112500000D03*
X135719365Y-114500000D03*
X134719365Y-112500000D03*
X133719365Y-114500000D03*
X132719365Y-112500000D03*
X131719365Y-114500000D03*
X130719365Y-112500000D03*
X129719365Y-114500000D03*
X128719365Y-112500000D03*
X127719365Y-114500000D03*
X126719365Y-112500000D03*
X125719365Y-114500000D03*
X124719365Y-112500000D03*
X123719365Y-114500000D03*
X122719365Y-112500000D03*
X121719365Y-114500000D03*
X120719365Y-112500000D03*
X119719365Y-114500000D03*
X118719365Y-112500000D03*
X117719365Y-114500000D03*
X116719365Y-112500000D03*
X113719365Y-114500000D03*
X112719365Y-112500000D03*
X111719365Y-114500000D03*
X110719365Y-112500000D03*
X109719365Y-114500000D03*
X108719365Y-112500000D03*
X107719365Y-114500000D03*
X106719365Y-112500000D03*
X105719365Y-114500000D03*
X104719365Y-112500000D03*
D14*
X103719365Y-114500000D03*
D15*
X188519365Y-115750000D03*
X115369365Y-115750000D03*
%LPD*%
M02*
