G04 #@! TF.GenerationSoftware,KiCad,Pcbnew,7.0.10*
G04 #@! TF.CreationDate,2024-01-15T21:05:21-07:00*
G04 #@! TF.ProjectId,RPI 5 PCIE,52504920-3520-4504-9349-452e6b696361,rev?*
G04 #@! TF.SameCoordinates,Original*
G04 #@! TF.FileFunction,Legend,Top*
G04 #@! TF.FilePolarity,Positive*
%FSLAX46Y46*%
G04 Gerber Fmt 4.6, Leading zero omitted, Abs format (unit mm)*
G04 Created by KiCad (PCBNEW 7.0.10) date 2024-01-15 21:05:21*
%MOMM*%
%LPD*%
G01*
G04 APERTURE LIST*
G04 Aperture macros list*
%AMRoundRect*
0 Rectangle with rounded corners*
0 $1 Rounding radius*
0 $2 $3 $4 $5 $6 $7 $8 $9 X,Y pos of 4 corners*
0 Add a 4 corners polygon primitive as box body*
4,1,4,$2,$3,$4,$5,$6,$7,$8,$9,$2,$3,0*
0 Add four circle primitives for the rounded corners*
1,1,$1+$1,$2,$3*
1,1,$1+$1,$4,$5*
1,1,$1+$1,$6,$7*
1,1,$1+$1,$8,$9*
0 Add four rect primitives between the rounded corners*
20,1,$1+$1,$2,$3,$4,$5,0*
20,1,$1+$1,$4,$5,$6,$7,0*
20,1,$1+$1,$6,$7,$8,$9,0*
20,1,$1+$1,$8,$9,$2,$3,0*%
G04 Aperture macros list end*
%ADD10C,0.300000*%
%ADD11C,0.150000*%
%ADD12C,0.100000*%
%ADD13C,0.120000*%
%ADD14O,2.700000X3.300000*%
%ADD15RoundRect,0.250001X1.099999X1.399999X-1.099999X1.399999X-1.099999X-1.399999X1.099999X-1.399999X0*%
%ADD16C,3.000000*%
%ADD17C,1.200000*%
%ADD18R,1.200000X1.200000*%
%ADD19C,2.350000*%
%ADD20RoundRect,0.450000X0.450000X0.800000X-0.450000X0.800000X-0.450000X-0.800000X0.450000X-0.800000X0*%
%ADD21RoundRect,0.087500X0.562500X0.087500X-0.562500X0.087500X-0.562500X-0.087500X0.562500X-0.087500X0*%
%ADD22RoundRect,0.250000X-0.312500X-0.625000X0.312500X-0.625000X0.312500X0.625000X-0.312500X0.625000X0*%
%ADD23RoundRect,0.150000X0.150000X-0.587500X0.150000X0.587500X-0.150000X0.587500X-0.150000X-0.587500X0*%
G04 APERTURE END LIST*
D10*
X136540794Y-88050828D02*
X136040794Y-87336542D01*
X135683651Y-88050828D02*
X135683651Y-86550828D01*
X135683651Y-86550828D02*
X136255080Y-86550828D01*
X136255080Y-86550828D02*
X136397937Y-86622257D01*
X136397937Y-86622257D02*
X136469366Y-86693685D01*
X136469366Y-86693685D02*
X136540794Y-86836542D01*
X136540794Y-86836542D02*
X136540794Y-87050828D01*
X136540794Y-87050828D02*
X136469366Y-87193685D01*
X136469366Y-87193685D02*
X136397937Y-87265114D01*
X136397937Y-87265114D02*
X136255080Y-87336542D01*
X136255080Y-87336542D02*
X135683651Y-87336542D01*
X137183651Y-88050828D02*
X137183651Y-86550828D01*
X137183651Y-86550828D02*
X137755080Y-86550828D01*
X137755080Y-86550828D02*
X137897937Y-86622257D01*
X137897937Y-86622257D02*
X137969366Y-86693685D01*
X137969366Y-86693685D02*
X138040794Y-86836542D01*
X138040794Y-86836542D02*
X138040794Y-87050828D01*
X138040794Y-87050828D02*
X137969366Y-87193685D01*
X137969366Y-87193685D02*
X137897937Y-87265114D01*
X137897937Y-87265114D02*
X137755080Y-87336542D01*
X137755080Y-87336542D02*
X137183651Y-87336542D01*
X138683651Y-88050828D02*
X138683651Y-86550828D01*
X141255080Y-86550828D02*
X140540794Y-86550828D01*
X140540794Y-86550828D02*
X140469366Y-87265114D01*
X140469366Y-87265114D02*
X140540794Y-87193685D01*
X140540794Y-87193685D02*
X140683652Y-87122257D01*
X140683652Y-87122257D02*
X141040794Y-87122257D01*
X141040794Y-87122257D02*
X141183652Y-87193685D01*
X141183652Y-87193685D02*
X141255080Y-87265114D01*
X141255080Y-87265114D02*
X141326509Y-87407971D01*
X141326509Y-87407971D02*
X141326509Y-87765114D01*
X141326509Y-87765114D02*
X141255080Y-87907971D01*
X141255080Y-87907971D02*
X141183652Y-87979400D01*
X141183652Y-87979400D02*
X141040794Y-88050828D01*
X141040794Y-88050828D02*
X140683652Y-88050828D01*
X140683652Y-88050828D02*
X140540794Y-87979400D01*
X140540794Y-87979400D02*
X140469366Y-87907971D01*
X143112222Y-88050828D02*
X143112222Y-86550828D01*
X143112222Y-86550828D02*
X143683651Y-86550828D01*
X143683651Y-86550828D02*
X143826508Y-86622257D01*
X143826508Y-86622257D02*
X143897937Y-86693685D01*
X143897937Y-86693685D02*
X143969365Y-86836542D01*
X143969365Y-86836542D02*
X143969365Y-87050828D01*
X143969365Y-87050828D02*
X143897937Y-87193685D01*
X143897937Y-87193685D02*
X143826508Y-87265114D01*
X143826508Y-87265114D02*
X143683651Y-87336542D01*
X143683651Y-87336542D02*
X143112222Y-87336542D01*
X145469365Y-87907971D02*
X145397937Y-87979400D01*
X145397937Y-87979400D02*
X145183651Y-88050828D01*
X145183651Y-88050828D02*
X145040794Y-88050828D01*
X145040794Y-88050828D02*
X144826508Y-87979400D01*
X144826508Y-87979400D02*
X144683651Y-87836542D01*
X144683651Y-87836542D02*
X144612222Y-87693685D01*
X144612222Y-87693685D02*
X144540794Y-87407971D01*
X144540794Y-87407971D02*
X144540794Y-87193685D01*
X144540794Y-87193685D02*
X144612222Y-86907971D01*
X144612222Y-86907971D02*
X144683651Y-86765114D01*
X144683651Y-86765114D02*
X144826508Y-86622257D01*
X144826508Y-86622257D02*
X145040794Y-86550828D01*
X145040794Y-86550828D02*
X145183651Y-86550828D01*
X145183651Y-86550828D02*
X145397937Y-86622257D01*
X145397937Y-86622257D02*
X145469365Y-86693685D01*
X146112222Y-88050828D02*
X146112222Y-86550828D01*
X147397937Y-87979400D02*
X147255080Y-88050828D01*
X147255080Y-88050828D02*
X146969366Y-88050828D01*
X146969366Y-88050828D02*
X146826508Y-87979400D01*
X146826508Y-87979400D02*
X146755080Y-87836542D01*
X146755080Y-87836542D02*
X146755080Y-87265114D01*
X146755080Y-87265114D02*
X146826508Y-87122257D01*
X146826508Y-87122257D02*
X146969366Y-87050828D01*
X146969366Y-87050828D02*
X147255080Y-87050828D01*
X147255080Y-87050828D02*
X147397937Y-87122257D01*
X147397937Y-87122257D02*
X147469366Y-87265114D01*
X147469366Y-87265114D02*
X147469366Y-87407971D01*
X147469366Y-87407971D02*
X146755080Y-87550828D01*
X149255079Y-87265114D02*
X149755079Y-87265114D01*
X149969365Y-88050828D02*
X149255079Y-88050828D01*
X149255079Y-88050828D02*
X149255079Y-86550828D01*
X149255079Y-86550828D02*
X149969365Y-86550828D01*
X150469365Y-88050828D02*
X151255080Y-87050828D01*
X150469365Y-87050828D02*
X151255080Y-88050828D01*
X151612223Y-87050828D02*
X152183651Y-87050828D01*
X151826508Y-86550828D02*
X151826508Y-87836542D01*
X151826508Y-87836542D02*
X151897937Y-87979400D01*
X151897937Y-87979400D02*
X152040794Y-88050828D01*
X152040794Y-88050828D02*
X152183651Y-88050828D01*
X153255080Y-87979400D02*
X153112223Y-88050828D01*
X153112223Y-88050828D02*
X152826509Y-88050828D01*
X152826509Y-88050828D02*
X152683651Y-87979400D01*
X152683651Y-87979400D02*
X152612223Y-87836542D01*
X152612223Y-87836542D02*
X152612223Y-87265114D01*
X152612223Y-87265114D02*
X152683651Y-87122257D01*
X152683651Y-87122257D02*
X152826509Y-87050828D01*
X152826509Y-87050828D02*
X153112223Y-87050828D01*
X153112223Y-87050828D02*
X153255080Y-87122257D01*
X153255080Y-87122257D02*
X153326509Y-87265114D01*
X153326509Y-87265114D02*
X153326509Y-87407971D01*
X153326509Y-87407971D02*
X152612223Y-87550828D01*
X153969365Y-88050828D02*
X153969365Y-87050828D01*
X153969365Y-87336542D02*
X154040794Y-87193685D01*
X154040794Y-87193685D02*
X154112223Y-87122257D01*
X154112223Y-87122257D02*
X154255080Y-87050828D01*
X154255080Y-87050828D02*
X154397937Y-87050828D01*
X154897936Y-87050828D02*
X154897936Y-88050828D01*
X154897936Y-87193685D02*
X154969365Y-87122257D01*
X154969365Y-87122257D02*
X155112222Y-87050828D01*
X155112222Y-87050828D02*
X155326508Y-87050828D01*
X155326508Y-87050828D02*
X155469365Y-87122257D01*
X155469365Y-87122257D02*
X155540794Y-87265114D01*
X155540794Y-87265114D02*
X155540794Y-88050828D01*
X156897937Y-88050828D02*
X156897937Y-87265114D01*
X156897937Y-87265114D02*
X156826508Y-87122257D01*
X156826508Y-87122257D02*
X156683651Y-87050828D01*
X156683651Y-87050828D02*
X156397937Y-87050828D01*
X156397937Y-87050828D02*
X156255079Y-87122257D01*
X156897937Y-87979400D02*
X156755079Y-88050828D01*
X156755079Y-88050828D02*
X156397937Y-88050828D01*
X156397937Y-88050828D02*
X156255079Y-87979400D01*
X156255079Y-87979400D02*
X156183651Y-87836542D01*
X156183651Y-87836542D02*
X156183651Y-87693685D01*
X156183651Y-87693685D02*
X156255079Y-87550828D01*
X156255079Y-87550828D02*
X156397937Y-87479400D01*
X156397937Y-87479400D02*
X156755079Y-87479400D01*
X156755079Y-87479400D02*
X156897937Y-87407971D01*
X157826508Y-88050828D02*
X157683651Y-87979400D01*
X157683651Y-87979400D02*
X157612222Y-87836542D01*
X157612222Y-87836542D02*
X157612222Y-86550828D01*
X159469365Y-87622257D02*
X160183651Y-87622257D01*
X159326508Y-88050828D02*
X159826508Y-86550828D01*
X159826508Y-86550828D02*
X160326508Y-88050828D01*
X161469365Y-88050828D02*
X161469365Y-86550828D01*
X161469365Y-87979400D02*
X161326507Y-88050828D01*
X161326507Y-88050828D02*
X161040793Y-88050828D01*
X161040793Y-88050828D02*
X160897936Y-87979400D01*
X160897936Y-87979400D02*
X160826507Y-87907971D01*
X160826507Y-87907971D02*
X160755079Y-87765114D01*
X160755079Y-87765114D02*
X160755079Y-87336542D01*
X160755079Y-87336542D02*
X160826507Y-87193685D01*
X160826507Y-87193685D02*
X160897936Y-87122257D01*
X160897936Y-87122257D02*
X161040793Y-87050828D01*
X161040793Y-87050828D02*
X161326507Y-87050828D01*
X161326507Y-87050828D02*
X161469365Y-87122257D01*
X162826508Y-88050828D02*
X162826508Y-87265114D01*
X162826508Y-87265114D02*
X162755079Y-87122257D01*
X162755079Y-87122257D02*
X162612222Y-87050828D01*
X162612222Y-87050828D02*
X162326508Y-87050828D01*
X162326508Y-87050828D02*
X162183650Y-87122257D01*
X162826508Y-87979400D02*
X162683650Y-88050828D01*
X162683650Y-88050828D02*
X162326508Y-88050828D01*
X162326508Y-88050828D02*
X162183650Y-87979400D01*
X162183650Y-87979400D02*
X162112222Y-87836542D01*
X162112222Y-87836542D02*
X162112222Y-87693685D01*
X162112222Y-87693685D02*
X162183650Y-87550828D01*
X162183650Y-87550828D02*
X162326508Y-87479400D01*
X162326508Y-87479400D02*
X162683650Y-87479400D01*
X162683650Y-87479400D02*
X162826508Y-87407971D01*
X163540793Y-87050828D02*
X163540793Y-88550828D01*
X163540793Y-87122257D02*
X163683651Y-87050828D01*
X163683651Y-87050828D02*
X163969365Y-87050828D01*
X163969365Y-87050828D02*
X164112222Y-87122257D01*
X164112222Y-87122257D02*
X164183651Y-87193685D01*
X164183651Y-87193685D02*
X164255079Y-87336542D01*
X164255079Y-87336542D02*
X164255079Y-87765114D01*
X164255079Y-87765114D02*
X164183651Y-87907971D01*
X164183651Y-87907971D02*
X164112222Y-87979400D01*
X164112222Y-87979400D02*
X163969365Y-88050828D01*
X163969365Y-88050828D02*
X163683651Y-88050828D01*
X163683651Y-88050828D02*
X163540793Y-87979400D01*
X164683651Y-87050828D02*
X165255079Y-87050828D01*
X164897936Y-86550828D02*
X164897936Y-87836542D01*
X164897936Y-87836542D02*
X164969365Y-87979400D01*
X164969365Y-87979400D02*
X165112222Y-88050828D01*
X165112222Y-88050828D02*
X165255079Y-88050828D01*
X166326508Y-87979400D02*
X166183651Y-88050828D01*
X166183651Y-88050828D02*
X165897937Y-88050828D01*
X165897937Y-88050828D02*
X165755079Y-87979400D01*
X165755079Y-87979400D02*
X165683651Y-87836542D01*
X165683651Y-87836542D02*
X165683651Y-87265114D01*
X165683651Y-87265114D02*
X165755079Y-87122257D01*
X165755079Y-87122257D02*
X165897937Y-87050828D01*
X165897937Y-87050828D02*
X166183651Y-87050828D01*
X166183651Y-87050828D02*
X166326508Y-87122257D01*
X166326508Y-87122257D02*
X166397937Y-87265114D01*
X166397937Y-87265114D02*
X166397937Y-87407971D01*
X166397937Y-87407971D02*
X165683651Y-87550828D01*
X167040793Y-88050828D02*
X167040793Y-87050828D01*
X167040793Y-87336542D02*
X167112222Y-87193685D01*
X167112222Y-87193685D02*
X167183651Y-87122257D01*
X167183651Y-87122257D02*
X167326508Y-87050828D01*
X167326508Y-87050828D02*
X167469365Y-87050828D01*
D11*
X132166666Y-101104819D02*
X132166666Y-101819104D01*
X132166666Y-101819104D02*
X132119047Y-101961961D01*
X132119047Y-101961961D02*
X132023809Y-102057200D01*
X132023809Y-102057200D02*
X131880952Y-102104819D01*
X131880952Y-102104819D02*
X131785714Y-102104819D01*
X132595238Y-101200057D02*
X132642857Y-101152438D01*
X132642857Y-101152438D02*
X132738095Y-101104819D01*
X132738095Y-101104819D02*
X132976190Y-101104819D01*
X132976190Y-101104819D02*
X133071428Y-101152438D01*
X133071428Y-101152438D02*
X133119047Y-101200057D01*
X133119047Y-101200057D02*
X133166666Y-101295295D01*
X133166666Y-101295295D02*
X133166666Y-101390533D01*
X133166666Y-101390533D02*
X133119047Y-101533390D01*
X133119047Y-101533390D02*
X132547619Y-102104819D01*
X132547619Y-102104819D02*
X133166666Y-102104819D01*
D12*
X136552698Y-110457419D02*
X136552698Y-109457419D01*
X136552698Y-109457419D02*
X136933650Y-109457419D01*
X136933650Y-109457419D02*
X137028888Y-109505038D01*
X137028888Y-109505038D02*
X137076507Y-109552657D01*
X137076507Y-109552657D02*
X137124126Y-109647895D01*
X137124126Y-109647895D02*
X137124126Y-109790752D01*
X137124126Y-109790752D02*
X137076507Y-109885990D01*
X137076507Y-109885990D02*
X137028888Y-109933609D01*
X137028888Y-109933609D02*
X136933650Y-109981228D01*
X136933650Y-109981228D02*
X136552698Y-109981228D01*
X138124126Y-110362180D02*
X138076507Y-110409800D01*
X138076507Y-110409800D02*
X137933650Y-110457419D01*
X137933650Y-110457419D02*
X137838412Y-110457419D01*
X137838412Y-110457419D02*
X137695555Y-110409800D01*
X137695555Y-110409800D02*
X137600317Y-110314561D01*
X137600317Y-110314561D02*
X137552698Y-110219323D01*
X137552698Y-110219323D02*
X137505079Y-110028847D01*
X137505079Y-110028847D02*
X137505079Y-109885990D01*
X137505079Y-109885990D02*
X137552698Y-109695514D01*
X137552698Y-109695514D02*
X137600317Y-109600276D01*
X137600317Y-109600276D02*
X137695555Y-109505038D01*
X137695555Y-109505038D02*
X137838412Y-109457419D01*
X137838412Y-109457419D02*
X137933650Y-109457419D01*
X137933650Y-109457419D02*
X138076507Y-109505038D01*
X138076507Y-109505038D02*
X138124126Y-109552657D01*
X138552698Y-110457419D02*
X138552698Y-109457419D01*
X139409840Y-110409800D02*
X139314602Y-110457419D01*
X139314602Y-110457419D02*
X139124126Y-110457419D01*
X139124126Y-110457419D02*
X139028888Y-110409800D01*
X139028888Y-110409800D02*
X138981269Y-110314561D01*
X138981269Y-110314561D02*
X138981269Y-109933609D01*
X138981269Y-109933609D02*
X139028888Y-109838371D01*
X139028888Y-109838371D02*
X139124126Y-109790752D01*
X139124126Y-109790752D02*
X139314602Y-109790752D01*
X139314602Y-109790752D02*
X139409840Y-109838371D01*
X139409840Y-109838371D02*
X139457459Y-109933609D01*
X139457459Y-109933609D02*
X139457459Y-110028847D01*
X139457459Y-110028847D02*
X138981269Y-110124085D01*
X139647936Y-110552657D02*
X140409840Y-110552657D01*
X140552698Y-110457419D02*
X141076507Y-109790752D01*
X140552698Y-109790752D02*
X141076507Y-110457419D01*
X141981269Y-110457419D02*
X141409841Y-110457419D01*
X141695555Y-110457419D02*
X141695555Y-109457419D01*
X141695555Y-109457419D02*
X141600317Y-109600276D01*
X141600317Y-109600276D02*
X141505079Y-109695514D01*
X141505079Y-109695514D02*
X141409841Y-109743133D01*
X142838412Y-109457419D02*
X142647936Y-109457419D01*
X142647936Y-109457419D02*
X142552698Y-109505038D01*
X142552698Y-109505038D02*
X142505079Y-109552657D01*
X142505079Y-109552657D02*
X142409841Y-109695514D01*
X142409841Y-109695514D02*
X142362222Y-109885990D01*
X142362222Y-109885990D02*
X142362222Y-110266942D01*
X142362222Y-110266942D02*
X142409841Y-110362180D01*
X142409841Y-110362180D02*
X142457460Y-110409800D01*
X142457460Y-110409800D02*
X142552698Y-110457419D01*
X142552698Y-110457419D02*
X142743174Y-110457419D01*
X142743174Y-110457419D02*
X142838412Y-110409800D01*
X142838412Y-110409800D02*
X142886031Y-110362180D01*
X142886031Y-110362180D02*
X142933650Y-110266942D01*
X142933650Y-110266942D02*
X142933650Y-110028847D01*
X142933650Y-110028847D02*
X142886031Y-109933609D01*
X142886031Y-109933609D02*
X142838412Y-109885990D01*
X142838412Y-109885990D02*
X142743174Y-109838371D01*
X142743174Y-109838371D02*
X142552698Y-109838371D01*
X142552698Y-109838371D02*
X142457460Y-109885990D01*
X142457460Y-109885990D02*
X142409841Y-109933609D01*
X142409841Y-109933609D02*
X142362222Y-110028847D01*
D11*
X185833333Y-89884819D02*
X185500000Y-89408628D01*
X185261905Y-89884819D02*
X185261905Y-88884819D01*
X185261905Y-88884819D02*
X185642857Y-88884819D01*
X185642857Y-88884819D02*
X185738095Y-88932438D01*
X185738095Y-88932438D02*
X185785714Y-88980057D01*
X185785714Y-88980057D02*
X185833333Y-89075295D01*
X185833333Y-89075295D02*
X185833333Y-89218152D01*
X185833333Y-89218152D02*
X185785714Y-89313390D01*
X185785714Y-89313390D02*
X185738095Y-89361009D01*
X185738095Y-89361009D02*
X185642857Y-89408628D01*
X185642857Y-89408628D02*
X185261905Y-89408628D01*
X186785714Y-89884819D02*
X186214286Y-89884819D01*
X186500000Y-89884819D02*
X186500000Y-88884819D01*
X186500000Y-88884819D02*
X186404762Y-89027676D01*
X186404762Y-89027676D02*
X186309524Y-89122914D01*
X186309524Y-89122914D02*
X186214286Y-89170533D01*
X189619422Y-90595238D02*
X189571803Y-90690476D01*
X189571803Y-90690476D02*
X189476565Y-90785714D01*
X189476565Y-90785714D02*
X189333707Y-90928571D01*
X189333707Y-90928571D02*
X189286088Y-91023809D01*
X189286088Y-91023809D02*
X189286088Y-91119047D01*
X189524184Y-91071428D02*
X189476565Y-91166666D01*
X189476565Y-91166666D02*
X189381326Y-91261904D01*
X189381326Y-91261904D02*
X189190850Y-91309523D01*
X189190850Y-91309523D02*
X188857517Y-91309523D01*
X188857517Y-91309523D02*
X188667041Y-91261904D01*
X188667041Y-91261904D02*
X188571803Y-91166666D01*
X188571803Y-91166666D02*
X188524184Y-91071428D01*
X188524184Y-91071428D02*
X188524184Y-90880952D01*
X188524184Y-90880952D02*
X188571803Y-90785714D01*
X188571803Y-90785714D02*
X188667041Y-90690476D01*
X188667041Y-90690476D02*
X188857517Y-90642857D01*
X188857517Y-90642857D02*
X189190850Y-90642857D01*
X189190850Y-90642857D02*
X189381326Y-90690476D01*
X189381326Y-90690476D02*
X189476565Y-90785714D01*
X189476565Y-90785714D02*
X189524184Y-90880952D01*
X189524184Y-90880952D02*
X189524184Y-91071428D01*
X189524184Y-89690476D02*
X189524184Y-90261904D01*
X189524184Y-89976190D02*
X188524184Y-89976190D01*
X188524184Y-89976190D02*
X188667041Y-90071428D01*
X188667041Y-90071428D02*
X188762279Y-90166666D01*
X188762279Y-90166666D02*
X188809898Y-90261904D01*
X185370833Y-94134819D02*
X185037500Y-93658628D01*
X184799405Y-94134819D02*
X184799405Y-93134819D01*
X184799405Y-93134819D02*
X185180357Y-93134819D01*
X185180357Y-93134819D02*
X185275595Y-93182438D01*
X185275595Y-93182438D02*
X185323214Y-93230057D01*
X185323214Y-93230057D02*
X185370833Y-93325295D01*
X185370833Y-93325295D02*
X185370833Y-93468152D01*
X185370833Y-93468152D02*
X185323214Y-93563390D01*
X185323214Y-93563390D02*
X185275595Y-93611009D01*
X185275595Y-93611009D02*
X185180357Y-93658628D01*
X185180357Y-93658628D02*
X184799405Y-93658628D01*
X185751786Y-93230057D02*
X185799405Y-93182438D01*
X185799405Y-93182438D02*
X185894643Y-93134819D01*
X185894643Y-93134819D02*
X186132738Y-93134819D01*
X186132738Y-93134819D02*
X186227976Y-93182438D01*
X186227976Y-93182438D02*
X186275595Y-93230057D01*
X186275595Y-93230057D02*
X186323214Y-93325295D01*
X186323214Y-93325295D02*
X186323214Y-93420533D01*
X186323214Y-93420533D02*
X186275595Y-93563390D01*
X186275595Y-93563390D02*
X185704167Y-94134819D01*
X185704167Y-94134819D02*
X186323214Y-94134819D01*
D13*
X104700000Y-91400000D02*
G75*
G03*
X104700000Y-94920000I0J-1760000D01*
G01*
X160300000Y-94920000D02*
G75*
G03*
X160300000Y-91400000I0J1760000D01*
G01*
X104700000Y-91400000D02*
X106590000Y-91400000D01*
X104700000Y-94920000D02*
X106590000Y-94920000D01*
X106590000Y-90740000D02*
X130690000Y-90740000D01*
X106590000Y-100560000D02*
X106590000Y-90740000D01*
X130690000Y-89340000D02*
X132500000Y-89340000D01*
X130690000Y-90740000D02*
X130690000Y-89340000D01*
X132500000Y-100560000D02*
X106590000Y-100560000D01*
X132500000Y-100560000D02*
X158410000Y-100560000D01*
X134310000Y-89340000D02*
X132500000Y-89340000D01*
X134310000Y-90740000D02*
X134310000Y-89340000D01*
X155800000Y-100800000D02*
X158650000Y-100800000D01*
X158410000Y-90740000D02*
X134310000Y-90740000D01*
X158410000Y-100560000D02*
X158410000Y-90740000D01*
X158650000Y-100800000D02*
X158650000Y-97950000D01*
X160300000Y-91400000D02*
X158410000Y-91400000D01*
X160300000Y-94920000D02*
X158410000Y-94920000D01*
X185272936Y-92160000D02*
X186727064Y-92160000D01*
X185272936Y-90340000D02*
X186727064Y-90340000D01*
X189909365Y-90500000D02*
X189909365Y-92175000D01*
X189909365Y-90500000D02*
X189909365Y-89850000D01*
X193029365Y-90500000D02*
X193029365Y-91150000D01*
X193029365Y-90500000D02*
X193029365Y-89850000D01*
X184810436Y-96410000D02*
X186264564Y-96410000D01*
X184810436Y-94590000D02*
X186264564Y-94590000D01*
%LPC*%
D14*
X109400000Y-92700000D03*
X113600000Y-92700000D03*
X117800000Y-92700000D03*
X122000000Y-92700000D03*
X126200000Y-92700000D03*
X130400000Y-92700000D03*
X134600000Y-92700000D03*
X138800000Y-92700000D03*
X143000000Y-92700000D03*
X147200000Y-92700000D03*
X151400000Y-92700000D03*
X155600000Y-92700000D03*
X109400000Y-98200000D03*
X113600000Y-98200000D03*
X117800000Y-98200000D03*
X122000000Y-98200000D03*
X126200000Y-98200000D03*
X130400000Y-98200000D03*
X134600000Y-98200000D03*
X138800000Y-98200000D03*
X143000000Y-98200000D03*
X147200000Y-98200000D03*
X151400000Y-98200000D03*
D15*
X155600000Y-98200000D03*
D16*
X104700000Y-93160000D03*
X160300000Y-93160000D03*
D17*
X186719365Y-119000000D03*
X185719365Y-117000000D03*
X184719365Y-119000000D03*
X183719365Y-117000000D03*
X182719365Y-119000000D03*
X181719365Y-117000000D03*
X180719365Y-119000000D03*
X179719365Y-117000000D03*
X178719365Y-119000000D03*
X177719365Y-117000000D03*
X176719365Y-119000000D03*
X175719365Y-117000000D03*
X174719365Y-119000000D03*
X173719365Y-117000000D03*
X172719365Y-119000000D03*
X171719365Y-117000000D03*
X170719365Y-119000000D03*
X169719365Y-117000000D03*
X168719365Y-119000000D03*
X167719365Y-117000000D03*
X166719365Y-119000000D03*
X165719365Y-117000000D03*
X164719365Y-119000000D03*
X163719365Y-117000000D03*
X162719365Y-119000000D03*
X161719365Y-117000000D03*
X160719365Y-119000000D03*
X159719365Y-117000000D03*
X158719365Y-119000000D03*
X157719365Y-117000000D03*
X156719365Y-119000000D03*
X155719365Y-117000000D03*
X154719365Y-119000000D03*
X153719365Y-117000000D03*
X152719365Y-119000000D03*
X151719365Y-117000000D03*
X150719365Y-119000000D03*
X149719365Y-117000000D03*
X148719365Y-119000000D03*
X147719365Y-117000000D03*
X146719365Y-119000000D03*
X145719365Y-117000000D03*
X144719365Y-119000000D03*
X143719365Y-117000000D03*
X142719365Y-119000000D03*
X141719365Y-117000000D03*
X140719365Y-119000000D03*
X139719365Y-117000000D03*
X138719365Y-119000000D03*
X137719365Y-117000000D03*
X136719365Y-119000000D03*
X135719365Y-117000000D03*
X134719365Y-119000000D03*
X133719365Y-117000000D03*
X132719365Y-119000000D03*
X131719365Y-117000000D03*
X130719365Y-119000000D03*
X129719365Y-117000000D03*
X128719365Y-119000000D03*
X127719365Y-117000000D03*
X126719365Y-119000000D03*
X125719365Y-117000000D03*
X124719365Y-119000000D03*
X123719365Y-117000000D03*
X122719365Y-119000000D03*
X121719365Y-117000000D03*
X120719365Y-119000000D03*
X119719365Y-117000000D03*
X118719365Y-119000000D03*
X117719365Y-117000000D03*
X116719365Y-119000000D03*
X113719365Y-117000000D03*
X112719365Y-119000000D03*
X111719365Y-117000000D03*
X110719365Y-119000000D03*
X109719365Y-117000000D03*
X108719365Y-119000000D03*
X107719365Y-117000000D03*
X106719365Y-119000000D03*
X105719365Y-117000000D03*
X104719365Y-119000000D03*
X103719365Y-117000000D03*
X186719365Y-112500000D03*
X185719365Y-114500000D03*
X184719365Y-112500000D03*
X183719365Y-114500000D03*
X182719365Y-112500000D03*
X181719365Y-114500000D03*
X180719365Y-112500000D03*
X179719365Y-114500000D03*
X178719365Y-112500000D03*
X177719365Y-114500000D03*
X176719365Y-112500000D03*
X175719365Y-114500000D03*
X174719365Y-112500000D03*
X173719365Y-114500000D03*
X172719365Y-112500000D03*
X171719365Y-114500000D03*
X170719365Y-112500000D03*
X169719365Y-114500000D03*
X168719365Y-112500000D03*
X167719365Y-114500000D03*
X166719365Y-112500000D03*
X165719365Y-114500000D03*
X164719365Y-112500000D03*
X163719365Y-114500000D03*
X162719365Y-112500000D03*
X161719365Y-114500000D03*
X160719365Y-112500000D03*
X159719365Y-114500000D03*
X158719365Y-112500000D03*
X157719365Y-114500000D03*
X156719365Y-112500000D03*
X155719365Y-114500000D03*
X154719365Y-112500000D03*
X153719365Y-114500000D03*
X152719365Y-112500000D03*
X151719365Y-114500000D03*
X150719365Y-112500000D03*
X149719365Y-114500000D03*
X148719365Y-112500000D03*
X147719365Y-114500000D03*
X146719365Y-112500000D03*
X145719365Y-114500000D03*
X144719365Y-112500000D03*
X143719365Y-114500000D03*
X142719365Y-112500000D03*
X141719365Y-114500000D03*
X140719365Y-112500000D03*
X139719365Y-114500000D03*
X138719365Y-112500000D03*
X137719365Y-114500000D03*
X136719365Y-112500000D03*
X135719365Y-114500000D03*
X134719365Y-112500000D03*
X133719365Y-114500000D03*
X132719365Y-112500000D03*
X131719365Y-114500000D03*
X130719365Y-112500000D03*
X129719365Y-114500000D03*
X128719365Y-112500000D03*
X127719365Y-114500000D03*
X126719365Y-112500000D03*
X125719365Y-114500000D03*
X124719365Y-112500000D03*
X123719365Y-114500000D03*
X122719365Y-112500000D03*
X121719365Y-114500000D03*
X120719365Y-112500000D03*
X119719365Y-114500000D03*
X118719365Y-112500000D03*
X117719365Y-114500000D03*
X116719365Y-112500000D03*
X113719365Y-114500000D03*
X112719365Y-112500000D03*
X111719365Y-114500000D03*
X110719365Y-112500000D03*
X109719365Y-114500000D03*
X108719365Y-112500000D03*
X107719365Y-114500000D03*
X106719365Y-112500000D03*
X105719365Y-114500000D03*
X104719365Y-112500000D03*
D18*
X103719365Y-114500000D03*
D19*
X188519365Y-115750000D03*
X115369365Y-115750000D03*
D20*
X190781865Y-110400000D03*
X190781865Y-98600000D03*
D21*
X187406865Y-108250000D03*
X187406865Y-107750000D03*
X187406865Y-107250000D03*
X187406865Y-106750000D03*
X187406865Y-106250000D03*
X187406865Y-105750000D03*
X187406865Y-105250000D03*
X187406865Y-104750000D03*
X187406865Y-104250000D03*
X187406865Y-103750000D03*
X187406865Y-103250000D03*
X187406865Y-102750000D03*
X187406865Y-102250000D03*
X187406865Y-101750000D03*
X187406865Y-101250000D03*
X187406865Y-100750000D03*
D22*
X187462500Y-91250000D03*
X184537500Y-91250000D03*
D23*
X190519365Y-91437500D03*
X192419365Y-91437500D03*
X191469365Y-89562500D03*
D22*
X187000000Y-95500000D03*
X184075000Y-95500000D03*
%LPD*%
M02*
