%TF.GenerationSoftware,KiCad,Pcbnew,7.0.10*%
%TF.CreationDate,2024-01-15T21:07:05-07:00*%
%TF.ProjectId,RPI 5 PCIE,52504920-3520-4504-9349-452e6b696361,rev?*%
%TF.SameCoordinates,Original*%
%TF.FileFunction,Drillmap*%
%TF.FilePolarity,Positive*%
%FSLAX45Y45*%
G04 Gerber Fmt 4.5, Leading zero omitted, Abs format (unit mm)*
G04 Created by KiCad (PCBNEW 7.0.10) date 2024-01-15 21:07:05*
%MOMM*%
%LPD*%
G01*
G04 APERTURE LIST*
%ADD10C,0.100000*%
%ADD11C,0.200000*%
%ADD12C,0.235000*%
%ADD13C,0.300000*%
G04 APERTURE END LIST*
D10*
X9996937Y-8500000D02*
X19996937Y-8500000D01*
X19996937Y-12500000D01*
X9996937Y-12500000D01*
X9996937Y-8500000D01*
D11*
D12*
X11419436Y-11457500D02*
X11654436Y-11692500D01*
X11654436Y-11457500D02*
X11419436Y-11692500D01*
X18734437Y-11457500D02*
X18969437Y-11692500D01*
X18969437Y-11457500D02*
X18734437Y-11692500D01*
D13*
X10620000Y-9316000D02*
G75*
G03*
X10320000Y-9316000I-150000J0D01*
G01*
X10320000Y-9316000D02*
G75*
G03*
X10620000Y-9316000I150000J0D01*
G01*
X16180000Y-9316000D02*
G75*
G03*
X15880000Y-9316000I-150000J0D01*
G01*
X15880000Y-9316000D02*
G75*
G03*
X16180000Y-9316000I150000J0D01*
G01*
D11*
X10252713Y-12816484D02*
X10252713Y-12616484D01*
X10252713Y-12616484D02*
X10300332Y-12616484D01*
X10300332Y-12616484D02*
X10328904Y-12626008D01*
X10328904Y-12626008D02*
X10347951Y-12645055D01*
X10347951Y-12645055D02*
X10357475Y-12664103D01*
X10357475Y-12664103D02*
X10366999Y-12702198D01*
X10366999Y-12702198D02*
X10366999Y-12730769D01*
X10366999Y-12730769D02*
X10357475Y-12768865D01*
X10357475Y-12768865D02*
X10347951Y-12787912D01*
X10347951Y-12787912D02*
X10328904Y-12806960D01*
X10328904Y-12806960D02*
X10300332Y-12816484D01*
X10300332Y-12816484D02*
X10252713Y-12816484D01*
X10452713Y-12816484D02*
X10452713Y-12683150D01*
X10452713Y-12721246D02*
X10462237Y-12702198D01*
X10462237Y-12702198D02*
X10471761Y-12692674D01*
X10471761Y-12692674D02*
X10490809Y-12683150D01*
X10490809Y-12683150D02*
X10509856Y-12683150D01*
X10576523Y-12816484D02*
X10576523Y-12683150D01*
X10576523Y-12616484D02*
X10566999Y-12626008D01*
X10566999Y-12626008D02*
X10576523Y-12635531D01*
X10576523Y-12635531D02*
X10586047Y-12626008D01*
X10586047Y-12626008D02*
X10576523Y-12616484D01*
X10576523Y-12616484D02*
X10576523Y-12635531D01*
X10700332Y-12816484D02*
X10681285Y-12806960D01*
X10681285Y-12806960D02*
X10671761Y-12787912D01*
X10671761Y-12787912D02*
X10671761Y-12616484D01*
X10805094Y-12816484D02*
X10786047Y-12806960D01*
X10786047Y-12806960D02*
X10776523Y-12787912D01*
X10776523Y-12787912D02*
X10776523Y-12616484D01*
X11033666Y-12816484D02*
X11033666Y-12616484D01*
X11033666Y-12616484D02*
X11100332Y-12759341D01*
X11100332Y-12759341D02*
X11166999Y-12616484D01*
X11166999Y-12616484D02*
X11166999Y-12816484D01*
X11347951Y-12816484D02*
X11347951Y-12711722D01*
X11347951Y-12711722D02*
X11338428Y-12692674D01*
X11338428Y-12692674D02*
X11319380Y-12683150D01*
X11319380Y-12683150D02*
X11281285Y-12683150D01*
X11281285Y-12683150D02*
X11262237Y-12692674D01*
X11347951Y-12806960D02*
X11328904Y-12816484D01*
X11328904Y-12816484D02*
X11281285Y-12816484D01*
X11281285Y-12816484D02*
X11262237Y-12806960D01*
X11262237Y-12806960D02*
X11252713Y-12787912D01*
X11252713Y-12787912D02*
X11252713Y-12768865D01*
X11252713Y-12768865D02*
X11262237Y-12749817D01*
X11262237Y-12749817D02*
X11281285Y-12740293D01*
X11281285Y-12740293D02*
X11328904Y-12740293D01*
X11328904Y-12740293D02*
X11347951Y-12730769D01*
X11443189Y-12683150D02*
X11443189Y-12883150D01*
X11443189Y-12692674D02*
X11462237Y-12683150D01*
X11462237Y-12683150D02*
X11500332Y-12683150D01*
X11500332Y-12683150D02*
X11519380Y-12692674D01*
X11519380Y-12692674D02*
X11528904Y-12702198D01*
X11528904Y-12702198D02*
X11538428Y-12721246D01*
X11538428Y-12721246D02*
X11538428Y-12778388D01*
X11538428Y-12778388D02*
X11528904Y-12797436D01*
X11528904Y-12797436D02*
X11519380Y-12806960D01*
X11519380Y-12806960D02*
X11500332Y-12816484D01*
X11500332Y-12816484D02*
X11462237Y-12816484D01*
X11462237Y-12816484D02*
X11443189Y-12806960D01*
X11624142Y-12797436D02*
X11633666Y-12806960D01*
X11633666Y-12806960D02*
X11624142Y-12816484D01*
X11624142Y-12816484D02*
X11614618Y-12806960D01*
X11614618Y-12806960D02*
X11624142Y-12797436D01*
X11624142Y-12797436D02*
X11624142Y-12816484D01*
X11624142Y-12692674D02*
X11633666Y-12702198D01*
X11633666Y-12702198D02*
X11624142Y-12711722D01*
X11624142Y-12711722D02*
X11614618Y-12702198D01*
X11614618Y-12702198D02*
X11624142Y-12692674D01*
X11624142Y-12692674D02*
X11624142Y-12711722D01*
X9791937Y-13045000D02*
X9991937Y-13245000D01*
X9991937Y-13045000D02*
X9791937Y-13245000D01*
X10243190Y-13055531D02*
X10252713Y-13046008D01*
X10252713Y-13046008D02*
X10271761Y-13036484D01*
X10271761Y-13036484D02*
X10319380Y-13036484D01*
X10319380Y-13036484D02*
X10338428Y-13046008D01*
X10338428Y-13046008D02*
X10347951Y-13055531D01*
X10347951Y-13055531D02*
X10357475Y-13074579D01*
X10357475Y-13074579D02*
X10357475Y-13093627D01*
X10357475Y-13093627D02*
X10347951Y-13122198D01*
X10347951Y-13122198D02*
X10233666Y-13236484D01*
X10233666Y-13236484D02*
X10357475Y-13236484D01*
X10443190Y-13217436D02*
X10452713Y-13226960D01*
X10452713Y-13226960D02*
X10443190Y-13236484D01*
X10443190Y-13236484D02*
X10433666Y-13226960D01*
X10433666Y-13226960D02*
X10443190Y-13217436D01*
X10443190Y-13217436D02*
X10443190Y-13236484D01*
X10519380Y-13036484D02*
X10643190Y-13036484D01*
X10643190Y-13036484D02*
X10576523Y-13112674D01*
X10576523Y-13112674D02*
X10605094Y-13112674D01*
X10605094Y-13112674D02*
X10624142Y-13122198D01*
X10624142Y-13122198D02*
X10633666Y-13131722D01*
X10633666Y-13131722D02*
X10643190Y-13150769D01*
X10643190Y-13150769D02*
X10643190Y-13198388D01*
X10643190Y-13198388D02*
X10633666Y-13217436D01*
X10633666Y-13217436D02*
X10624142Y-13226960D01*
X10624142Y-13226960D02*
X10605094Y-13236484D01*
X10605094Y-13236484D02*
X10547951Y-13236484D01*
X10547951Y-13236484D02*
X10528904Y-13226960D01*
X10528904Y-13226960D02*
X10519380Y-13217436D01*
X10824142Y-13036484D02*
X10728904Y-13036484D01*
X10728904Y-13036484D02*
X10719380Y-13131722D01*
X10719380Y-13131722D02*
X10728904Y-13122198D01*
X10728904Y-13122198D02*
X10747951Y-13112674D01*
X10747951Y-13112674D02*
X10795571Y-13112674D01*
X10795571Y-13112674D02*
X10814618Y-13122198D01*
X10814618Y-13122198D02*
X10824142Y-13131722D01*
X10824142Y-13131722D02*
X10833666Y-13150769D01*
X10833666Y-13150769D02*
X10833666Y-13198388D01*
X10833666Y-13198388D02*
X10824142Y-13217436D01*
X10824142Y-13217436D02*
X10814618Y-13226960D01*
X10814618Y-13226960D02*
X10795571Y-13236484D01*
X10795571Y-13236484D02*
X10747951Y-13236484D01*
X10747951Y-13236484D02*
X10728904Y-13226960D01*
X10728904Y-13226960D02*
X10719380Y-13217436D01*
X10957475Y-13036484D02*
X10976523Y-13036484D01*
X10976523Y-13036484D02*
X10995571Y-13046008D01*
X10995571Y-13046008D02*
X11005094Y-13055531D01*
X11005094Y-13055531D02*
X11014618Y-13074579D01*
X11014618Y-13074579D02*
X11024142Y-13112674D01*
X11024142Y-13112674D02*
X11024142Y-13160293D01*
X11024142Y-13160293D02*
X11014618Y-13198388D01*
X11014618Y-13198388D02*
X11005094Y-13217436D01*
X11005094Y-13217436D02*
X10995571Y-13226960D01*
X10995571Y-13226960D02*
X10976523Y-13236484D01*
X10976523Y-13236484D02*
X10957475Y-13236484D01*
X10957475Y-13236484D02*
X10938428Y-13226960D01*
X10938428Y-13226960D02*
X10928904Y-13217436D01*
X10928904Y-13217436D02*
X10919380Y-13198388D01*
X10919380Y-13198388D02*
X10909856Y-13160293D01*
X10909856Y-13160293D02*
X10909856Y-13112674D01*
X10909856Y-13112674D02*
X10919380Y-13074579D01*
X10919380Y-13074579D02*
X10928904Y-13055531D01*
X10928904Y-13055531D02*
X10938428Y-13046008D01*
X10938428Y-13046008D02*
X10957475Y-13036484D01*
X11109856Y-13236484D02*
X11109856Y-13103150D01*
X11109856Y-13122198D02*
X11119380Y-13112674D01*
X11119380Y-13112674D02*
X11138428Y-13103150D01*
X11138428Y-13103150D02*
X11166999Y-13103150D01*
X11166999Y-13103150D02*
X11186047Y-13112674D01*
X11186047Y-13112674D02*
X11195570Y-13131722D01*
X11195570Y-13131722D02*
X11195570Y-13236484D01*
X11195570Y-13131722D02*
X11205094Y-13112674D01*
X11205094Y-13112674D02*
X11224142Y-13103150D01*
X11224142Y-13103150D02*
X11252713Y-13103150D01*
X11252713Y-13103150D02*
X11271761Y-13112674D01*
X11271761Y-13112674D02*
X11281285Y-13131722D01*
X11281285Y-13131722D02*
X11281285Y-13236484D01*
X11376523Y-13236484D02*
X11376523Y-13103150D01*
X11376523Y-13122198D02*
X11386047Y-13112674D01*
X11386047Y-13112674D02*
X11405094Y-13103150D01*
X11405094Y-13103150D02*
X11433666Y-13103150D01*
X11433666Y-13103150D02*
X11452713Y-13112674D01*
X11452713Y-13112674D02*
X11462237Y-13131722D01*
X11462237Y-13131722D02*
X11462237Y-13236484D01*
X11462237Y-13131722D02*
X11471761Y-13112674D01*
X11471761Y-13112674D02*
X11490809Y-13103150D01*
X11490809Y-13103150D02*
X11519380Y-13103150D01*
X11519380Y-13103150D02*
X11538428Y-13112674D01*
X11538428Y-13112674D02*
X11547951Y-13131722D01*
X11547951Y-13131722D02*
X11547951Y-13236484D01*
X11938428Y-13026960D02*
X11766999Y-13284103D01*
X12195571Y-13036484D02*
X12214618Y-13036484D01*
X12214618Y-13036484D02*
X12233666Y-13046008D01*
X12233666Y-13046008D02*
X12243190Y-13055531D01*
X12243190Y-13055531D02*
X12252713Y-13074579D01*
X12252713Y-13074579D02*
X12262237Y-13112674D01*
X12262237Y-13112674D02*
X12262237Y-13160293D01*
X12262237Y-13160293D02*
X12252713Y-13198388D01*
X12252713Y-13198388D02*
X12243190Y-13217436D01*
X12243190Y-13217436D02*
X12233666Y-13226960D01*
X12233666Y-13226960D02*
X12214618Y-13236484D01*
X12214618Y-13236484D02*
X12195571Y-13236484D01*
X12195571Y-13236484D02*
X12176523Y-13226960D01*
X12176523Y-13226960D02*
X12166999Y-13217436D01*
X12166999Y-13217436D02*
X12157475Y-13198388D01*
X12157475Y-13198388D02*
X12147952Y-13160293D01*
X12147952Y-13160293D02*
X12147952Y-13112674D01*
X12147952Y-13112674D02*
X12157475Y-13074579D01*
X12157475Y-13074579D02*
X12166999Y-13055531D01*
X12166999Y-13055531D02*
X12176523Y-13046008D01*
X12176523Y-13046008D02*
X12195571Y-13036484D01*
X12347952Y-13217436D02*
X12357475Y-13226960D01*
X12357475Y-13226960D02*
X12347952Y-13236484D01*
X12347952Y-13236484D02*
X12338428Y-13226960D01*
X12338428Y-13226960D02*
X12347952Y-13217436D01*
X12347952Y-13217436D02*
X12347952Y-13236484D01*
X12481285Y-13036484D02*
X12500333Y-13036484D01*
X12500333Y-13036484D02*
X12519380Y-13046008D01*
X12519380Y-13046008D02*
X12528904Y-13055531D01*
X12528904Y-13055531D02*
X12538428Y-13074579D01*
X12538428Y-13074579D02*
X12547952Y-13112674D01*
X12547952Y-13112674D02*
X12547952Y-13160293D01*
X12547952Y-13160293D02*
X12538428Y-13198388D01*
X12538428Y-13198388D02*
X12528904Y-13217436D01*
X12528904Y-13217436D02*
X12519380Y-13226960D01*
X12519380Y-13226960D02*
X12500333Y-13236484D01*
X12500333Y-13236484D02*
X12481285Y-13236484D01*
X12481285Y-13236484D02*
X12462237Y-13226960D01*
X12462237Y-13226960D02*
X12452713Y-13217436D01*
X12452713Y-13217436D02*
X12443190Y-13198388D01*
X12443190Y-13198388D02*
X12433666Y-13160293D01*
X12433666Y-13160293D02*
X12433666Y-13112674D01*
X12433666Y-13112674D02*
X12443190Y-13074579D01*
X12443190Y-13074579D02*
X12452713Y-13055531D01*
X12452713Y-13055531D02*
X12462237Y-13046008D01*
X12462237Y-13046008D02*
X12481285Y-13036484D01*
X12643190Y-13236484D02*
X12681285Y-13236484D01*
X12681285Y-13236484D02*
X12700333Y-13226960D01*
X12700333Y-13226960D02*
X12709856Y-13217436D01*
X12709856Y-13217436D02*
X12728904Y-13188865D01*
X12728904Y-13188865D02*
X12738428Y-13150769D01*
X12738428Y-13150769D02*
X12738428Y-13074579D01*
X12738428Y-13074579D02*
X12728904Y-13055531D01*
X12728904Y-13055531D02*
X12719380Y-13046008D01*
X12719380Y-13046008D02*
X12700333Y-13036484D01*
X12700333Y-13036484D02*
X12662237Y-13036484D01*
X12662237Y-13036484D02*
X12643190Y-13046008D01*
X12643190Y-13046008D02*
X12633666Y-13055531D01*
X12633666Y-13055531D02*
X12624142Y-13074579D01*
X12624142Y-13074579D02*
X12624142Y-13122198D01*
X12624142Y-13122198D02*
X12633666Y-13141246D01*
X12633666Y-13141246D02*
X12643190Y-13150769D01*
X12643190Y-13150769D02*
X12662237Y-13160293D01*
X12662237Y-13160293D02*
X12700333Y-13160293D01*
X12700333Y-13160293D02*
X12719380Y-13150769D01*
X12719380Y-13150769D02*
X12728904Y-13141246D01*
X12728904Y-13141246D02*
X12738428Y-13122198D01*
X12814618Y-13055531D02*
X12824142Y-13046008D01*
X12824142Y-13046008D02*
X12843190Y-13036484D01*
X12843190Y-13036484D02*
X12890809Y-13036484D01*
X12890809Y-13036484D02*
X12909856Y-13046008D01*
X12909856Y-13046008D02*
X12919380Y-13055531D01*
X12919380Y-13055531D02*
X12928904Y-13074579D01*
X12928904Y-13074579D02*
X12928904Y-13093627D01*
X12928904Y-13093627D02*
X12919380Y-13122198D01*
X12919380Y-13122198D02*
X12805094Y-13236484D01*
X12805094Y-13236484D02*
X12928904Y-13236484D01*
X13109856Y-13036484D02*
X13014618Y-13036484D01*
X13014618Y-13036484D02*
X13005094Y-13131722D01*
X13005094Y-13131722D02*
X13014618Y-13122198D01*
X13014618Y-13122198D02*
X13033666Y-13112674D01*
X13033666Y-13112674D02*
X13081285Y-13112674D01*
X13081285Y-13112674D02*
X13100333Y-13122198D01*
X13100333Y-13122198D02*
X13109856Y-13131722D01*
X13109856Y-13131722D02*
X13119380Y-13150769D01*
X13119380Y-13150769D02*
X13119380Y-13198388D01*
X13119380Y-13198388D02*
X13109856Y-13217436D01*
X13109856Y-13217436D02*
X13100333Y-13226960D01*
X13100333Y-13226960D02*
X13081285Y-13236484D01*
X13081285Y-13236484D02*
X13033666Y-13236484D01*
X13033666Y-13236484D02*
X13014618Y-13226960D01*
X13014618Y-13226960D02*
X13005094Y-13217436D01*
X13195571Y-13036484D02*
X13195571Y-13074579D01*
X13271761Y-13036484D02*
X13271761Y-13074579D01*
X13566999Y-13312674D02*
X13557475Y-13303150D01*
X13557475Y-13303150D02*
X13538428Y-13274579D01*
X13538428Y-13274579D02*
X13528904Y-13255531D01*
X13528904Y-13255531D02*
X13519380Y-13226960D01*
X13519380Y-13226960D02*
X13509856Y-13179341D01*
X13509856Y-13179341D02*
X13509856Y-13141246D01*
X13509856Y-13141246D02*
X13519380Y-13093627D01*
X13519380Y-13093627D02*
X13528904Y-13065055D01*
X13528904Y-13065055D02*
X13538428Y-13046008D01*
X13538428Y-13046008D02*
X13557475Y-13017436D01*
X13557475Y-13017436D02*
X13566999Y-13007912D01*
X13633666Y-13055531D02*
X13643190Y-13046008D01*
X13643190Y-13046008D02*
X13662237Y-13036484D01*
X13662237Y-13036484D02*
X13709856Y-13036484D01*
X13709856Y-13036484D02*
X13728904Y-13046008D01*
X13728904Y-13046008D02*
X13738428Y-13055531D01*
X13738428Y-13055531D02*
X13747952Y-13074579D01*
X13747952Y-13074579D02*
X13747952Y-13093627D01*
X13747952Y-13093627D02*
X13738428Y-13122198D01*
X13738428Y-13122198D02*
X13624142Y-13236484D01*
X13624142Y-13236484D02*
X13747952Y-13236484D01*
X13986047Y-13236484D02*
X13986047Y-13036484D01*
X14071761Y-13236484D02*
X14071761Y-13131722D01*
X14071761Y-13131722D02*
X14062237Y-13112674D01*
X14062237Y-13112674D02*
X14043190Y-13103150D01*
X14043190Y-13103150D02*
X14014618Y-13103150D01*
X14014618Y-13103150D02*
X13995571Y-13112674D01*
X13995571Y-13112674D02*
X13986047Y-13122198D01*
X14195571Y-13236484D02*
X14176523Y-13226960D01*
X14176523Y-13226960D02*
X14166999Y-13217436D01*
X14166999Y-13217436D02*
X14157476Y-13198388D01*
X14157476Y-13198388D02*
X14157476Y-13141246D01*
X14157476Y-13141246D02*
X14166999Y-13122198D01*
X14166999Y-13122198D02*
X14176523Y-13112674D01*
X14176523Y-13112674D02*
X14195571Y-13103150D01*
X14195571Y-13103150D02*
X14224142Y-13103150D01*
X14224142Y-13103150D02*
X14243190Y-13112674D01*
X14243190Y-13112674D02*
X14252714Y-13122198D01*
X14252714Y-13122198D02*
X14262237Y-13141246D01*
X14262237Y-13141246D02*
X14262237Y-13198388D01*
X14262237Y-13198388D02*
X14252714Y-13217436D01*
X14252714Y-13217436D02*
X14243190Y-13226960D01*
X14243190Y-13226960D02*
X14224142Y-13236484D01*
X14224142Y-13236484D02*
X14195571Y-13236484D01*
X14376523Y-13236484D02*
X14357476Y-13226960D01*
X14357476Y-13226960D02*
X14347952Y-13207912D01*
X14347952Y-13207912D02*
X14347952Y-13036484D01*
X14528904Y-13226960D02*
X14509857Y-13236484D01*
X14509857Y-13236484D02*
X14471761Y-13236484D01*
X14471761Y-13236484D02*
X14452714Y-13226960D01*
X14452714Y-13226960D02*
X14443190Y-13207912D01*
X14443190Y-13207912D02*
X14443190Y-13131722D01*
X14443190Y-13131722D02*
X14452714Y-13112674D01*
X14452714Y-13112674D02*
X14471761Y-13103150D01*
X14471761Y-13103150D02*
X14509857Y-13103150D01*
X14509857Y-13103150D02*
X14528904Y-13112674D01*
X14528904Y-13112674D02*
X14538428Y-13131722D01*
X14538428Y-13131722D02*
X14538428Y-13150769D01*
X14538428Y-13150769D02*
X14443190Y-13169817D01*
X14614618Y-13226960D02*
X14633666Y-13236484D01*
X14633666Y-13236484D02*
X14671761Y-13236484D01*
X14671761Y-13236484D02*
X14690809Y-13226960D01*
X14690809Y-13226960D02*
X14700333Y-13207912D01*
X14700333Y-13207912D02*
X14700333Y-13198388D01*
X14700333Y-13198388D02*
X14690809Y-13179341D01*
X14690809Y-13179341D02*
X14671761Y-13169817D01*
X14671761Y-13169817D02*
X14643190Y-13169817D01*
X14643190Y-13169817D02*
X14624142Y-13160293D01*
X14624142Y-13160293D02*
X14614618Y-13141246D01*
X14614618Y-13141246D02*
X14614618Y-13131722D01*
X14614618Y-13131722D02*
X14624142Y-13112674D01*
X14624142Y-13112674D02*
X14643190Y-13103150D01*
X14643190Y-13103150D02*
X14671761Y-13103150D01*
X14671761Y-13103150D02*
X14690809Y-13112674D01*
X14766999Y-13312674D02*
X14776523Y-13303150D01*
X14776523Y-13303150D02*
X14795571Y-13274579D01*
X14795571Y-13274579D02*
X14805095Y-13255531D01*
X14805095Y-13255531D02*
X14814618Y-13226960D01*
X14814618Y-13226960D02*
X14824142Y-13179341D01*
X14824142Y-13179341D02*
X14824142Y-13141246D01*
X14824142Y-13141246D02*
X14814618Y-13093627D01*
X14814618Y-13093627D02*
X14805095Y-13065055D01*
X14805095Y-13065055D02*
X14795571Y-13046008D01*
X14795571Y-13046008D02*
X14776523Y-13017436D01*
X14776523Y-13017436D02*
X14766999Y-13007912D01*
X15128904Y-13312674D02*
X15119380Y-13303150D01*
X15119380Y-13303150D02*
X15100333Y-13274579D01*
X15100333Y-13274579D02*
X15090809Y-13255531D01*
X15090809Y-13255531D02*
X15081285Y-13226960D01*
X15081285Y-13226960D02*
X15071761Y-13179341D01*
X15071761Y-13179341D02*
X15071761Y-13141246D01*
X15071761Y-13141246D02*
X15081285Y-13093627D01*
X15081285Y-13093627D02*
X15090809Y-13065055D01*
X15090809Y-13065055D02*
X15100333Y-13046008D01*
X15100333Y-13046008D02*
X15119380Y-13017436D01*
X15119380Y-13017436D02*
X15128904Y-13007912D01*
X15205095Y-13103150D02*
X15205095Y-13236484D01*
X15205095Y-13122198D02*
X15214618Y-13112674D01*
X15214618Y-13112674D02*
X15233666Y-13103150D01*
X15233666Y-13103150D02*
X15262238Y-13103150D01*
X15262238Y-13103150D02*
X15281285Y-13112674D01*
X15281285Y-13112674D02*
X15290809Y-13131722D01*
X15290809Y-13131722D02*
X15290809Y-13236484D01*
X15414618Y-13236484D02*
X15395571Y-13226960D01*
X15395571Y-13226960D02*
X15386047Y-13217436D01*
X15386047Y-13217436D02*
X15376523Y-13198388D01*
X15376523Y-13198388D02*
X15376523Y-13141246D01*
X15376523Y-13141246D02*
X15386047Y-13122198D01*
X15386047Y-13122198D02*
X15395571Y-13112674D01*
X15395571Y-13112674D02*
X15414618Y-13103150D01*
X15414618Y-13103150D02*
X15443190Y-13103150D01*
X15443190Y-13103150D02*
X15462238Y-13112674D01*
X15462238Y-13112674D02*
X15471761Y-13122198D01*
X15471761Y-13122198D02*
X15481285Y-13141246D01*
X15481285Y-13141246D02*
X15481285Y-13198388D01*
X15481285Y-13198388D02*
X15471761Y-13217436D01*
X15471761Y-13217436D02*
X15462238Y-13226960D01*
X15462238Y-13226960D02*
X15443190Y-13236484D01*
X15443190Y-13236484D02*
X15414618Y-13236484D01*
X15538428Y-13103150D02*
X15614618Y-13103150D01*
X15566999Y-13036484D02*
X15566999Y-13207912D01*
X15566999Y-13207912D02*
X15576523Y-13226960D01*
X15576523Y-13226960D02*
X15595571Y-13236484D01*
X15595571Y-13236484D02*
X15614618Y-13236484D01*
X15833666Y-13103150D02*
X15833666Y-13303150D01*
X15833666Y-13112674D02*
X15852714Y-13103150D01*
X15852714Y-13103150D02*
X15890809Y-13103150D01*
X15890809Y-13103150D02*
X15909857Y-13112674D01*
X15909857Y-13112674D02*
X15919380Y-13122198D01*
X15919380Y-13122198D02*
X15928904Y-13141246D01*
X15928904Y-13141246D02*
X15928904Y-13198388D01*
X15928904Y-13198388D02*
X15919380Y-13217436D01*
X15919380Y-13217436D02*
X15909857Y-13226960D01*
X15909857Y-13226960D02*
X15890809Y-13236484D01*
X15890809Y-13236484D02*
X15852714Y-13236484D01*
X15852714Y-13236484D02*
X15833666Y-13226960D01*
X16043190Y-13236484D02*
X16024142Y-13226960D01*
X16024142Y-13226960D02*
X16014619Y-13207912D01*
X16014619Y-13207912D02*
X16014619Y-13036484D01*
X16205095Y-13236484D02*
X16205095Y-13131722D01*
X16205095Y-13131722D02*
X16195571Y-13112674D01*
X16195571Y-13112674D02*
X16176523Y-13103150D01*
X16176523Y-13103150D02*
X16138428Y-13103150D01*
X16138428Y-13103150D02*
X16119380Y-13112674D01*
X16205095Y-13226960D02*
X16186047Y-13236484D01*
X16186047Y-13236484D02*
X16138428Y-13236484D01*
X16138428Y-13236484D02*
X16119380Y-13226960D01*
X16119380Y-13226960D02*
X16109857Y-13207912D01*
X16109857Y-13207912D02*
X16109857Y-13188865D01*
X16109857Y-13188865D02*
X16119380Y-13169817D01*
X16119380Y-13169817D02*
X16138428Y-13160293D01*
X16138428Y-13160293D02*
X16186047Y-13160293D01*
X16186047Y-13160293D02*
X16205095Y-13150769D01*
X16271761Y-13103150D02*
X16347952Y-13103150D01*
X16300333Y-13036484D02*
X16300333Y-13207912D01*
X16300333Y-13207912D02*
X16309857Y-13226960D01*
X16309857Y-13226960D02*
X16328904Y-13236484D01*
X16328904Y-13236484D02*
X16347952Y-13236484D01*
X16490809Y-13226960D02*
X16471761Y-13236484D01*
X16471761Y-13236484D02*
X16433666Y-13236484D01*
X16433666Y-13236484D02*
X16414619Y-13226960D01*
X16414619Y-13226960D02*
X16405095Y-13207912D01*
X16405095Y-13207912D02*
X16405095Y-13131722D01*
X16405095Y-13131722D02*
X16414619Y-13112674D01*
X16414619Y-13112674D02*
X16433666Y-13103150D01*
X16433666Y-13103150D02*
X16471761Y-13103150D01*
X16471761Y-13103150D02*
X16490809Y-13112674D01*
X16490809Y-13112674D02*
X16500333Y-13131722D01*
X16500333Y-13131722D02*
X16500333Y-13150769D01*
X16500333Y-13150769D02*
X16405095Y-13169817D01*
X16671761Y-13236484D02*
X16671761Y-13036484D01*
X16671761Y-13226960D02*
X16652714Y-13236484D01*
X16652714Y-13236484D02*
X16614619Y-13236484D01*
X16614619Y-13236484D02*
X16595571Y-13226960D01*
X16595571Y-13226960D02*
X16586047Y-13217436D01*
X16586047Y-13217436D02*
X16576523Y-13198388D01*
X16576523Y-13198388D02*
X16576523Y-13141246D01*
X16576523Y-13141246D02*
X16586047Y-13122198D01*
X16586047Y-13122198D02*
X16595571Y-13112674D01*
X16595571Y-13112674D02*
X16614619Y-13103150D01*
X16614619Y-13103150D02*
X16652714Y-13103150D01*
X16652714Y-13103150D02*
X16671761Y-13112674D01*
X16747952Y-13312674D02*
X16757476Y-13303150D01*
X16757476Y-13303150D02*
X16776523Y-13274579D01*
X16776523Y-13274579D02*
X16786047Y-13255531D01*
X16786047Y-13255531D02*
X16795571Y-13226960D01*
X16795571Y-13226960D02*
X16805095Y-13179341D01*
X16805095Y-13179341D02*
X16805095Y-13141246D01*
X16805095Y-13141246D02*
X16795571Y-13093627D01*
X16795571Y-13093627D02*
X16786047Y-13065055D01*
X16786047Y-13065055D02*
X16776523Y-13046008D01*
X16776523Y-13046008D02*
X16757476Y-13017436D01*
X16757476Y-13017436D02*
X16747952Y-13007912D01*
X9991937Y-13465000D02*
G75*
G03*
X9791937Y-13465000I-100000J0D01*
G01*
X9791937Y-13465000D02*
G75*
G03*
X9991937Y-13465000I100000J0D01*
G01*
X10233666Y-13356484D02*
X10357475Y-13356484D01*
X10357475Y-13356484D02*
X10290809Y-13432674D01*
X10290809Y-13432674D02*
X10319380Y-13432674D01*
X10319380Y-13432674D02*
X10338428Y-13442198D01*
X10338428Y-13442198D02*
X10347951Y-13451722D01*
X10347951Y-13451722D02*
X10357475Y-13470769D01*
X10357475Y-13470769D02*
X10357475Y-13518388D01*
X10357475Y-13518388D02*
X10347951Y-13537436D01*
X10347951Y-13537436D02*
X10338428Y-13546960D01*
X10338428Y-13546960D02*
X10319380Y-13556484D01*
X10319380Y-13556484D02*
X10262237Y-13556484D01*
X10262237Y-13556484D02*
X10243190Y-13546960D01*
X10243190Y-13546960D02*
X10233666Y-13537436D01*
X10443190Y-13537436D02*
X10452713Y-13546960D01*
X10452713Y-13546960D02*
X10443190Y-13556484D01*
X10443190Y-13556484D02*
X10433666Y-13546960D01*
X10433666Y-13546960D02*
X10443190Y-13537436D01*
X10443190Y-13537436D02*
X10443190Y-13556484D01*
X10576523Y-13356484D02*
X10595571Y-13356484D01*
X10595571Y-13356484D02*
X10614618Y-13366008D01*
X10614618Y-13366008D02*
X10624142Y-13375531D01*
X10624142Y-13375531D02*
X10633666Y-13394579D01*
X10633666Y-13394579D02*
X10643190Y-13432674D01*
X10643190Y-13432674D02*
X10643190Y-13480293D01*
X10643190Y-13480293D02*
X10633666Y-13518388D01*
X10633666Y-13518388D02*
X10624142Y-13537436D01*
X10624142Y-13537436D02*
X10614618Y-13546960D01*
X10614618Y-13546960D02*
X10595571Y-13556484D01*
X10595571Y-13556484D02*
X10576523Y-13556484D01*
X10576523Y-13556484D02*
X10557475Y-13546960D01*
X10557475Y-13546960D02*
X10547951Y-13537436D01*
X10547951Y-13537436D02*
X10538428Y-13518388D01*
X10538428Y-13518388D02*
X10528904Y-13480293D01*
X10528904Y-13480293D02*
X10528904Y-13432674D01*
X10528904Y-13432674D02*
X10538428Y-13394579D01*
X10538428Y-13394579D02*
X10547951Y-13375531D01*
X10547951Y-13375531D02*
X10557475Y-13366008D01*
X10557475Y-13366008D02*
X10576523Y-13356484D01*
X10766999Y-13356484D02*
X10786047Y-13356484D01*
X10786047Y-13356484D02*
X10805094Y-13366008D01*
X10805094Y-13366008D02*
X10814618Y-13375531D01*
X10814618Y-13375531D02*
X10824142Y-13394579D01*
X10824142Y-13394579D02*
X10833666Y-13432674D01*
X10833666Y-13432674D02*
X10833666Y-13480293D01*
X10833666Y-13480293D02*
X10824142Y-13518388D01*
X10824142Y-13518388D02*
X10814618Y-13537436D01*
X10814618Y-13537436D02*
X10805094Y-13546960D01*
X10805094Y-13546960D02*
X10786047Y-13556484D01*
X10786047Y-13556484D02*
X10766999Y-13556484D01*
X10766999Y-13556484D02*
X10747951Y-13546960D01*
X10747951Y-13546960D02*
X10738428Y-13537436D01*
X10738428Y-13537436D02*
X10728904Y-13518388D01*
X10728904Y-13518388D02*
X10719380Y-13480293D01*
X10719380Y-13480293D02*
X10719380Y-13432674D01*
X10719380Y-13432674D02*
X10728904Y-13394579D01*
X10728904Y-13394579D02*
X10738428Y-13375531D01*
X10738428Y-13375531D02*
X10747951Y-13366008D01*
X10747951Y-13366008D02*
X10766999Y-13356484D01*
X10957475Y-13356484D02*
X10976523Y-13356484D01*
X10976523Y-13356484D02*
X10995571Y-13366008D01*
X10995571Y-13366008D02*
X11005094Y-13375531D01*
X11005094Y-13375531D02*
X11014618Y-13394579D01*
X11014618Y-13394579D02*
X11024142Y-13432674D01*
X11024142Y-13432674D02*
X11024142Y-13480293D01*
X11024142Y-13480293D02*
X11014618Y-13518388D01*
X11014618Y-13518388D02*
X11005094Y-13537436D01*
X11005094Y-13537436D02*
X10995571Y-13546960D01*
X10995571Y-13546960D02*
X10976523Y-13556484D01*
X10976523Y-13556484D02*
X10957475Y-13556484D01*
X10957475Y-13556484D02*
X10938428Y-13546960D01*
X10938428Y-13546960D02*
X10928904Y-13537436D01*
X10928904Y-13537436D02*
X10919380Y-13518388D01*
X10919380Y-13518388D02*
X10909856Y-13480293D01*
X10909856Y-13480293D02*
X10909856Y-13432674D01*
X10909856Y-13432674D02*
X10919380Y-13394579D01*
X10919380Y-13394579D02*
X10928904Y-13375531D01*
X10928904Y-13375531D02*
X10938428Y-13366008D01*
X10938428Y-13366008D02*
X10957475Y-13356484D01*
X11109856Y-13556484D02*
X11109856Y-13423150D01*
X11109856Y-13442198D02*
X11119380Y-13432674D01*
X11119380Y-13432674D02*
X11138428Y-13423150D01*
X11138428Y-13423150D02*
X11166999Y-13423150D01*
X11166999Y-13423150D02*
X11186047Y-13432674D01*
X11186047Y-13432674D02*
X11195570Y-13451722D01*
X11195570Y-13451722D02*
X11195570Y-13556484D01*
X11195570Y-13451722D02*
X11205094Y-13432674D01*
X11205094Y-13432674D02*
X11224142Y-13423150D01*
X11224142Y-13423150D02*
X11252713Y-13423150D01*
X11252713Y-13423150D02*
X11271761Y-13432674D01*
X11271761Y-13432674D02*
X11281285Y-13451722D01*
X11281285Y-13451722D02*
X11281285Y-13556484D01*
X11376523Y-13556484D02*
X11376523Y-13423150D01*
X11376523Y-13442198D02*
X11386047Y-13432674D01*
X11386047Y-13432674D02*
X11405094Y-13423150D01*
X11405094Y-13423150D02*
X11433666Y-13423150D01*
X11433666Y-13423150D02*
X11452713Y-13432674D01*
X11452713Y-13432674D02*
X11462237Y-13451722D01*
X11462237Y-13451722D02*
X11462237Y-13556484D01*
X11462237Y-13451722D02*
X11471761Y-13432674D01*
X11471761Y-13432674D02*
X11490809Y-13423150D01*
X11490809Y-13423150D02*
X11519380Y-13423150D01*
X11519380Y-13423150D02*
X11538428Y-13432674D01*
X11538428Y-13432674D02*
X11547951Y-13451722D01*
X11547951Y-13451722D02*
X11547951Y-13556484D01*
X11938428Y-13346960D02*
X11766999Y-13604103D01*
X12195571Y-13356484D02*
X12214618Y-13356484D01*
X12214618Y-13356484D02*
X12233666Y-13366008D01*
X12233666Y-13366008D02*
X12243190Y-13375531D01*
X12243190Y-13375531D02*
X12252713Y-13394579D01*
X12252713Y-13394579D02*
X12262237Y-13432674D01*
X12262237Y-13432674D02*
X12262237Y-13480293D01*
X12262237Y-13480293D02*
X12252713Y-13518388D01*
X12252713Y-13518388D02*
X12243190Y-13537436D01*
X12243190Y-13537436D02*
X12233666Y-13546960D01*
X12233666Y-13546960D02*
X12214618Y-13556484D01*
X12214618Y-13556484D02*
X12195571Y-13556484D01*
X12195571Y-13556484D02*
X12176523Y-13546960D01*
X12176523Y-13546960D02*
X12166999Y-13537436D01*
X12166999Y-13537436D02*
X12157475Y-13518388D01*
X12157475Y-13518388D02*
X12147952Y-13480293D01*
X12147952Y-13480293D02*
X12147952Y-13432674D01*
X12147952Y-13432674D02*
X12157475Y-13394579D01*
X12157475Y-13394579D02*
X12166999Y-13375531D01*
X12166999Y-13375531D02*
X12176523Y-13366008D01*
X12176523Y-13366008D02*
X12195571Y-13356484D01*
X12347952Y-13537436D02*
X12357475Y-13546960D01*
X12357475Y-13546960D02*
X12347952Y-13556484D01*
X12347952Y-13556484D02*
X12338428Y-13546960D01*
X12338428Y-13546960D02*
X12347952Y-13537436D01*
X12347952Y-13537436D02*
X12347952Y-13556484D01*
X12547952Y-13556484D02*
X12433666Y-13556484D01*
X12490809Y-13556484D02*
X12490809Y-13356484D01*
X12490809Y-13356484D02*
X12471761Y-13385055D01*
X12471761Y-13385055D02*
X12452713Y-13404103D01*
X12452713Y-13404103D02*
X12433666Y-13413627D01*
X12738428Y-13556484D02*
X12624142Y-13556484D01*
X12681285Y-13556484D02*
X12681285Y-13356484D01*
X12681285Y-13356484D02*
X12662237Y-13385055D01*
X12662237Y-13385055D02*
X12643190Y-13404103D01*
X12643190Y-13404103D02*
X12624142Y-13413627D01*
X12852713Y-13442198D02*
X12833666Y-13432674D01*
X12833666Y-13432674D02*
X12824142Y-13423150D01*
X12824142Y-13423150D02*
X12814618Y-13404103D01*
X12814618Y-13404103D02*
X12814618Y-13394579D01*
X12814618Y-13394579D02*
X12824142Y-13375531D01*
X12824142Y-13375531D02*
X12833666Y-13366008D01*
X12833666Y-13366008D02*
X12852713Y-13356484D01*
X12852713Y-13356484D02*
X12890809Y-13356484D01*
X12890809Y-13356484D02*
X12909856Y-13366008D01*
X12909856Y-13366008D02*
X12919380Y-13375531D01*
X12919380Y-13375531D02*
X12928904Y-13394579D01*
X12928904Y-13394579D02*
X12928904Y-13404103D01*
X12928904Y-13404103D02*
X12919380Y-13423150D01*
X12919380Y-13423150D02*
X12909856Y-13432674D01*
X12909856Y-13432674D02*
X12890809Y-13442198D01*
X12890809Y-13442198D02*
X12852713Y-13442198D01*
X12852713Y-13442198D02*
X12833666Y-13451722D01*
X12833666Y-13451722D02*
X12824142Y-13461246D01*
X12824142Y-13461246D02*
X12814618Y-13480293D01*
X12814618Y-13480293D02*
X12814618Y-13518388D01*
X12814618Y-13518388D02*
X12824142Y-13537436D01*
X12824142Y-13537436D02*
X12833666Y-13546960D01*
X12833666Y-13546960D02*
X12852713Y-13556484D01*
X12852713Y-13556484D02*
X12890809Y-13556484D01*
X12890809Y-13556484D02*
X12909856Y-13546960D01*
X12909856Y-13546960D02*
X12919380Y-13537436D01*
X12919380Y-13537436D02*
X12928904Y-13518388D01*
X12928904Y-13518388D02*
X12928904Y-13480293D01*
X12928904Y-13480293D02*
X12919380Y-13461246D01*
X12919380Y-13461246D02*
X12909856Y-13451722D01*
X12909856Y-13451722D02*
X12890809Y-13442198D01*
X13119380Y-13556484D02*
X13005094Y-13556484D01*
X13062237Y-13556484D02*
X13062237Y-13356484D01*
X13062237Y-13356484D02*
X13043190Y-13385055D01*
X13043190Y-13385055D02*
X13024142Y-13404103D01*
X13024142Y-13404103D02*
X13005094Y-13413627D01*
X13195571Y-13356484D02*
X13195571Y-13394579D01*
X13271761Y-13356484D02*
X13271761Y-13394579D01*
X13566999Y-13632674D02*
X13557475Y-13623150D01*
X13557475Y-13623150D02*
X13538428Y-13594579D01*
X13538428Y-13594579D02*
X13528904Y-13575531D01*
X13528904Y-13575531D02*
X13519380Y-13546960D01*
X13519380Y-13546960D02*
X13509856Y-13499341D01*
X13509856Y-13499341D02*
X13509856Y-13461246D01*
X13509856Y-13461246D02*
X13519380Y-13413627D01*
X13519380Y-13413627D02*
X13528904Y-13385055D01*
X13528904Y-13385055D02*
X13538428Y-13366008D01*
X13538428Y-13366008D02*
X13557475Y-13337436D01*
X13557475Y-13337436D02*
X13566999Y-13327912D01*
X13633666Y-13375531D02*
X13643190Y-13366008D01*
X13643190Y-13366008D02*
X13662237Y-13356484D01*
X13662237Y-13356484D02*
X13709856Y-13356484D01*
X13709856Y-13356484D02*
X13728904Y-13366008D01*
X13728904Y-13366008D02*
X13738428Y-13375531D01*
X13738428Y-13375531D02*
X13747952Y-13394579D01*
X13747952Y-13394579D02*
X13747952Y-13413627D01*
X13747952Y-13413627D02*
X13738428Y-13442198D01*
X13738428Y-13442198D02*
X13624142Y-13556484D01*
X13624142Y-13556484D02*
X13747952Y-13556484D01*
X13986047Y-13556484D02*
X13986047Y-13356484D01*
X14071761Y-13556484D02*
X14071761Y-13451722D01*
X14071761Y-13451722D02*
X14062237Y-13432674D01*
X14062237Y-13432674D02*
X14043190Y-13423150D01*
X14043190Y-13423150D02*
X14014618Y-13423150D01*
X14014618Y-13423150D02*
X13995571Y-13432674D01*
X13995571Y-13432674D02*
X13986047Y-13442198D01*
X14195571Y-13556484D02*
X14176523Y-13546960D01*
X14176523Y-13546960D02*
X14166999Y-13537436D01*
X14166999Y-13537436D02*
X14157476Y-13518388D01*
X14157476Y-13518388D02*
X14157476Y-13461246D01*
X14157476Y-13461246D02*
X14166999Y-13442198D01*
X14166999Y-13442198D02*
X14176523Y-13432674D01*
X14176523Y-13432674D02*
X14195571Y-13423150D01*
X14195571Y-13423150D02*
X14224142Y-13423150D01*
X14224142Y-13423150D02*
X14243190Y-13432674D01*
X14243190Y-13432674D02*
X14252714Y-13442198D01*
X14252714Y-13442198D02*
X14262237Y-13461246D01*
X14262237Y-13461246D02*
X14262237Y-13518388D01*
X14262237Y-13518388D02*
X14252714Y-13537436D01*
X14252714Y-13537436D02*
X14243190Y-13546960D01*
X14243190Y-13546960D02*
X14224142Y-13556484D01*
X14224142Y-13556484D02*
X14195571Y-13556484D01*
X14376523Y-13556484D02*
X14357476Y-13546960D01*
X14357476Y-13546960D02*
X14347952Y-13527912D01*
X14347952Y-13527912D02*
X14347952Y-13356484D01*
X14528904Y-13546960D02*
X14509857Y-13556484D01*
X14509857Y-13556484D02*
X14471761Y-13556484D01*
X14471761Y-13556484D02*
X14452714Y-13546960D01*
X14452714Y-13546960D02*
X14443190Y-13527912D01*
X14443190Y-13527912D02*
X14443190Y-13451722D01*
X14443190Y-13451722D02*
X14452714Y-13432674D01*
X14452714Y-13432674D02*
X14471761Y-13423150D01*
X14471761Y-13423150D02*
X14509857Y-13423150D01*
X14509857Y-13423150D02*
X14528904Y-13432674D01*
X14528904Y-13432674D02*
X14538428Y-13451722D01*
X14538428Y-13451722D02*
X14538428Y-13470769D01*
X14538428Y-13470769D02*
X14443190Y-13489817D01*
X14614618Y-13546960D02*
X14633666Y-13556484D01*
X14633666Y-13556484D02*
X14671761Y-13556484D01*
X14671761Y-13556484D02*
X14690809Y-13546960D01*
X14690809Y-13546960D02*
X14700333Y-13527912D01*
X14700333Y-13527912D02*
X14700333Y-13518388D01*
X14700333Y-13518388D02*
X14690809Y-13499341D01*
X14690809Y-13499341D02*
X14671761Y-13489817D01*
X14671761Y-13489817D02*
X14643190Y-13489817D01*
X14643190Y-13489817D02*
X14624142Y-13480293D01*
X14624142Y-13480293D02*
X14614618Y-13461246D01*
X14614618Y-13461246D02*
X14614618Y-13451722D01*
X14614618Y-13451722D02*
X14624142Y-13432674D01*
X14624142Y-13432674D02*
X14643190Y-13423150D01*
X14643190Y-13423150D02*
X14671761Y-13423150D01*
X14671761Y-13423150D02*
X14690809Y-13432674D01*
X14766999Y-13632674D02*
X14776523Y-13623150D01*
X14776523Y-13623150D02*
X14795571Y-13594579D01*
X14795571Y-13594579D02*
X14805095Y-13575531D01*
X14805095Y-13575531D02*
X14814618Y-13546960D01*
X14814618Y-13546960D02*
X14824142Y-13499341D01*
X14824142Y-13499341D02*
X14824142Y-13461246D01*
X14824142Y-13461246D02*
X14814618Y-13413627D01*
X14814618Y-13413627D02*
X14805095Y-13385055D01*
X14805095Y-13385055D02*
X14795571Y-13366008D01*
X14795571Y-13366008D02*
X14776523Y-13337436D01*
X14776523Y-13337436D02*
X14766999Y-13327912D01*
X15128904Y-13632674D02*
X15119380Y-13623150D01*
X15119380Y-13623150D02*
X15100333Y-13594579D01*
X15100333Y-13594579D02*
X15090809Y-13575531D01*
X15090809Y-13575531D02*
X15081285Y-13546960D01*
X15081285Y-13546960D02*
X15071761Y-13499341D01*
X15071761Y-13499341D02*
X15071761Y-13461246D01*
X15071761Y-13461246D02*
X15081285Y-13413627D01*
X15081285Y-13413627D02*
X15090809Y-13385055D01*
X15090809Y-13385055D02*
X15100333Y-13366008D01*
X15100333Y-13366008D02*
X15119380Y-13337436D01*
X15119380Y-13337436D02*
X15128904Y-13327912D01*
X15205095Y-13423150D02*
X15205095Y-13556484D01*
X15205095Y-13442198D02*
X15214618Y-13432674D01*
X15214618Y-13432674D02*
X15233666Y-13423150D01*
X15233666Y-13423150D02*
X15262238Y-13423150D01*
X15262238Y-13423150D02*
X15281285Y-13432674D01*
X15281285Y-13432674D02*
X15290809Y-13451722D01*
X15290809Y-13451722D02*
X15290809Y-13556484D01*
X15414618Y-13556484D02*
X15395571Y-13546960D01*
X15395571Y-13546960D02*
X15386047Y-13537436D01*
X15386047Y-13537436D02*
X15376523Y-13518388D01*
X15376523Y-13518388D02*
X15376523Y-13461246D01*
X15376523Y-13461246D02*
X15386047Y-13442198D01*
X15386047Y-13442198D02*
X15395571Y-13432674D01*
X15395571Y-13432674D02*
X15414618Y-13423150D01*
X15414618Y-13423150D02*
X15443190Y-13423150D01*
X15443190Y-13423150D02*
X15462238Y-13432674D01*
X15462238Y-13432674D02*
X15471761Y-13442198D01*
X15471761Y-13442198D02*
X15481285Y-13461246D01*
X15481285Y-13461246D02*
X15481285Y-13518388D01*
X15481285Y-13518388D02*
X15471761Y-13537436D01*
X15471761Y-13537436D02*
X15462238Y-13546960D01*
X15462238Y-13546960D02*
X15443190Y-13556484D01*
X15443190Y-13556484D02*
X15414618Y-13556484D01*
X15538428Y-13423150D02*
X15614618Y-13423150D01*
X15566999Y-13356484D02*
X15566999Y-13527912D01*
X15566999Y-13527912D02*
X15576523Y-13546960D01*
X15576523Y-13546960D02*
X15595571Y-13556484D01*
X15595571Y-13556484D02*
X15614618Y-13556484D01*
X15833666Y-13423150D02*
X15833666Y-13623150D01*
X15833666Y-13432674D02*
X15852714Y-13423150D01*
X15852714Y-13423150D02*
X15890809Y-13423150D01*
X15890809Y-13423150D02*
X15909857Y-13432674D01*
X15909857Y-13432674D02*
X15919380Y-13442198D01*
X15919380Y-13442198D02*
X15928904Y-13461246D01*
X15928904Y-13461246D02*
X15928904Y-13518388D01*
X15928904Y-13518388D02*
X15919380Y-13537436D01*
X15919380Y-13537436D02*
X15909857Y-13546960D01*
X15909857Y-13546960D02*
X15890809Y-13556484D01*
X15890809Y-13556484D02*
X15852714Y-13556484D01*
X15852714Y-13556484D02*
X15833666Y-13546960D01*
X16043190Y-13556484D02*
X16024142Y-13546960D01*
X16024142Y-13546960D02*
X16014619Y-13527912D01*
X16014619Y-13527912D02*
X16014619Y-13356484D01*
X16205095Y-13556484D02*
X16205095Y-13451722D01*
X16205095Y-13451722D02*
X16195571Y-13432674D01*
X16195571Y-13432674D02*
X16176523Y-13423150D01*
X16176523Y-13423150D02*
X16138428Y-13423150D01*
X16138428Y-13423150D02*
X16119380Y-13432674D01*
X16205095Y-13546960D02*
X16186047Y-13556484D01*
X16186047Y-13556484D02*
X16138428Y-13556484D01*
X16138428Y-13556484D02*
X16119380Y-13546960D01*
X16119380Y-13546960D02*
X16109857Y-13527912D01*
X16109857Y-13527912D02*
X16109857Y-13508865D01*
X16109857Y-13508865D02*
X16119380Y-13489817D01*
X16119380Y-13489817D02*
X16138428Y-13480293D01*
X16138428Y-13480293D02*
X16186047Y-13480293D01*
X16186047Y-13480293D02*
X16205095Y-13470769D01*
X16271761Y-13423150D02*
X16347952Y-13423150D01*
X16300333Y-13356484D02*
X16300333Y-13527912D01*
X16300333Y-13527912D02*
X16309857Y-13546960D01*
X16309857Y-13546960D02*
X16328904Y-13556484D01*
X16328904Y-13556484D02*
X16347952Y-13556484D01*
X16490809Y-13546960D02*
X16471761Y-13556484D01*
X16471761Y-13556484D02*
X16433666Y-13556484D01*
X16433666Y-13556484D02*
X16414619Y-13546960D01*
X16414619Y-13546960D02*
X16405095Y-13527912D01*
X16405095Y-13527912D02*
X16405095Y-13451722D01*
X16405095Y-13451722D02*
X16414619Y-13432674D01*
X16414619Y-13432674D02*
X16433666Y-13423150D01*
X16433666Y-13423150D02*
X16471761Y-13423150D01*
X16471761Y-13423150D02*
X16490809Y-13432674D01*
X16490809Y-13432674D02*
X16500333Y-13451722D01*
X16500333Y-13451722D02*
X16500333Y-13470769D01*
X16500333Y-13470769D02*
X16405095Y-13489817D01*
X16671761Y-13556484D02*
X16671761Y-13356484D01*
X16671761Y-13546960D02*
X16652714Y-13556484D01*
X16652714Y-13556484D02*
X16614619Y-13556484D01*
X16614619Y-13556484D02*
X16595571Y-13546960D01*
X16595571Y-13546960D02*
X16586047Y-13537436D01*
X16586047Y-13537436D02*
X16576523Y-13518388D01*
X16576523Y-13518388D02*
X16576523Y-13461246D01*
X16576523Y-13461246D02*
X16586047Y-13442198D01*
X16586047Y-13442198D02*
X16595571Y-13432674D01*
X16595571Y-13432674D02*
X16614619Y-13423150D01*
X16614619Y-13423150D02*
X16652714Y-13423150D01*
X16652714Y-13423150D02*
X16671761Y-13432674D01*
X16747952Y-13632674D02*
X16757476Y-13623150D01*
X16757476Y-13623150D02*
X16776523Y-13594579D01*
X16776523Y-13594579D02*
X16786047Y-13575531D01*
X16786047Y-13575531D02*
X16795571Y-13546960D01*
X16795571Y-13546960D02*
X16805095Y-13499341D01*
X16805095Y-13499341D02*
X16805095Y-13461246D01*
X16805095Y-13461246D02*
X16795571Y-13413627D01*
X16795571Y-13413627D02*
X16786047Y-13385055D01*
X16786047Y-13385055D02*
X16776523Y-13366008D01*
X16776523Y-13366008D02*
X16757476Y-13337436D01*
X16757476Y-13337436D02*
X16747952Y-13327912D01*
M02*
