G04 #@! TF.GenerationSoftware,KiCad,Pcbnew,7.0.10*
G04 #@! TF.CreationDate,2024-01-15T21:05:21-07:00*
G04 #@! TF.ProjectId,RPI 5 PCIE,52504920-3520-4504-9349-452e6b696361,rev?*
G04 #@! TF.SameCoordinates,Original*
G04 #@! TF.FileFunction,Copper,L2,Inr*
G04 #@! TF.FilePolarity,Positive*
%FSLAX46Y46*%
G04 Gerber Fmt 4.6, Leading zero omitted, Abs format (unit mm)*
G04 Created by KiCad (PCBNEW 7.0.10) date 2024-01-15 21:05:21*
%MOMM*%
%LPD*%
G01*
G04 APERTURE LIST*
G04 Aperture macros list*
%AMRoundRect*
0 Rectangle with rounded corners*
0 $1 Rounding radius*
0 $2 $3 $4 $5 $6 $7 $8 $9 X,Y pos of 4 corners*
0 Add a 4 corners polygon primitive as box body*
4,1,4,$2,$3,$4,$5,$6,$7,$8,$9,$2,$3,0*
0 Add four circle primitives for the rounded corners*
1,1,$1+$1,$2,$3*
1,1,$1+$1,$4,$5*
1,1,$1+$1,$6,$7*
1,1,$1+$1,$8,$9*
0 Add four rect primitives between the rounded corners*
20,1,$1+$1,$2,$3,$4,$5,0*
20,1,$1+$1,$4,$5,$6,$7,0*
20,1,$1+$1,$6,$7,$8,$9,0*
20,1,$1+$1,$8,$9,$2,$3,0*%
G04 Aperture macros list end*
G04 #@! TA.AperFunction,ComponentPad*
%ADD10O,2.700000X3.300000*%
G04 #@! TD*
G04 #@! TA.AperFunction,ComponentPad*
%ADD11RoundRect,0.250001X1.099999X1.399999X-1.099999X1.399999X-1.099999X-1.399999X1.099999X-1.399999X0*%
G04 #@! TD*
G04 #@! TA.AperFunction,ComponentPad*
%ADD12C,1.200000*%
G04 #@! TD*
G04 #@! TA.AperFunction,ComponentPad*
%ADD13R,1.200000X1.200000*%
G04 #@! TD*
G04 #@! TA.AperFunction,ViaPad*
%ADD14C,0.800000*%
G04 #@! TD*
G04 APERTURE END LIST*
D10*
X109400000Y-92700000D03*
X113600000Y-92700000D03*
X117800000Y-92700000D03*
X122000000Y-92700000D03*
X126200000Y-92700000D03*
X130400000Y-92700000D03*
X134600000Y-92700000D03*
X138800000Y-92700000D03*
X143000000Y-92700000D03*
X147200000Y-92700000D03*
X151400000Y-92700000D03*
X155600000Y-92700000D03*
X109400000Y-98200000D03*
X113600000Y-98200000D03*
X117800000Y-98200000D03*
X122000000Y-98200000D03*
X126200000Y-98200000D03*
X130400000Y-98200000D03*
X134600000Y-98200000D03*
X138800000Y-98200000D03*
X143000000Y-98200000D03*
X147200000Y-98200000D03*
X151400000Y-98200000D03*
D11*
X155600000Y-98200000D03*
D12*
X186719365Y-119000000D03*
X185719365Y-117000000D03*
X184719365Y-119000000D03*
X183719365Y-117000000D03*
X182719365Y-119000000D03*
X181719365Y-117000000D03*
X180719365Y-119000000D03*
X179719365Y-117000000D03*
X178719365Y-119000000D03*
X177719365Y-117000000D03*
X176719365Y-119000000D03*
X175719365Y-117000000D03*
X174719365Y-119000000D03*
X173719365Y-117000000D03*
X172719365Y-119000000D03*
X171719365Y-117000000D03*
X170719365Y-119000000D03*
X169719365Y-117000000D03*
X168719365Y-119000000D03*
X167719365Y-117000000D03*
X166719365Y-119000000D03*
X165719365Y-117000000D03*
X164719365Y-119000000D03*
X163719365Y-117000000D03*
X162719365Y-119000000D03*
X161719365Y-117000000D03*
X160719365Y-119000000D03*
X159719365Y-117000000D03*
X158719365Y-119000000D03*
X157719365Y-117000000D03*
X156719365Y-119000000D03*
X155719365Y-117000000D03*
X154719365Y-119000000D03*
X153719365Y-117000000D03*
X152719365Y-119000000D03*
X151719365Y-117000000D03*
X150719365Y-119000000D03*
X149719365Y-117000000D03*
X148719365Y-119000000D03*
X147719365Y-117000000D03*
X146719365Y-119000000D03*
X145719365Y-117000000D03*
X144719365Y-119000000D03*
X143719365Y-117000000D03*
X142719365Y-119000000D03*
X141719365Y-117000000D03*
X140719365Y-119000000D03*
X139719365Y-117000000D03*
X138719365Y-119000000D03*
X137719365Y-117000000D03*
X136719365Y-119000000D03*
X135719365Y-117000000D03*
X134719365Y-119000000D03*
X133719365Y-117000000D03*
X132719365Y-119000000D03*
X131719365Y-117000000D03*
X130719365Y-119000000D03*
X129719365Y-117000000D03*
X128719365Y-119000000D03*
X127719365Y-117000000D03*
X126719365Y-119000000D03*
X125719365Y-117000000D03*
X124719365Y-119000000D03*
X123719365Y-117000000D03*
X122719365Y-119000000D03*
X121719365Y-117000000D03*
X120719365Y-119000000D03*
X119719365Y-117000000D03*
X118719365Y-119000000D03*
X117719365Y-117000000D03*
X116719365Y-119000000D03*
X113719365Y-117000000D03*
X112719365Y-119000000D03*
X111719365Y-117000000D03*
X110719365Y-119000000D03*
X109719365Y-117000000D03*
X108719365Y-119000000D03*
X107719365Y-117000000D03*
X106719365Y-119000000D03*
X105719365Y-117000000D03*
X104719365Y-119000000D03*
X103719365Y-117000000D03*
X186719365Y-112500000D03*
X185719365Y-114500000D03*
X184719365Y-112500000D03*
X183719365Y-114500000D03*
X182719365Y-112500000D03*
X181719365Y-114500000D03*
X180719365Y-112500000D03*
X179719365Y-114500000D03*
X178719365Y-112500000D03*
X177719365Y-114500000D03*
X176719365Y-112500000D03*
X175719365Y-114500000D03*
X174719365Y-112500000D03*
X173719365Y-114500000D03*
X172719365Y-112500000D03*
X171719365Y-114500000D03*
X170719365Y-112500000D03*
X169719365Y-114500000D03*
X168719365Y-112500000D03*
X167719365Y-114500000D03*
X166719365Y-112500000D03*
X165719365Y-114500000D03*
X164719365Y-112500000D03*
X163719365Y-114500000D03*
X162719365Y-112500000D03*
X161719365Y-114500000D03*
X160719365Y-112500000D03*
X159719365Y-114500000D03*
X158719365Y-112500000D03*
X157719365Y-114500000D03*
X156719365Y-112500000D03*
X155719365Y-114500000D03*
X154719365Y-112500000D03*
X153719365Y-114500000D03*
X152719365Y-112500000D03*
X151719365Y-114500000D03*
X150719365Y-112500000D03*
X149719365Y-114500000D03*
X148719365Y-112500000D03*
X147719365Y-114500000D03*
X146719365Y-112500000D03*
X145719365Y-114500000D03*
X144719365Y-112500000D03*
X143719365Y-114500000D03*
X142719365Y-112500000D03*
X141719365Y-114500000D03*
X140719365Y-112500000D03*
X139719365Y-114500000D03*
X138719365Y-112500000D03*
X137719365Y-114500000D03*
X136719365Y-112500000D03*
X135719365Y-114500000D03*
X134719365Y-112500000D03*
X133719365Y-114500000D03*
X132719365Y-112500000D03*
X131719365Y-114500000D03*
X130719365Y-112500000D03*
X129719365Y-114500000D03*
X128719365Y-112500000D03*
X127719365Y-114500000D03*
X126719365Y-112500000D03*
X125719365Y-114500000D03*
X124719365Y-112500000D03*
X123719365Y-114500000D03*
X122719365Y-112500000D03*
X121719365Y-114500000D03*
X120719365Y-112500000D03*
X119719365Y-114500000D03*
X118719365Y-112500000D03*
X117719365Y-114500000D03*
X116719365Y-112500000D03*
X113719365Y-114500000D03*
X112719365Y-112500000D03*
X111719365Y-114500000D03*
X110719365Y-112500000D03*
X109719365Y-114500000D03*
X108719365Y-112500000D03*
X107719365Y-114500000D03*
X106719365Y-112500000D03*
X105719365Y-114500000D03*
X104719365Y-112500000D03*
D13*
X103719365Y-114500000D03*
D14*
X186200000Y-107800000D03*
X184600000Y-105600000D03*
X184600000Y-104200000D03*
X184600000Y-103000000D03*
X192400000Y-93400000D03*
X187200000Y-99600000D03*
X113500000Y-109500000D03*
X112000000Y-109500000D03*
X110500000Y-109500000D03*
X113500000Y-108250000D03*
X112000000Y-108250000D03*
X110500000Y-108250000D03*
X176719365Y-121500000D03*
X172719365Y-121500000D03*
X126719365Y-121500000D03*
X156719365Y-121500000D03*
X168719365Y-121500000D03*
X184969365Y-121500000D03*
X140719365Y-121500000D03*
X164719365Y-121500000D03*
X144719365Y-121500000D03*
X180719365Y-121500000D03*
X136719365Y-121500000D03*
X122719365Y-121500000D03*
X130719365Y-121500000D03*
X148719365Y-121500000D03*
X160719365Y-121500000D03*
G04 #@! TA.AperFunction,Conductor*
G36*
X197943039Y-90019685D02*
G01*
X197988794Y-90072489D01*
X198000000Y-90124000D01*
X198000000Y-123876000D01*
X197980315Y-123943039D01*
X197927511Y-123988794D01*
X197876000Y-124000000D01*
X115017505Y-124000000D01*
X106124000Y-124000000D01*
X106056961Y-123980315D01*
X106011206Y-123927511D01*
X106000000Y-123876000D01*
X106000000Y-118156419D01*
X106019685Y-118089380D01*
X106072489Y-118043625D01*
X106079186Y-118040800D01*
X106212002Y-117989348D01*
X106385406Y-117881981D01*
X106536129Y-117744579D01*
X106620411Y-117632970D01*
X106676520Y-117591335D01*
X106746232Y-117586644D01*
X106807414Y-117620386D01*
X106818319Y-117632971D01*
X106902602Y-117744581D01*
X107053323Y-117881980D01*
X107053325Y-117881982D01*
X107056717Y-117884082D01*
X107226728Y-117989348D01*
X107416909Y-118063024D01*
X107617389Y-118100500D01*
X107617391Y-118100500D01*
X107770566Y-118100500D01*
X107837605Y-118120185D01*
X107883360Y-118172989D01*
X107893304Y-118242147D01*
X107869520Y-118299227D01*
X107779692Y-118418178D01*
X107688787Y-118600739D01*
X107688782Y-118600752D01*
X107632967Y-118796917D01*
X107614150Y-118999999D01*
X107614150Y-119000000D01*
X107632967Y-119203082D01*
X107688782Y-119399247D01*
X107688787Y-119399260D01*
X107779692Y-119581821D01*
X107902602Y-119744581D01*
X108053323Y-119881980D01*
X108053325Y-119881982D01*
X108152506Y-119943392D01*
X108226728Y-119989348D01*
X108416909Y-120063024D01*
X108617389Y-120100500D01*
X108617391Y-120100500D01*
X108821339Y-120100500D01*
X108821341Y-120100500D01*
X109021821Y-120063024D01*
X109212002Y-119989348D01*
X109385406Y-119881981D01*
X109536129Y-119744579D01*
X109620411Y-119632970D01*
X109676520Y-119591335D01*
X109746232Y-119586644D01*
X109807414Y-119620386D01*
X109818319Y-119632971D01*
X109902602Y-119744581D01*
X110053323Y-119881980D01*
X110053325Y-119881982D01*
X110152506Y-119943392D01*
X110226728Y-119989348D01*
X110416909Y-120063024D01*
X110617389Y-120100500D01*
X110617391Y-120100500D01*
X110821339Y-120100500D01*
X110821341Y-120100500D01*
X111021821Y-120063024D01*
X111212002Y-119989348D01*
X111385406Y-119881981D01*
X111536129Y-119744579D01*
X111620411Y-119632970D01*
X111676520Y-119591335D01*
X111746232Y-119586644D01*
X111807414Y-119620386D01*
X111818319Y-119632971D01*
X111902602Y-119744581D01*
X112053323Y-119881980D01*
X112053325Y-119881982D01*
X112152506Y-119943392D01*
X112226728Y-119989348D01*
X112416909Y-120063024D01*
X112617389Y-120100500D01*
X112617391Y-120100500D01*
X112821339Y-120100500D01*
X112821341Y-120100500D01*
X113021821Y-120063024D01*
X113212002Y-119989348D01*
X113385406Y-119881981D01*
X113536129Y-119744579D01*
X113659038Y-119581821D01*
X113749947Y-119399250D01*
X113805762Y-119203083D01*
X113824580Y-119000000D01*
X115614150Y-119000000D01*
X115632967Y-119203082D01*
X115688782Y-119399247D01*
X115688787Y-119399260D01*
X115779692Y-119581821D01*
X115902602Y-119744581D01*
X116053323Y-119881980D01*
X116053325Y-119881982D01*
X116152506Y-119943392D01*
X116226728Y-119989348D01*
X116416909Y-120063024D01*
X116617389Y-120100500D01*
X116617391Y-120100500D01*
X116821339Y-120100500D01*
X116821341Y-120100500D01*
X117021821Y-120063024D01*
X117212002Y-119989348D01*
X117385406Y-119881981D01*
X117536129Y-119744579D01*
X117620411Y-119632970D01*
X117676520Y-119591335D01*
X117746232Y-119586644D01*
X117807414Y-119620386D01*
X117818319Y-119632971D01*
X117902602Y-119744581D01*
X118053323Y-119881980D01*
X118053325Y-119881982D01*
X118152506Y-119943392D01*
X118226728Y-119989348D01*
X118416909Y-120063024D01*
X118617389Y-120100500D01*
X118617391Y-120100500D01*
X118821339Y-120100500D01*
X118821341Y-120100500D01*
X119021821Y-120063024D01*
X119212002Y-119989348D01*
X119385406Y-119881981D01*
X119536129Y-119744579D01*
X119659038Y-119581821D01*
X119749947Y-119399250D01*
X119805762Y-119203083D01*
X119824580Y-119000000D01*
X119805762Y-118796917D01*
X119749947Y-118600750D01*
X119659038Y-118418179D01*
X119569210Y-118299227D01*
X119544518Y-118233865D01*
X119559083Y-118165531D01*
X119608281Y-118115918D01*
X119668164Y-118100500D01*
X119821339Y-118100500D01*
X119821341Y-118100500D01*
X120021821Y-118063024D01*
X120212002Y-117989348D01*
X120385406Y-117881981D01*
X120536129Y-117744579D01*
X120620411Y-117632970D01*
X120676520Y-117591335D01*
X120746232Y-117586644D01*
X120807414Y-117620386D01*
X120818319Y-117632971D01*
X120902602Y-117744581D01*
X121053323Y-117881980D01*
X121053325Y-117881982D01*
X121056717Y-117884082D01*
X121226728Y-117989348D01*
X121416909Y-118063024D01*
X121617389Y-118100500D01*
X121617391Y-118100500D01*
X121821339Y-118100500D01*
X121821341Y-118100500D01*
X122021821Y-118063024D01*
X122212002Y-117989348D01*
X122385406Y-117881981D01*
X122536129Y-117744579D01*
X122620411Y-117632970D01*
X122676520Y-117591335D01*
X122746232Y-117586644D01*
X122807414Y-117620386D01*
X122818319Y-117632971D01*
X122902602Y-117744581D01*
X123053323Y-117881980D01*
X123053325Y-117881982D01*
X123056717Y-117884082D01*
X123226728Y-117989348D01*
X123416909Y-118063024D01*
X123617389Y-118100500D01*
X123617391Y-118100500D01*
X123770566Y-118100500D01*
X123837605Y-118120185D01*
X123883360Y-118172989D01*
X123893304Y-118242147D01*
X123869520Y-118299227D01*
X123779692Y-118418178D01*
X123688787Y-118600739D01*
X123688782Y-118600752D01*
X123632967Y-118796917D01*
X123614150Y-118999999D01*
X123614150Y-119000000D01*
X123632967Y-119203082D01*
X123688782Y-119399247D01*
X123688787Y-119399260D01*
X123779692Y-119581821D01*
X123902602Y-119744581D01*
X124053323Y-119881980D01*
X124053325Y-119881982D01*
X124152506Y-119943392D01*
X124226728Y-119989348D01*
X124416909Y-120063024D01*
X124617389Y-120100500D01*
X124617391Y-120100500D01*
X124821339Y-120100500D01*
X124821341Y-120100500D01*
X125021821Y-120063024D01*
X125212002Y-119989348D01*
X125385406Y-119881981D01*
X125536129Y-119744579D01*
X125659038Y-119581821D01*
X125749947Y-119399250D01*
X125805762Y-119203083D01*
X125824580Y-119000000D01*
X125805762Y-118796917D01*
X125749947Y-118600750D01*
X125659038Y-118418179D01*
X125536129Y-118255421D01*
X125536127Y-118255418D01*
X125385406Y-118118019D01*
X125385404Y-118118017D01*
X125212007Y-118010655D01*
X125212000Y-118010651D01*
X125116911Y-117973814D01*
X125021821Y-117936976D01*
X124821341Y-117899500D01*
X124668164Y-117899500D01*
X124601125Y-117879815D01*
X124555370Y-117827011D01*
X124545426Y-117757853D01*
X124569210Y-117700773D01*
X124629915Y-117620386D01*
X124659038Y-117581821D01*
X124749947Y-117399250D01*
X124805762Y-117203083D01*
X124824580Y-117000000D01*
X126614150Y-117000000D01*
X126632967Y-117203082D01*
X126688782Y-117399247D01*
X126688787Y-117399260D01*
X126779692Y-117581821D01*
X126902602Y-117744581D01*
X127053323Y-117881980D01*
X127053325Y-117881982D01*
X127056717Y-117884082D01*
X127226728Y-117989348D01*
X127416909Y-118063024D01*
X127617389Y-118100500D01*
X127617391Y-118100500D01*
X127770566Y-118100500D01*
X127837605Y-118120185D01*
X127883360Y-118172989D01*
X127893304Y-118242147D01*
X127869520Y-118299227D01*
X127779692Y-118418178D01*
X127688787Y-118600739D01*
X127688782Y-118600752D01*
X127632967Y-118796917D01*
X127614150Y-118999999D01*
X127614150Y-119000000D01*
X127632967Y-119203082D01*
X127688782Y-119399247D01*
X127688787Y-119399260D01*
X127779692Y-119581821D01*
X127902602Y-119744581D01*
X128053323Y-119881980D01*
X128053325Y-119881982D01*
X128152506Y-119943392D01*
X128226728Y-119989348D01*
X128416909Y-120063024D01*
X128617389Y-120100500D01*
X128617391Y-120100500D01*
X128821339Y-120100500D01*
X128821341Y-120100500D01*
X129021821Y-120063024D01*
X129212002Y-119989348D01*
X129385406Y-119881981D01*
X129536129Y-119744579D01*
X129659038Y-119581821D01*
X129749947Y-119399250D01*
X129805762Y-119203083D01*
X129824580Y-119000000D01*
X129805762Y-118796917D01*
X129749947Y-118600750D01*
X129659038Y-118418179D01*
X129536129Y-118255421D01*
X129536127Y-118255418D01*
X129385406Y-118118019D01*
X129385404Y-118118017D01*
X129212007Y-118010655D01*
X129212000Y-118010651D01*
X129116911Y-117973814D01*
X129021821Y-117936976D01*
X128821341Y-117899500D01*
X128668164Y-117899500D01*
X128601125Y-117879815D01*
X128555370Y-117827011D01*
X128545426Y-117757853D01*
X128569210Y-117700773D01*
X128629915Y-117620386D01*
X128659038Y-117581821D01*
X128749947Y-117399250D01*
X128805762Y-117203083D01*
X128824580Y-117000000D01*
X130614150Y-117000000D01*
X130632967Y-117203082D01*
X130688782Y-117399247D01*
X130688787Y-117399260D01*
X130779692Y-117581821D01*
X130902602Y-117744581D01*
X131053323Y-117881980D01*
X131053325Y-117881982D01*
X131056717Y-117884082D01*
X131226728Y-117989348D01*
X131416909Y-118063024D01*
X131617389Y-118100500D01*
X131617391Y-118100500D01*
X131770566Y-118100500D01*
X131837605Y-118120185D01*
X131883360Y-118172989D01*
X131893304Y-118242147D01*
X131869520Y-118299227D01*
X131779692Y-118418178D01*
X131688787Y-118600739D01*
X131688782Y-118600752D01*
X131632967Y-118796917D01*
X131614150Y-118999999D01*
X131614150Y-119000000D01*
X131632967Y-119203082D01*
X131688782Y-119399247D01*
X131688787Y-119399260D01*
X131779692Y-119581821D01*
X131902602Y-119744581D01*
X132053323Y-119881980D01*
X132053325Y-119881982D01*
X132152506Y-119943392D01*
X132226728Y-119989348D01*
X132416909Y-120063024D01*
X132617389Y-120100500D01*
X132617391Y-120100500D01*
X132821339Y-120100500D01*
X132821341Y-120100500D01*
X133021821Y-120063024D01*
X133212002Y-119989348D01*
X133385406Y-119881981D01*
X133536129Y-119744579D01*
X133620411Y-119632970D01*
X133676520Y-119591335D01*
X133746232Y-119586644D01*
X133807414Y-119620386D01*
X133818319Y-119632971D01*
X133902602Y-119744581D01*
X134053323Y-119881980D01*
X134053325Y-119881982D01*
X134152506Y-119943392D01*
X134226728Y-119989348D01*
X134416909Y-120063024D01*
X134617389Y-120100500D01*
X134617391Y-120100500D01*
X134821339Y-120100500D01*
X134821341Y-120100500D01*
X135021821Y-120063024D01*
X135212002Y-119989348D01*
X135385406Y-119881981D01*
X135536129Y-119744579D01*
X135659038Y-119581821D01*
X135749947Y-119399250D01*
X135805762Y-119203083D01*
X135824580Y-119000000D01*
X135805762Y-118796917D01*
X135749947Y-118600750D01*
X135659038Y-118418179D01*
X135569210Y-118299227D01*
X135544518Y-118233865D01*
X135559083Y-118165531D01*
X135608281Y-118115918D01*
X135668164Y-118100500D01*
X135821339Y-118100500D01*
X135821341Y-118100500D01*
X136021821Y-118063024D01*
X136212002Y-117989348D01*
X136385406Y-117881981D01*
X136536129Y-117744579D01*
X136620411Y-117632970D01*
X136676520Y-117591335D01*
X136746232Y-117586644D01*
X136807414Y-117620386D01*
X136818319Y-117632971D01*
X136902602Y-117744581D01*
X137053323Y-117881980D01*
X137053325Y-117881982D01*
X137056717Y-117884082D01*
X137226728Y-117989348D01*
X137416909Y-118063024D01*
X137617389Y-118100500D01*
X137617391Y-118100500D01*
X137770566Y-118100500D01*
X137837605Y-118120185D01*
X137883360Y-118172989D01*
X137893304Y-118242147D01*
X137869520Y-118299227D01*
X137779692Y-118418178D01*
X137688787Y-118600739D01*
X137688782Y-118600752D01*
X137632967Y-118796917D01*
X137614150Y-118999999D01*
X137614150Y-119000000D01*
X137632967Y-119203082D01*
X137688782Y-119399247D01*
X137688787Y-119399260D01*
X137779692Y-119581821D01*
X137902602Y-119744581D01*
X138053323Y-119881980D01*
X138053325Y-119881982D01*
X138152506Y-119943392D01*
X138226728Y-119989348D01*
X138416909Y-120063024D01*
X138617389Y-120100500D01*
X138617391Y-120100500D01*
X138821339Y-120100500D01*
X138821341Y-120100500D01*
X139021821Y-120063024D01*
X139212002Y-119989348D01*
X139385406Y-119881981D01*
X139536129Y-119744579D01*
X139659038Y-119581821D01*
X139749947Y-119399250D01*
X139805762Y-119203083D01*
X139824580Y-119000000D01*
X139805762Y-118796917D01*
X139749947Y-118600750D01*
X139659038Y-118418179D01*
X139536129Y-118255421D01*
X139536127Y-118255418D01*
X139385406Y-118118019D01*
X139385404Y-118118017D01*
X139212007Y-118010655D01*
X139212000Y-118010651D01*
X139116911Y-117973814D01*
X139021821Y-117936976D01*
X138821341Y-117899500D01*
X138668164Y-117899500D01*
X138601125Y-117879815D01*
X138555370Y-117827011D01*
X138545426Y-117757853D01*
X138569210Y-117700773D01*
X138629915Y-117620386D01*
X138659038Y-117581821D01*
X138749947Y-117399250D01*
X138805762Y-117203083D01*
X138824580Y-117000000D01*
X140614150Y-117000000D01*
X140632967Y-117203082D01*
X140688782Y-117399247D01*
X140688787Y-117399260D01*
X140779692Y-117581821D01*
X140902602Y-117744581D01*
X141053323Y-117881980D01*
X141053325Y-117881982D01*
X141056717Y-117884082D01*
X141226728Y-117989348D01*
X141416909Y-118063024D01*
X141617389Y-118100500D01*
X141617391Y-118100500D01*
X141770566Y-118100500D01*
X141837605Y-118120185D01*
X141883360Y-118172989D01*
X141893304Y-118242147D01*
X141869520Y-118299227D01*
X141779692Y-118418178D01*
X141688787Y-118600739D01*
X141688782Y-118600752D01*
X141632967Y-118796917D01*
X141614150Y-118999999D01*
X141614150Y-119000000D01*
X141632967Y-119203082D01*
X141688782Y-119399247D01*
X141688787Y-119399260D01*
X141779692Y-119581821D01*
X141902602Y-119744581D01*
X142053323Y-119881980D01*
X142053325Y-119881982D01*
X142152506Y-119943392D01*
X142226728Y-119989348D01*
X142416909Y-120063024D01*
X142617389Y-120100500D01*
X142617391Y-120100500D01*
X142821339Y-120100500D01*
X142821341Y-120100500D01*
X143021821Y-120063024D01*
X143212002Y-119989348D01*
X143385406Y-119881981D01*
X143536129Y-119744579D01*
X143659038Y-119581821D01*
X143749947Y-119399250D01*
X143805762Y-119203083D01*
X143824580Y-119000000D01*
X143805762Y-118796917D01*
X143749947Y-118600750D01*
X143659038Y-118418179D01*
X143536129Y-118255421D01*
X143536127Y-118255418D01*
X143385406Y-118118019D01*
X143385404Y-118118017D01*
X143212007Y-118010655D01*
X143212000Y-118010651D01*
X143116911Y-117973814D01*
X143021821Y-117936976D01*
X142821341Y-117899500D01*
X142668164Y-117899500D01*
X142601125Y-117879815D01*
X142555370Y-117827011D01*
X142545426Y-117757853D01*
X142569210Y-117700773D01*
X142629915Y-117620386D01*
X142659038Y-117581821D01*
X142749947Y-117399250D01*
X142805762Y-117203083D01*
X142824580Y-117000000D01*
X144614150Y-117000000D01*
X144632967Y-117203082D01*
X144688782Y-117399247D01*
X144688787Y-117399260D01*
X144779692Y-117581821D01*
X144902602Y-117744581D01*
X145053323Y-117881980D01*
X145053325Y-117881982D01*
X145056717Y-117884082D01*
X145226728Y-117989348D01*
X145416909Y-118063024D01*
X145617389Y-118100500D01*
X145617391Y-118100500D01*
X145770566Y-118100500D01*
X145837605Y-118120185D01*
X145883360Y-118172989D01*
X145893304Y-118242147D01*
X145869520Y-118299227D01*
X145779692Y-118418178D01*
X145688787Y-118600739D01*
X145688782Y-118600752D01*
X145632967Y-118796917D01*
X145614150Y-118999999D01*
X145614150Y-119000000D01*
X145632967Y-119203082D01*
X145688782Y-119399247D01*
X145688787Y-119399260D01*
X145779692Y-119581821D01*
X145902602Y-119744581D01*
X146053323Y-119881980D01*
X146053325Y-119881982D01*
X146152506Y-119943392D01*
X146226728Y-119989348D01*
X146416909Y-120063024D01*
X146617389Y-120100500D01*
X146617391Y-120100500D01*
X146821339Y-120100500D01*
X146821341Y-120100500D01*
X147021821Y-120063024D01*
X147212002Y-119989348D01*
X147385406Y-119881981D01*
X147536129Y-119744579D01*
X147659038Y-119581821D01*
X147749947Y-119399250D01*
X147805762Y-119203083D01*
X147824580Y-119000000D01*
X147805762Y-118796917D01*
X147749947Y-118600750D01*
X147659038Y-118418179D01*
X147536129Y-118255421D01*
X147536127Y-118255418D01*
X147385406Y-118118019D01*
X147385404Y-118118017D01*
X147212007Y-118010655D01*
X147212000Y-118010651D01*
X147116911Y-117973814D01*
X147021821Y-117936976D01*
X146821341Y-117899500D01*
X146668164Y-117899500D01*
X146601125Y-117879815D01*
X146555370Y-117827011D01*
X146545426Y-117757853D01*
X146569210Y-117700773D01*
X146629915Y-117620386D01*
X146659038Y-117581821D01*
X146749947Y-117399250D01*
X146805762Y-117203083D01*
X146824580Y-117000000D01*
X148614150Y-117000000D01*
X148632967Y-117203082D01*
X148688782Y-117399247D01*
X148688787Y-117399260D01*
X148779692Y-117581821D01*
X148902602Y-117744581D01*
X149053323Y-117881980D01*
X149053325Y-117881982D01*
X149056717Y-117884082D01*
X149226728Y-117989348D01*
X149416909Y-118063024D01*
X149617389Y-118100500D01*
X149617391Y-118100500D01*
X149770566Y-118100500D01*
X149837605Y-118120185D01*
X149883360Y-118172989D01*
X149893304Y-118242147D01*
X149869520Y-118299227D01*
X149779692Y-118418178D01*
X149688787Y-118600739D01*
X149688782Y-118600752D01*
X149632967Y-118796917D01*
X149614150Y-118999999D01*
X149614150Y-119000000D01*
X149632967Y-119203082D01*
X149688782Y-119399247D01*
X149688787Y-119399260D01*
X149779692Y-119581821D01*
X149902602Y-119744581D01*
X150053323Y-119881980D01*
X150053325Y-119881982D01*
X150152506Y-119943392D01*
X150226728Y-119989348D01*
X150416909Y-120063024D01*
X150617389Y-120100500D01*
X150617391Y-120100500D01*
X150821339Y-120100500D01*
X150821341Y-120100500D01*
X151021821Y-120063024D01*
X151212002Y-119989348D01*
X151385406Y-119881981D01*
X151536129Y-119744579D01*
X151620411Y-119632970D01*
X151676520Y-119591335D01*
X151746232Y-119586644D01*
X151807414Y-119620386D01*
X151818319Y-119632971D01*
X151902602Y-119744581D01*
X152053323Y-119881980D01*
X152053325Y-119881982D01*
X152152506Y-119943392D01*
X152226728Y-119989348D01*
X152416909Y-120063024D01*
X152617389Y-120100500D01*
X152617391Y-120100500D01*
X152821339Y-120100500D01*
X152821341Y-120100500D01*
X153021821Y-120063024D01*
X153212002Y-119989348D01*
X153385406Y-119881981D01*
X153536129Y-119744579D01*
X153620411Y-119632970D01*
X153676520Y-119591335D01*
X153746232Y-119586644D01*
X153807414Y-119620386D01*
X153818319Y-119632971D01*
X153902602Y-119744581D01*
X154053323Y-119881980D01*
X154053325Y-119881982D01*
X154152506Y-119943392D01*
X154226728Y-119989348D01*
X154416909Y-120063024D01*
X154617389Y-120100500D01*
X154617391Y-120100500D01*
X154821339Y-120100500D01*
X154821341Y-120100500D01*
X155021821Y-120063024D01*
X155212002Y-119989348D01*
X155385406Y-119881981D01*
X155536129Y-119744579D01*
X155659038Y-119581821D01*
X155749947Y-119399250D01*
X155805762Y-119203083D01*
X155824580Y-119000000D01*
X157614150Y-119000000D01*
X157632967Y-119203082D01*
X157688782Y-119399247D01*
X157688787Y-119399260D01*
X157779692Y-119581821D01*
X157902602Y-119744581D01*
X158053323Y-119881980D01*
X158053325Y-119881982D01*
X158152506Y-119943392D01*
X158226728Y-119989348D01*
X158416909Y-120063024D01*
X158617389Y-120100500D01*
X158617391Y-120100500D01*
X158821339Y-120100500D01*
X158821341Y-120100500D01*
X159021821Y-120063024D01*
X159212002Y-119989348D01*
X159385406Y-119881981D01*
X159536129Y-119744579D01*
X159659038Y-119581821D01*
X159749947Y-119399250D01*
X159805762Y-119203083D01*
X159824580Y-119000000D01*
X161614150Y-119000000D01*
X161632967Y-119203082D01*
X161688782Y-119399247D01*
X161688787Y-119399260D01*
X161779692Y-119581821D01*
X161902602Y-119744581D01*
X162053323Y-119881980D01*
X162053325Y-119881982D01*
X162152506Y-119943392D01*
X162226728Y-119989348D01*
X162416909Y-120063024D01*
X162617389Y-120100500D01*
X162617391Y-120100500D01*
X162821339Y-120100500D01*
X162821341Y-120100500D01*
X163021821Y-120063024D01*
X163212002Y-119989348D01*
X163385406Y-119881981D01*
X163536129Y-119744579D01*
X163659038Y-119581821D01*
X163749947Y-119399250D01*
X163805762Y-119203083D01*
X163824580Y-119000000D01*
X165614150Y-119000000D01*
X165632967Y-119203082D01*
X165688782Y-119399247D01*
X165688787Y-119399260D01*
X165779692Y-119581821D01*
X165902602Y-119744581D01*
X166053323Y-119881980D01*
X166053325Y-119881982D01*
X166152506Y-119943392D01*
X166226728Y-119989348D01*
X166416909Y-120063024D01*
X166617389Y-120100500D01*
X166617391Y-120100500D01*
X166821339Y-120100500D01*
X166821341Y-120100500D01*
X167021821Y-120063024D01*
X167212002Y-119989348D01*
X167385406Y-119881981D01*
X167536129Y-119744579D01*
X167659038Y-119581821D01*
X167749947Y-119399250D01*
X167805762Y-119203083D01*
X167824580Y-119000000D01*
X169614150Y-119000000D01*
X169632967Y-119203082D01*
X169688782Y-119399247D01*
X169688787Y-119399260D01*
X169779692Y-119581821D01*
X169902602Y-119744581D01*
X170053323Y-119881980D01*
X170053325Y-119881982D01*
X170152506Y-119943392D01*
X170226728Y-119989348D01*
X170416909Y-120063024D01*
X170617389Y-120100500D01*
X170617391Y-120100500D01*
X170821339Y-120100500D01*
X170821341Y-120100500D01*
X171021821Y-120063024D01*
X171212002Y-119989348D01*
X171385406Y-119881981D01*
X171536129Y-119744579D01*
X171659038Y-119581821D01*
X171749947Y-119399250D01*
X171805762Y-119203083D01*
X171824580Y-119000000D01*
X173614150Y-119000000D01*
X173632967Y-119203082D01*
X173688782Y-119399247D01*
X173688787Y-119399260D01*
X173779692Y-119581821D01*
X173902602Y-119744581D01*
X174053323Y-119881980D01*
X174053325Y-119881982D01*
X174152506Y-119943392D01*
X174226728Y-119989348D01*
X174416909Y-120063024D01*
X174617389Y-120100500D01*
X174617391Y-120100500D01*
X174821339Y-120100500D01*
X174821341Y-120100500D01*
X175021821Y-120063024D01*
X175212002Y-119989348D01*
X175385406Y-119881981D01*
X175536129Y-119744579D01*
X175659038Y-119581821D01*
X175749947Y-119399250D01*
X175805762Y-119203083D01*
X175824580Y-119000000D01*
X177614150Y-119000000D01*
X177632967Y-119203082D01*
X177688782Y-119399247D01*
X177688787Y-119399260D01*
X177779692Y-119581821D01*
X177902602Y-119744581D01*
X178053323Y-119881980D01*
X178053325Y-119881982D01*
X178152506Y-119943392D01*
X178226728Y-119989348D01*
X178416909Y-120063024D01*
X178617389Y-120100500D01*
X178617391Y-120100500D01*
X178821339Y-120100500D01*
X178821341Y-120100500D01*
X179021821Y-120063024D01*
X179212002Y-119989348D01*
X179385406Y-119881981D01*
X179536129Y-119744579D01*
X179659038Y-119581821D01*
X179749947Y-119399250D01*
X179805762Y-119203083D01*
X179824580Y-119000000D01*
X181614150Y-119000000D01*
X181632967Y-119203082D01*
X181688782Y-119399247D01*
X181688787Y-119399260D01*
X181779692Y-119581821D01*
X181902602Y-119744581D01*
X182053323Y-119881980D01*
X182053325Y-119881982D01*
X182152506Y-119943392D01*
X182226728Y-119989348D01*
X182416909Y-120063024D01*
X182617389Y-120100500D01*
X182617391Y-120100500D01*
X182821339Y-120100500D01*
X182821341Y-120100500D01*
X183021821Y-120063024D01*
X183212002Y-119989348D01*
X183385406Y-119881981D01*
X183536129Y-119744579D01*
X183659038Y-119581821D01*
X183749947Y-119399250D01*
X183805762Y-119203083D01*
X183824580Y-119000000D01*
X183805762Y-118796917D01*
X183749947Y-118600750D01*
X183659038Y-118418179D01*
X183569210Y-118299227D01*
X183544518Y-118233865D01*
X183559083Y-118165531D01*
X183608281Y-118115918D01*
X183668164Y-118100500D01*
X183821339Y-118100500D01*
X183821341Y-118100500D01*
X184021821Y-118063024D01*
X184212002Y-117989348D01*
X184385406Y-117881981D01*
X184536129Y-117744579D01*
X184620411Y-117632970D01*
X184676520Y-117591335D01*
X184746232Y-117586644D01*
X184807414Y-117620386D01*
X184818319Y-117632971D01*
X184902602Y-117744581D01*
X185053323Y-117881980D01*
X185053325Y-117881982D01*
X185056717Y-117884082D01*
X185226728Y-117989348D01*
X185416909Y-118063024D01*
X185617389Y-118100500D01*
X185617391Y-118100500D01*
X185770566Y-118100500D01*
X185837605Y-118120185D01*
X185883360Y-118172989D01*
X185893304Y-118242147D01*
X185869520Y-118299227D01*
X185779692Y-118418178D01*
X185688787Y-118600739D01*
X185688782Y-118600752D01*
X185632967Y-118796917D01*
X185614150Y-118999999D01*
X185614150Y-119000000D01*
X185632967Y-119203082D01*
X185688782Y-119399247D01*
X185688787Y-119399260D01*
X185779692Y-119581821D01*
X185902602Y-119744581D01*
X186053323Y-119881980D01*
X186053325Y-119881982D01*
X186152506Y-119943392D01*
X186226728Y-119989348D01*
X186416909Y-120063024D01*
X186617389Y-120100500D01*
X186617391Y-120100500D01*
X186821339Y-120100500D01*
X186821341Y-120100500D01*
X187021821Y-120063024D01*
X187212002Y-119989348D01*
X187385406Y-119881981D01*
X187536129Y-119744579D01*
X187659038Y-119581821D01*
X187749947Y-119399250D01*
X187805762Y-119203083D01*
X187824580Y-119000000D01*
X187805762Y-118796917D01*
X187749947Y-118600750D01*
X187659038Y-118418179D01*
X187536129Y-118255421D01*
X187536127Y-118255418D01*
X187385406Y-118118019D01*
X187385404Y-118118017D01*
X187212007Y-118010655D01*
X187212000Y-118010651D01*
X187116911Y-117973814D01*
X187021821Y-117936976D01*
X186821341Y-117899500D01*
X186668164Y-117899500D01*
X186601125Y-117879815D01*
X186555370Y-117827011D01*
X186545426Y-117757853D01*
X186569210Y-117700773D01*
X186629915Y-117620386D01*
X186659038Y-117581821D01*
X186749947Y-117399250D01*
X186805762Y-117203083D01*
X186824580Y-117000000D01*
X186805762Y-116796917D01*
X186749947Y-116600750D01*
X186749929Y-116600714D01*
X186705637Y-116511764D01*
X186659038Y-116418179D01*
X186600069Y-116340091D01*
X186536127Y-116255418D01*
X186385406Y-116118019D01*
X186385404Y-116118017D01*
X186212007Y-116010655D01*
X186212000Y-116010651D01*
X186079206Y-115959207D01*
X186021821Y-115936976D01*
X185821341Y-115899500D01*
X185617389Y-115899500D01*
X185416909Y-115936976D01*
X185416906Y-115936976D01*
X185416906Y-115936977D01*
X185226729Y-116010651D01*
X185226722Y-116010655D01*
X185053325Y-116118017D01*
X185053323Y-116118019D01*
X184902602Y-116255419D01*
X184818319Y-116367028D01*
X184762210Y-116408664D01*
X184692498Y-116413355D01*
X184631316Y-116379613D01*
X184620411Y-116367028D01*
X184557283Y-116283434D01*
X184536129Y-116255421D01*
X184385406Y-116118019D01*
X184385404Y-116118017D01*
X184212007Y-116010655D01*
X184212000Y-116010651D01*
X184079206Y-115959207D01*
X184021821Y-115936976D01*
X183821341Y-115899500D01*
X183617389Y-115899500D01*
X183416909Y-115936976D01*
X183416906Y-115936976D01*
X183416906Y-115936977D01*
X183226729Y-116010651D01*
X183226722Y-116010655D01*
X183053325Y-116118017D01*
X183053323Y-116118019D01*
X182902602Y-116255418D01*
X182779692Y-116418178D01*
X182688787Y-116600739D01*
X182688782Y-116600752D01*
X182632967Y-116796917D01*
X182614150Y-116999999D01*
X182614150Y-117000000D01*
X182632967Y-117203082D01*
X182688782Y-117399247D01*
X182688787Y-117399260D01*
X182779692Y-117581821D01*
X182869520Y-117700773D01*
X182894212Y-117766135D01*
X182879647Y-117834469D01*
X182830449Y-117884082D01*
X182770566Y-117899500D01*
X182617389Y-117899500D01*
X182416909Y-117936976D01*
X182416906Y-117936976D01*
X182416906Y-117936977D01*
X182226729Y-118010651D01*
X182226722Y-118010655D01*
X182053325Y-118118017D01*
X182053323Y-118118019D01*
X181902602Y-118255418D01*
X181779692Y-118418178D01*
X181688787Y-118600739D01*
X181688782Y-118600752D01*
X181632967Y-118796917D01*
X181614150Y-118999999D01*
X181614150Y-119000000D01*
X179824580Y-119000000D01*
X179805762Y-118796917D01*
X179749947Y-118600750D01*
X179659038Y-118418179D01*
X179569210Y-118299227D01*
X179544518Y-118233865D01*
X179559083Y-118165531D01*
X179608281Y-118115918D01*
X179668164Y-118100500D01*
X179821339Y-118100500D01*
X179821341Y-118100500D01*
X180021821Y-118063024D01*
X180212002Y-117989348D01*
X180385406Y-117881981D01*
X180536129Y-117744579D01*
X180659038Y-117581821D01*
X180749947Y-117399250D01*
X180805762Y-117203083D01*
X180824580Y-117000000D01*
X180805762Y-116796917D01*
X180749947Y-116600750D01*
X180749929Y-116600714D01*
X180705637Y-116511764D01*
X180659038Y-116418179D01*
X180600069Y-116340091D01*
X180536127Y-116255418D01*
X180385406Y-116118019D01*
X180385404Y-116118017D01*
X180212007Y-116010655D01*
X180212000Y-116010651D01*
X180079206Y-115959207D01*
X180021821Y-115936976D01*
X179821341Y-115899500D01*
X179617389Y-115899500D01*
X179416909Y-115936976D01*
X179416906Y-115936976D01*
X179416906Y-115936977D01*
X179226729Y-116010651D01*
X179226722Y-116010655D01*
X179053325Y-116118017D01*
X179053323Y-116118019D01*
X178902602Y-116255418D01*
X178779692Y-116418178D01*
X178688787Y-116600739D01*
X178688782Y-116600752D01*
X178632967Y-116796917D01*
X178614150Y-116999999D01*
X178614150Y-117000000D01*
X178632967Y-117203082D01*
X178688782Y-117399247D01*
X178688787Y-117399260D01*
X178779692Y-117581821D01*
X178869520Y-117700773D01*
X178894212Y-117766135D01*
X178879647Y-117834469D01*
X178830449Y-117884082D01*
X178770566Y-117899500D01*
X178617389Y-117899500D01*
X178416909Y-117936976D01*
X178416906Y-117936976D01*
X178416906Y-117936977D01*
X178226729Y-118010651D01*
X178226722Y-118010655D01*
X178053325Y-118118017D01*
X178053323Y-118118019D01*
X177902602Y-118255418D01*
X177779692Y-118418178D01*
X177688787Y-118600739D01*
X177688782Y-118600752D01*
X177632967Y-118796917D01*
X177614150Y-118999999D01*
X177614150Y-119000000D01*
X175824580Y-119000000D01*
X175805762Y-118796917D01*
X175749947Y-118600750D01*
X175659038Y-118418179D01*
X175569210Y-118299227D01*
X175544518Y-118233865D01*
X175559083Y-118165531D01*
X175608281Y-118115918D01*
X175668164Y-118100500D01*
X175821339Y-118100500D01*
X175821341Y-118100500D01*
X176021821Y-118063024D01*
X176212002Y-117989348D01*
X176385406Y-117881981D01*
X176536129Y-117744579D01*
X176659038Y-117581821D01*
X176749947Y-117399250D01*
X176805762Y-117203083D01*
X176824580Y-117000000D01*
X176805762Y-116796917D01*
X176749947Y-116600750D01*
X176749929Y-116600714D01*
X176705637Y-116511764D01*
X176659038Y-116418179D01*
X176600069Y-116340091D01*
X176536127Y-116255418D01*
X176385406Y-116118019D01*
X176385404Y-116118017D01*
X176212007Y-116010655D01*
X176212000Y-116010651D01*
X176079206Y-115959207D01*
X176021821Y-115936976D01*
X175821341Y-115899500D01*
X175617389Y-115899500D01*
X175416909Y-115936976D01*
X175416906Y-115936976D01*
X175416906Y-115936977D01*
X175226729Y-116010651D01*
X175226722Y-116010655D01*
X175053325Y-116118017D01*
X175053323Y-116118019D01*
X174902602Y-116255418D01*
X174779692Y-116418178D01*
X174688787Y-116600739D01*
X174688782Y-116600752D01*
X174632967Y-116796917D01*
X174614150Y-116999999D01*
X174614150Y-117000000D01*
X174632967Y-117203082D01*
X174688782Y-117399247D01*
X174688787Y-117399260D01*
X174779692Y-117581821D01*
X174869520Y-117700773D01*
X174894212Y-117766135D01*
X174879647Y-117834469D01*
X174830449Y-117884082D01*
X174770566Y-117899500D01*
X174617389Y-117899500D01*
X174416909Y-117936976D01*
X174416906Y-117936976D01*
X174416906Y-117936977D01*
X174226729Y-118010651D01*
X174226722Y-118010655D01*
X174053325Y-118118017D01*
X174053323Y-118118019D01*
X173902602Y-118255418D01*
X173779692Y-118418178D01*
X173688787Y-118600739D01*
X173688782Y-118600752D01*
X173632967Y-118796917D01*
X173614150Y-118999999D01*
X173614150Y-119000000D01*
X171824580Y-119000000D01*
X171805762Y-118796917D01*
X171749947Y-118600750D01*
X171659038Y-118418179D01*
X171569210Y-118299227D01*
X171544518Y-118233865D01*
X171559083Y-118165531D01*
X171608281Y-118115918D01*
X171668164Y-118100500D01*
X171821339Y-118100500D01*
X171821341Y-118100500D01*
X172021821Y-118063024D01*
X172212002Y-117989348D01*
X172385406Y-117881981D01*
X172536129Y-117744579D01*
X172659038Y-117581821D01*
X172749947Y-117399250D01*
X172805762Y-117203083D01*
X172824580Y-117000000D01*
X172805762Y-116796917D01*
X172749947Y-116600750D01*
X172749929Y-116600714D01*
X172705637Y-116511764D01*
X172659038Y-116418179D01*
X172600069Y-116340091D01*
X172536127Y-116255418D01*
X172385406Y-116118019D01*
X172385404Y-116118017D01*
X172212007Y-116010655D01*
X172212000Y-116010651D01*
X172079206Y-115959207D01*
X172021821Y-115936976D01*
X171821341Y-115899500D01*
X171617389Y-115899500D01*
X171416909Y-115936976D01*
X171416906Y-115936976D01*
X171416906Y-115936977D01*
X171226729Y-116010651D01*
X171226722Y-116010655D01*
X171053325Y-116118017D01*
X171053323Y-116118019D01*
X170902602Y-116255418D01*
X170779692Y-116418178D01*
X170688787Y-116600739D01*
X170688782Y-116600752D01*
X170632967Y-116796917D01*
X170614150Y-116999999D01*
X170614150Y-117000000D01*
X170632967Y-117203082D01*
X170688782Y-117399247D01*
X170688787Y-117399260D01*
X170779692Y-117581821D01*
X170869520Y-117700773D01*
X170894212Y-117766135D01*
X170879647Y-117834469D01*
X170830449Y-117884082D01*
X170770566Y-117899500D01*
X170617389Y-117899500D01*
X170416909Y-117936976D01*
X170416906Y-117936976D01*
X170416906Y-117936977D01*
X170226729Y-118010651D01*
X170226722Y-118010655D01*
X170053325Y-118118017D01*
X170053323Y-118118019D01*
X169902602Y-118255418D01*
X169779692Y-118418178D01*
X169688787Y-118600739D01*
X169688782Y-118600752D01*
X169632967Y-118796917D01*
X169614150Y-118999999D01*
X169614150Y-119000000D01*
X167824580Y-119000000D01*
X167805762Y-118796917D01*
X167749947Y-118600750D01*
X167659038Y-118418179D01*
X167569210Y-118299227D01*
X167544518Y-118233865D01*
X167559083Y-118165531D01*
X167608281Y-118115918D01*
X167668164Y-118100500D01*
X167821339Y-118100500D01*
X167821341Y-118100500D01*
X168021821Y-118063024D01*
X168212002Y-117989348D01*
X168385406Y-117881981D01*
X168536129Y-117744579D01*
X168659038Y-117581821D01*
X168749947Y-117399250D01*
X168805762Y-117203083D01*
X168824580Y-117000000D01*
X168805762Y-116796917D01*
X168749947Y-116600750D01*
X168749929Y-116600714D01*
X168705637Y-116511764D01*
X168659038Y-116418179D01*
X168600069Y-116340091D01*
X168536127Y-116255418D01*
X168385406Y-116118019D01*
X168385404Y-116118017D01*
X168212007Y-116010655D01*
X168212000Y-116010651D01*
X168079206Y-115959207D01*
X168021821Y-115936976D01*
X167821341Y-115899500D01*
X167617389Y-115899500D01*
X167416909Y-115936976D01*
X167416906Y-115936976D01*
X167416906Y-115936977D01*
X167226729Y-116010651D01*
X167226722Y-116010655D01*
X167053325Y-116118017D01*
X167053323Y-116118019D01*
X166902602Y-116255418D01*
X166779692Y-116418178D01*
X166688787Y-116600739D01*
X166688782Y-116600752D01*
X166632967Y-116796917D01*
X166614150Y-116999999D01*
X166614150Y-117000000D01*
X166632967Y-117203082D01*
X166688782Y-117399247D01*
X166688787Y-117399260D01*
X166779692Y-117581821D01*
X166869520Y-117700773D01*
X166894212Y-117766135D01*
X166879647Y-117834469D01*
X166830449Y-117884082D01*
X166770566Y-117899500D01*
X166617389Y-117899500D01*
X166416909Y-117936976D01*
X166416906Y-117936976D01*
X166416906Y-117936977D01*
X166226729Y-118010651D01*
X166226722Y-118010655D01*
X166053325Y-118118017D01*
X166053323Y-118118019D01*
X165902602Y-118255418D01*
X165779692Y-118418178D01*
X165688787Y-118600739D01*
X165688782Y-118600752D01*
X165632967Y-118796917D01*
X165614150Y-118999999D01*
X165614150Y-119000000D01*
X163824580Y-119000000D01*
X163805762Y-118796917D01*
X163749947Y-118600750D01*
X163659038Y-118418179D01*
X163569210Y-118299227D01*
X163544518Y-118233865D01*
X163559083Y-118165531D01*
X163608281Y-118115918D01*
X163668164Y-118100500D01*
X163821339Y-118100500D01*
X163821341Y-118100500D01*
X164021821Y-118063024D01*
X164212002Y-117989348D01*
X164385406Y-117881981D01*
X164536129Y-117744579D01*
X164659038Y-117581821D01*
X164749947Y-117399250D01*
X164805762Y-117203083D01*
X164824580Y-117000000D01*
X164805762Y-116796917D01*
X164749947Y-116600750D01*
X164749929Y-116600714D01*
X164705637Y-116511764D01*
X164659038Y-116418179D01*
X164600069Y-116340091D01*
X164536127Y-116255418D01*
X164385406Y-116118019D01*
X164385404Y-116118017D01*
X164212007Y-116010655D01*
X164212000Y-116010651D01*
X164079206Y-115959207D01*
X164021821Y-115936976D01*
X163821341Y-115899500D01*
X163617389Y-115899500D01*
X163416909Y-115936976D01*
X163416906Y-115936976D01*
X163416906Y-115936977D01*
X163226729Y-116010651D01*
X163226722Y-116010655D01*
X163053325Y-116118017D01*
X163053323Y-116118019D01*
X162902602Y-116255418D01*
X162779692Y-116418178D01*
X162688787Y-116600739D01*
X162688782Y-116600752D01*
X162632967Y-116796917D01*
X162614150Y-116999999D01*
X162614150Y-117000000D01*
X162632967Y-117203082D01*
X162688782Y-117399247D01*
X162688787Y-117399260D01*
X162779692Y-117581821D01*
X162869520Y-117700773D01*
X162894212Y-117766135D01*
X162879647Y-117834469D01*
X162830449Y-117884082D01*
X162770566Y-117899500D01*
X162617389Y-117899500D01*
X162416909Y-117936976D01*
X162416906Y-117936976D01*
X162416906Y-117936977D01*
X162226729Y-118010651D01*
X162226722Y-118010655D01*
X162053325Y-118118017D01*
X162053323Y-118118019D01*
X161902602Y-118255418D01*
X161779692Y-118418178D01*
X161688787Y-118600739D01*
X161688782Y-118600752D01*
X161632967Y-118796917D01*
X161614150Y-118999999D01*
X161614150Y-119000000D01*
X159824580Y-119000000D01*
X159805762Y-118796917D01*
X159749947Y-118600750D01*
X159659038Y-118418179D01*
X159569210Y-118299227D01*
X159544518Y-118233865D01*
X159559083Y-118165531D01*
X159608281Y-118115918D01*
X159668164Y-118100500D01*
X159821339Y-118100500D01*
X159821341Y-118100500D01*
X160021821Y-118063024D01*
X160212002Y-117989348D01*
X160385406Y-117881981D01*
X160536129Y-117744579D01*
X160659038Y-117581821D01*
X160749947Y-117399250D01*
X160805762Y-117203083D01*
X160824580Y-117000000D01*
X160805762Y-116796917D01*
X160749947Y-116600750D01*
X160749929Y-116600714D01*
X160705637Y-116511764D01*
X160659038Y-116418179D01*
X160600069Y-116340091D01*
X160536127Y-116255418D01*
X160385406Y-116118019D01*
X160385404Y-116118017D01*
X160212007Y-116010655D01*
X160212000Y-116010651D01*
X160079206Y-115959207D01*
X160021821Y-115936976D01*
X159821341Y-115899500D01*
X159617389Y-115899500D01*
X159416909Y-115936976D01*
X159416906Y-115936976D01*
X159416906Y-115936977D01*
X159226729Y-116010651D01*
X159226722Y-116010655D01*
X159053325Y-116118017D01*
X159053323Y-116118019D01*
X158902602Y-116255418D01*
X158779692Y-116418178D01*
X158688787Y-116600739D01*
X158688782Y-116600752D01*
X158632967Y-116796917D01*
X158614150Y-116999999D01*
X158614150Y-117000000D01*
X158632967Y-117203082D01*
X158688782Y-117399247D01*
X158688787Y-117399260D01*
X158779692Y-117581821D01*
X158869520Y-117700773D01*
X158894212Y-117766135D01*
X158879647Y-117834469D01*
X158830449Y-117884082D01*
X158770566Y-117899500D01*
X158617389Y-117899500D01*
X158416909Y-117936976D01*
X158416906Y-117936976D01*
X158416906Y-117936977D01*
X158226729Y-118010651D01*
X158226722Y-118010655D01*
X158053325Y-118118017D01*
X158053323Y-118118019D01*
X157902602Y-118255418D01*
X157779692Y-118418178D01*
X157688787Y-118600739D01*
X157688782Y-118600752D01*
X157632967Y-118796917D01*
X157614150Y-118999999D01*
X157614150Y-119000000D01*
X155824580Y-119000000D01*
X155805762Y-118796917D01*
X155749947Y-118600750D01*
X155659038Y-118418179D01*
X155569210Y-118299227D01*
X155544518Y-118233865D01*
X155559083Y-118165531D01*
X155608281Y-118115918D01*
X155668164Y-118100500D01*
X155821339Y-118100500D01*
X155821341Y-118100500D01*
X156021821Y-118063024D01*
X156212002Y-117989348D01*
X156385406Y-117881981D01*
X156536129Y-117744579D01*
X156659038Y-117581821D01*
X156749947Y-117399250D01*
X156805762Y-117203083D01*
X156824580Y-117000000D01*
X156805762Y-116796917D01*
X156749947Y-116600750D01*
X156749929Y-116600714D01*
X156705637Y-116511764D01*
X156659038Y-116418179D01*
X156600069Y-116340091D01*
X156536127Y-116255418D01*
X156385406Y-116118019D01*
X156385404Y-116118017D01*
X156212007Y-116010655D01*
X156212000Y-116010651D01*
X156079206Y-115959207D01*
X156021821Y-115936976D01*
X155821341Y-115899500D01*
X155617389Y-115899500D01*
X155416909Y-115936976D01*
X155416906Y-115936976D01*
X155416906Y-115936977D01*
X155226729Y-116010651D01*
X155226722Y-116010655D01*
X155053325Y-116118017D01*
X155053323Y-116118019D01*
X154902602Y-116255418D01*
X154779692Y-116418178D01*
X154688787Y-116600739D01*
X154688782Y-116600752D01*
X154632967Y-116796917D01*
X154614150Y-116999999D01*
X154614150Y-117000000D01*
X154632967Y-117203082D01*
X154688782Y-117399247D01*
X154688787Y-117399260D01*
X154779692Y-117581821D01*
X154869520Y-117700773D01*
X154894212Y-117766135D01*
X154879647Y-117834469D01*
X154830449Y-117884082D01*
X154770566Y-117899500D01*
X154617389Y-117899500D01*
X154416909Y-117936976D01*
X154416906Y-117936976D01*
X154416906Y-117936977D01*
X154226729Y-118010651D01*
X154226722Y-118010655D01*
X154053325Y-118118017D01*
X154053323Y-118118019D01*
X153902602Y-118255419D01*
X153818319Y-118367028D01*
X153762210Y-118408664D01*
X153692498Y-118413355D01*
X153631316Y-118379613D01*
X153620411Y-118367028D01*
X153536127Y-118255419D01*
X153385406Y-118118019D01*
X153385404Y-118118017D01*
X153212007Y-118010655D01*
X153212000Y-118010651D01*
X153116911Y-117973814D01*
X153021821Y-117936976D01*
X152821341Y-117899500D01*
X152617389Y-117899500D01*
X152416909Y-117936976D01*
X152416906Y-117936976D01*
X152416906Y-117936977D01*
X152226729Y-118010651D01*
X152226722Y-118010655D01*
X152053325Y-118118017D01*
X152053323Y-118118019D01*
X151902602Y-118255419D01*
X151818319Y-118367028D01*
X151762210Y-118408664D01*
X151692498Y-118413355D01*
X151631316Y-118379613D01*
X151620411Y-118367028D01*
X151536127Y-118255419D01*
X151385406Y-118118019D01*
X151385404Y-118118017D01*
X151212007Y-118010655D01*
X151212000Y-118010651D01*
X151116911Y-117973814D01*
X151021821Y-117936976D01*
X150821341Y-117899500D01*
X150668164Y-117899500D01*
X150601125Y-117879815D01*
X150555370Y-117827011D01*
X150545426Y-117757853D01*
X150569210Y-117700773D01*
X150629915Y-117620386D01*
X150659038Y-117581821D01*
X150749947Y-117399250D01*
X150805762Y-117203083D01*
X150824580Y-117000000D01*
X150805762Y-116796917D01*
X150749947Y-116600750D01*
X150749929Y-116600714D01*
X150705637Y-116511764D01*
X150659038Y-116418179D01*
X150600069Y-116340091D01*
X150536127Y-116255418D01*
X150385406Y-116118019D01*
X150385404Y-116118017D01*
X150212007Y-116010655D01*
X150212000Y-116010651D01*
X150079206Y-115959207D01*
X150021821Y-115936976D01*
X149821341Y-115899500D01*
X149617389Y-115899500D01*
X149416909Y-115936976D01*
X149416906Y-115936976D01*
X149416906Y-115936977D01*
X149226729Y-116010651D01*
X149226722Y-116010655D01*
X149053325Y-116118017D01*
X149053323Y-116118019D01*
X148902602Y-116255418D01*
X148779692Y-116418178D01*
X148688787Y-116600739D01*
X148688782Y-116600752D01*
X148632967Y-116796917D01*
X148614150Y-116999999D01*
X148614150Y-117000000D01*
X146824580Y-117000000D01*
X146805762Y-116796917D01*
X146749947Y-116600750D01*
X146749929Y-116600714D01*
X146705637Y-116511764D01*
X146659038Y-116418179D01*
X146600069Y-116340091D01*
X146536127Y-116255418D01*
X146385406Y-116118019D01*
X146385404Y-116118017D01*
X146212007Y-116010655D01*
X146212000Y-116010651D01*
X146079206Y-115959207D01*
X146021821Y-115936976D01*
X145821341Y-115899500D01*
X145617389Y-115899500D01*
X145416909Y-115936976D01*
X145416906Y-115936976D01*
X145416906Y-115936977D01*
X145226729Y-116010651D01*
X145226722Y-116010655D01*
X145053325Y-116118017D01*
X145053323Y-116118019D01*
X144902602Y-116255418D01*
X144779692Y-116418178D01*
X144688787Y-116600739D01*
X144688782Y-116600752D01*
X144632967Y-116796917D01*
X144614150Y-116999999D01*
X144614150Y-117000000D01*
X142824580Y-117000000D01*
X142805762Y-116796917D01*
X142749947Y-116600750D01*
X142749929Y-116600714D01*
X142705637Y-116511764D01*
X142659038Y-116418179D01*
X142600069Y-116340091D01*
X142536127Y-116255418D01*
X142385406Y-116118019D01*
X142385404Y-116118017D01*
X142212007Y-116010655D01*
X142212000Y-116010651D01*
X142079206Y-115959207D01*
X142021821Y-115936976D01*
X141821341Y-115899500D01*
X141617389Y-115899500D01*
X141416909Y-115936976D01*
X141416906Y-115936976D01*
X141416906Y-115936977D01*
X141226729Y-116010651D01*
X141226722Y-116010655D01*
X141053325Y-116118017D01*
X141053323Y-116118019D01*
X140902602Y-116255418D01*
X140779692Y-116418178D01*
X140688787Y-116600739D01*
X140688782Y-116600752D01*
X140632967Y-116796917D01*
X140614150Y-116999999D01*
X140614150Y-117000000D01*
X138824580Y-117000000D01*
X138805762Y-116796917D01*
X138749947Y-116600750D01*
X138749929Y-116600714D01*
X138705637Y-116511764D01*
X138659038Y-116418179D01*
X138600069Y-116340091D01*
X138536127Y-116255418D01*
X138385406Y-116118019D01*
X138385404Y-116118017D01*
X138212007Y-116010655D01*
X138212000Y-116010651D01*
X138079206Y-115959207D01*
X138021821Y-115936976D01*
X137821341Y-115899500D01*
X137617389Y-115899500D01*
X137416909Y-115936976D01*
X137416906Y-115936976D01*
X137416906Y-115936977D01*
X137226729Y-116010651D01*
X137226722Y-116010655D01*
X137053325Y-116118017D01*
X137053323Y-116118019D01*
X136902602Y-116255419D01*
X136818319Y-116367028D01*
X136762210Y-116408664D01*
X136692498Y-116413355D01*
X136631316Y-116379613D01*
X136620411Y-116367028D01*
X136557283Y-116283434D01*
X136536129Y-116255421D01*
X136385406Y-116118019D01*
X136385404Y-116118017D01*
X136212007Y-116010655D01*
X136212000Y-116010651D01*
X136079206Y-115959207D01*
X136021821Y-115936976D01*
X135821341Y-115899500D01*
X135617389Y-115899500D01*
X135416909Y-115936976D01*
X135416906Y-115936976D01*
X135416906Y-115936977D01*
X135226729Y-116010651D01*
X135226722Y-116010655D01*
X135053325Y-116118017D01*
X135053323Y-116118019D01*
X134902602Y-116255418D01*
X134779692Y-116418178D01*
X134688787Y-116600739D01*
X134688782Y-116600752D01*
X134632967Y-116796917D01*
X134614150Y-116999999D01*
X134614150Y-117000000D01*
X134632967Y-117203082D01*
X134688782Y-117399247D01*
X134688787Y-117399260D01*
X134779692Y-117581821D01*
X134869520Y-117700773D01*
X134894212Y-117766135D01*
X134879647Y-117834469D01*
X134830449Y-117884082D01*
X134770566Y-117899500D01*
X134617389Y-117899500D01*
X134416909Y-117936976D01*
X134416906Y-117936976D01*
X134416906Y-117936977D01*
X134226729Y-118010651D01*
X134226722Y-118010655D01*
X134053325Y-118118017D01*
X134053323Y-118118019D01*
X133902602Y-118255419D01*
X133818319Y-118367028D01*
X133762210Y-118408664D01*
X133692498Y-118413355D01*
X133631316Y-118379613D01*
X133620411Y-118367028D01*
X133536127Y-118255419D01*
X133385406Y-118118019D01*
X133385404Y-118118017D01*
X133212007Y-118010655D01*
X133212000Y-118010651D01*
X133116911Y-117973814D01*
X133021821Y-117936976D01*
X132821341Y-117899500D01*
X132668164Y-117899500D01*
X132601125Y-117879815D01*
X132555370Y-117827011D01*
X132545426Y-117757853D01*
X132569210Y-117700773D01*
X132629915Y-117620386D01*
X132659038Y-117581821D01*
X132749947Y-117399250D01*
X132805762Y-117203083D01*
X132824580Y-117000000D01*
X132805762Y-116796917D01*
X132749947Y-116600750D01*
X132749929Y-116600714D01*
X132705637Y-116511764D01*
X132659038Y-116418179D01*
X132600069Y-116340091D01*
X132536127Y-116255418D01*
X132385406Y-116118019D01*
X132385404Y-116118017D01*
X132212007Y-116010655D01*
X132212000Y-116010651D01*
X132079206Y-115959207D01*
X132021821Y-115936976D01*
X131821341Y-115899500D01*
X131617389Y-115899500D01*
X131416909Y-115936976D01*
X131416906Y-115936976D01*
X131416906Y-115936977D01*
X131226729Y-116010651D01*
X131226722Y-116010655D01*
X131053325Y-116118017D01*
X131053323Y-116118019D01*
X130902602Y-116255418D01*
X130779692Y-116418178D01*
X130688787Y-116600739D01*
X130688782Y-116600752D01*
X130632967Y-116796917D01*
X130614150Y-116999999D01*
X130614150Y-117000000D01*
X128824580Y-117000000D01*
X128805762Y-116796917D01*
X128749947Y-116600750D01*
X128749929Y-116600714D01*
X128705637Y-116511764D01*
X128659038Y-116418179D01*
X128600069Y-116340091D01*
X128536127Y-116255418D01*
X128385406Y-116118019D01*
X128385404Y-116118017D01*
X128212007Y-116010655D01*
X128212000Y-116010651D01*
X128079206Y-115959207D01*
X128021821Y-115936976D01*
X127821341Y-115899500D01*
X127617389Y-115899500D01*
X127416909Y-115936976D01*
X127416906Y-115936976D01*
X127416906Y-115936977D01*
X127226729Y-116010651D01*
X127226722Y-116010655D01*
X127053325Y-116118017D01*
X127053323Y-116118019D01*
X126902602Y-116255418D01*
X126779692Y-116418178D01*
X126688787Y-116600739D01*
X126688782Y-116600752D01*
X126632967Y-116796917D01*
X126614150Y-116999999D01*
X126614150Y-117000000D01*
X124824580Y-117000000D01*
X124805762Y-116796917D01*
X124749947Y-116600750D01*
X124749929Y-116600714D01*
X124705637Y-116511764D01*
X124659038Y-116418179D01*
X124600069Y-116340091D01*
X124536127Y-116255418D01*
X124385406Y-116118019D01*
X124385404Y-116118017D01*
X124212007Y-116010655D01*
X124212000Y-116010651D01*
X124079206Y-115959207D01*
X124021821Y-115936976D01*
X123821341Y-115899500D01*
X123617389Y-115899500D01*
X123416909Y-115936976D01*
X123416906Y-115936976D01*
X123416906Y-115936977D01*
X123226729Y-116010651D01*
X123226722Y-116010655D01*
X123053325Y-116118017D01*
X123053323Y-116118019D01*
X122902602Y-116255419D01*
X122818319Y-116367028D01*
X122762210Y-116408664D01*
X122692498Y-116413355D01*
X122631316Y-116379613D01*
X122620411Y-116367028D01*
X122557283Y-116283434D01*
X122536129Y-116255421D01*
X122385406Y-116118019D01*
X122385404Y-116118017D01*
X122212007Y-116010655D01*
X122212000Y-116010651D01*
X122079206Y-115959207D01*
X122021821Y-115936976D01*
X121821341Y-115899500D01*
X121617389Y-115899500D01*
X121416909Y-115936976D01*
X121416906Y-115936976D01*
X121416906Y-115936977D01*
X121226729Y-116010651D01*
X121226722Y-116010655D01*
X121053325Y-116118017D01*
X121053323Y-116118019D01*
X120902602Y-116255419D01*
X120818319Y-116367028D01*
X120762210Y-116408664D01*
X120692498Y-116413355D01*
X120631316Y-116379613D01*
X120620411Y-116367028D01*
X120557283Y-116283434D01*
X120536129Y-116255421D01*
X120385406Y-116118019D01*
X120385404Y-116118017D01*
X120212007Y-116010655D01*
X120212000Y-116010651D01*
X120079206Y-115959207D01*
X120021821Y-115936976D01*
X119821341Y-115899500D01*
X119617389Y-115899500D01*
X119416909Y-115936976D01*
X119416906Y-115936976D01*
X119416906Y-115936977D01*
X119226729Y-116010651D01*
X119226722Y-116010655D01*
X119053325Y-116118017D01*
X119053323Y-116118019D01*
X118902602Y-116255418D01*
X118779692Y-116418178D01*
X118688787Y-116600739D01*
X118688782Y-116600752D01*
X118632967Y-116796917D01*
X118614150Y-116999999D01*
X118614150Y-117000000D01*
X118632967Y-117203082D01*
X118688782Y-117399247D01*
X118688787Y-117399260D01*
X118779692Y-117581821D01*
X118869520Y-117700773D01*
X118894212Y-117766135D01*
X118879647Y-117834469D01*
X118830449Y-117884082D01*
X118770566Y-117899500D01*
X118617389Y-117899500D01*
X118416909Y-117936976D01*
X118416906Y-117936976D01*
X118416906Y-117936977D01*
X118226729Y-118010651D01*
X118226722Y-118010655D01*
X118053325Y-118118017D01*
X118053323Y-118118019D01*
X117902602Y-118255419D01*
X117818319Y-118367028D01*
X117762210Y-118408664D01*
X117692498Y-118413355D01*
X117631316Y-118379613D01*
X117620411Y-118367028D01*
X117536127Y-118255419D01*
X117385406Y-118118019D01*
X117385404Y-118118017D01*
X117212007Y-118010655D01*
X117212000Y-118010651D01*
X117116911Y-117973814D01*
X117021821Y-117936976D01*
X116821341Y-117899500D01*
X116617389Y-117899500D01*
X116416909Y-117936976D01*
X116416906Y-117936976D01*
X116416906Y-117936977D01*
X116226729Y-118010651D01*
X116226722Y-118010655D01*
X116053325Y-118118017D01*
X116053323Y-118118019D01*
X115902602Y-118255418D01*
X115779692Y-118418178D01*
X115688787Y-118600739D01*
X115688782Y-118600752D01*
X115632967Y-118796917D01*
X115614150Y-118999999D01*
X115614150Y-119000000D01*
X113824580Y-119000000D01*
X113805762Y-118796917D01*
X113749947Y-118600750D01*
X113659038Y-118418179D01*
X113569210Y-118299227D01*
X113544518Y-118233865D01*
X113559083Y-118165531D01*
X113608281Y-118115918D01*
X113668164Y-118100500D01*
X113821339Y-118100500D01*
X113821341Y-118100500D01*
X114021821Y-118063024D01*
X114212002Y-117989348D01*
X114385406Y-117881981D01*
X114536129Y-117744579D01*
X114659038Y-117581821D01*
X114749947Y-117399250D01*
X114805762Y-117203083D01*
X114805762Y-117203077D01*
X114805926Y-117202503D01*
X114843205Y-117143410D01*
X114906514Y-117113852D01*
X114966503Y-117119521D01*
X115008862Y-117134488D01*
X115008867Y-117134489D01*
X115008872Y-117134491D01*
X115008878Y-117134492D01*
X115248027Y-117175499D01*
X115248035Y-117175499D01*
X115248037Y-117175500D01*
X115248038Y-117175500D01*
X115429918Y-117175500D01*
X115429919Y-117175500D01*
X115429920Y-117175499D01*
X115429937Y-117175499D01*
X115611140Y-117160076D01*
X115611140Y-117160075D01*
X115611147Y-117160075D01*
X115845973Y-117098931D01*
X115845976Y-117098930D01*
X116067078Y-116998986D01*
X116067081Y-116998983D01*
X116067088Y-116998981D01*
X116268130Y-116863100D01*
X116443317Y-116695197D01*
X116587609Y-116500102D01*
X116696853Y-116283429D01*
X116767908Y-116051409D01*
X116798730Y-115810719D01*
X116793571Y-115689281D01*
X187090000Y-115689281D01*
X187100298Y-115931715D01*
X187100298Y-115931719D01*
X187151421Y-116168929D01*
X187151422Y-116168932D01*
X187197431Y-116283429D01*
X187241897Y-116394086D01*
X187256731Y-116418178D01*
X187369122Y-116600713D01*
X187529440Y-116782869D01*
X187529444Y-116782873D01*
X187718235Y-116935311D01*
X187930074Y-117053652D01*
X187930077Y-117053653D01*
X188158872Y-117134491D01*
X188158878Y-117134492D01*
X188398027Y-117175499D01*
X188398035Y-117175499D01*
X188398037Y-117175500D01*
X188398038Y-117175500D01*
X188579918Y-117175500D01*
X188579919Y-117175500D01*
X188579920Y-117175499D01*
X188579937Y-117175499D01*
X188761140Y-117160076D01*
X188761140Y-117160075D01*
X188761147Y-117160075D01*
X188995973Y-117098931D01*
X188995976Y-117098930D01*
X189217078Y-116998986D01*
X189217081Y-116998983D01*
X189217088Y-116998981D01*
X189418130Y-116863100D01*
X189593317Y-116695197D01*
X189737609Y-116500102D01*
X189846853Y-116283429D01*
X189917908Y-116051409D01*
X189948730Y-115810719D01*
X189938431Y-115568281D01*
X189887309Y-115331072D01*
X189796833Y-115105914D01*
X189669607Y-114899286D01*
X189509290Y-114717131D01*
X189509289Y-114717130D01*
X189509285Y-114717126D01*
X189320494Y-114564688D01*
X189108655Y-114446347D01*
X188879865Y-114365511D01*
X188879851Y-114365507D01*
X188640702Y-114324500D01*
X188640693Y-114324500D01*
X188458811Y-114324500D01*
X188458792Y-114324500D01*
X188277589Y-114339923D01*
X188277587Y-114339924D01*
X188042756Y-114401068D01*
X188042753Y-114401069D01*
X187821651Y-114501013D01*
X187821639Y-114501020D01*
X187620599Y-114636900D01*
X187620597Y-114636902D01*
X187445412Y-114804803D01*
X187445411Y-114804804D01*
X187301123Y-114999893D01*
X187191880Y-115216565D01*
X187191877Y-115216571D01*
X187120821Y-115448594D01*
X187090000Y-115689281D01*
X116793571Y-115689281D01*
X116788431Y-115568281D01*
X116755344Y-115414755D01*
X116760463Y-115345074D01*
X116802442Y-115289222D01*
X116867954Y-115264931D01*
X116936198Y-115279915D01*
X116960093Y-115296990D01*
X117053324Y-115381981D01*
X117226728Y-115489348D01*
X117416909Y-115563024D01*
X117617389Y-115600500D01*
X117617391Y-115600500D01*
X117821339Y-115600500D01*
X117821341Y-115600500D01*
X118021821Y-115563024D01*
X118212002Y-115489348D01*
X118385406Y-115381981D01*
X118536129Y-115244579D01*
X118659038Y-115081821D01*
X118749947Y-114899250D01*
X118805762Y-114703083D01*
X118824580Y-114500000D01*
X118805762Y-114296917D01*
X118749947Y-114100750D01*
X118659038Y-113918179D01*
X118569210Y-113799227D01*
X118544518Y-113733865D01*
X118559083Y-113665531D01*
X118608281Y-113615918D01*
X118668164Y-113600500D01*
X118821339Y-113600500D01*
X118821341Y-113600500D01*
X119021821Y-113563024D01*
X119212002Y-113489348D01*
X119385406Y-113381981D01*
X119536129Y-113244579D01*
X119620411Y-113132970D01*
X119676520Y-113091335D01*
X119746232Y-113086644D01*
X119807414Y-113120386D01*
X119818319Y-113132971D01*
X119902602Y-113244581D01*
X120053323Y-113381980D01*
X120053325Y-113381982D01*
X120142144Y-113436976D01*
X120226728Y-113489348D01*
X120416909Y-113563024D01*
X120617389Y-113600500D01*
X120617391Y-113600500D01*
X120770566Y-113600500D01*
X120837605Y-113620185D01*
X120883360Y-113672989D01*
X120893304Y-113742147D01*
X120869520Y-113799227D01*
X120779692Y-113918178D01*
X120688787Y-114100739D01*
X120688782Y-114100752D01*
X120632967Y-114296917D01*
X120614150Y-114499999D01*
X120614150Y-114500000D01*
X120632967Y-114703082D01*
X120688782Y-114899247D01*
X120688787Y-114899260D01*
X120779692Y-115081821D01*
X120902602Y-115244581D01*
X121053323Y-115381980D01*
X121053325Y-115381982D01*
X121152506Y-115443392D01*
X121226728Y-115489348D01*
X121416909Y-115563024D01*
X121617389Y-115600500D01*
X121617391Y-115600500D01*
X121821339Y-115600500D01*
X121821341Y-115600500D01*
X122021821Y-115563024D01*
X122212002Y-115489348D01*
X122385406Y-115381981D01*
X122536129Y-115244579D01*
X122620411Y-115132970D01*
X122676520Y-115091335D01*
X122746232Y-115086644D01*
X122807414Y-115120386D01*
X122818319Y-115132971D01*
X122902602Y-115244581D01*
X123053323Y-115381980D01*
X123053325Y-115381982D01*
X123152506Y-115443392D01*
X123226728Y-115489348D01*
X123416909Y-115563024D01*
X123617389Y-115600500D01*
X123617391Y-115600500D01*
X123821339Y-115600500D01*
X123821341Y-115600500D01*
X124021821Y-115563024D01*
X124212002Y-115489348D01*
X124385406Y-115381981D01*
X124536129Y-115244579D01*
X124620411Y-115132970D01*
X124676520Y-115091335D01*
X124746232Y-115086644D01*
X124807414Y-115120386D01*
X124818319Y-115132971D01*
X124902602Y-115244581D01*
X125053323Y-115381980D01*
X125053325Y-115381982D01*
X125152506Y-115443392D01*
X125226728Y-115489348D01*
X125416909Y-115563024D01*
X125617389Y-115600500D01*
X125617391Y-115600500D01*
X125821339Y-115600500D01*
X125821341Y-115600500D01*
X126021821Y-115563024D01*
X126212002Y-115489348D01*
X126385406Y-115381981D01*
X126536129Y-115244579D01*
X126659038Y-115081821D01*
X126749947Y-114899250D01*
X126805762Y-114703083D01*
X126824580Y-114500000D01*
X128614150Y-114500000D01*
X128632967Y-114703082D01*
X128688782Y-114899247D01*
X128688787Y-114899260D01*
X128779692Y-115081821D01*
X128902602Y-115244581D01*
X129053323Y-115381980D01*
X129053325Y-115381982D01*
X129152506Y-115443392D01*
X129226728Y-115489348D01*
X129416909Y-115563024D01*
X129617389Y-115600500D01*
X129617391Y-115600500D01*
X129821339Y-115600500D01*
X129821341Y-115600500D01*
X130021821Y-115563024D01*
X130212002Y-115489348D01*
X130385406Y-115381981D01*
X130536129Y-115244579D01*
X130659038Y-115081821D01*
X130749947Y-114899250D01*
X130805762Y-114703083D01*
X130824580Y-114500000D01*
X132614150Y-114500000D01*
X132632967Y-114703082D01*
X132688782Y-114899247D01*
X132688787Y-114899260D01*
X132779692Y-115081821D01*
X132902602Y-115244581D01*
X133053323Y-115381980D01*
X133053325Y-115381982D01*
X133152506Y-115443392D01*
X133226728Y-115489348D01*
X133416909Y-115563024D01*
X133617389Y-115600500D01*
X133617391Y-115600500D01*
X133821339Y-115600500D01*
X133821341Y-115600500D01*
X134021821Y-115563024D01*
X134212002Y-115489348D01*
X134385406Y-115381981D01*
X134536129Y-115244579D01*
X134659038Y-115081821D01*
X134749947Y-114899250D01*
X134805762Y-114703083D01*
X134824580Y-114500000D01*
X134805762Y-114296917D01*
X134749947Y-114100750D01*
X134659038Y-113918179D01*
X134569210Y-113799227D01*
X134544518Y-113733865D01*
X134559083Y-113665531D01*
X134608281Y-113615918D01*
X134668164Y-113600500D01*
X134821339Y-113600500D01*
X134821341Y-113600500D01*
X135021821Y-113563024D01*
X135212002Y-113489348D01*
X135385406Y-113381981D01*
X135536129Y-113244579D01*
X135620411Y-113132970D01*
X135676520Y-113091335D01*
X135746232Y-113086644D01*
X135807414Y-113120386D01*
X135818319Y-113132971D01*
X135902602Y-113244581D01*
X136053323Y-113381980D01*
X136053325Y-113381982D01*
X136142144Y-113436976D01*
X136226728Y-113489348D01*
X136416909Y-113563024D01*
X136617389Y-113600500D01*
X136617391Y-113600500D01*
X136770566Y-113600500D01*
X136837605Y-113620185D01*
X136883360Y-113672989D01*
X136893304Y-113742147D01*
X136869520Y-113799227D01*
X136779692Y-113918178D01*
X136688787Y-114100739D01*
X136688782Y-114100752D01*
X136632967Y-114296917D01*
X136614150Y-114499999D01*
X136614150Y-114500000D01*
X136632967Y-114703082D01*
X136688782Y-114899247D01*
X136688787Y-114899260D01*
X136779692Y-115081821D01*
X136902602Y-115244581D01*
X137053323Y-115381980D01*
X137053325Y-115381982D01*
X137152506Y-115443392D01*
X137226728Y-115489348D01*
X137416909Y-115563024D01*
X137617389Y-115600500D01*
X137617391Y-115600500D01*
X137821339Y-115600500D01*
X137821341Y-115600500D01*
X138021821Y-115563024D01*
X138212002Y-115489348D01*
X138385406Y-115381981D01*
X138536129Y-115244579D01*
X138620411Y-115132970D01*
X138676520Y-115091335D01*
X138746232Y-115086644D01*
X138807414Y-115120386D01*
X138818319Y-115132971D01*
X138902602Y-115244581D01*
X139053323Y-115381980D01*
X139053325Y-115381982D01*
X139152506Y-115443392D01*
X139226728Y-115489348D01*
X139416909Y-115563024D01*
X139617389Y-115600500D01*
X139617391Y-115600500D01*
X139821339Y-115600500D01*
X139821341Y-115600500D01*
X140021821Y-115563024D01*
X140212002Y-115489348D01*
X140385406Y-115381981D01*
X140536129Y-115244579D01*
X140659038Y-115081821D01*
X140749947Y-114899250D01*
X140805762Y-114703083D01*
X140824580Y-114500000D01*
X142614150Y-114500000D01*
X142632967Y-114703082D01*
X142688782Y-114899247D01*
X142688787Y-114899260D01*
X142779692Y-115081821D01*
X142902602Y-115244581D01*
X143053323Y-115381980D01*
X143053325Y-115381982D01*
X143152506Y-115443392D01*
X143226728Y-115489348D01*
X143416909Y-115563024D01*
X143617389Y-115600500D01*
X143617391Y-115600500D01*
X143821339Y-115600500D01*
X143821341Y-115600500D01*
X144021821Y-115563024D01*
X144212002Y-115489348D01*
X144385406Y-115381981D01*
X144536129Y-115244579D01*
X144659038Y-115081821D01*
X144749947Y-114899250D01*
X144805762Y-114703083D01*
X144824580Y-114500000D01*
X146614150Y-114500000D01*
X146632967Y-114703082D01*
X146688782Y-114899247D01*
X146688787Y-114899260D01*
X146779692Y-115081821D01*
X146902602Y-115244581D01*
X147053323Y-115381980D01*
X147053325Y-115381982D01*
X147152506Y-115443392D01*
X147226728Y-115489348D01*
X147416909Y-115563024D01*
X147617389Y-115600500D01*
X147617391Y-115600500D01*
X147821339Y-115600500D01*
X147821341Y-115600500D01*
X148021821Y-115563024D01*
X148212002Y-115489348D01*
X148385406Y-115381981D01*
X148536129Y-115244579D01*
X148659038Y-115081821D01*
X148749947Y-114899250D01*
X148805762Y-114703083D01*
X148824580Y-114500000D01*
X150614150Y-114500000D01*
X150632967Y-114703082D01*
X150688782Y-114899247D01*
X150688787Y-114899260D01*
X150779692Y-115081821D01*
X150902602Y-115244581D01*
X151053323Y-115381980D01*
X151053325Y-115381982D01*
X151152506Y-115443392D01*
X151226728Y-115489348D01*
X151416909Y-115563024D01*
X151617389Y-115600500D01*
X151617391Y-115600500D01*
X151821339Y-115600500D01*
X151821341Y-115600500D01*
X152021821Y-115563024D01*
X152212002Y-115489348D01*
X152385406Y-115381981D01*
X152536129Y-115244579D01*
X152659038Y-115081821D01*
X152749947Y-114899250D01*
X152805762Y-114703083D01*
X152824580Y-114500000D01*
X152805762Y-114296917D01*
X152749947Y-114100750D01*
X152659038Y-113918179D01*
X152569210Y-113799227D01*
X152544518Y-113733865D01*
X152559083Y-113665531D01*
X152608281Y-113615918D01*
X152668164Y-113600500D01*
X152821339Y-113600500D01*
X152821341Y-113600500D01*
X153021821Y-113563024D01*
X153212002Y-113489348D01*
X153385406Y-113381981D01*
X153536129Y-113244579D01*
X153620411Y-113132970D01*
X153676520Y-113091335D01*
X153746232Y-113086644D01*
X153807414Y-113120386D01*
X153818319Y-113132971D01*
X153902602Y-113244581D01*
X154053323Y-113381980D01*
X154053325Y-113381982D01*
X154142144Y-113436976D01*
X154226728Y-113489348D01*
X154416909Y-113563024D01*
X154617389Y-113600500D01*
X154617391Y-113600500D01*
X154821339Y-113600500D01*
X154821341Y-113600500D01*
X155021821Y-113563024D01*
X155212002Y-113489348D01*
X155385406Y-113381981D01*
X155536129Y-113244579D01*
X155620411Y-113132970D01*
X155676520Y-113091335D01*
X155746232Y-113086644D01*
X155807414Y-113120386D01*
X155818319Y-113132971D01*
X155902602Y-113244581D01*
X156053323Y-113381980D01*
X156053325Y-113381982D01*
X156142144Y-113436976D01*
X156226728Y-113489348D01*
X156416909Y-113563024D01*
X156617389Y-113600500D01*
X156617391Y-113600500D01*
X156770566Y-113600500D01*
X156837605Y-113620185D01*
X156883360Y-113672989D01*
X156893304Y-113742147D01*
X156869520Y-113799227D01*
X156779692Y-113918178D01*
X156688787Y-114100739D01*
X156688782Y-114100752D01*
X156632967Y-114296917D01*
X156614150Y-114499999D01*
X156614150Y-114500000D01*
X156632967Y-114703082D01*
X156688782Y-114899247D01*
X156688787Y-114899260D01*
X156779692Y-115081821D01*
X156902602Y-115244581D01*
X157053323Y-115381980D01*
X157053325Y-115381982D01*
X157152506Y-115443392D01*
X157226728Y-115489348D01*
X157416909Y-115563024D01*
X157617389Y-115600500D01*
X157617391Y-115600500D01*
X157821339Y-115600500D01*
X157821341Y-115600500D01*
X158021821Y-115563024D01*
X158212002Y-115489348D01*
X158385406Y-115381981D01*
X158536129Y-115244579D01*
X158659038Y-115081821D01*
X158749947Y-114899250D01*
X158805762Y-114703083D01*
X158824580Y-114500000D01*
X158805762Y-114296917D01*
X158749947Y-114100750D01*
X158659038Y-113918179D01*
X158536129Y-113755421D01*
X158536127Y-113755418D01*
X158385406Y-113618019D01*
X158385404Y-113618017D01*
X158212007Y-113510655D01*
X158212000Y-113510651D01*
X158079206Y-113459207D01*
X158021821Y-113436976D01*
X157821341Y-113399500D01*
X157668164Y-113399500D01*
X157601125Y-113379815D01*
X157555370Y-113327011D01*
X157545426Y-113257853D01*
X157569210Y-113200773D01*
X157629915Y-113120386D01*
X157659038Y-113081821D01*
X157749947Y-112899250D01*
X157805762Y-112703083D01*
X157824580Y-112500000D01*
X159614150Y-112500000D01*
X159632967Y-112703082D01*
X159688782Y-112899247D01*
X159688787Y-112899260D01*
X159779692Y-113081821D01*
X159902602Y-113244581D01*
X160053323Y-113381980D01*
X160053325Y-113381982D01*
X160142144Y-113436976D01*
X160226728Y-113489348D01*
X160416909Y-113563024D01*
X160617389Y-113600500D01*
X160617391Y-113600500D01*
X160770566Y-113600500D01*
X160837605Y-113620185D01*
X160883360Y-113672989D01*
X160893304Y-113742147D01*
X160869520Y-113799227D01*
X160779692Y-113918178D01*
X160688787Y-114100739D01*
X160688782Y-114100752D01*
X160632967Y-114296917D01*
X160614150Y-114499999D01*
X160614150Y-114500000D01*
X160632967Y-114703082D01*
X160688782Y-114899247D01*
X160688787Y-114899260D01*
X160779692Y-115081821D01*
X160902602Y-115244581D01*
X161053323Y-115381980D01*
X161053325Y-115381982D01*
X161152506Y-115443392D01*
X161226728Y-115489348D01*
X161416909Y-115563024D01*
X161617389Y-115600500D01*
X161617391Y-115600500D01*
X161821339Y-115600500D01*
X161821341Y-115600500D01*
X162021821Y-115563024D01*
X162212002Y-115489348D01*
X162385406Y-115381981D01*
X162536129Y-115244579D01*
X162659038Y-115081821D01*
X162749947Y-114899250D01*
X162805762Y-114703083D01*
X162824580Y-114500000D01*
X162805762Y-114296917D01*
X162749947Y-114100750D01*
X162659038Y-113918179D01*
X162536129Y-113755421D01*
X162536127Y-113755418D01*
X162385406Y-113618019D01*
X162385404Y-113618017D01*
X162212007Y-113510655D01*
X162212000Y-113510651D01*
X162079206Y-113459207D01*
X162021821Y-113436976D01*
X161821341Y-113399500D01*
X161668164Y-113399500D01*
X161601125Y-113379815D01*
X161555370Y-113327011D01*
X161545426Y-113257853D01*
X161569210Y-113200773D01*
X161629915Y-113120386D01*
X161659038Y-113081821D01*
X161749947Y-112899250D01*
X161805762Y-112703083D01*
X161824580Y-112500000D01*
X163614150Y-112500000D01*
X163632967Y-112703082D01*
X163688782Y-112899247D01*
X163688787Y-112899260D01*
X163779692Y-113081821D01*
X163902602Y-113244581D01*
X164053323Y-113381980D01*
X164053325Y-113381982D01*
X164142144Y-113436976D01*
X164226728Y-113489348D01*
X164416909Y-113563024D01*
X164617389Y-113600500D01*
X164617391Y-113600500D01*
X164770566Y-113600500D01*
X164837605Y-113620185D01*
X164883360Y-113672989D01*
X164893304Y-113742147D01*
X164869520Y-113799227D01*
X164779692Y-113918178D01*
X164688787Y-114100739D01*
X164688782Y-114100752D01*
X164632967Y-114296917D01*
X164614150Y-114499999D01*
X164614150Y-114500000D01*
X164632967Y-114703082D01*
X164688782Y-114899247D01*
X164688787Y-114899260D01*
X164779692Y-115081821D01*
X164902602Y-115244581D01*
X165053323Y-115381980D01*
X165053325Y-115381982D01*
X165152506Y-115443392D01*
X165226728Y-115489348D01*
X165416909Y-115563024D01*
X165617389Y-115600500D01*
X165617391Y-115600500D01*
X165821339Y-115600500D01*
X165821341Y-115600500D01*
X166021821Y-115563024D01*
X166212002Y-115489348D01*
X166385406Y-115381981D01*
X166536129Y-115244579D01*
X166659038Y-115081821D01*
X166749947Y-114899250D01*
X166805762Y-114703083D01*
X166824580Y-114500000D01*
X166805762Y-114296917D01*
X166749947Y-114100750D01*
X166659038Y-113918179D01*
X166536129Y-113755421D01*
X166536127Y-113755418D01*
X166385406Y-113618019D01*
X166385404Y-113618017D01*
X166212007Y-113510655D01*
X166212000Y-113510651D01*
X166079206Y-113459207D01*
X166021821Y-113436976D01*
X165821341Y-113399500D01*
X165668164Y-113399500D01*
X165601125Y-113379815D01*
X165555370Y-113327011D01*
X165545426Y-113257853D01*
X165569210Y-113200773D01*
X165629915Y-113120386D01*
X165659038Y-113081821D01*
X165749947Y-112899250D01*
X165805762Y-112703083D01*
X165824580Y-112500000D01*
X167614150Y-112500000D01*
X167632967Y-112703082D01*
X167688782Y-112899247D01*
X167688787Y-112899260D01*
X167779692Y-113081821D01*
X167902602Y-113244581D01*
X168053323Y-113381980D01*
X168053325Y-113381982D01*
X168142144Y-113436976D01*
X168226728Y-113489348D01*
X168416909Y-113563024D01*
X168617389Y-113600500D01*
X168617391Y-113600500D01*
X168770566Y-113600500D01*
X168837605Y-113620185D01*
X168883360Y-113672989D01*
X168893304Y-113742147D01*
X168869520Y-113799227D01*
X168779692Y-113918178D01*
X168688787Y-114100739D01*
X168688782Y-114100752D01*
X168632967Y-114296917D01*
X168614150Y-114499999D01*
X168614150Y-114500000D01*
X168632967Y-114703082D01*
X168688782Y-114899247D01*
X168688787Y-114899260D01*
X168779692Y-115081821D01*
X168902602Y-115244581D01*
X169053323Y-115381980D01*
X169053325Y-115381982D01*
X169152506Y-115443392D01*
X169226728Y-115489348D01*
X169416909Y-115563024D01*
X169617389Y-115600500D01*
X169617391Y-115600500D01*
X169821339Y-115600500D01*
X169821341Y-115600500D01*
X170021821Y-115563024D01*
X170212002Y-115489348D01*
X170385406Y-115381981D01*
X170536129Y-115244579D01*
X170659038Y-115081821D01*
X170749947Y-114899250D01*
X170805762Y-114703083D01*
X170824580Y-114500000D01*
X170805762Y-114296917D01*
X170749947Y-114100750D01*
X170659038Y-113918179D01*
X170536129Y-113755421D01*
X170536127Y-113755418D01*
X170385406Y-113618019D01*
X170385404Y-113618017D01*
X170212007Y-113510655D01*
X170212000Y-113510651D01*
X170079206Y-113459207D01*
X170021821Y-113436976D01*
X169821341Y-113399500D01*
X169668164Y-113399500D01*
X169601125Y-113379815D01*
X169555370Y-113327011D01*
X169545426Y-113257853D01*
X169569210Y-113200773D01*
X169629915Y-113120386D01*
X169659038Y-113081821D01*
X169749947Y-112899250D01*
X169805762Y-112703083D01*
X169824580Y-112500000D01*
X171614150Y-112500000D01*
X171632967Y-112703082D01*
X171688782Y-112899247D01*
X171688787Y-112899260D01*
X171779692Y-113081821D01*
X171902602Y-113244581D01*
X172053323Y-113381980D01*
X172053325Y-113381982D01*
X172142144Y-113436976D01*
X172226728Y-113489348D01*
X172416909Y-113563024D01*
X172617389Y-113600500D01*
X172617391Y-113600500D01*
X172770566Y-113600500D01*
X172837605Y-113620185D01*
X172883360Y-113672989D01*
X172893304Y-113742147D01*
X172869520Y-113799227D01*
X172779692Y-113918178D01*
X172688787Y-114100739D01*
X172688782Y-114100752D01*
X172632967Y-114296917D01*
X172614150Y-114499999D01*
X172614150Y-114500000D01*
X172632967Y-114703082D01*
X172688782Y-114899247D01*
X172688787Y-114899260D01*
X172779692Y-115081821D01*
X172902602Y-115244581D01*
X173053323Y-115381980D01*
X173053325Y-115381982D01*
X173152506Y-115443392D01*
X173226728Y-115489348D01*
X173416909Y-115563024D01*
X173617389Y-115600500D01*
X173617391Y-115600500D01*
X173821339Y-115600500D01*
X173821341Y-115600500D01*
X174021821Y-115563024D01*
X174212002Y-115489348D01*
X174385406Y-115381981D01*
X174536129Y-115244579D01*
X174659038Y-115081821D01*
X174749947Y-114899250D01*
X174805762Y-114703083D01*
X174824580Y-114500000D01*
X174805762Y-114296917D01*
X174749947Y-114100750D01*
X174659038Y-113918179D01*
X174536129Y-113755421D01*
X174536127Y-113755418D01*
X174385406Y-113618019D01*
X174385404Y-113618017D01*
X174212007Y-113510655D01*
X174212000Y-113510651D01*
X174079206Y-113459207D01*
X174021821Y-113436976D01*
X173821341Y-113399500D01*
X173668164Y-113399500D01*
X173601125Y-113379815D01*
X173555370Y-113327011D01*
X173545426Y-113257853D01*
X173569210Y-113200773D01*
X173629915Y-113120386D01*
X173659038Y-113081821D01*
X173749947Y-112899250D01*
X173805762Y-112703083D01*
X173824580Y-112500000D01*
X175614150Y-112500000D01*
X175632967Y-112703082D01*
X175688782Y-112899247D01*
X175688787Y-112899260D01*
X175779692Y-113081821D01*
X175902602Y-113244581D01*
X176053323Y-113381980D01*
X176053325Y-113381982D01*
X176142144Y-113436976D01*
X176226728Y-113489348D01*
X176416909Y-113563024D01*
X176617389Y-113600500D01*
X176617391Y-113600500D01*
X176770566Y-113600500D01*
X176837605Y-113620185D01*
X176883360Y-113672989D01*
X176893304Y-113742147D01*
X176869520Y-113799227D01*
X176779692Y-113918178D01*
X176688787Y-114100739D01*
X176688782Y-114100752D01*
X176632967Y-114296917D01*
X176614150Y-114499999D01*
X176614150Y-114500000D01*
X176632967Y-114703082D01*
X176688782Y-114899247D01*
X176688787Y-114899260D01*
X176779692Y-115081821D01*
X176902602Y-115244581D01*
X177053323Y-115381980D01*
X177053325Y-115381982D01*
X177152506Y-115443392D01*
X177226728Y-115489348D01*
X177416909Y-115563024D01*
X177617389Y-115600500D01*
X177617391Y-115600500D01*
X177821339Y-115600500D01*
X177821341Y-115600500D01*
X178021821Y-115563024D01*
X178212002Y-115489348D01*
X178385406Y-115381981D01*
X178536129Y-115244579D01*
X178659038Y-115081821D01*
X178749947Y-114899250D01*
X178805762Y-114703083D01*
X178824580Y-114500000D01*
X178805762Y-114296917D01*
X178749947Y-114100750D01*
X178659038Y-113918179D01*
X178536129Y-113755421D01*
X178536127Y-113755418D01*
X178385406Y-113618019D01*
X178385404Y-113618017D01*
X178212007Y-113510655D01*
X178212000Y-113510651D01*
X178079206Y-113459207D01*
X178021821Y-113436976D01*
X177821341Y-113399500D01*
X177668164Y-113399500D01*
X177601125Y-113379815D01*
X177555370Y-113327011D01*
X177545426Y-113257853D01*
X177569210Y-113200773D01*
X177629915Y-113120386D01*
X177659038Y-113081821D01*
X177749947Y-112899250D01*
X177805762Y-112703083D01*
X177824580Y-112500000D01*
X179614150Y-112500000D01*
X179632967Y-112703082D01*
X179688782Y-112899247D01*
X179688787Y-112899260D01*
X179779692Y-113081821D01*
X179902602Y-113244581D01*
X180053323Y-113381980D01*
X180053325Y-113381982D01*
X180142144Y-113436976D01*
X180226728Y-113489348D01*
X180416909Y-113563024D01*
X180617389Y-113600500D01*
X180617391Y-113600500D01*
X180770566Y-113600500D01*
X180837605Y-113620185D01*
X180883360Y-113672989D01*
X180893304Y-113742147D01*
X180869520Y-113799227D01*
X180779692Y-113918178D01*
X180688787Y-114100739D01*
X180688782Y-114100752D01*
X180632967Y-114296917D01*
X180614150Y-114499999D01*
X180614150Y-114500000D01*
X180632967Y-114703082D01*
X180688782Y-114899247D01*
X180688787Y-114899260D01*
X180779692Y-115081821D01*
X180902602Y-115244581D01*
X181053323Y-115381980D01*
X181053325Y-115381982D01*
X181152506Y-115443392D01*
X181226728Y-115489348D01*
X181416909Y-115563024D01*
X181617389Y-115600500D01*
X181617391Y-115600500D01*
X181821339Y-115600500D01*
X181821341Y-115600500D01*
X182021821Y-115563024D01*
X182212002Y-115489348D01*
X182385406Y-115381981D01*
X182536129Y-115244579D01*
X182659038Y-115081821D01*
X182749947Y-114899250D01*
X182805762Y-114703083D01*
X182824580Y-114500000D01*
X182805762Y-114296917D01*
X182749947Y-114100750D01*
X182659038Y-113918179D01*
X182536129Y-113755421D01*
X182536127Y-113755418D01*
X182385406Y-113618019D01*
X182385404Y-113618017D01*
X182212007Y-113510655D01*
X182212000Y-113510651D01*
X182079206Y-113459207D01*
X182021821Y-113436976D01*
X181821341Y-113399500D01*
X181668164Y-113399500D01*
X181601125Y-113379815D01*
X181555370Y-113327011D01*
X181545426Y-113257853D01*
X181569210Y-113200773D01*
X181629915Y-113120386D01*
X181659038Y-113081821D01*
X181749947Y-112899250D01*
X181805762Y-112703083D01*
X181824580Y-112500000D01*
X183614150Y-112500000D01*
X183632967Y-112703082D01*
X183688782Y-112899247D01*
X183688787Y-112899260D01*
X183779692Y-113081821D01*
X183902602Y-113244581D01*
X184053323Y-113381980D01*
X184053325Y-113381982D01*
X184142144Y-113436976D01*
X184226728Y-113489348D01*
X184416909Y-113563024D01*
X184617389Y-113600500D01*
X184617391Y-113600500D01*
X184770566Y-113600500D01*
X184837605Y-113620185D01*
X184883360Y-113672989D01*
X184893304Y-113742147D01*
X184869520Y-113799227D01*
X184779692Y-113918178D01*
X184688787Y-114100739D01*
X184688782Y-114100752D01*
X184632967Y-114296917D01*
X184614150Y-114499999D01*
X184614150Y-114500000D01*
X184632967Y-114703082D01*
X184688782Y-114899247D01*
X184688787Y-114899260D01*
X184779692Y-115081821D01*
X184902602Y-115244581D01*
X185053323Y-115381980D01*
X185053325Y-115381982D01*
X185152506Y-115443392D01*
X185226728Y-115489348D01*
X185416909Y-115563024D01*
X185617389Y-115600500D01*
X185617391Y-115600500D01*
X185821339Y-115600500D01*
X185821341Y-115600500D01*
X186021821Y-115563024D01*
X186212002Y-115489348D01*
X186385406Y-115381981D01*
X186536129Y-115244579D01*
X186659038Y-115081821D01*
X186749947Y-114899250D01*
X186805762Y-114703083D01*
X186824580Y-114500000D01*
X186805762Y-114296917D01*
X186749947Y-114100750D01*
X186659038Y-113918179D01*
X186536129Y-113755421D01*
X186536127Y-113755418D01*
X186385406Y-113618019D01*
X186385404Y-113618017D01*
X186212007Y-113510655D01*
X186212000Y-113510651D01*
X186079206Y-113459207D01*
X186021821Y-113436976D01*
X185821341Y-113399500D01*
X185668164Y-113399500D01*
X185601125Y-113379815D01*
X185555370Y-113327011D01*
X185545426Y-113257853D01*
X185569210Y-113200773D01*
X185629915Y-113120386D01*
X185659038Y-113081821D01*
X185749947Y-112899250D01*
X185805762Y-112703083D01*
X185824580Y-112500000D01*
X185805762Y-112296917D01*
X185749947Y-112100750D01*
X185659038Y-111918179D01*
X185536129Y-111755421D01*
X185536127Y-111755418D01*
X185385406Y-111618019D01*
X185385404Y-111618017D01*
X185212007Y-111510655D01*
X185212000Y-111510651D01*
X185116911Y-111473814D01*
X185021821Y-111436976D01*
X184821341Y-111399500D01*
X184617389Y-111399500D01*
X184416909Y-111436976D01*
X184416906Y-111436976D01*
X184416906Y-111436977D01*
X184226729Y-111510651D01*
X184226722Y-111510655D01*
X184053325Y-111618017D01*
X184053323Y-111618019D01*
X183902602Y-111755418D01*
X183779692Y-111918178D01*
X183688787Y-112100739D01*
X183688782Y-112100752D01*
X183632967Y-112296917D01*
X183614150Y-112499999D01*
X183614150Y-112500000D01*
X181824580Y-112500000D01*
X181805762Y-112296917D01*
X181749947Y-112100750D01*
X181659038Y-111918179D01*
X181536129Y-111755421D01*
X181536127Y-111755418D01*
X181385406Y-111618019D01*
X181385404Y-111618017D01*
X181212007Y-111510655D01*
X181212000Y-111510651D01*
X181116911Y-111473814D01*
X181021821Y-111436976D01*
X180821341Y-111399500D01*
X180617389Y-111399500D01*
X180416909Y-111436976D01*
X180416906Y-111436976D01*
X180416906Y-111436977D01*
X180226729Y-111510651D01*
X180226722Y-111510655D01*
X180053325Y-111618017D01*
X180053323Y-111618019D01*
X179902602Y-111755418D01*
X179779692Y-111918178D01*
X179688787Y-112100739D01*
X179688782Y-112100752D01*
X179632967Y-112296917D01*
X179614150Y-112499999D01*
X179614150Y-112500000D01*
X177824580Y-112500000D01*
X177805762Y-112296917D01*
X177749947Y-112100750D01*
X177659038Y-111918179D01*
X177536129Y-111755421D01*
X177536127Y-111755418D01*
X177385406Y-111618019D01*
X177385404Y-111618017D01*
X177212007Y-111510655D01*
X177212000Y-111510651D01*
X177116911Y-111473814D01*
X177021821Y-111436976D01*
X176821341Y-111399500D01*
X176617389Y-111399500D01*
X176416909Y-111436976D01*
X176416906Y-111436976D01*
X176416906Y-111436977D01*
X176226729Y-111510651D01*
X176226722Y-111510655D01*
X176053325Y-111618017D01*
X176053323Y-111618019D01*
X175902602Y-111755418D01*
X175779692Y-111918178D01*
X175688787Y-112100739D01*
X175688782Y-112100752D01*
X175632967Y-112296917D01*
X175614150Y-112499999D01*
X175614150Y-112500000D01*
X173824580Y-112500000D01*
X173805762Y-112296917D01*
X173749947Y-112100750D01*
X173659038Y-111918179D01*
X173536129Y-111755421D01*
X173536127Y-111755418D01*
X173385406Y-111618019D01*
X173385404Y-111618017D01*
X173212007Y-111510655D01*
X173212000Y-111510651D01*
X173116911Y-111473814D01*
X173021821Y-111436976D01*
X172821341Y-111399500D01*
X172617389Y-111399500D01*
X172416909Y-111436976D01*
X172416906Y-111436976D01*
X172416906Y-111436977D01*
X172226729Y-111510651D01*
X172226722Y-111510655D01*
X172053325Y-111618017D01*
X172053323Y-111618019D01*
X171902602Y-111755418D01*
X171779692Y-111918178D01*
X171688787Y-112100739D01*
X171688782Y-112100752D01*
X171632967Y-112296917D01*
X171614150Y-112499999D01*
X171614150Y-112500000D01*
X169824580Y-112500000D01*
X169805762Y-112296917D01*
X169749947Y-112100750D01*
X169659038Y-111918179D01*
X169536129Y-111755421D01*
X169536127Y-111755418D01*
X169385406Y-111618019D01*
X169385404Y-111618017D01*
X169212007Y-111510655D01*
X169212000Y-111510651D01*
X169116911Y-111473814D01*
X169021821Y-111436976D01*
X168821341Y-111399500D01*
X168617389Y-111399500D01*
X168416909Y-111436976D01*
X168416906Y-111436976D01*
X168416906Y-111436977D01*
X168226729Y-111510651D01*
X168226722Y-111510655D01*
X168053325Y-111618017D01*
X168053323Y-111618019D01*
X167902602Y-111755418D01*
X167779692Y-111918178D01*
X167688787Y-112100739D01*
X167688782Y-112100752D01*
X167632967Y-112296917D01*
X167614150Y-112499999D01*
X167614150Y-112500000D01*
X165824580Y-112500000D01*
X165805762Y-112296917D01*
X165749947Y-112100750D01*
X165659038Y-111918179D01*
X165536129Y-111755421D01*
X165536127Y-111755418D01*
X165385406Y-111618019D01*
X165385404Y-111618017D01*
X165212007Y-111510655D01*
X165212000Y-111510651D01*
X165116911Y-111473814D01*
X165021821Y-111436976D01*
X164821341Y-111399500D01*
X164617389Y-111399500D01*
X164416909Y-111436976D01*
X164416906Y-111436976D01*
X164416906Y-111436977D01*
X164226729Y-111510651D01*
X164226722Y-111510655D01*
X164053325Y-111618017D01*
X164053323Y-111618019D01*
X163902602Y-111755418D01*
X163779692Y-111918178D01*
X163688787Y-112100739D01*
X163688782Y-112100752D01*
X163632967Y-112296917D01*
X163614150Y-112499999D01*
X163614150Y-112500000D01*
X161824580Y-112500000D01*
X161805762Y-112296917D01*
X161749947Y-112100750D01*
X161659038Y-111918179D01*
X161536129Y-111755421D01*
X161536127Y-111755418D01*
X161385406Y-111618019D01*
X161385404Y-111618017D01*
X161212007Y-111510655D01*
X161212000Y-111510651D01*
X161116911Y-111473814D01*
X161021821Y-111436976D01*
X160821341Y-111399500D01*
X160617389Y-111399500D01*
X160416909Y-111436976D01*
X160416906Y-111436976D01*
X160416906Y-111436977D01*
X160226729Y-111510651D01*
X160226722Y-111510655D01*
X160053325Y-111618017D01*
X160053323Y-111618019D01*
X159902602Y-111755418D01*
X159779692Y-111918178D01*
X159688787Y-112100739D01*
X159688782Y-112100752D01*
X159632967Y-112296917D01*
X159614150Y-112499999D01*
X159614150Y-112500000D01*
X157824580Y-112500000D01*
X157805762Y-112296917D01*
X157749947Y-112100750D01*
X157659038Y-111918179D01*
X157536129Y-111755421D01*
X157536127Y-111755418D01*
X157385406Y-111618019D01*
X157385404Y-111618017D01*
X157212007Y-111510655D01*
X157212000Y-111510651D01*
X157116911Y-111473814D01*
X157021821Y-111436976D01*
X156821341Y-111399500D01*
X156617389Y-111399500D01*
X156416909Y-111436976D01*
X156416906Y-111436976D01*
X156416906Y-111436977D01*
X156226729Y-111510651D01*
X156226722Y-111510655D01*
X156053325Y-111618017D01*
X156053323Y-111618019D01*
X155902602Y-111755419D01*
X155818319Y-111867028D01*
X155762210Y-111908664D01*
X155692498Y-111913355D01*
X155631316Y-111879613D01*
X155620411Y-111867028D01*
X155536127Y-111755419D01*
X155385406Y-111618019D01*
X155385404Y-111618017D01*
X155212007Y-111510655D01*
X155212000Y-111510651D01*
X155116911Y-111473814D01*
X155021821Y-111436976D01*
X154821341Y-111399500D01*
X154617389Y-111399500D01*
X154416909Y-111436976D01*
X154416906Y-111436976D01*
X154416906Y-111436977D01*
X154226729Y-111510651D01*
X154226722Y-111510655D01*
X154053325Y-111618017D01*
X154053323Y-111618019D01*
X153902602Y-111755419D01*
X153818319Y-111867028D01*
X153762210Y-111908664D01*
X153692498Y-111913355D01*
X153631316Y-111879613D01*
X153620411Y-111867028D01*
X153536127Y-111755419D01*
X153385406Y-111618019D01*
X153385404Y-111618017D01*
X153212007Y-111510655D01*
X153212000Y-111510651D01*
X153116911Y-111473814D01*
X153021821Y-111436976D01*
X152821341Y-111399500D01*
X152617389Y-111399500D01*
X152416909Y-111436976D01*
X152416906Y-111436976D01*
X152416906Y-111436977D01*
X152226729Y-111510651D01*
X152226722Y-111510655D01*
X152053325Y-111618017D01*
X152053323Y-111618019D01*
X151902602Y-111755418D01*
X151779692Y-111918178D01*
X151688787Y-112100739D01*
X151688782Y-112100752D01*
X151632967Y-112296917D01*
X151614150Y-112499999D01*
X151614150Y-112500000D01*
X151632967Y-112703082D01*
X151688782Y-112899247D01*
X151688787Y-112899260D01*
X151779692Y-113081821D01*
X151869520Y-113200773D01*
X151894212Y-113266135D01*
X151879647Y-113334469D01*
X151830449Y-113384082D01*
X151770566Y-113399500D01*
X151617389Y-113399500D01*
X151416909Y-113436976D01*
X151416906Y-113436976D01*
X151416906Y-113436977D01*
X151226729Y-113510651D01*
X151226722Y-113510655D01*
X151053325Y-113618017D01*
X151053323Y-113618019D01*
X150902602Y-113755418D01*
X150779692Y-113918178D01*
X150688787Y-114100739D01*
X150688782Y-114100752D01*
X150632967Y-114296917D01*
X150614150Y-114499999D01*
X150614150Y-114500000D01*
X148824580Y-114500000D01*
X148805762Y-114296917D01*
X148749947Y-114100750D01*
X148659038Y-113918179D01*
X148569210Y-113799227D01*
X148544518Y-113733865D01*
X148559083Y-113665531D01*
X148608281Y-113615918D01*
X148668164Y-113600500D01*
X148821339Y-113600500D01*
X148821341Y-113600500D01*
X149021821Y-113563024D01*
X149212002Y-113489348D01*
X149385406Y-113381981D01*
X149536129Y-113244579D01*
X149659038Y-113081821D01*
X149749947Y-112899250D01*
X149805762Y-112703083D01*
X149824580Y-112500000D01*
X149805762Y-112296917D01*
X149749947Y-112100750D01*
X149659038Y-111918179D01*
X149536129Y-111755421D01*
X149536127Y-111755418D01*
X149385406Y-111618019D01*
X149385404Y-111618017D01*
X149212007Y-111510655D01*
X149212000Y-111510651D01*
X149116911Y-111473814D01*
X149021821Y-111436976D01*
X148821341Y-111399500D01*
X148617389Y-111399500D01*
X148416909Y-111436976D01*
X148416906Y-111436976D01*
X148416906Y-111436977D01*
X148226729Y-111510651D01*
X148226722Y-111510655D01*
X148053325Y-111618017D01*
X148053323Y-111618019D01*
X147902602Y-111755418D01*
X147779692Y-111918178D01*
X147688787Y-112100739D01*
X147688782Y-112100752D01*
X147632967Y-112296917D01*
X147614150Y-112499999D01*
X147614150Y-112500000D01*
X147632967Y-112703082D01*
X147688782Y-112899247D01*
X147688787Y-112899260D01*
X147779692Y-113081821D01*
X147869520Y-113200773D01*
X147894212Y-113266135D01*
X147879647Y-113334469D01*
X147830449Y-113384082D01*
X147770566Y-113399500D01*
X147617389Y-113399500D01*
X147416909Y-113436976D01*
X147416906Y-113436976D01*
X147416906Y-113436977D01*
X147226729Y-113510651D01*
X147226722Y-113510655D01*
X147053325Y-113618017D01*
X147053323Y-113618019D01*
X146902602Y-113755418D01*
X146779692Y-113918178D01*
X146688787Y-114100739D01*
X146688782Y-114100752D01*
X146632967Y-114296917D01*
X146614150Y-114499999D01*
X146614150Y-114500000D01*
X144824580Y-114500000D01*
X144805762Y-114296917D01*
X144749947Y-114100750D01*
X144659038Y-113918179D01*
X144569210Y-113799227D01*
X144544518Y-113733865D01*
X144559083Y-113665531D01*
X144608281Y-113615918D01*
X144668164Y-113600500D01*
X144821339Y-113600500D01*
X144821341Y-113600500D01*
X145021821Y-113563024D01*
X145212002Y-113489348D01*
X145385406Y-113381981D01*
X145536129Y-113244579D01*
X145659038Y-113081821D01*
X145749947Y-112899250D01*
X145805762Y-112703083D01*
X145824580Y-112500000D01*
X145805762Y-112296917D01*
X145749947Y-112100750D01*
X145659038Y-111918179D01*
X145536129Y-111755421D01*
X145536127Y-111755418D01*
X145385406Y-111618019D01*
X145385404Y-111618017D01*
X145212007Y-111510655D01*
X145212000Y-111510651D01*
X145116911Y-111473814D01*
X145021821Y-111436976D01*
X144821341Y-111399500D01*
X144617389Y-111399500D01*
X144416909Y-111436976D01*
X144416906Y-111436976D01*
X144416906Y-111436977D01*
X144226729Y-111510651D01*
X144226722Y-111510655D01*
X144053325Y-111618017D01*
X144053323Y-111618019D01*
X143902602Y-111755418D01*
X143779692Y-111918178D01*
X143688787Y-112100739D01*
X143688782Y-112100752D01*
X143632967Y-112296917D01*
X143614150Y-112499999D01*
X143614150Y-112500000D01*
X143632967Y-112703082D01*
X143688782Y-112899247D01*
X143688787Y-112899260D01*
X143779692Y-113081821D01*
X143869520Y-113200773D01*
X143894212Y-113266135D01*
X143879647Y-113334469D01*
X143830449Y-113384082D01*
X143770566Y-113399500D01*
X143617389Y-113399500D01*
X143416909Y-113436976D01*
X143416906Y-113436976D01*
X143416906Y-113436977D01*
X143226729Y-113510651D01*
X143226722Y-113510655D01*
X143053325Y-113618017D01*
X143053323Y-113618019D01*
X142902602Y-113755418D01*
X142779692Y-113918178D01*
X142688787Y-114100739D01*
X142688782Y-114100752D01*
X142632967Y-114296917D01*
X142614150Y-114499999D01*
X142614150Y-114500000D01*
X140824580Y-114500000D01*
X140805762Y-114296917D01*
X140749947Y-114100750D01*
X140659038Y-113918179D01*
X140569210Y-113799227D01*
X140544518Y-113733865D01*
X140559083Y-113665531D01*
X140608281Y-113615918D01*
X140668164Y-113600500D01*
X140821339Y-113600500D01*
X140821341Y-113600500D01*
X141021821Y-113563024D01*
X141212002Y-113489348D01*
X141385406Y-113381981D01*
X141536129Y-113244579D01*
X141659038Y-113081821D01*
X141749947Y-112899250D01*
X141805762Y-112703083D01*
X141824580Y-112500000D01*
X141805762Y-112296917D01*
X141749947Y-112100750D01*
X141659038Y-111918179D01*
X141536129Y-111755421D01*
X141536127Y-111755418D01*
X141385406Y-111618019D01*
X141385404Y-111618017D01*
X141212007Y-111510655D01*
X141212000Y-111510651D01*
X141116911Y-111473814D01*
X141021821Y-111436976D01*
X140821341Y-111399500D01*
X140617389Y-111399500D01*
X140416909Y-111436976D01*
X140416906Y-111436976D01*
X140416906Y-111436977D01*
X140226729Y-111510651D01*
X140226722Y-111510655D01*
X140053325Y-111618017D01*
X140053323Y-111618019D01*
X139902602Y-111755418D01*
X139779692Y-111918178D01*
X139688787Y-112100739D01*
X139688782Y-112100752D01*
X139632967Y-112296917D01*
X139614150Y-112499999D01*
X139614150Y-112500000D01*
X139632967Y-112703082D01*
X139688782Y-112899247D01*
X139688787Y-112899260D01*
X139779692Y-113081821D01*
X139869520Y-113200773D01*
X139894212Y-113266135D01*
X139879647Y-113334469D01*
X139830449Y-113384082D01*
X139770566Y-113399500D01*
X139617389Y-113399500D01*
X139416909Y-113436976D01*
X139416906Y-113436976D01*
X139416906Y-113436977D01*
X139226729Y-113510651D01*
X139226722Y-113510655D01*
X139053325Y-113618017D01*
X139053323Y-113618019D01*
X138902602Y-113755419D01*
X138818319Y-113867028D01*
X138762210Y-113908664D01*
X138692498Y-113913355D01*
X138631316Y-113879613D01*
X138620411Y-113867028D01*
X138536127Y-113755419D01*
X138385406Y-113618019D01*
X138385404Y-113618017D01*
X138212007Y-113510655D01*
X138212000Y-113510651D01*
X138079206Y-113459207D01*
X138021821Y-113436976D01*
X137821341Y-113399500D01*
X137668164Y-113399500D01*
X137601125Y-113379815D01*
X137555370Y-113327011D01*
X137545426Y-113257853D01*
X137569210Y-113200773D01*
X137629915Y-113120386D01*
X137659038Y-113081821D01*
X137749947Y-112899250D01*
X137805762Y-112703083D01*
X137824580Y-112500000D01*
X137805762Y-112296917D01*
X137749947Y-112100750D01*
X137659038Y-111918179D01*
X137536129Y-111755421D01*
X137536127Y-111755418D01*
X137385406Y-111618019D01*
X137385404Y-111618017D01*
X137212007Y-111510655D01*
X137212000Y-111510651D01*
X137116911Y-111473814D01*
X137021821Y-111436976D01*
X136821341Y-111399500D01*
X136617389Y-111399500D01*
X136416909Y-111436976D01*
X136416906Y-111436976D01*
X136416906Y-111436977D01*
X136226729Y-111510651D01*
X136226722Y-111510655D01*
X136053325Y-111618017D01*
X136053323Y-111618019D01*
X135902602Y-111755419D01*
X135818319Y-111867028D01*
X135762210Y-111908664D01*
X135692498Y-111913355D01*
X135631316Y-111879613D01*
X135620411Y-111867028D01*
X135536127Y-111755419D01*
X135385406Y-111618019D01*
X135385404Y-111618017D01*
X135212007Y-111510655D01*
X135212000Y-111510651D01*
X135116911Y-111473814D01*
X135021821Y-111436976D01*
X134821341Y-111399500D01*
X134617389Y-111399500D01*
X134416909Y-111436976D01*
X134416906Y-111436976D01*
X134416906Y-111436977D01*
X134226729Y-111510651D01*
X134226722Y-111510655D01*
X134053325Y-111618017D01*
X134053323Y-111618019D01*
X133902602Y-111755418D01*
X133779692Y-111918178D01*
X133688787Y-112100739D01*
X133688782Y-112100752D01*
X133632967Y-112296917D01*
X133614150Y-112499999D01*
X133614150Y-112500000D01*
X133632967Y-112703082D01*
X133688782Y-112899247D01*
X133688787Y-112899260D01*
X133779692Y-113081821D01*
X133869520Y-113200773D01*
X133894212Y-113266135D01*
X133879647Y-113334469D01*
X133830449Y-113384082D01*
X133770566Y-113399500D01*
X133617389Y-113399500D01*
X133416909Y-113436976D01*
X133416906Y-113436976D01*
X133416906Y-113436977D01*
X133226729Y-113510651D01*
X133226722Y-113510655D01*
X133053325Y-113618017D01*
X133053323Y-113618019D01*
X132902602Y-113755418D01*
X132779692Y-113918178D01*
X132688787Y-114100739D01*
X132688782Y-114100752D01*
X132632967Y-114296917D01*
X132614150Y-114499999D01*
X132614150Y-114500000D01*
X130824580Y-114500000D01*
X130805762Y-114296917D01*
X130749947Y-114100750D01*
X130659038Y-113918179D01*
X130569210Y-113799227D01*
X130544518Y-113733865D01*
X130559083Y-113665531D01*
X130608281Y-113615918D01*
X130668164Y-113600500D01*
X130821339Y-113600500D01*
X130821341Y-113600500D01*
X131021821Y-113563024D01*
X131212002Y-113489348D01*
X131385406Y-113381981D01*
X131536129Y-113244579D01*
X131659038Y-113081821D01*
X131749947Y-112899250D01*
X131805762Y-112703083D01*
X131824580Y-112500000D01*
X131805762Y-112296917D01*
X131749947Y-112100750D01*
X131659038Y-111918179D01*
X131536129Y-111755421D01*
X131536127Y-111755418D01*
X131385406Y-111618019D01*
X131385404Y-111618017D01*
X131212007Y-111510655D01*
X131212000Y-111510651D01*
X131116911Y-111473814D01*
X131021821Y-111436976D01*
X130821341Y-111399500D01*
X130617389Y-111399500D01*
X130416909Y-111436976D01*
X130416906Y-111436976D01*
X130416906Y-111436977D01*
X130226729Y-111510651D01*
X130226722Y-111510655D01*
X130053325Y-111618017D01*
X130053323Y-111618019D01*
X129902602Y-111755418D01*
X129779692Y-111918178D01*
X129688787Y-112100739D01*
X129688782Y-112100752D01*
X129632967Y-112296917D01*
X129614150Y-112499999D01*
X129614150Y-112500000D01*
X129632967Y-112703082D01*
X129688782Y-112899247D01*
X129688787Y-112899260D01*
X129779692Y-113081821D01*
X129869520Y-113200773D01*
X129894212Y-113266135D01*
X129879647Y-113334469D01*
X129830449Y-113384082D01*
X129770566Y-113399500D01*
X129617389Y-113399500D01*
X129416909Y-113436976D01*
X129416906Y-113436976D01*
X129416906Y-113436977D01*
X129226729Y-113510651D01*
X129226722Y-113510655D01*
X129053325Y-113618017D01*
X129053323Y-113618019D01*
X128902602Y-113755418D01*
X128779692Y-113918178D01*
X128688787Y-114100739D01*
X128688782Y-114100752D01*
X128632967Y-114296917D01*
X128614150Y-114499999D01*
X128614150Y-114500000D01*
X126824580Y-114500000D01*
X126805762Y-114296917D01*
X126749947Y-114100750D01*
X126659038Y-113918179D01*
X126569210Y-113799227D01*
X126544518Y-113733865D01*
X126559083Y-113665531D01*
X126608281Y-113615918D01*
X126668164Y-113600500D01*
X126821339Y-113600500D01*
X126821341Y-113600500D01*
X127021821Y-113563024D01*
X127212002Y-113489348D01*
X127385406Y-113381981D01*
X127536129Y-113244579D01*
X127659038Y-113081821D01*
X127749947Y-112899250D01*
X127805762Y-112703083D01*
X127824580Y-112500000D01*
X127805762Y-112296917D01*
X127749947Y-112100750D01*
X127659038Y-111918179D01*
X127536129Y-111755421D01*
X127536127Y-111755418D01*
X127385406Y-111618019D01*
X127385404Y-111618017D01*
X127212007Y-111510655D01*
X127212000Y-111510651D01*
X127116911Y-111473814D01*
X127021821Y-111436976D01*
X126821341Y-111399500D01*
X126617389Y-111399500D01*
X126416909Y-111436976D01*
X126416906Y-111436976D01*
X126416906Y-111436977D01*
X126226729Y-111510651D01*
X126226722Y-111510655D01*
X126053325Y-111618017D01*
X126053323Y-111618019D01*
X125902602Y-111755418D01*
X125779692Y-111918178D01*
X125688787Y-112100739D01*
X125688782Y-112100752D01*
X125632967Y-112296917D01*
X125614150Y-112499999D01*
X125614150Y-112500000D01*
X125632967Y-112703082D01*
X125688782Y-112899247D01*
X125688787Y-112899260D01*
X125779692Y-113081821D01*
X125869520Y-113200773D01*
X125894212Y-113266135D01*
X125879647Y-113334469D01*
X125830449Y-113384082D01*
X125770566Y-113399500D01*
X125617389Y-113399500D01*
X125416909Y-113436976D01*
X125416906Y-113436976D01*
X125416906Y-113436977D01*
X125226729Y-113510651D01*
X125226722Y-113510655D01*
X125053325Y-113618017D01*
X125053323Y-113618019D01*
X124902602Y-113755419D01*
X124818319Y-113867028D01*
X124762210Y-113908664D01*
X124692498Y-113913355D01*
X124631316Y-113879613D01*
X124620411Y-113867028D01*
X124536127Y-113755419D01*
X124385406Y-113618019D01*
X124385404Y-113618017D01*
X124212007Y-113510655D01*
X124212000Y-113510651D01*
X124079206Y-113459207D01*
X124021821Y-113436976D01*
X123821341Y-113399500D01*
X123617389Y-113399500D01*
X123416909Y-113436976D01*
X123416906Y-113436976D01*
X123416906Y-113436977D01*
X123226729Y-113510651D01*
X123226722Y-113510655D01*
X123053325Y-113618017D01*
X123053323Y-113618019D01*
X122902602Y-113755419D01*
X122818319Y-113867028D01*
X122762210Y-113908664D01*
X122692498Y-113913355D01*
X122631316Y-113879613D01*
X122620411Y-113867028D01*
X122536127Y-113755419D01*
X122385406Y-113618019D01*
X122385404Y-113618017D01*
X122212007Y-113510655D01*
X122212000Y-113510651D01*
X122079206Y-113459207D01*
X122021821Y-113436976D01*
X121821341Y-113399500D01*
X121668164Y-113399500D01*
X121601125Y-113379815D01*
X121555370Y-113327011D01*
X121545426Y-113257853D01*
X121569210Y-113200773D01*
X121629915Y-113120386D01*
X121659038Y-113081821D01*
X121749947Y-112899250D01*
X121805762Y-112703083D01*
X121824580Y-112500000D01*
X121805762Y-112296917D01*
X121749947Y-112100750D01*
X121659038Y-111918179D01*
X121536129Y-111755421D01*
X121536127Y-111755418D01*
X121385406Y-111618019D01*
X121385404Y-111618017D01*
X121212007Y-111510655D01*
X121212000Y-111510651D01*
X121116911Y-111473814D01*
X121021821Y-111436976D01*
X120821341Y-111399500D01*
X120617389Y-111399500D01*
X120416909Y-111436976D01*
X120416906Y-111436976D01*
X120416906Y-111436977D01*
X120226729Y-111510651D01*
X120226722Y-111510655D01*
X120053325Y-111618017D01*
X120053323Y-111618019D01*
X119902602Y-111755419D01*
X119818319Y-111867028D01*
X119762210Y-111908664D01*
X119692498Y-111913355D01*
X119631316Y-111879613D01*
X119620411Y-111867028D01*
X119536127Y-111755419D01*
X119385406Y-111618019D01*
X119385404Y-111618017D01*
X119212007Y-111510655D01*
X119212000Y-111510651D01*
X119116911Y-111473814D01*
X119021821Y-111436976D01*
X118821341Y-111399500D01*
X118617389Y-111399500D01*
X118416909Y-111436976D01*
X118416906Y-111436976D01*
X118416906Y-111436977D01*
X118226729Y-111510651D01*
X118226722Y-111510655D01*
X118053325Y-111618017D01*
X118053323Y-111618019D01*
X117902602Y-111755419D01*
X117818319Y-111867028D01*
X117762210Y-111908664D01*
X117692498Y-111913355D01*
X117631316Y-111879613D01*
X117620411Y-111867028D01*
X117536127Y-111755419D01*
X117385406Y-111618019D01*
X117385404Y-111618017D01*
X117212007Y-111510655D01*
X117212000Y-111510651D01*
X117116911Y-111473814D01*
X117021821Y-111436976D01*
X116821341Y-111399500D01*
X116617389Y-111399500D01*
X116416909Y-111436976D01*
X116416906Y-111436976D01*
X116416906Y-111436977D01*
X116226729Y-111510651D01*
X116226722Y-111510655D01*
X116053325Y-111618017D01*
X116053323Y-111618019D01*
X115902602Y-111755418D01*
X115779692Y-111918178D01*
X115688787Y-112100739D01*
X115688782Y-112100752D01*
X115632967Y-112296917D01*
X115614150Y-112499999D01*
X115614150Y-112500000D01*
X115632967Y-112703082D01*
X115688782Y-112899247D01*
X115688787Y-112899260D01*
X115779692Y-113081821D01*
X115902602Y-113244581D01*
X116053323Y-113381980D01*
X116053325Y-113381982D01*
X116142144Y-113436976D01*
X116226728Y-113489348D01*
X116416909Y-113563024D01*
X116617389Y-113600500D01*
X116617391Y-113600500D01*
X116770566Y-113600500D01*
X116837605Y-113620185D01*
X116883360Y-113672989D01*
X116893304Y-113742147D01*
X116869520Y-113799227D01*
X116779692Y-113918178D01*
X116688787Y-114100739D01*
X116688782Y-114100752D01*
X116632967Y-114296917D01*
X116614150Y-114499999D01*
X116614150Y-114500001D01*
X116631475Y-114686975D01*
X116618060Y-114755545D01*
X116569703Y-114805977D01*
X116501757Y-114822259D01*
X116435794Y-114799221D01*
X116414921Y-114780340D01*
X116359289Y-114717130D01*
X116359285Y-114717126D01*
X116170494Y-114564688D01*
X115958655Y-114446347D01*
X115729865Y-114365511D01*
X115729851Y-114365507D01*
X115490702Y-114324500D01*
X115490693Y-114324500D01*
X115308811Y-114324500D01*
X115308792Y-114324500D01*
X115127589Y-114339923D01*
X115127586Y-114339924D01*
X114956683Y-114384423D01*
X114886846Y-114382266D01*
X114829262Y-114342695D01*
X114806172Y-114298359D01*
X114805762Y-114296917D01*
X114749947Y-114100750D01*
X114659038Y-113918179D01*
X114536129Y-113755421D01*
X114536127Y-113755418D01*
X114385406Y-113618019D01*
X114385404Y-113618017D01*
X114212007Y-113510655D01*
X114212000Y-113510651D01*
X114079206Y-113459207D01*
X114021821Y-113436976D01*
X113821341Y-113399500D01*
X113668164Y-113399500D01*
X113601125Y-113379815D01*
X113555370Y-113327011D01*
X113545426Y-113257853D01*
X113569210Y-113200773D01*
X113629915Y-113120386D01*
X113659038Y-113081821D01*
X113749947Y-112899250D01*
X113805762Y-112703083D01*
X113824580Y-112500000D01*
X113805762Y-112296917D01*
X113749947Y-112100750D01*
X113659038Y-111918179D01*
X113536129Y-111755421D01*
X113536127Y-111755418D01*
X113385406Y-111618019D01*
X113385404Y-111618017D01*
X113212007Y-111510655D01*
X113212000Y-111510651D01*
X113116911Y-111473814D01*
X113021821Y-111436976D01*
X112821341Y-111399500D01*
X112617389Y-111399500D01*
X112416909Y-111436976D01*
X112416906Y-111436976D01*
X112416906Y-111436977D01*
X112226729Y-111510651D01*
X112226722Y-111510655D01*
X112053325Y-111618017D01*
X112053323Y-111618019D01*
X111902602Y-111755419D01*
X111818319Y-111867028D01*
X111762210Y-111908664D01*
X111692498Y-111913355D01*
X111631316Y-111879613D01*
X111620411Y-111867028D01*
X111536127Y-111755419D01*
X111385406Y-111618019D01*
X111385404Y-111618017D01*
X111212007Y-111510655D01*
X111212000Y-111510651D01*
X111116911Y-111473814D01*
X111021821Y-111436976D01*
X110821341Y-111399500D01*
X110617389Y-111399500D01*
X110416909Y-111436976D01*
X110416906Y-111436976D01*
X110416906Y-111436977D01*
X110226729Y-111510651D01*
X110226722Y-111510655D01*
X110053325Y-111618017D01*
X110053323Y-111618019D01*
X109902602Y-111755419D01*
X109818319Y-111867028D01*
X109762210Y-111908664D01*
X109692498Y-111913355D01*
X109631316Y-111879613D01*
X109620411Y-111867028D01*
X109536127Y-111755419D01*
X109385406Y-111618019D01*
X109385404Y-111618017D01*
X109212007Y-111510655D01*
X109212000Y-111510651D01*
X109116911Y-111473814D01*
X109021821Y-111436976D01*
X108821341Y-111399500D01*
X108617389Y-111399500D01*
X108416909Y-111436976D01*
X108416906Y-111436976D01*
X108416906Y-111436977D01*
X108226729Y-111510651D01*
X108226722Y-111510655D01*
X108053325Y-111618017D01*
X108053323Y-111618019D01*
X107902602Y-111755418D01*
X107779692Y-111918178D01*
X107688787Y-112100739D01*
X107688782Y-112100752D01*
X107632967Y-112296917D01*
X107614150Y-112499999D01*
X107614150Y-112500000D01*
X107632967Y-112703082D01*
X107688782Y-112899247D01*
X107688787Y-112899260D01*
X107779692Y-113081821D01*
X107869520Y-113200773D01*
X107894212Y-113266135D01*
X107879647Y-113334469D01*
X107830449Y-113384082D01*
X107770566Y-113399500D01*
X107617389Y-113399500D01*
X107416909Y-113436976D01*
X107416906Y-113436976D01*
X107416906Y-113436977D01*
X107226729Y-113510651D01*
X107226722Y-113510655D01*
X107053325Y-113618017D01*
X107053323Y-113618019D01*
X106902602Y-113755419D01*
X106818319Y-113867028D01*
X106762210Y-113908664D01*
X106692498Y-113913355D01*
X106631316Y-113879613D01*
X106620411Y-113867028D01*
X106536127Y-113755419D01*
X106385406Y-113618019D01*
X106385404Y-113618017D01*
X106212007Y-113510655D01*
X106212000Y-113510651D01*
X106079206Y-113459207D01*
X106023805Y-113416634D01*
X106000214Y-113350867D01*
X106000000Y-113343580D01*
X106000000Y-109500000D01*
X109594540Y-109500000D01*
X109614326Y-109688256D01*
X109614327Y-109688259D01*
X109672818Y-109868277D01*
X109672821Y-109868284D01*
X109767467Y-110032216D01*
X109894129Y-110172888D01*
X110047265Y-110284148D01*
X110047270Y-110284151D01*
X110220192Y-110361142D01*
X110220197Y-110361144D01*
X110405354Y-110400500D01*
X110405355Y-110400500D01*
X110594644Y-110400500D01*
X110594646Y-110400500D01*
X110779803Y-110361144D01*
X110952730Y-110284151D01*
X111105871Y-110172888D01*
X111157851Y-110115158D01*
X111217336Y-110078510D01*
X111287193Y-110079840D01*
X111342148Y-110115158D01*
X111394129Y-110172888D01*
X111547265Y-110284148D01*
X111547270Y-110284151D01*
X111720192Y-110361142D01*
X111720197Y-110361144D01*
X111905354Y-110400500D01*
X111905355Y-110400500D01*
X112094644Y-110400500D01*
X112094646Y-110400500D01*
X112279803Y-110361144D01*
X112452730Y-110284151D01*
X112605871Y-110172888D01*
X112657851Y-110115158D01*
X112717336Y-110078510D01*
X112787193Y-110079840D01*
X112842148Y-110115158D01*
X112894129Y-110172888D01*
X113047265Y-110284148D01*
X113047270Y-110284151D01*
X113220192Y-110361142D01*
X113220197Y-110361144D01*
X113405354Y-110400500D01*
X113405355Y-110400500D01*
X113594644Y-110400500D01*
X113594646Y-110400500D01*
X113779803Y-110361144D01*
X113952730Y-110284151D01*
X114105871Y-110172888D01*
X114232533Y-110032216D01*
X114327179Y-109868284D01*
X114385674Y-109688256D01*
X114405460Y-109500000D01*
X114385674Y-109311744D01*
X114327179Y-109131716D01*
X114232533Y-108967784D01*
X114223698Y-108957972D01*
X114193469Y-108894981D01*
X114202093Y-108825646D01*
X114223699Y-108792027D01*
X114232533Y-108782216D01*
X114327179Y-108618284D01*
X114385674Y-108438256D01*
X114405460Y-108250000D01*
X114385674Y-108061744D01*
X114327179Y-107881716D01*
X114232533Y-107717784D01*
X114105871Y-107577112D01*
X114105867Y-107577109D01*
X113952734Y-107465851D01*
X113952729Y-107465848D01*
X113779807Y-107388857D01*
X113779802Y-107388855D01*
X113634001Y-107357865D01*
X113594646Y-107349500D01*
X113405354Y-107349500D01*
X113372897Y-107356398D01*
X113220197Y-107388855D01*
X113220192Y-107388857D01*
X113047270Y-107465848D01*
X113047265Y-107465851D01*
X112894132Y-107577109D01*
X112894129Y-107577111D01*
X112894129Y-107577112D01*
X112842148Y-107634841D01*
X112782663Y-107671489D01*
X112712806Y-107670158D01*
X112657851Y-107634841D01*
X112605871Y-107577112D01*
X112605867Y-107577109D01*
X112452734Y-107465851D01*
X112452729Y-107465848D01*
X112279807Y-107388857D01*
X112279802Y-107388855D01*
X112134001Y-107357865D01*
X112094646Y-107349500D01*
X111905354Y-107349500D01*
X111872897Y-107356398D01*
X111720197Y-107388855D01*
X111720192Y-107388857D01*
X111547270Y-107465848D01*
X111547265Y-107465851D01*
X111394132Y-107577109D01*
X111394129Y-107577111D01*
X111394129Y-107577112D01*
X111342148Y-107634841D01*
X111282663Y-107671489D01*
X111212806Y-107670158D01*
X111157851Y-107634841D01*
X111105871Y-107577112D01*
X111105867Y-107577109D01*
X110952734Y-107465851D01*
X110952729Y-107465848D01*
X110779807Y-107388857D01*
X110779802Y-107388855D01*
X110634001Y-107357865D01*
X110594646Y-107349500D01*
X110405354Y-107349500D01*
X110372897Y-107356398D01*
X110220197Y-107388855D01*
X110220192Y-107388857D01*
X110047270Y-107465848D01*
X110047265Y-107465851D01*
X109894129Y-107577111D01*
X109767466Y-107717785D01*
X109672821Y-107881715D01*
X109672818Y-107881722D01*
X109614327Y-108061740D01*
X109614326Y-108061744D01*
X109594540Y-108250000D01*
X109614326Y-108438256D01*
X109614327Y-108438259D01*
X109672818Y-108618277D01*
X109672821Y-108618284D01*
X109767467Y-108782216D01*
X109773096Y-108788467D01*
X109776304Y-108792031D01*
X109806531Y-108855023D01*
X109797904Y-108924358D01*
X109776304Y-108957969D01*
X109767466Y-108967785D01*
X109672821Y-109131715D01*
X109672818Y-109131722D01*
X109614327Y-109311740D01*
X109614326Y-109311744D01*
X109594540Y-109500000D01*
X106000000Y-109500000D01*
X106000000Y-98567648D01*
X107549500Y-98567648D01*
X107564323Y-98770155D01*
X107564325Y-98770168D01*
X107623217Y-99034546D01*
X107623220Y-99034553D01*
X107719986Y-99287558D01*
X107852559Y-99523777D01*
X107950026Y-99650002D01*
X108018112Y-99738177D01*
X108213109Y-99926177D01*
X108213114Y-99926182D01*
X108213119Y-99926186D01*
X108433421Y-100083799D01*
X108507301Y-100121783D01*
X108674309Y-100207649D01*
X108674318Y-100207652D01*
X108674325Y-100207656D01*
X108816243Y-100256072D01*
X108930685Y-100295115D01*
X108930688Y-100295115D01*
X108930695Y-100295118D01*
X109197067Y-100344319D01*
X109413625Y-100352233D01*
X109467763Y-100354212D01*
X109467763Y-100354211D01*
X109467765Y-100354212D01*
X109737018Y-100324586D01*
X109999088Y-100256072D01*
X110248390Y-100150130D01*
X110479610Y-100009018D01*
X110687820Y-99835745D01*
X110868582Y-99634002D01*
X111018044Y-99408090D01*
X111133020Y-99162824D01*
X111172040Y-99033127D01*
X111211057Y-98903442D01*
X111211057Y-98903438D01*
X111211060Y-98903431D01*
X111250500Y-98635439D01*
X111250500Y-98567648D01*
X111749500Y-98567648D01*
X111764323Y-98770155D01*
X111764325Y-98770168D01*
X111823217Y-99034546D01*
X111823220Y-99034553D01*
X111919986Y-99287558D01*
X112052559Y-99523777D01*
X112150026Y-99650002D01*
X112218112Y-99738177D01*
X112413109Y-99926177D01*
X112413114Y-99926182D01*
X112413119Y-99926186D01*
X112633421Y-100083799D01*
X112707301Y-100121783D01*
X112874309Y-100207649D01*
X112874318Y-100207652D01*
X112874325Y-100207656D01*
X113016243Y-100256072D01*
X113130685Y-100295115D01*
X113130688Y-100295115D01*
X113130695Y-100295118D01*
X113397067Y-100344319D01*
X113613625Y-100352233D01*
X113667763Y-100354212D01*
X113667763Y-100354211D01*
X113667765Y-100354212D01*
X113937018Y-100324586D01*
X114199088Y-100256072D01*
X114448390Y-100150130D01*
X114679610Y-100009018D01*
X114887820Y-99835745D01*
X115068582Y-99634002D01*
X115218044Y-99408090D01*
X115333020Y-99162824D01*
X115372040Y-99033127D01*
X115411057Y-98903442D01*
X115411057Y-98903438D01*
X115411060Y-98903431D01*
X115450500Y-98635439D01*
X115450500Y-98567648D01*
X115949500Y-98567648D01*
X115964323Y-98770155D01*
X115964325Y-98770168D01*
X116023217Y-99034546D01*
X116023220Y-99034553D01*
X116119986Y-99287558D01*
X116252559Y-99523777D01*
X116350026Y-99650002D01*
X116418112Y-99738177D01*
X116613109Y-99926177D01*
X116613114Y-99926182D01*
X116613119Y-99926186D01*
X116833421Y-100083799D01*
X116907301Y-100121783D01*
X117074309Y-100207649D01*
X117074318Y-100207652D01*
X117074325Y-100207656D01*
X117216243Y-100256072D01*
X117330685Y-100295115D01*
X117330688Y-100295115D01*
X117330695Y-100295118D01*
X117597067Y-100344319D01*
X117813625Y-100352233D01*
X117867763Y-100354212D01*
X117867763Y-100354211D01*
X117867765Y-100354212D01*
X118137018Y-100324586D01*
X118399088Y-100256072D01*
X118648390Y-100150130D01*
X118879610Y-100009018D01*
X119087820Y-99835745D01*
X119268582Y-99634002D01*
X119418044Y-99408090D01*
X119533020Y-99162824D01*
X119572040Y-99033127D01*
X119611057Y-98903442D01*
X119611057Y-98903438D01*
X119611060Y-98903431D01*
X119650500Y-98635439D01*
X119650500Y-98567648D01*
X120149500Y-98567648D01*
X120164323Y-98770155D01*
X120164325Y-98770168D01*
X120223217Y-99034546D01*
X120223220Y-99034553D01*
X120319986Y-99287558D01*
X120452559Y-99523777D01*
X120550026Y-99650002D01*
X120618112Y-99738177D01*
X120813109Y-99926177D01*
X120813114Y-99926182D01*
X120813119Y-99926186D01*
X121033421Y-100083799D01*
X121107301Y-100121783D01*
X121274309Y-100207649D01*
X121274318Y-100207652D01*
X121274325Y-100207656D01*
X121416243Y-100256072D01*
X121530685Y-100295115D01*
X121530688Y-100295115D01*
X121530695Y-100295118D01*
X121797067Y-100344319D01*
X122013625Y-100352233D01*
X122067763Y-100354212D01*
X122067763Y-100354211D01*
X122067765Y-100354212D01*
X122337018Y-100324586D01*
X122599088Y-100256072D01*
X122848390Y-100150130D01*
X123079610Y-100009018D01*
X123287820Y-99835745D01*
X123468582Y-99634002D01*
X123618044Y-99408090D01*
X123733020Y-99162824D01*
X123772040Y-99033127D01*
X123811057Y-98903442D01*
X123811057Y-98903438D01*
X123811060Y-98903431D01*
X123850500Y-98635439D01*
X123850500Y-98567648D01*
X124349500Y-98567648D01*
X124364323Y-98770155D01*
X124364325Y-98770168D01*
X124423217Y-99034546D01*
X124423220Y-99034553D01*
X124519986Y-99287558D01*
X124652559Y-99523777D01*
X124750026Y-99650002D01*
X124818112Y-99738177D01*
X125013109Y-99926177D01*
X125013114Y-99926182D01*
X125013119Y-99926186D01*
X125233421Y-100083799D01*
X125307301Y-100121783D01*
X125474309Y-100207649D01*
X125474318Y-100207652D01*
X125474325Y-100207656D01*
X125616243Y-100256072D01*
X125730685Y-100295115D01*
X125730688Y-100295115D01*
X125730695Y-100295118D01*
X125997067Y-100344319D01*
X126213625Y-100352233D01*
X126267763Y-100354212D01*
X126267763Y-100354211D01*
X126267765Y-100354212D01*
X126537018Y-100324586D01*
X126799088Y-100256072D01*
X127048390Y-100150130D01*
X127279610Y-100009018D01*
X127487820Y-99835745D01*
X127668582Y-99634002D01*
X127818044Y-99408090D01*
X127933020Y-99162824D01*
X127972040Y-99033127D01*
X128011057Y-98903442D01*
X128011057Y-98903438D01*
X128011060Y-98903431D01*
X128050500Y-98635439D01*
X128050500Y-98567648D01*
X132749500Y-98567648D01*
X132764323Y-98770155D01*
X132764325Y-98770168D01*
X132823217Y-99034546D01*
X132823220Y-99034553D01*
X132919986Y-99287558D01*
X133052559Y-99523777D01*
X133150026Y-99650002D01*
X133218112Y-99738177D01*
X133413109Y-99926177D01*
X133413114Y-99926182D01*
X133413119Y-99926186D01*
X133633421Y-100083799D01*
X133707301Y-100121783D01*
X133874309Y-100207649D01*
X133874318Y-100207652D01*
X133874325Y-100207656D01*
X134016243Y-100256072D01*
X134130685Y-100295115D01*
X134130688Y-100295115D01*
X134130695Y-100295118D01*
X134397067Y-100344319D01*
X134613625Y-100352233D01*
X134667763Y-100354212D01*
X134667763Y-100354211D01*
X134667765Y-100354212D01*
X134937018Y-100324586D01*
X135199088Y-100256072D01*
X135448390Y-100150130D01*
X135679610Y-100009018D01*
X135887820Y-99835745D01*
X136068582Y-99634002D01*
X136218044Y-99408090D01*
X136333020Y-99162824D01*
X136372040Y-99033127D01*
X136411057Y-98903442D01*
X136411057Y-98903438D01*
X136411060Y-98903431D01*
X136450500Y-98635439D01*
X136450500Y-98567648D01*
X141149500Y-98567648D01*
X141164323Y-98770155D01*
X141164325Y-98770168D01*
X141223217Y-99034546D01*
X141223220Y-99034553D01*
X141319986Y-99287558D01*
X141452559Y-99523777D01*
X141550026Y-99650002D01*
X141618112Y-99738177D01*
X141813109Y-99926177D01*
X141813114Y-99926182D01*
X141813119Y-99926186D01*
X142033421Y-100083799D01*
X142107301Y-100121783D01*
X142274309Y-100207649D01*
X142274318Y-100207652D01*
X142274325Y-100207656D01*
X142416243Y-100256072D01*
X142530685Y-100295115D01*
X142530688Y-100295115D01*
X142530695Y-100295118D01*
X142797067Y-100344319D01*
X143013625Y-100352233D01*
X143067763Y-100354212D01*
X143067763Y-100354211D01*
X143067765Y-100354212D01*
X143337018Y-100324586D01*
X143599088Y-100256072D01*
X143848390Y-100150130D01*
X144079610Y-100009018D01*
X144287820Y-99835745D01*
X144468582Y-99634002D01*
X144618044Y-99408090D01*
X144733020Y-99162824D01*
X144772040Y-99033127D01*
X144811057Y-98903442D01*
X144811057Y-98903438D01*
X144811060Y-98903431D01*
X144850500Y-98635439D01*
X144850500Y-98567648D01*
X149549500Y-98567648D01*
X149564323Y-98770155D01*
X149564325Y-98770168D01*
X149623217Y-99034546D01*
X149623220Y-99034553D01*
X149719986Y-99287558D01*
X149852559Y-99523777D01*
X149950026Y-99650002D01*
X150018112Y-99738177D01*
X150213109Y-99926177D01*
X150213114Y-99926182D01*
X150213119Y-99926186D01*
X150433421Y-100083799D01*
X150507301Y-100121783D01*
X150674309Y-100207649D01*
X150674318Y-100207652D01*
X150674325Y-100207656D01*
X150816243Y-100256072D01*
X150930685Y-100295115D01*
X150930688Y-100295115D01*
X150930695Y-100295118D01*
X151197067Y-100344319D01*
X151413625Y-100352233D01*
X151467763Y-100354212D01*
X151467763Y-100354211D01*
X151467765Y-100354212D01*
X151737018Y-100324586D01*
X151999088Y-100256072D01*
X152248390Y-100150130D01*
X152479610Y-100009018D01*
X152687820Y-99835745D01*
X152854234Y-99650015D01*
X153749500Y-99650015D01*
X153760000Y-99752795D01*
X153760001Y-99752796D01*
X153815186Y-99919335D01*
X153815187Y-99919337D01*
X153907286Y-100068651D01*
X153907289Y-100068655D01*
X154031344Y-100192710D01*
X154031348Y-100192713D01*
X154180662Y-100284812D01*
X154180664Y-100284813D01*
X154180666Y-100284814D01*
X154347203Y-100339999D01*
X154449992Y-100350500D01*
X154449997Y-100350500D01*
X156750003Y-100350500D01*
X156750008Y-100350500D01*
X156852797Y-100339999D01*
X157019334Y-100284814D01*
X157168655Y-100192711D01*
X157292711Y-100068655D01*
X157384814Y-99919334D01*
X157439999Y-99752797D01*
X157450500Y-99650008D01*
X157450500Y-99600000D01*
X186294540Y-99600000D01*
X186314326Y-99788256D01*
X186314327Y-99788259D01*
X186372818Y-99968277D01*
X186372821Y-99968284D01*
X186467467Y-100132216D01*
X186535394Y-100207656D01*
X186594129Y-100272888D01*
X186747265Y-100384148D01*
X186747270Y-100384151D01*
X186920192Y-100461142D01*
X186920197Y-100461144D01*
X187105354Y-100500500D01*
X187105355Y-100500500D01*
X187294644Y-100500500D01*
X187294646Y-100500500D01*
X187479803Y-100461144D01*
X187652730Y-100384151D01*
X187805871Y-100272888D01*
X187932533Y-100132216D01*
X188027179Y-99968284D01*
X188085674Y-99788256D01*
X188105460Y-99600000D01*
X188085674Y-99411744D01*
X188027179Y-99231716D01*
X187932533Y-99067784D01*
X187805871Y-98927112D01*
X187773273Y-98903428D01*
X187652734Y-98815851D01*
X187652729Y-98815848D01*
X187479807Y-98738857D01*
X187479802Y-98738855D01*
X187334001Y-98707865D01*
X187294646Y-98699500D01*
X187105354Y-98699500D01*
X187072897Y-98706398D01*
X186920197Y-98738855D01*
X186920192Y-98738857D01*
X186747270Y-98815848D01*
X186747265Y-98815851D01*
X186594129Y-98927111D01*
X186467466Y-99067785D01*
X186372821Y-99231715D01*
X186372818Y-99231722D01*
X186314327Y-99411740D01*
X186314326Y-99411744D01*
X186294540Y-99600000D01*
X157450500Y-99600000D01*
X157450500Y-96749992D01*
X157439999Y-96647203D01*
X157384814Y-96480666D01*
X157329498Y-96390986D01*
X157292713Y-96331348D01*
X157292710Y-96331344D01*
X157168655Y-96207289D01*
X157168651Y-96207286D01*
X157019337Y-96115187D01*
X157019335Y-96115186D01*
X156899307Y-96075413D01*
X156852797Y-96060001D01*
X156852795Y-96060000D01*
X156750015Y-96049500D01*
X156750008Y-96049500D01*
X154449992Y-96049500D01*
X154449984Y-96049500D01*
X154347204Y-96060000D01*
X154347203Y-96060001D01*
X154180664Y-96115186D01*
X154180662Y-96115187D01*
X154031348Y-96207286D01*
X154031344Y-96207289D01*
X153907289Y-96331344D01*
X153907286Y-96331348D01*
X153815187Y-96480662D01*
X153815186Y-96480664D01*
X153760001Y-96647203D01*
X153760000Y-96647204D01*
X153749500Y-96749984D01*
X153749500Y-99650015D01*
X152854234Y-99650015D01*
X152868582Y-99634002D01*
X153018044Y-99408090D01*
X153133020Y-99162824D01*
X153172040Y-99033127D01*
X153211057Y-98903442D01*
X153211057Y-98903438D01*
X153211060Y-98903431D01*
X153250500Y-98635439D01*
X153250500Y-97832369D01*
X153235677Y-97629844D01*
X153205986Y-97496557D01*
X153176782Y-97365453D01*
X153176780Y-97365449D01*
X153176780Y-97365447D01*
X153080014Y-97112442D01*
X152947441Y-96876223D01*
X152781888Y-96661823D01*
X152680693Y-96564259D01*
X152586890Y-96473822D01*
X152586883Y-96473816D01*
X152586881Y-96473814D01*
X152366579Y-96316201D01*
X152358874Y-96312239D01*
X152125690Y-96192350D01*
X152125672Y-96192343D01*
X151869314Y-96104884D01*
X151869300Y-96104881D01*
X151823621Y-96096443D01*
X151602933Y-96055681D01*
X151602930Y-96055680D01*
X151602924Y-96055680D01*
X151332236Y-96045787D01*
X151062986Y-96075413D01*
X151062975Y-96075415D01*
X150800917Y-96143926D01*
X150551610Y-96249870D01*
X150320394Y-96390979D01*
X150320384Y-96390986D01*
X150112180Y-96564253D01*
X150112175Y-96564259D01*
X149931418Y-96765997D01*
X149781957Y-96991907D01*
X149666976Y-97237184D01*
X149666976Y-97237186D01*
X149588942Y-97496557D01*
X149588939Y-97496571D01*
X149569328Y-97629831D01*
X149549500Y-97764561D01*
X149549500Y-97764565D01*
X149549500Y-98567648D01*
X144850500Y-98567648D01*
X144850500Y-97832369D01*
X144835677Y-97629844D01*
X144805986Y-97496557D01*
X144776782Y-97365453D01*
X144776780Y-97365449D01*
X144776780Y-97365447D01*
X144680014Y-97112442D01*
X144547441Y-96876223D01*
X144381888Y-96661823D01*
X144280693Y-96564259D01*
X144186890Y-96473822D01*
X144186883Y-96473816D01*
X144186881Y-96473814D01*
X143966579Y-96316201D01*
X143958874Y-96312239D01*
X143725690Y-96192350D01*
X143725672Y-96192343D01*
X143469314Y-96104884D01*
X143469300Y-96104881D01*
X143423621Y-96096443D01*
X143202933Y-96055681D01*
X143202930Y-96055680D01*
X143202924Y-96055680D01*
X142932236Y-96045787D01*
X142662986Y-96075413D01*
X142662975Y-96075415D01*
X142400917Y-96143926D01*
X142151610Y-96249870D01*
X141920394Y-96390979D01*
X141920384Y-96390986D01*
X141712180Y-96564253D01*
X141712175Y-96564259D01*
X141531418Y-96765997D01*
X141381957Y-96991907D01*
X141266976Y-97237184D01*
X141266976Y-97237186D01*
X141188942Y-97496557D01*
X141188939Y-97496571D01*
X141169328Y-97629831D01*
X141149500Y-97764561D01*
X141149500Y-97764565D01*
X141149500Y-98567648D01*
X136450500Y-98567648D01*
X136450500Y-97832369D01*
X136435677Y-97629844D01*
X136405986Y-97496557D01*
X136376782Y-97365453D01*
X136376780Y-97365449D01*
X136376780Y-97365447D01*
X136280014Y-97112442D01*
X136147441Y-96876223D01*
X135981888Y-96661823D01*
X135880693Y-96564259D01*
X135786890Y-96473822D01*
X135786883Y-96473816D01*
X135786881Y-96473814D01*
X135566579Y-96316201D01*
X135558874Y-96312239D01*
X135325690Y-96192350D01*
X135325672Y-96192343D01*
X135069314Y-96104884D01*
X135069300Y-96104881D01*
X135023621Y-96096443D01*
X134802933Y-96055681D01*
X134802930Y-96055680D01*
X134802924Y-96055680D01*
X134532236Y-96045787D01*
X134262986Y-96075413D01*
X134262975Y-96075415D01*
X134000917Y-96143926D01*
X133751610Y-96249870D01*
X133520394Y-96390979D01*
X133520384Y-96390986D01*
X133312180Y-96564253D01*
X133312175Y-96564259D01*
X133131418Y-96765997D01*
X132981957Y-96991907D01*
X132866976Y-97237184D01*
X132866976Y-97237186D01*
X132788942Y-97496557D01*
X132788939Y-97496571D01*
X132769328Y-97629831D01*
X132749500Y-97764561D01*
X132749500Y-97764565D01*
X132749500Y-98567648D01*
X128050500Y-98567648D01*
X128050500Y-97832369D01*
X128035677Y-97629844D01*
X128005986Y-97496557D01*
X127976782Y-97365453D01*
X127976780Y-97365449D01*
X127976780Y-97365447D01*
X127880014Y-97112442D01*
X127747441Y-96876223D01*
X127581888Y-96661823D01*
X127480693Y-96564259D01*
X127386890Y-96473822D01*
X127386883Y-96473816D01*
X127386881Y-96473814D01*
X127166579Y-96316201D01*
X127158874Y-96312239D01*
X126925690Y-96192350D01*
X126925672Y-96192343D01*
X126669314Y-96104884D01*
X126669300Y-96104881D01*
X126623621Y-96096443D01*
X126402933Y-96055681D01*
X126402930Y-96055680D01*
X126402924Y-96055680D01*
X126132236Y-96045787D01*
X125862986Y-96075413D01*
X125862975Y-96075415D01*
X125600917Y-96143926D01*
X125351610Y-96249870D01*
X125120394Y-96390979D01*
X125120384Y-96390986D01*
X124912180Y-96564253D01*
X124912175Y-96564259D01*
X124731418Y-96765997D01*
X124581957Y-96991907D01*
X124466976Y-97237184D01*
X124466976Y-97237186D01*
X124388942Y-97496557D01*
X124388939Y-97496571D01*
X124369328Y-97629831D01*
X124349500Y-97764561D01*
X124349500Y-97764565D01*
X124349500Y-98567648D01*
X123850500Y-98567648D01*
X123850500Y-97832369D01*
X123835677Y-97629844D01*
X123805986Y-97496557D01*
X123776782Y-97365453D01*
X123776780Y-97365449D01*
X123776780Y-97365447D01*
X123680014Y-97112442D01*
X123547441Y-96876223D01*
X123381888Y-96661823D01*
X123280693Y-96564259D01*
X123186890Y-96473822D01*
X123186883Y-96473816D01*
X123186881Y-96473814D01*
X122966579Y-96316201D01*
X122958874Y-96312239D01*
X122725690Y-96192350D01*
X122725672Y-96192343D01*
X122469314Y-96104884D01*
X122469300Y-96104881D01*
X122423621Y-96096443D01*
X122202933Y-96055681D01*
X122202930Y-96055680D01*
X122202924Y-96055680D01*
X121932236Y-96045787D01*
X121662986Y-96075413D01*
X121662975Y-96075415D01*
X121400917Y-96143926D01*
X121151610Y-96249870D01*
X120920394Y-96390979D01*
X120920384Y-96390986D01*
X120712180Y-96564253D01*
X120712175Y-96564259D01*
X120531418Y-96765997D01*
X120381957Y-96991907D01*
X120266976Y-97237184D01*
X120266976Y-97237186D01*
X120188942Y-97496557D01*
X120188939Y-97496571D01*
X120169328Y-97629831D01*
X120149500Y-97764561D01*
X120149500Y-97764565D01*
X120149500Y-98567648D01*
X119650500Y-98567648D01*
X119650500Y-97832369D01*
X119635677Y-97629844D01*
X119605986Y-97496557D01*
X119576782Y-97365453D01*
X119576780Y-97365449D01*
X119576780Y-97365447D01*
X119480014Y-97112442D01*
X119347441Y-96876223D01*
X119181888Y-96661823D01*
X119080693Y-96564259D01*
X118986890Y-96473822D01*
X118986883Y-96473816D01*
X118986881Y-96473814D01*
X118766579Y-96316201D01*
X118758874Y-96312239D01*
X118525690Y-96192350D01*
X118525672Y-96192343D01*
X118269314Y-96104884D01*
X118269300Y-96104881D01*
X118223621Y-96096443D01*
X118002933Y-96055681D01*
X118002930Y-96055680D01*
X118002924Y-96055680D01*
X117732236Y-96045787D01*
X117462986Y-96075413D01*
X117462975Y-96075415D01*
X117200917Y-96143926D01*
X116951610Y-96249870D01*
X116720394Y-96390979D01*
X116720384Y-96390986D01*
X116512180Y-96564253D01*
X116512175Y-96564259D01*
X116331418Y-96765997D01*
X116181957Y-96991907D01*
X116066976Y-97237184D01*
X116066976Y-97237186D01*
X115988942Y-97496557D01*
X115988939Y-97496571D01*
X115969328Y-97629831D01*
X115949500Y-97764561D01*
X115949500Y-97764565D01*
X115949500Y-98567648D01*
X115450500Y-98567648D01*
X115450500Y-97832369D01*
X115435677Y-97629844D01*
X115405986Y-97496557D01*
X115376782Y-97365453D01*
X115376780Y-97365449D01*
X115376780Y-97365447D01*
X115280014Y-97112442D01*
X115147441Y-96876223D01*
X114981888Y-96661823D01*
X114880693Y-96564259D01*
X114786890Y-96473822D01*
X114786883Y-96473816D01*
X114786881Y-96473814D01*
X114566579Y-96316201D01*
X114558874Y-96312239D01*
X114325690Y-96192350D01*
X114325672Y-96192343D01*
X114069314Y-96104884D01*
X114069300Y-96104881D01*
X114023621Y-96096443D01*
X113802933Y-96055681D01*
X113802930Y-96055680D01*
X113802924Y-96055680D01*
X113532236Y-96045787D01*
X113262986Y-96075413D01*
X113262975Y-96075415D01*
X113000917Y-96143926D01*
X112751610Y-96249870D01*
X112520394Y-96390979D01*
X112520384Y-96390986D01*
X112312180Y-96564253D01*
X112312175Y-96564259D01*
X112131418Y-96765997D01*
X111981957Y-96991907D01*
X111866976Y-97237184D01*
X111866976Y-97237186D01*
X111788942Y-97496557D01*
X111788939Y-97496571D01*
X111769328Y-97629831D01*
X111749500Y-97764561D01*
X111749500Y-97764565D01*
X111749500Y-98567648D01*
X111250500Y-98567648D01*
X111250500Y-97832369D01*
X111235677Y-97629844D01*
X111205986Y-97496557D01*
X111176782Y-97365453D01*
X111176780Y-97365449D01*
X111176780Y-97365447D01*
X111080014Y-97112442D01*
X110947441Y-96876223D01*
X110781888Y-96661823D01*
X110680693Y-96564259D01*
X110586890Y-96473822D01*
X110586883Y-96473816D01*
X110586881Y-96473814D01*
X110366579Y-96316201D01*
X110358874Y-96312239D01*
X110125690Y-96192350D01*
X110125672Y-96192343D01*
X109869314Y-96104884D01*
X109869300Y-96104881D01*
X109823621Y-96096443D01*
X109602933Y-96055681D01*
X109602930Y-96055680D01*
X109602924Y-96055680D01*
X109332236Y-96045787D01*
X109062986Y-96075413D01*
X109062975Y-96075415D01*
X108800917Y-96143926D01*
X108551610Y-96249870D01*
X108320394Y-96390979D01*
X108320384Y-96390986D01*
X108112180Y-96564253D01*
X108112175Y-96564259D01*
X107931418Y-96765997D01*
X107781957Y-96991907D01*
X107666976Y-97237184D01*
X107666976Y-97237186D01*
X107588942Y-97496557D01*
X107588939Y-97496571D01*
X107569328Y-97629831D01*
X107549500Y-97764561D01*
X107549500Y-97764565D01*
X107549500Y-98567648D01*
X106000000Y-98567648D01*
X106000000Y-94381209D01*
X106019685Y-94314170D01*
X106033098Y-94296872D01*
X106072433Y-94254479D01*
X106220228Y-94037704D01*
X106334063Y-93801323D01*
X106411396Y-93550615D01*
X106450500Y-93291182D01*
X106450500Y-93067648D01*
X111749500Y-93067648D01*
X111764323Y-93270155D01*
X111764325Y-93270168D01*
X111823217Y-93534546D01*
X111823220Y-93534553D01*
X111919986Y-93787558D01*
X112052559Y-94023777D01*
X112218112Y-94238177D01*
X112413109Y-94426177D01*
X112413114Y-94426182D01*
X112413119Y-94426186D01*
X112633421Y-94583799D01*
X112685133Y-94610386D01*
X112874309Y-94707649D01*
X112874318Y-94707652D01*
X112874325Y-94707656D01*
X113016243Y-94756072D01*
X113130685Y-94795115D01*
X113130688Y-94795115D01*
X113130695Y-94795118D01*
X113397067Y-94844319D01*
X113613625Y-94852233D01*
X113667763Y-94854212D01*
X113667763Y-94854211D01*
X113667765Y-94854212D01*
X113937018Y-94824586D01*
X114199088Y-94756072D01*
X114448390Y-94650130D01*
X114679610Y-94509018D01*
X114887820Y-94335745D01*
X115068582Y-94134002D01*
X115218044Y-93908090D01*
X115333020Y-93662824D01*
X115411060Y-93403431D01*
X115450500Y-93135439D01*
X115450500Y-93067648D01*
X115949500Y-93067648D01*
X115964323Y-93270155D01*
X115964325Y-93270168D01*
X116023217Y-93534546D01*
X116023220Y-93534553D01*
X116119986Y-93787558D01*
X116252559Y-94023777D01*
X116418112Y-94238177D01*
X116613109Y-94426177D01*
X116613114Y-94426182D01*
X116613119Y-94426186D01*
X116833421Y-94583799D01*
X116885133Y-94610386D01*
X117074309Y-94707649D01*
X117074318Y-94707652D01*
X117074325Y-94707656D01*
X117216243Y-94756072D01*
X117330685Y-94795115D01*
X117330688Y-94795115D01*
X117330695Y-94795118D01*
X117597067Y-94844319D01*
X117813625Y-94852233D01*
X117867763Y-94854212D01*
X117867763Y-94854211D01*
X117867765Y-94854212D01*
X118137018Y-94824586D01*
X118399088Y-94756072D01*
X118648390Y-94650130D01*
X118879610Y-94509018D01*
X119087820Y-94335745D01*
X119268582Y-94134002D01*
X119418044Y-93908090D01*
X119533020Y-93662824D01*
X119611060Y-93403431D01*
X119650500Y-93135439D01*
X119650500Y-93067648D01*
X120149500Y-93067648D01*
X120164323Y-93270155D01*
X120164325Y-93270168D01*
X120223217Y-93534546D01*
X120223220Y-93534553D01*
X120319986Y-93787558D01*
X120452559Y-94023777D01*
X120618112Y-94238177D01*
X120813109Y-94426177D01*
X120813114Y-94426182D01*
X120813119Y-94426186D01*
X121033421Y-94583799D01*
X121085133Y-94610386D01*
X121274309Y-94707649D01*
X121274318Y-94707652D01*
X121274325Y-94707656D01*
X121416243Y-94756072D01*
X121530685Y-94795115D01*
X121530688Y-94795115D01*
X121530695Y-94795118D01*
X121797067Y-94844319D01*
X122013625Y-94852233D01*
X122067763Y-94854212D01*
X122067763Y-94854211D01*
X122067765Y-94854212D01*
X122337018Y-94824586D01*
X122599088Y-94756072D01*
X122848390Y-94650130D01*
X123079610Y-94509018D01*
X123287820Y-94335745D01*
X123468582Y-94134002D01*
X123618044Y-93908090D01*
X123733020Y-93662824D01*
X123811060Y-93403431D01*
X123850500Y-93135439D01*
X123850500Y-93067648D01*
X124349500Y-93067648D01*
X124364323Y-93270155D01*
X124364325Y-93270168D01*
X124423217Y-93534546D01*
X124423220Y-93534553D01*
X124519986Y-93787558D01*
X124652559Y-94023777D01*
X124818112Y-94238177D01*
X125013109Y-94426177D01*
X125013114Y-94426182D01*
X125013119Y-94426186D01*
X125233421Y-94583799D01*
X125285133Y-94610386D01*
X125474309Y-94707649D01*
X125474318Y-94707652D01*
X125474325Y-94707656D01*
X125616243Y-94756072D01*
X125730685Y-94795115D01*
X125730688Y-94795115D01*
X125730695Y-94795118D01*
X125997067Y-94844319D01*
X126213625Y-94852233D01*
X126267763Y-94854212D01*
X126267763Y-94854211D01*
X126267765Y-94854212D01*
X126537018Y-94824586D01*
X126799088Y-94756072D01*
X127048390Y-94650130D01*
X127279610Y-94509018D01*
X127487820Y-94335745D01*
X127668582Y-94134002D01*
X127818044Y-93908090D01*
X127933020Y-93662824D01*
X128011060Y-93403431D01*
X128050500Y-93135439D01*
X128050500Y-93067648D01*
X141149500Y-93067648D01*
X141164323Y-93270155D01*
X141164325Y-93270168D01*
X141223217Y-93534546D01*
X141223220Y-93534553D01*
X141319986Y-93787558D01*
X141452559Y-94023777D01*
X141618112Y-94238177D01*
X141813109Y-94426177D01*
X141813114Y-94426182D01*
X141813119Y-94426186D01*
X142033421Y-94583799D01*
X142085133Y-94610386D01*
X142274309Y-94707649D01*
X142274318Y-94707652D01*
X142274325Y-94707656D01*
X142416243Y-94756072D01*
X142530685Y-94795115D01*
X142530688Y-94795115D01*
X142530695Y-94795118D01*
X142797067Y-94844319D01*
X143013625Y-94852233D01*
X143067763Y-94854212D01*
X143067763Y-94854211D01*
X143067765Y-94854212D01*
X143337018Y-94824586D01*
X143599088Y-94756072D01*
X143848390Y-94650130D01*
X144079610Y-94509018D01*
X144287820Y-94335745D01*
X144468582Y-94134002D01*
X144618044Y-93908090D01*
X144733020Y-93662824D01*
X144811060Y-93403431D01*
X144850500Y-93135439D01*
X144850500Y-93067648D01*
X149549500Y-93067648D01*
X149564323Y-93270155D01*
X149564325Y-93270168D01*
X149623217Y-93534546D01*
X149623220Y-93534553D01*
X149719986Y-93787558D01*
X149852559Y-94023777D01*
X150018112Y-94238177D01*
X150213109Y-94426177D01*
X150213114Y-94426182D01*
X150213119Y-94426186D01*
X150433421Y-94583799D01*
X150485133Y-94610386D01*
X150674309Y-94707649D01*
X150674318Y-94707652D01*
X150674325Y-94707656D01*
X150816243Y-94756072D01*
X150930685Y-94795115D01*
X150930688Y-94795115D01*
X150930695Y-94795118D01*
X151197067Y-94844319D01*
X151413625Y-94852233D01*
X151467763Y-94854212D01*
X151467763Y-94854211D01*
X151467765Y-94854212D01*
X151737018Y-94824586D01*
X151999088Y-94756072D01*
X152248390Y-94650130D01*
X152479610Y-94509018D01*
X152687820Y-94335745D01*
X152868582Y-94134002D01*
X153018044Y-93908090D01*
X153133020Y-93662824D01*
X153211060Y-93403431D01*
X153250500Y-93135439D01*
X153250500Y-93067648D01*
X153749500Y-93067648D01*
X153764323Y-93270155D01*
X153764325Y-93270168D01*
X153823217Y-93534546D01*
X153823220Y-93534553D01*
X153919986Y-93787558D01*
X154052559Y-94023777D01*
X154218112Y-94238177D01*
X154413109Y-94426177D01*
X154413114Y-94426182D01*
X154413119Y-94426186D01*
X154633421Y-94583799D01*
X154685133Y-94610386D01*
X154874309Y-94707649D01*
X154874318Y-94707652D01*
X154874325Y-94707656D01*
X155016243Y-94756072D01*
X155130685Y-94795115D01*
X155130688Y-94795115D01*
X155130695Y-94795118D01*
X155397067Y-94844319D01*
X155613625Y-94852233D01*
X155667763Y-94854212D01*
X155667763Y-94854211D01*
X155667765Y-94854212D01*
X155937018Y-94824586D01*
X156199088Y-94756072D01*
X156448390Y-94650130D01*
X156679610Y-94509018D01*
X156887820Y-94335745D01*
X157068582Y-94134002D01*
X157218044Y-93908090D01*
X157333020Y-93662824D01*
X157411060Y-93403431D01*
X157427579Y-93291187D01*
X158549500Y-93291187D01*
X158566419Y-93403428D01*
X158588604Y-93550615D01*
X158588605Y-93550617D01*
X158588606Y-93550623D01*
X158665938Y-93801326D01*
X158779767Y-94037696D01*
X158779768Y-94037697D01*
X158779770Y-94037700D01*
X158779772Y-94037704D01*
X158927567Y-94254479D01*
X159106014Y-94446801D01*
X159106018Y-94446804D01*
X159106019Y-94446805D01*
X159311143Y-94610386D01*
X159538357Y-94741568D01*
X159782584Y-94837420D01*
X160038370Y-94895802D01*
X160038376Y-94895802D01*
X160038379Y-94895803D01*
X160234484Y-94910499D01*
X160234503Y-94910499D01*
X160234506Y-94910500D01*
X160234508Y-94910500D01*
X160365492Y-94910500D01*
X160365494Y-94910500D01*
X160365496Y-94910499D01*
X160365515Y-94910499D01*
X160561620Y-94895803D01*
X160561622Y-94895802D01*
X160561630Y-94895802D01*
X160817416Y-94837420D01*
X161061643Y-94741568D01*
X161288857Y-94610386D01*
X161493981Y-94446805D01*
X161513116Y-94426183D01*
X161597034Y-94335740D01*
X161672433Y-94254479D01*
X161820228Y-94037704D01*
X161934063Y-93801323D01*
X162011396Y-93550615D01*
X162050500Y-93291182D01*
X162050500Y-93028818D01*
X162011396Y-92769385D01*
X161934063Y-92518677D01*
X161844342Y-92332369D01*
X161820232Y-92282303D01*
X161820231Y-92282302D01*
X161820230Y-92282301D01*
X161820228Y-92282296D01*
X161672433Y-92065521D01*
X161608444Y-91996557D01*
X161493985Y-91873198D01*
X161454533Y-91841736D01*
X161288857Y-91709614D01*
X161061643Y-91578432D01*
X160817416Y-91482580D01*
X160817411Y-91482578D01*
X160817402Y-91482576D01*
X160599818Y-91432914D01*
X160561630Y-91424198D01*
X160561629Y-91424197D01*
X160561625Y-91424197D01*
X160561620Y-91424196D01*
X160365515Y-91409500D01*
X160365494Y-91409500D01*
X160234506Y-91409500D01*
X160234484Y-91409500D01*
X160038379Y-91424196D01*
X160038374Y-91424197D01*
X159782597Y-91482576D01*
X159782578Y-91482582D01*
X159538356Y-91578432D01*
X159311143Y-91709614D01*
X159106014Y-91873198D01*
X158927567Y-92065520D01*
X158779768Y-92282302D01*
X158779767Y-92282303D01*
X158665938Y-92518673D01*
X158588606Y-92769376D01*
X158588605Y-92769381D01*
X158588604Y-92769385D01*
X158573853Y-92867247D01*
X158549500Y-93028812D01*
X158549500Y-93291187D01*
X157427579Y-93291187D01*
X157450500Y-93135439D01*
X157450500Y-92332369D01*
X157435677Y-92129844D01*
X157427685Y-92093966D01*
X157376782Y-91865453D01*
X157376780Y-91865449D01*
X157376780Y-91865447D01*
X157280014Y-91612442D01*
X157147441Y-91376223D01*
X156981888Y-91161823D01*
X156880693Y-91064259D01*
X156786890Y-90973822D01*
X156786883Y-90973816D01*
X156786881Y-90973814D01*
X156566579Y-90816201D01*
X156558874Y-90812239D01*
X156325690Y-90692350D01*
X156325672Y-90692343D01*
X156069314Y-90604884D01*
X156069300Y-90604881D01*
X156023621Y-90596443D01*
X155802933Y-90555681D01*
X155802930Y-90555680D01*
X155802924Y-90555680D01*
X155532236Y-90545787D01*
X155262986Y-90575413D01*
X155262975Y-90575415D01*
X155000917Y-90643926D01*
X154751610Y-90749870D01*
X154520394Y-90890979D01*
X154520384Y-90890986D01*
X154312180Y-91064253D01*
X154312175Y-91064259D01*
X154131418Y-91265997D01*
X153981957Y-91491907D01*
X153866976Y-91737184D01*
X153866976Y-91737186D01*
X153788942Y-91996557D01*
X153788939Y-91996571D01*
X153778792Y-92065521D01*
X153749500Y-92264561D01*
X153749500Y-92264565D01*
X153749500Y-93067648D01*
X153250500Y-93067648D01*
X153250500Y-92332369D01*
X153235677Y-92129844D01*
X153227685Y-92093966D01*
X153176782Y-91865453D01*
X153176780Y-91865449D01*
X153176780Y-91865447D01*
X153080014Y-91612442D01*
X152947441Y-91376223D01*
X152781888Y-91161823D01*
X152680693Y-91064259D01*
X152586890Y-90973822D01*
X152586883Y-90973816D01*
X152586881Y-90973814D01*
X152366579Y-90816201D01*
X152358874Y-90812239D01*
X152125690Y-90692350D01*
X152125672Y-90692343D01*
X151869314Y-90604884D01*
X151869300Y-90604881D01*
X151823621Y-90596443D01*
X151602933Y-90555681D01*
X151602930Y-90555680D01*
X151602924Y-90555680D01*
X151332236Y-90545787D01*
X151062986Y-90575413D01*
X151062975Y-90575415D01*
X150800917Y-90643926D01*
X150551610Y-90749870D01*
X150320394Y-90890979D01*
X150320384Y-90890986D01*
X150112180Y-91064253D01*
X150112175Y-91064259D01*
X149931418Y-91265997D01*
X149781957Y-91491907D01*
X149666976Y-91737184D01*
X149666976Y-91737186D01*
X149588942Y-91996557D01*
X149588939Y-91996571D01*
X149578792Y-92065521D01*
X149549500Y-92264561D01*
X149549500Y-92264565D01*
X149549500Y-93067648D01*
X144850500Y-93067648D01*
X144850500Y-92332369D01*
X144835677Y-92129844D01*
X144827685Y-92093966D01*
X144776782Y-91865453D01*
X144776780Y-91865449D01*
X144776780Y-91865447D01*
X144680014Y-91612442D01*
X144547441Y-91376223D01*
X144381888Y-91161823D01*
X144280693Y-91064259D01*
X144186890Y-90973822D01*
X144186883Y-90973816D01*
X144186881Y-90973814D01*
X143966579Y-90816201D01*
X143958874Y-90812239D01*
X143725690Y-90692350D01*
X143725672Y-90692343D01*
X143469314Y-90604884D01*
X143469300Y-90604881D01*
X143423621Y-90596443D01*
X143202933Y-90555681D01*
X143202930Y-90555680D01*
X143202924Y-90555680D01*
X142932236Y-90545787D01*
X142662986Y-90575413D01*
X142662975Y-90575415D01*
X142400917Y-90643926D01*
X142151610Y-90749870D01*
X141920394Y-90890979D01*
X141920384Y-90890986D01*
X141712180Y-91064253D01*
X141712175Y-91064259D01*
X141531418Y-91265997D01*
X141381957Y-91491907D01*
X141266976Y-91737184D01*
X141266976Y-91737186D01*
X141188942Y-91996557D01*
X141188939Y-91996571D01*
X141178792Y-92065521D01*
X141149500Y-92264561D01*
X141149500Y-92264565D01*
X141149500Y-93067648D01*
X128050500Y-93067648D01*
X128050500Y-92332369D01*
X128035677Y-92129844D01*
X128027685Y-92093966D01*
X127976782Y-91865453D01*
X127976780Y-91865449D01*
X127976780Y-91865447D01*
X127880014Y-91612442D01*
X127747441Y-91376223D01*
X127581888Y-91161823D01*
X127480693Y-91064259D01*
X127386890Y-90973822D01*
X127386883Y-90973816D01*
X127386881Y-90973814D01*
X127166579Y-90816201D01*
X127158874Y-90812239D01*
X126925690Y-90692350D01*
X126925672Y-90692343D01*
X126669314Y-90604884D01*
X126669300Y-90604881D01*
X126623621Y-90596443D01*
X126402933Y-90555681D01*
X126402930Y-90555680D01*
X126402924Y-90555680D01*
X126132236Y-90545787D01*
X125862986Y-90575413D01*
X125862975Y-90575415D01*
X125600917Y-90643926D01*
X125351610Y-90749870D01*
X125120394Y-90890979D01*
X125120384Y-90890986D01*
X124912180Y-91064253D01*
X124912175Y-91064259D01*
X124731418Y-91265997D01*
X124581957Y-91491907D01*
X124466976Y-91737184D01*
X124466976Y-91737186D01*
X124388942Y-91996557D01*
X124388939Y-91996571D01*
X124378792Y-92065521D01*
X124349500Y-92264561D01*
X124349500Y-92264565D01*
X124349500Y-93067648D01*
X123850500Y-93067648D01*
X123850500Y-92332369D01*
X123835677Y-92129844D01*
X123827685Y-92093966D01*
X123776782Y-91865453D01*
X123776780Y-91865449D01*
X123776780Y-91865447D01*
X123680014Y-91612442D01*
X123547441Y-91376223D01*
X123381888Y-91161823D01*
X123280693Y-91064259D01*
X123186890Y-90973822D01*
X123186883Y-90973816D01*
X123186881Y-90973814D01*
X122966579Y-90816201D01*
X122958874Y-90812239D01*
X122725690Y-90692350D01*
X122725672Y-90692343D01*
X122469314Y-90604884D01*
X122469300Y-90604881D01*
X122423621Y-90596443D01*
X122202933Y-90555681D01*
X122202930Y-90555680D01*
X122202924Y-90555680D01*
X121932236Y-90545787D01*
X121662986Y-90575413D01*
X121662975Y-90575415D01*
X121400917Y-90643926D01*
X121151610Y-90749870D01*
X120920394Y-90890979D01*
X120920384Y-90890986D01*
X120712180Y-91064253D01*
X120712175Y-91064259D01*
X120531418Y-91265997D01*
X120381957Y-91491907D01*
X120266976Y-91737184D01*
X120266976Y-91737186D01*
X120188942Y-91996557D01*
X120188939Y-91996571D01*
X120178792Y-92065521D01*
X120149500Y-92264561D01*
X120149500Y-92264565D01*
X120149500Y-93067648D01*
X119650500Y-93067648D01*
X119650500Y-92332369D01*
X119635677Y-92129844D01*
X119627685Y-92093966D01*
X119576782Y-91865453D01*
X119576780Y-91865449D01*
X119576780Y-91865447D01*
X119480014Y-91612442D01*
X119347441Y-91376223D01*
X119181888Y-91161823D01*
X119080693Y-91064259D01*
X118986890Y-90973822D01*
X118986883Y-90973816D01*
X118986881Y-90973814D01*
X118766579Y-90816201D01*
X118758874Y-90812239D01*
X118525690Y-90692350D01*
X118525672Y-90692343D01*
X118269314Y-90604884D01*
X118269300Y-90604881D01*
X118223621Y-90596443D01*
X118002933Y-90555681D01*
X118002930Y-90555680D01*
X118002924Y-90555680D01*
X117732236Y-90545787D01*
X117462986Y-90575413D01*
X117462975Y-90575415D01*
X117200917Y-90643926D01*
X116951610Y-90749870D01*
X116720394Y-90890979D01*
X116720384Y-90890986D01*
X116512180Y-91064253D01*
X116512175Y-91064259D01*
X116331418Y-91265997D01*
X116181957Y-91491907D01*
X116066976Y-91737184D01*
X116066976Y-91737186D01*
X115988942Y-91996557D01*
X115988939Y-91996571D01*
X115978792Y-92065521D01*
X115949500Y-92264561D01*
X115949500Y-92264565D01*
X115949500Y-93067648D01*
X115450500Y-93067648D01*
X115450500Y-92332369D01*
X115435677Y-92129844D01*
X115427685Y-92093966D01*
X115376782Y-91865453D01*
X115376780Y-91865449D01*
X115376780Y-91865447D01*
X115280014Y-91612442D01*
X115147441Y-91376223D01*
X114981888Y-91161823D01*
X114880693Y-91064259D01*
X114786890Y-90973822D01*
X114786883Y-90973816D01*
X114786881Y-90973814D01*
X114566579Y-90816201D01*
X114558874Y-90812239D01*
X114325690Y-90692350D01*
X114325672Y-90692343D01*
X114069314Y-90604884D01*
X114069300Y-90604881D01*
X114023621Y-90596443D01*
X113802933Y-90555681D01*
X113802930Y-90555680D01*
X113802924Y-90555680D01*
X113532236Y-90545787D01*
X113262986Y-90575413D01*
X113262975Y-90575415D01*
X113000917Y-90643926D01*
X112751610Y-90749870D01*
X112520394Y-90890979D01*
X112520384Y-90890986D01*
X112312180Y-91064253D01*
X112312175Y-91064259D01*
X112131418Y-91265997D01*
X111981957Y-91491907D01*
X111866976Y-91737184D01*
X111866976Y-91737186D01*
X111788942Y-91996557D01*
X111788939Y-91996571D01*
X111778792Y-92065521D01*
X111749500Y-92264561D01*
X111749500Y-92264565D01*
X111749500Y-93067648D01*
X106450500Y-93067648D01*
X106450500Y-93028818D01*
X106411396Y-92769385D01*
X106334063Y-92518677D01*
X106244342Y-92332369D01*
X106220232Y-92282303D01*
X106220231Y-92282302D01*
X106220230Y-92282301D01*
X106220228Y-92282296D01*
X106072433Y-92065521D01*
X106072430Y-92065518D01*
X106072429Y-92065516D01*
X106033101Y-92023130D01*
X106001933Y-91960597D01*
X106000000Y-91938789D01*
X106000000Y-90124000D01*
X106019685Y-90056961D01*
X106072489Y-90011206D01*
X106124000Y-90000000D01*
X197876000Y-90000000D01*
X197943039Y-90019685D01*
G37*
G04 #@! TD.AperFunction*
G04 #@! TA.AperFunction,Conductor*
G36*
X112807414Y-115120386D02*
G01*
X112818319Y-115132971D01*
X112902602Y-115244581D01*
X113053323Y-115381980D01*
X113053325Y-115381982D01*
X113152506Y-115443392D01*
X113226728Y-115489348D01*
X113416909Y-115563024D01*
X113617389Y-115600500D01*
X113617391Y-115600500D01*
X113817384Y-115600500D01*
X113884423Y-115620185D01*
X113930178Y-115672989D01*
X113941272Y-115719236D01*
X113943439Y-115770236D01*
X113926618Y-115838051D01*
X113875804Y-115886006D01*
X113819551Y-115899500D01*
X113617389Y-115899500D01*
X113416909Y-115936976D01*
X113416906Y-115936976D01*
X113416906Y-115936977D01*
X113226729Y-116010651D01*
X113226722Y-116010655D01*
X113053325Y-116118017D01*
X113053323Y-116118019D01*
X112902602Y-116255419D01*
X112818319Y-116367028D01*
X112762210Y-116408664D01*
X112692498Y-116413355D01*
X112631316Y-116379613D01*
X112620411Y-116367028D01*
X112557283Y-116283434D01*
X112536129Y-116255421D01*
X112385406Y-116118019D01*
X112385404Y-116118017D01*
X112212007Y-116010655D01*
X112212000Y-116010651D01*
X112079206Y-115959207D01*
X112021821Y-115936976D01*
X111821341Y-115899500D01*
X111617389Y-115899500D01*
X111416909Y-115936976D01*
X111416906Y-115936976D01*
X111416906Y-115936977D01*
X111226729Y-116010651D01*
X111226722Y-116010655D01*
X111053325Y-116118017D01*
X111053323Y-116118019D01*
X110902602Y-116255418D01*
X110779692Y-116418178D01*
X110688787Y-116600739D01*
X110688782Y-116600752D01*
X110632967Y-116796917D01*
X110614150Y-116999999D01*
X110614150Y-117000000D01*
X110632967Y-117203082D01*
X110688782Y-117399247D01*
X110688787Y-117399260D01*
X110779692Y-117581821D01*
X110869520Y-117700773D01*
X110894212Y-117766135D01*
X110879647Y-117834469D01*
X110830449Y-117884082D01*
X110770566Y-117899500D01*
X110617389Y-117899500D01*
X110416909Y-117936976D01*
X110416906Y-117936976D01*
X110416906Y-117936977D01*
X110226729Y-118010651D01*
X110226722Y-118010655D01*
X110053325Y-118118017D01*
X110053323Y-118118019D01*
X109902602Y-118255419D01*
X109818319Y-118367028D01*
X109762210Y-118408664D01*
X109692498Y-118413355D01*
X109631316Y-118379613D01*
X109620411Y-118367028D01*
X109536127Y-118255419D01*
X109385406Y-118118019D01*
X109385404Y-118118017D01*
X109212007Y-118010655D01*
X109212000Y-118010651D01*
X109116911Y-117973814D01*
X109021821Y-117936976D01*
X108821341Y-117899500D01*
X108668164Y-117899500D01*
X108601125Y-117879815D01*
X108555370Y-117827011D01*
X108545426Y-117757853D01*
X108569210Y-117700773D01*
X108629915Y-117620386D01*
X108659038Y-117581821D01*
X108749947Y-117399250D01*
X108805762Y-117203083D01*
X108824580Y-117000000D01*
X108805762Y-116796917D01*
X108749947Y-116600750D01*
X108749929Y-116600714D01*
X108705637Y-116511764D01*
X108659038Y-116418179D01*
X108600069Y-116340091D01*
X108536127Y-116255418D01*
X108385406Y-116118019D01*
X108385404Y-116118017D01*
X108212007Y-116010655D01*
X108212000Y-116010651D01*
X108079206Y-115959207D01*
X108021821Y-115936976D01*
X107821341Y-115899500D01*
X107617389Y-115899500D01*
X107416909Y-115936976D01*
X107416906Y-115936976D01*
X107416906Y-115936977D01*
X107226729Y-116010651D01*
X107226722Y-116010655D01*
X107053325Y-116118017D01*
X107053323Y-116118019D01*
X106902602Y-116255419D01*
X106818319Y-116367028D01*
X106762210Y-116408664D01*
X106692498Y-116413355D01*
X106631316Y-116379613D01*
X106620411Y-116367028D01*
X106557283Y-116283434D01*
X106536129Y-116255421D01*
X106385406Y-116118019D01*
X106385404Y-116118017D01*
X106212007Y-116010655D01*
X106212000Y-116010651D01*
X106079206Y-115959207D01*
X106023805Y-115916634D01*
X106000214Y-115850867D01*
X106000000Y-115843580D01*
X106000000Y-115656419D01*
X106019685Y-115589380D01*
X106072489Y-115543625D01*
X106079186Y-115540800D01*
X106212002Y-115489348D01*
X106385406Y-115381981D01*
X106536129Y-115244579D01*
X106620411Y-115132970D01*
X106676520Y-115091335D01*
X106746232Y-115086644D01*
X106807414Y-115120386D01*
X106818319Y-115132971D01*
X106902602Y-115244581D01*
X107053323Y-115381980D01*
X107053325Y-115381982D01*
X107152506Y-115443392D01*
X107226728Y-115489348D01*
X107416909Y-115563024D01*
X107617389Y-115600500D01*
X107617391Y-115600500D01*
X107821339Y-115600500D01*
X107821341Y-115600500D01*
X108021821Y-115563024D01*
X108212002Y-115489348D01*
X108385406Y-115381981D01*
X108536129Y-115244579D01*
X108620411Y-115132970D01*
X108676520Y-115091335D01*
X108746232Y-115086644D01*
X108807414Y-115120386D01*
X108818319Y-115132971D01*
X108902602Y-115244581D01*
X109053323Y-115381980D01*
X109053325Y-115381982D01*
X109152506Y-115443392D01*
X109226728Y-115489348D01*
X109416909Y-115563024D01*
X109617389Y-115600500D01*
X109617391Y-115600500D01*
X109821339Y-115600500D01*
X109821341Y-115600500D01*
X110021821Y-115563024D01*
X110212002Y-115489348D01*
X110385406Y-115381981D01*
X110536129Y-115244579D01*
X110620411Y-115132970D01*
X110676520Y-115091335D01*
X110746232Y-115086644D01*
X110807414Y-115120386D01*
X110818319Y-115132971D01*
X110902602Y-115244581D01*
X111053323Y-115381980D01*
X111053325Y-115381982D01*
X111152506Y-115443392D01*
X111226728Y-115489348D01*
X111416909Y-115563024D01*
X111617389Y-115600500D01*
X111617391Y-115600500D01*
X111821339Y-115600500D01*
X111821341Y-115600500D01*
X112021821Y-115563024D01*
X112212002Y-115489348D01*
X112385406Y-115381981D01*
X112536129Y-115244579D01*
X112620411Y-115132970D01*
X112676520Y-115091335D01*
X112746232Y-115086644D01*
X112807414Y-115120386D01*
G37*
G04 #@! TD.AperFunction*
M02*
