M48
; DRILL file {KiCad 7.0.10} date Mon Jan 15 21:06:25 2024
; FORMAT={-:-/ absolute / metric / decimal}
; #@! TF.CreationDate,2024-01-15T21:06:25-07:00
; #@! TF.GenerationSoftware,Kicad,Pcbnew,7.0.10
; #@! TF.FileFunction,Plated,1,4,PTH
FMAT,2
METRIC
; #@! TA.AperFunction,Plated,PTH,ViaDrill
T1C0.400
; #@! TA.AperFunction,Plated,PTH,ComponentDrill
T2C0.700
; #@! TA.AperFunction,Plated,PTH,ComponentDrill
T3C1.400
%
G90
G05
T1
X110.5Y-108.25
X110.5Y-109.5
X112.0Y-108.25
X112.0Y-109.5
X113.5Y-108.25
X113.5Y-109.5
X122.719Y-121.5
X126.719Y-121.5
X130.719Y-121.5
X136.719Y-121.5
X140.719Y-121.5
X144.719Y-121.5
X148.719Y-121.5
X156.719Y-121.5
X160.719Y-121.5
X164.719Y-121.5
X168.719Y-121.5
X172.719Y-121.5
X176.719Y-121.5
X180.719Y-121.5
X184.6Y-103.0
X184.6Y-104.2
X184.6Y-105.6
X184.969Y-121.5
X186.2Y-107.8
X187.2Y-99.6
X192.4Y-93.4
T2
X103.719Y-114.5
X103.719Y-117.0
X104.719Y-112.5
X104.719Y-119.0
X105.719Y-114.5
X105.719Y-117.0
X106.719Y-112.5
X106.719Y-119.0
X107.719Y-114.5
X107.719Y-117.0
X108.719Y-112.5
X108.719Y-119.0
X109.719Y-114.5
X109.719Y-117.0
X110.719Y-112.5
X110.719Y-119.0
X111.719Y-114.5
X111.719Y-117.0
X112.719Y-112.5
X112.719Y-119.0
X113.719Y-114.5
X113.719Y-117.0
X116.719Y-112.5
X116.719Y-119.0
X117.719Y-114.5
X117.719Y-117.0
X118.719Y-112.5
X118.719Y-119.0
X119.719Y-114.5
X119.719Y-117.0
X120.719Y-112.5
X120.719Y-119.0
X121.719Y-114.5
X121.719Y-117.0
X122.719Y-112.5
X122.719Y-119.0
X123.719Y-114.5
X123.719Y-117.0
X124.719Y-112.5
X124.719Y-119.0
X125.719Y-114.5
X125.719Y-117.0
X126.719Y-112.5
X126.719Y-119.0
X127.719Y-114.5
X127.719Y-117.0
X128.719Y-112.5
X128.719Y-119.0
X129.719Y-114.5
X129.719Y-117.0
X130.719Y-112.5
X130.719Y-119.0
X131.719Y-114.5
X131.719Y-117.0
X132.719Y-112.5
X132.719Y-119.0
X133.719Y-114.5
X133.719Y-117.0
X134.719Y-112.5
X134.719Y-119.0
X135.719Y-114.5
X135.719Y-117.0
X136.719Y-112.5
X136.719Y-119.0
X137.719Y-114.5
X137.719Y-117.0
X138.719Y-112.5
X138.719Y-119.0
X139.719Y-114.5
X139.719Y-117.0
X140.719Y-112.5
X140.719Y-119.0
X141.719Y-114.5
X141.719Y-117.0
X142.719Y-112.5
X142.719Y-119.0
X143.719Y-114.5
X143.719Y-117.0
X144.719Y-112.5
X144.719Y-119.0
X145.719Y-114.5
X145.719Y-117.0
X146.719Y-112.5
X146.719Y-119.0
X147.719Y-114.5
X147.719Y-117.0
X148.719Y-112.5
X148.719Y-119.0
X149.719Y-114.5
X149.719Y-117.0
X150.719Y-112.5
X150.719Y-119.0
X151.719Y-114.5
X151.719Y-117.0
X152.719Y-112.5
X152.719Y-119.0
X153.719Y-114.5
X153.719Y-117.0
X154.719Y-112.5
X154.719Y-119.0
X155.719Y-114.5
X155.719Y-117.0
X156.719Y-112.5
X156.719Y-119.0
X157.719Y-114.5
X157.719Y-117.0
X158.719Y-112.5
X158.719Y-119.0
X159.719Y-114.5
X159.719Y-117.0
X160.719Y-112.5
X160.719Y-119.0
X161.719Y-114.5
X161.719Y-117.0
X162.719Y-112.5
X162.719Y-119.0
X163.719Y-114.5
X163.719Y-117.0
X164.719Y-112.5
X164.719Y-119.0
X165.719Y-114.5
X165.719Y-117.0
X166.719Y-112.5
X166.719Y-119.0
X167.719Y-114.5
X167.719Y-117.0
X168.719Y-112.5
X168.719Y-119.0
X169.719Y-114.5
X169.719Y-117.0
X170.719Y-112.5
X170.719Y-119.0
X171.719Y-114.5
X171.719Y-117.0
X172.719Y-112.5
X172.719Y-119.0
X173.719Y-114.5
X173.719Y-117.0
X174.719Y-112.5
X174.719Y-119.0
X175.719Y-114.5
X175.719Y-117.0
X176.719Y-112.5
X176.719Y-119.0
X177.719Y-114.5
X177.719Y-117.0
X178.719Y-112.5
X178.719Y-119.0
X179.719Y-114.5
X179.719Y-117.0
X180.719Y-112.5
X180.719Y-119.0
X181.719Y-114.5
X181.719Y-117.0
X182.719Y-112.5
X182.719Y-119.0
X183.719Y-114.5
X183.719Y-117.0
X184.719Y-112.5
X184.719Y-119.0
X185.719Y-114.5
X185.719Y-117.0
X186.719Y-112.5
X186.719Y-119.0
T3
X109.4Y-92.7
X109.4Y-98.2
X113.6Y-92.7
X113.6Y-98.2
X117.8Y-92.7
X117.8Y-98.2
X122.0Y-92.7
X122.0Y-98.2
X126.2Y-92.7
X126.2Y-98.2
X130.4Y-92.7
X130.4Y-98.2
X134.6Y-92.7
X134.6Y-98.2
X138.8Y-92.7
X138.8Y-98.2
X143.0Y-92.7
X143.0Y-98.2
X147.2Y-92.7
X147.2Y-98.2
X151.4Y-92.7
X151.4Y-98.2
X155.6Y-92.7
X155.6Y-98.2
M30
