G04 #@! TF.GenerationSoftware,KiCad,Pcbnew,7.0.10*
G04 #@! TF.CreationDate,2024-01-15T21:05:21-07:00*
G04 #@! TF.ProjectId,RPI 5 PCIE,52504920-3520-4504-9349-452e6b696361,rev?*
G04 #@! TF.SameCoordinates,Original*
G04 #@! TF.FileFunction,Copper,L4,Bot*
G04 #@! TF.FilePolarity,Positive*
%FSLAX46Y46*%
G04 Gerber Fmt 4.6, Leading zero omitted, Abs format (unit mm)*
G04 Created by KiCad (PCBNEW 7.0.10) date 2024-01-15 21:05:21*
%MOMM*%
%LPD*%
G01*
G04 APERTURE LIST*
G04 Aperture macros list*
%AMRoundRect*
0 Rectangle with rounded corners*
0 $1 Rounding radius*
0 $2 $3 $4 $5 $6 $7 $8 $9 X,Y pos of 4 corners*
0 Add a 4 corners polygon primitive as box body*
4,1,4,$2,$3,$4,$5,$6,$7,$8,$9,$2,$3,0*
0 Add four circle primitives for the rounded corners*
1,1,$1+$1,$2,$3*
1,1,$1+$1,$4,$5*
1,1,$1+$1,$6,$7*
1,1,$1+$1,$8,$9*
0 Add four rect primitives between the rounded corners*
20,1,$1+$1,$2,$3,$4,$5,0*
20,1,$1+$1,$4,$5,$6,$7,0*
20,1,$1+$1,$6,$7,$8,$9,0*
20,1,$1+$1,$8,$9,$2,$3,0*%
G04 Aperture macros list end*
G04 #@! TA.AperFunction,ComponentPad*
%ADD10O,2.700000X3.300000*%
G04 #@! TD*
G04 #@! TA.AperFunction,ComponentPad*
%ADD11RoundRect,0.250001X1.099999X1.399999X-1.099999X1.399999X-1.099999X-1.399999X1.099999X-1.399999X0*%
G04 #@! TD*
G04 #@! TA.AperFunction,ComponentPad*
%ADD12C,1.200000*%
G04 #@! TD*
G04 #@! TA.AperFunction,ComponentPad*
%ADD13R,1.200000X1.200000*%
G04 #@! TD*
G04 #@! TA.AperFunction,ViaPad*
%ADD14C,0.800000*%
G04 #@! TD*
G04 #@! TA.AperFunction,Conductor*
%ADD15C,0.200000*%
G04 #@! TD*
G04 #@! TA.AperFunction,Conductor*
%ADD16C,0.500000*%
G04 #@! TD*
G04 #@! TA.AperFunction,Conductor*
%ADD17C,0.300000*%
G04 #@! TD*
G04 APERTURE END LIST*
D10*
X109400000Y-92700000D03*
X113600000Y-92700000D03*
X117800000Y-92700000D03*
X122000000Y-92700000D03*
X126200000Y-92700000D03*
X130400000Y-92700000D03*
X134600000Y-92700000D03*
X138800000Y-92700000D03*
X143000000Y-92700000D03*
X147200000Y-92700000D03*
X151400000Y-92700000D03*
X155600000Y-92700000D03*
X109400000Y-98200000D03*
X113600000Y-98200000D03*
X117800000Y-98200000D03*
X122000000Y-98200000D03*
X126200000Y-98200000D03*
X130400000Y-98200000D03*
X134600000Y-98200000D03*
X138800000Y-98200000D03*
X143000000Y-98200000D03*
X147200000Y-98200000D03*
X151400000Y-98200000D03*
D11*
X155600000Y-98200000D03*
D12*
X186719365Y-119000000D03*
X185719365Y-117000000D03*
X184719365Y-119000000D03*
X183719365Y-117000000D03*
X182719365Y-119000000D03*
X181719365Y-117000000D03*
X180719365Y-119000000D03*
X179719365Y-117000000D03*
X178719365Y-119000000D03*
X177719365Y-117000000D03*
X176719365Y-119000000D03*
X175719365Y-117000000D03*
X174719365Y-119000000D03*
X173719365Y-117000000D03*
X172719365Y-119000000D03*
X171719365Y-117000000D03*
X170719365Y-119000000D03*
X169719365Y-117000000D03*
X168719365Y-119000000D03*
X167719365Y-117000000D03*
X166719365Y-119000000D03*
X165719365Y-117000000D03*
X164719365Y-119000000D03*
X163719365Y-117000000D03*
X162719365Y-119000000D03*
X161719365Y-117000000D03*
X160719365Y-119000000D03*
X159719365Y-117000000D03*
X158719365Y-119000000D03*
X157719365Y-117000000D03*
X156719365Y-119000000D03*
X155719365Y-117000000D03*
X154719365Y-119000000D03*
X153719365Y-117000000D03*
X152719365Y-119000000D03*
X151719365Y-117000000D03*
X150719365Y-119000000D03*
X149719365Y-117000000D03*
X148719365Y-119000000D03*
X147719365Y-117000000D03*
X146719365Y-119000000D03*
X145719365Y-117000000D03*
X144719365Y-119000000D03*
X143719365Y-117000000D03*
X142719365Y-119000000D03*
X141719365Y-117000000D03*
X140719365Y-119000000D03*
X139719365Y-117000000D03*
X138719365Y-119000000D03*
X137719365Y-117000000D03*
X136719365Y-119000000D03*
X135719365Y-117000000D03*
X134719365Y-119000000D03*
X133719365Y-117000000D03*
X132719365Y-119000000D03*
X131719365Y-117000000D03*
X130719365Y-119000000D03*
X129719365Y-117000000D03*
X128719365Y-119000000D03*
X127719365Y-117000000D03*
X126719365Y-119000000D03*
X125719365Y-117000000D03*
X124719365Y-119000000D03*
X123719365Y-117000000D03*
X122719365Y-119000000D03*
X121719365Y-117000000D03*
X120719365Y-119000000D03*
X119719365Y-117000000D03*
X118719365Y-119000000D03*
X117719365Y-117000000D03*
X116719365Y-119000000D03*
X113719365Y-117000000D03*
X112719365Y-119000000D03*
X111719365Y-117000000D03*
X110719365Y-119000000D03*
X109719365Y-117000000D03*
X108719365Y-119000000D03*
X107719365Y-117000000D03*
X106719365Y-119000000D03*
X105719365Y-117000000D03*
X104719365Y-119000000D03*
X103719365Y-117000000D03*
X186719365Y-112500000D03*
X185719365Y-114500000D03*
X184719365Y-112500000D03*
X183719365Y-114500000D03*
X182719365Y-112500000D03*
X181719365Y-114500000D03*
X180719365Y-112500000D03*
X179719365Y-114500000D03*
X178719365Y-112500000D03*
X177719365Y-114500000D03*
X176719365Y-112500000D03*
X175719365Y-114500000D03*
X174719365Y-112500000D03*
X173719365Y-114500000D03*
X172719365Y-112500000D03*
X171719365Y-114500000D03*
X170719365Y-112500000D03*
X169719365Y-114500000D03*
X168719365Y-112500000D03*
X167719365Y-114500000D03*
X166719365Y-112500000D03*
X165719365Y-114500000D03*
X164719365Y-112500000D03*
X163719365Y-114500000D03*
X162719365Y-112500000D03*
X161719365Y-114500000D03*
X160719365Y-112500000D03*
X159719365Y-114500000D03*
X158719365Y-112500000D03*
X157719365Y-114500000D03*
X156719365Y-112500000D03*
X155719365Y-114500000D03*
X154719365Y-112500000D03*
X153719365Y-114500000D03*
X152719365Y-112500000D03*
X151719365Y-114500000D03*
X150719365Y-112500000D03*
X149719365Y-114500000D03*
X148719365Y-112500000D03*
X147719365Y-114500000D03*
X146719365Y-112500000D03*
X145719365Y-114500000D03*
X144719365Y-112500000D03*
X143719365Y-114500000D03*
X142719365Y-112500000D03*
X141719365Y-114500000D03*
X140719365Y-112500000D03*
X139719365Y-114500000D03*
X138719365Y-112500000D03*
X137719365Y-114500000D03*
X136719365Y-112500000D03*
X135719365Y-114500000D03*
X134719365Y-112500000D03*
X133719365Y-114500000D03*
X132719365Y-112500000D03*
X131719365Y-114500000D03*
X130719365Y-112500000D03*
X129719365Y-114500000D03*
X128719365Y-112500000D03*
X127719365Y-114500000D03*
X126719365Y-112500000D03*
X125719365Y-114500000D03*
X124719365Y-112500000D03*
X123719365Y-114500000D03*
X122719365Y-112500000D03*
X121719365Y-114500000D03*
X120719365Y-112500000D03*
X119719365Y-114500000D03*
X118719365Y-112500000D03*
X117719365Y-114500000D03*
X116719365Y-112500000D03*
X113719365Y-114500000D03*
X112719365Y-112500000D03*
X111719365Y-114500000D03*
X110719365Y-112500000D03*
X109719365Y-114500000D03*
X108719365Y-112500000D03*
X107719365Y-114500000D03*
X106719365Y-112500000D03*
X105719365Y-114500000D03*
X104719365Y-112500000D03*
D13*
X103719365Y-114500000D03*
D14*
X186200000Y-107800000D03*
X184600000Y-105600000D03*
X184600000Y-104200000D03*
X184600000Y-103000000D03*
X192400000Y-93400000D03*
X187200000Y-99600000D03*
X113500000Y-109500000D03*
X112000000Y-109500000D03*
X110500000Y-109500000D03*
X113500000Y-108250000D03*
X112000000Y-108250000D03*
X110500000Y-108250000D03*
X176719365Y-121500000D03*
X172719365Y-121500000D03*
X126719365Y-121500000D03*
X156719365Y-121500000D03*
X168719365Y-121500000D03*
X184969365Y-121500000D03*
X140719365Y-121500000D03*
X164719365Y-121500000D03*
X144719365Y-121500000D03*
X180719365Y-121500000D03*
X136719365Y-121500000D03*
X122719365Y-121500000D03*
X130719365Y-121500000D03*
X148719365Y-121500000D03*
X160719365Y-121500000D03*
D15*
X140200000Y-95400000D02*
X143000000Y-98200000D01*
X137400000Y-95400000D02*
X140200000Y-95400000D01*
X134600000Y-98200000D02*
X137400000Y-95400000D01*
X124200000Y-95400000D02*
X131800000Y-95400000D01*
X122000000Y-93200000D02*
X124200000Y-95400000D01*
X131800000Y-95400000D02*
X134600000Y-98200000D01*
X122000000Y-92700000D02*
X122000000Y-93200000D01*
X113719365Y-112280635D02*
X113719365Y-114500000D01*
X117600000Y-108400000D02*
X113719365Y-112280635D01*
X183000000Y-108400000D02*
X117600000Y-108400000D01*
X185600000Y-105800000D02*
X183000000Y-108400000D01*
X185600000Y-101200000D02*
X185600000Y-105800000D01*
X187200000Y-99600000D02*
X185600000Y-101200000D01*
D16*
X109400000Y-101150000D02*
X111000000Y-102750000D01*
X109400000Y-98250000D02*
X109400000Y-101150000D01*
D17*
X117800000Y-92750000D02*
X113600000Y-92750000D01*
X117800000Y-92750000D02*
X122000000Y-92750000D01*
G04 #@! TA.AperFunction,Conductor*
G36*
X158193039Y-90769685D02*
G01*
X158238794Y-90822489D01*
X158250000Y-90874000D01*
X158250000Y-95250000D01*
X158376000Y-95250000D01*
X158443039Y-95269685D01*
X158488794Y-95322489D01*
X158500000Y-95374000D01*
X158500000Y-101000000D01*
X149250000Y-101000000D01*
X149250000Y-95624000D01*
X149269685Y-95556961D01*
X149322489Y-95511206D01*
X149374000Y-95500000D01*
X153500000Y-95500000D01*
X153500000Y-90874000D01*
X153519685Y-90806961D01*
X153572489Y-90761206D01*
X153624000Y-90750000D01*
X158126000Y-90750000D01*
X158193039Y-90769685D01*
G37*
G04 #@! TD.AperFunction*
G04 #@! TA.AperFunction,Conductor*
G36*
X158500000Y-106876000D02*
G01*
X158480315Y-106943039D01*
X158427511Y-106988794D01*
X158376000Y-107000000D01*
X114250000Y-107000000D01*
X114250000Y-110849401D01*
X114230315Y-110916440D01*
X114213683Y-110937081D01*
X114187085Y-110963680D01*
X114125762Y-110997166D01*
X114099402Y-111000000D01*
X109874000Y-111000000D01*
X109806961Y-110980315D01*
X109761206Y-110927511D01*
X109750000Y-110876000D01*
X109750000Y-101124000D01*
X109769685Y-101056961D01*
X109822489Y-101011206D01*
X109874000Y-101000000D01*
X149250000Y-101000000D01*
X158500000Y-101000000D01*
X158500000Y-106876000D01*
G37*
G04 #@! TD.AperFunction*
M02*
